<svg xmlns="http://www.w3.org/2000/svg" xmlns:xlink="http://www.w3.org/1999/xlink" viewBox="0 0 100 100"><defs><style>.cls-1{fill:#161616;}.cls-2{fill:url(#linear-gradient);}.cls-3{fill:url(#linear-gradient-2);}.cls-4{fill:url(#linear-gradient-3);}</style><linearGradient id="linear-gradient" x1="18.36" y1="52.97" x2="80.48" y2="52.97" gradientUnits="userSpaceOnUse"><stop offset="0.01" stop-color="aqua"/><stop offset="1" stop-color="lime"/></linearGradient><linearGradient id="linear-gradient-2" x1="37.77" y1="52.97" x2="66.95" y2="52.97" xlink:href="#linear-gradient"/><linearGradient id="linear-gradient-3" x1="46.25" y1="52.98" x2="58.47" y2="52.98" xlink:href="#linear-gradient"/></defs><g id="Layer_2" data-name="Layer 2"><g id="Layer_1-2" data-name="Layer 1"><rect class="cls-1" width="100" height="100" rx="8.12"/><path class="cls-2" d="M65.76,74.94H63.32c-2.48,0-2.48,0-2.48-2.52V69.1a18.32,18.32,0,0,1-14.76,1v7.54c0,1.1-.34,1.43-1.45,1.43H36a1.27,1.27,0,0,0-1.1.47,2.81,2.81,0,0,1-3.36.71,2.91,2.91,0,0,1,.68-5.49,2.78,2.78,0,0,1,3.09,1.5,1,1,0,0,0,1.13.69c2.16,0,4.32,0,6.48,0h1V74.2c0-1.51,0-3,0-4.52a1.16,1.16,0,0,0-.46-.82,18.2,18.2,0,0,1-9.22-14.25c0-.2-.26-.52-.42-.53-.88-.06-1.76,0-2.64,0l-.76,0V66.32c0,1.26-.29,1.54-1.56,1.55-1.46,0-2.92,0-4.38,0a1.48,1.48,0,0,0-.93.42,3,3,0,0,1-3.41.86,2.9,2.9,0,0,1-1.75-3,2.94,2.94,0,0,1,2.32-2.56,2.82,2.82,0,0,1,3.14,1.56.84.84,0,0,0,.92.54c1.12,0,2.25,0,3.46,0,0-.29,0-.53,0-.77V53.42c0-1.18.33-1.52,1.52-1.51h4.39A18.85,18.85,0,0,1,36.55,44c-.29,0-.49-.07-.7-.07H32.23c-.87,0-1.24-.39-1.25-1.25s0-1.81,0-2.84H25.46c-1,0-1.37-.35-1.37-1.36,0-3.27,0-6.54,0-9.81a1,1,0,0,0-.54-1,2.81,2.81,0,0,1-1.17-3.23,2.91,2.91,0,1,1,4.38,3.29,1.09,1.09,0,0,0-.49.72c0,3,0,6,0,9a2.51,2.51,0,0,0,.06.3h5c1.56,0,1.77.21,1.77,1.79v2.28c1.63,0,3.2,0,4.77,0,.18,0,.37-.24.51-.4a18.18,18.18,0,0,1,11.54-6.39c.34,0,.64,0,.63-.53,0-2.26,0-4.52,0-6.85a6.71,6.71,0,0,0-.69-.07c-1,0-2,0-2.94,0a2.4,2.4,0,0,0-2.37.94,2.74,2.74,0,0,1-4.14,0,2.92,2.92,0,0,1,.28-4.23,2.84,2.84,0,0,1,4.18.57,1.24,1.24,0,0,0,1.22.61c1.56,0,3.12,0,4.68,0,1.74,0,1.91.18,1.91,1.89V34.7l3.61.43V30.8c0-1.15.33-1.48,1.48-1.48H64c0-1.51,0-2.94,0-4.36,0-.16-.24-.34-.41-.46a2.91,2.91,0,1,1,4.29-3.34,3,3,0,0,1-1.25,3.35,1.23,1.23,0,0,0-.43.83c0,1.59,0,3.17,0,4.76,0,1-.37,1.36-1.37,1.36H58.44c0,1.41,0,2.75,0,4.1,0,.12.17.29.31.35.63.3,1.28.56,2.07.9V35.58c0-1.36.27-1.61,1.65-1.61H73.34c0-1.18,0-2.28,0-3.37,0-.22-.33-.46-.55-.62a2.91,2.91,0,0,1,1.42-5.3,2.91,2.91,0,0,1,2.9,1.76A2.83,2.83,0,0,1,76,30,1.07,1.07,0,0,0,75.48,31c0,1.18,0,2.37,0,3.55s-.32,1.53-1.51,1.53H63c0,.67,0,1.24,0,1.81a1,1,0,0,0,.41.57,18.09,18.09,0,0,1,6.43,9.43c.16.54.41.63.9.63,2.74,0,5.48,0,8.22,0,1.21,0,1.52.31,1.52,1.52V60c0,1.11-.33,1.43-1.45,1.44H76.11v2.79c0,1.81,0,3.62,0,5.43a1.05,1.05,0,0,0,.52,1A2.8,2.8,0,0,1,77.76,74a2.9,2.9,0,0,1-5.55-.11,2.85,2.85,0,0,1,1.29-3.26.89.89,0,0,0,.47-.9c0-3,0-5.94,0-8.9,0-1.25.3-1.54,1.57-1.54h2.75V50.77H70.43a39.42,39.42,0,0,1,0,4.35,17.72,17.72,0,0,1-6.89,12.21A1.24,1.24,0,0,0,63,68.46c0,1.4,0,2.81,0,4.34h3.26c1.56,0,1.8.23,1.8,1.78,0,2,0,4,0,6a1,1,0,0,0,.49,1,2.8,2.8,0,0,1,1.21,3.28,2.91,2.91,0,1,1-4.35-3.31,1.06,1.06,0,0,0,.48-.66c0-1.86,0-3.72,0-5.58A1.27,1.27,0,0,0,65.76,74.94ZM52.35,69a16.06,16.06,0,1,0-16-16.19A16.08,16.08,0,0,0,52.35,69Zm-10-41.76h.34c.19-.3.56-.64.52-.9a1.09,1.09,0,0,0-.78-.66c-.2,0-.63.45-.64.71S42.2,27,42.4,27.27Zm32.88.49V27.4c-.3-.19-.62-.58-.88-.54a1.1,1.1,0,0,0-.7.74c0,.19.42.65.68.67S75,27.94,75.28,27.76Zm.58,45.57,0-.34c-.29-.21-.59-.6-.86-.58a1.07,1.07,0,0,0-.71.72c0,.2.4.66.65.69S75.56,73.51,75.86,73.33Zm-54.79-6h.35c.2-.29.57-.59.56-.87s-.44-.73-.64-.71a1.07,1.07,0,0,0-.76.68C20.53,66.73,20.89,67.06,21.07,67.36ZM32.6,78.45h.34c.2-.29.59-.6.56-.86a1.08,1.08,0,0,0-.72-.72c-.21,0-.67.41-.69.67S32.42,78.15,32.6,78.45ZM66,22.2v-.35c-.29-.2-.59-.55-.87-.54s-.72.45-.69.65a1.05,1.05,0,0,0,.68.75C65.35,22.75,65.68,22.39,66,22.2ZM25.33,24.36H25c-.19.3-.53.61-.51.89s.46.7.65.67a1,1,0,0,0,.74-.69C25.9,25,25.53,24.65,25.33,24.36ZM67.11,83.07h-.35c-.18.29-.52.6-.5.88s.48.71.67.67a1.08,1.08,0,0,0,.74-.7C67.7,83.67,67.31,83.36,67.11,83.07Z"/><path class="cls-3" d="M67,52.94a14.59,14.59,0,1,1-14.7-14.55A14.58,14.58,0,0,1,67,52.94ZM64.8,53A12.44,12.44,0,1,0,52.39,65.42,12.44,12.44,0,0,0,64.8,53Z"/><path class="cls-4" d="M48.15,47.58a5,5,0,0,1-.95,0,1,1,0,0,1-.93-1.09,1,1,0,0,1,1-1c.5,0,1,0,1.57,0,.12-.84-.07-1.89,1.19-1.91.68,0,.91.43,1.07,1.84h1.06c.09-.81-.07-1.84,1.2-1.84.7,0,.92.48,1,2a4.66,4.66,0,0,1,3.24,2.82,3.79,3.79,0,0,1-1.13,4.17c1.53,1.22,2.39,2.71,1.77,4.67a4.84,4.84,0,0,1-3.85,3.19c-.2,1.59-.44,2-1.17,2s-1-.43-1.08-1.83H51.11c-.1.8,0,1.88-1.22,1.81-1.09-.07-1-1-1-1.88H47.5c-.75,0-1.23-.43-1.25-1s.49-1.07,1.26-1.11l.64,0Zm2.25,6.27v4.5H53a6.3,6.3,0,0,0,1,0,2.21,2.21,0,1,0,0-4.42l-.15,0Zm0-2.08a34.62,34.62,0,0,0,3.8-.34,1.86,1.86,0,0,0,1.52-1.83,2.13,2.13,0,0,0-1.57-1.82,1.6,1.6,0,0,0-.51-.13H50.39Z"/></g></g></svg>