<svg xmlns="http://www.w3.org/2000/svg" xmlns:xlink="http://www.w3.org/1999/xlink" viewBox="0 0 100 100"><defs><style>.cls-1{fill:#161616;}.cls-2{fill:url(#linear-gradient);}.cls-3{fill:url(#linear-gradient-2);}.cls-4{fill:url(#linear-gradient-3);}.cls-5{fill:url(#linear-gradient-4);}.cls-6{fill:url(#linear-gradient-5);}.cls-7{fill:url(#linear-gradient-6);}.cls-8{fill:url(#linear-gradient-7);}.cls-9{fill:url(#linear-gradient-8);}.cls-10{fill:url(#linear-gradient-9);}.cls-11{fill:url(#linear-gradient-10);}.cls-12{fill:url(#linear-gradient-11);}.cls-13{fill:#0c0c0c;}.cls-14{fill:url(#linear-gradient-12);}.cls-15{fill:url(#linear-gradient-13);}.cls-16{fill:url(#linear-gradient-14);}.cls-17{fill:url(#linear-gradient-15);}.cls-18{fill:url(#linear-gradient-16);}.cls-19{fill:url(#linear-gradient-17);}.cls-20{fill:url(#linear-gradient-18);}.cls-21{fill:url(#linear-gradient-19);}.cls-22{fill:url(#linear-gradient-20);}.cls-23{fill:url(#linear-gradient-21);}.cls-24{fill:url(#linear-gradient-22);}.cls-25{fill:url(#linear-gradient-23);}.cls-26{fill:url(#linear-gradient-24);}.cls-27{fill:url(#linear-gradient-25);}.cls-28{fill:url(#linear-gradient-26);}.cls-29{fill:url(#linear-gradient-27);}.cls-30{fill:url(#linear-gradient-28);}.cls-31{fill:url(#linear-gradient-29);}.cls-32{fill:url(#linear-gradient-30);}.cls-33{fill:url(#linear-gradient-31);}.cls-34{fill:url(#linear-gradient-32);}</style><linearGradient id="linear-gradient" x1="16.47" y1="42.96" x2="65.24" y2="42.96" gradientUnits="userSpaceOnUse"><stop offset="0.01" stop-color="aqua"/><stop offset="1" stop-color="lime"/></linearGradient><linearGradient id="linear-gradient-2" x1="18.17" y1="52.66" x2="73.31" y2="52.66" xlink:href="#linear-gradient"/><linearGradient id="linear-gradient-3" x1="16.39" y1="27.63" x2="60.56" y2="27.63" xlink:href="#linear-gradient"/><linearGradient id="linear-gradient-4" x1="23.04" y1="71.12" x2="30.63" y2="71.12" xlink:href="#linear-gradient"/><linearGradient id="linear-gradient-5" x1="57.64" y1="10.4" x2="65.86" y2="10.4" xlink:href="#linear-gradient"/><linearGradient id="linear-gradient-6" x1="59.03" y1="10.98" x2="66.67" y2="10.98" xlink:href="#linear-gradient"/><linearGradient id="linear-gradient-7" x1="23.87" y1="77.47" x2="23.96" y2="77.47" xlink:href="#linear-gradient"/><linearGradient id="linear-gradient-8" x1="27.85" y1="43.96" x2="81.92" y2="43.96" xlink:href="#linear-gradient"/><linearGradient id="linear-gradient-9" x1="32.13" y1="84.09" x2="46.32" y2="84.09" xlink:href="#linear-gradient"/><linearGradient id="linear-gradient-10" x1="46.32" y1="83.96" x2="60.46" y2="83.96" xlink:href="#linear-gradient"/><linearGradient id="linear-gradient-11" x1="23.93" y1="71.66" x2="32.09" y2="71.66" xlink:href="#linear-gradient"/><linearGradient id="linear-gradient-12" x1="21.07" y1="23.63" x2="37.16" y2="23.63" xlink:href="#linear-gradient"/><linearGradient id="linear-gradient-13" x1="56.48" y1="45.81" x2="57.64" y2="45.81" xlink:href="#linear-gradient"/><linearGradient id="linear-gradient-14" x1="62.47" y1="50.12" x2="63.66" y2="50.12" xlink:href="#linear-gradient"/><linearGradient id="linear-gradient-15" x1="63.63" y1="50.76" x2="64.28" y2="50.76" xlink:href="#linear-gradient"/><linearGradient id="linear-gradient-16" x1="70.73" y1="34.71" x2="72.55" y2="34.71" xlink:href="#linear-gradient"/><linearGradient id="linear-gradient-17" x1="67.93" y1="43.19" x2="70.22" y2="43.19" xlink:href="#linear-gradient"/><linearGradient id="linear-gradient-18" x1="66.51" y1="46.95" x2="68.54" y2="46.95" xlink:href="#linear-gradient"/><linearGradient id="linear-gradient-19" x1="64.93" y1="47.45" x2="66.55" y2="47.45" xlink:href="#linear-gradient"/><linearGradient id="linear-gradient-20" x1="63.7" y1="56.43" x2="65.74" y2="56.43" xlink:href="#linear-gradient"/><linearGradient id="linear-gradient-21" x1="70.36" y1="39.94" x2="71.57" y2="39.94" xlink:href="#linear-gradient"/><linearGradient id="linear-gradient-22" x1="72.37" y1="35.56" x2="72.93" y2="35.56" xlink:href="#linear-gradient"/><linearGradient id="linear-gradient-23" x1="68.91" y1="43.1" x2="69.65" y2="43.1" xlink:href="#linear-gradient"/><linearGradient id="linear-gradient-24" x1="66.76" y1="59.07" x2="66.87" y2="59.07" xlink:href="#linear-gradient"/><linearGradient id="linear-gradient-25" x1="33.92" y1="15.41" x2="53.98" y2="15.41" xlink:href="#linear-gradient"/><linearGradient id="linear-gradient-26" x1="36.01" y1="20.7" x2="45.12" y2="20.7" xlink:href="#linear-gradient"/><linearGradient id="linear-gradient-27" x1="53.27" y1="17.21" x2="62.03" y2="17.21" xlink:href="#linear-gradient"/><linearGradient id="linear-gradient-28" x1="29.5" y1="43.73" x2="78.53" y2="43.73" xlink:href="#linear-gradient"/><linearGradient id="linear-gradient-29" x1="49.93" y1="23.76" x2="53.07" y2="23.76" xlink:href="#linear-gradient"/><linearGradient id="linear-gradient-30" x1="44.42" y1="20.56" x2="48.69" y2="20.56" xlink:href="#linear-gradient"/><linearGradient id="linear-gradient-31" x1="54.13" y1="23.65" x2="55.59" y2="23.65" xlink:href="#linear-gradient"/><linearGradient id="linear-gradient-32" x1="35.98" y1="19.82" x2="36.01" y2="19.82" xlink:href="#linear-gradient"/></defs><g id="Layer_2" data-name="Layer 2"><g id="Layer_1-2" data-name="Layer 1"><rect class="cls-1" width="100" height="100" rx="8.12"/><path class="cls-2" d="M18.17,50.82a14.27,14.27,0,0,1-.81-2.47,27.06,27.06,0,0,1-.84-4.81,6.55,6.55,0,0,1,0-.88,41,41,0,0,1,1.3-4.35,33.85,33.85,0,0,1,3-6.2c.44-.71.91-1.39,1.37-2.08l.06,0a.66.66,0,0,0,.37.06h1.2a.62.62,0,0,1,.7.64,6.83,6.83,0,0,1,.06.79.68.68,0,0,0,.72.73c.19,0,.32.09.29.28-.06.53-.13,1.09-.67,1.35A1.37,1.37,0,0,0,24,35.25c0,1.29-.17,2.59-.29,3.89a3.55,3.55,0,0,1-.45,1.71,5.92,5.92,0,0,0-.45.91,2.33,2.33,0,0,0-.23,1.68,6.24,6.24,0,0,1,.24,2.15,19.85,19.85,0,0,0,.08,3.27c.11,1.11.23,2.22.25,3.33a1.8,1.8,0,0,0,.51,1.26,2.82,2.82,0,0,0,2.28.79,2.44,2.44,0,0,0,2.36-1.62.52.52,0,0,1,.37-.35A1.69,1.69,0,0,0,30,51.19a5.89,5.89,0,0,1,.32-.54.59.59,0,0,0,.1-.42c-.08-.39.15-.52.46-.61a8.74,8.74,0,0,1,1.89-.35c.55,0,.73-.36.92-.76a18,18,0,0,0,.77-2.13A9.43,9.43,0,0,0,35,44.09a1.53,1.53,0,0,1,1.32-1.52l.51-.15a3.52,3.52,0,0,0,1.52-.73,1.63,1.63,0,0,1,1-.37,2.69,2.69,0,0,0,1.79-.65,5.48,5.48,0,0,1,.49-.35c.86-.64,1.71-1.3,2.53-2a.75.75,0,0,0,.24-.71c0-.26-.33-.16-.49-.25s-.07,0-.1,0a23.89,23.89,0,0,1-2.52-.5c-.43-.11-.56-.25-.55-.68a12.08,12.08,0,0,0-.35-2.68,5.2,5.2,0,0,1-.12-2.65c.3-1,.46-2,.7-3a8,8,0,0,1,.45-1.44c.1-.22.19-.46.44-.56s.26-.07.24.17c0,.45-.06.9-.1,1.35a11.47,11.47,0,0,1-.15,1.54,12.64,12.64,0,0,0-.28,2.81A5.24,5.24,0,0,1,41.41,33c-.15.72-.3,1.44-.44,2.16-.09.42,0,.49.37.53a18.33,18.33,0,0,0,2.67.08,26.35,26.35,0,0,0,3.76-.4,11.15,11.15,0,0,0,2.77-1c.42-.21.46-.46.27-.89a3.36,3.36,0,0,0-.62-.87c-.26-.29-.47-.55-.16-.93.06-.07.13-.19,0-.29s-.21,0-.31,0c-.27.07-.54.16-.82.22a1,1,0,0,1-1.32-.78,7.41,7.41,0,0,1-.36-2.29c0-.31,0-.71.37-.8s.54.26.7.53a3.61,3.61,0,0,1,.45,1.53c.06.68.21.83.87.82a.85.85,0,0,1,.77.45,2.51,2.51,0,0,1,.28.57,1.64,1.64,0,0,0,1.12,1,12.53,12.53,0,0,0,1.81.43.94.94,0,0,1,.68.45,9.85,9.85,0,0,1,.84,1.69,1.37,1.37,0,0,1,.1.85c-.14.63,0,.82.62.94.16,0,.25.08.2.27s0,.21,0,.31c-.26,1.76-.65,3.49-.85,5.25a7,7,0,0,0,0,1.83.26.26,0,0,0,.4.21,5.43,5.43,0,0,1,.88-.23,1.65,1.65,0,0,0,1.41-1.39c0-.23.06-.46.08-.69a.83.83,0,0,1,.71-.84,4.15,4.15,0,0,0,2-1.16,4.6,4.6,0,0,1,1-.79,3.83,3.83,0,0,1,1.93-.62c.53,0,.73.28.58.78,0,.12-.07.24-.11.36a.37.37,0,0,0,.16.49.57.57,0,0,1,.26.57c0,.54,0,1.09-.08,1.64,0,.23,0,.4.31.23s.52,0,.45.38a18.45,18.45,0,0,0-.45,3.3.37.37,0,0,1,0,.18,6.29,6.29,0,0,0-.5,2.3,1.83,1.83,0,0,0,0,.9v.07c-.2.11-.3.36-.54.43,0-.19,0-.39-.08-.59a1.46,1.46,0,0,0-.5-1,.36.36,0,0,0-.49,0,.33.33,0,0,0-.05.46,4.8,4.8,0,0,1,.67,1.58v.07c-.58.51-1.14,1-1.73,1.51A32.42,32.42,0,0,1,42.26,60.1a30.29,30.29,0,0,1-4-.1,35.79,35.79,0,0,1-3.7-.52,31.42,31.42,0,0,1-7.32-2.41,32.18,32.18,0,0,1-5-2.94c-.88-.64-1.74-1.31-2.56-2C19.13,51.66,18.65,51.24,18.17,50.82Zm15.11,2.9a1.25,1.25,0,0,0,.4.94c.42.46.86.46,1.2,0s.89-1,1.31-1.54a7.53,7.53,0,0,0,1.22-1.75,7.29,7.29,0,0,1,.89-1.59,1.8,1.8,0,0,0,.23-.65.18.18,0,0,0,0-.2c-.08-.06-.15,0-.21,0a1.18,1.18,0,0,0-.21.18,6.5,6.5,0,0,1-1,.83,1.49,1.49,0,0,1-1.52.2,2.71,2.71,0,0,0-.43-.1.4.4,0,0,0-.52.42c0,.24,0,.49,0,.73a.68.68,0,0,1-.28.6A2.63,2.63,0,0,0,33.28,53.72Zm24.36-8.09c-.07-.23,0-.49-.16-.7s-.12-.19-.21-.06a6,6,0,0,0-.75,1.35c-.06.2-.08.45.22.55s.58,0,.71-.25A3.81,3.81,0,0,0,57.64,45.63Z"/><path class="cls-3" d="M18.17,50.82c.48.42,1,.84,1.43,1.27.82.73,1.68,1.4,2.56,2a32.18,32.18,0,0,0,5,2.94,31.42,31.42,0,0,0,7.32,2.41,35.79,35.79,0,0,0,3.7.52,30.29,30.29,0,0,0,4,.1,32.29,32.29,0,0,0,19.21-7.33c.59-.48,1.15-1,1.73-1.51a2.52,2.52,0,0,1,.07.72c0,.7,0,1.39,0,2.09a1.74,1.74,0,0,0,.31,1c.22.35.49.35.69,0a1.63,1.63,0,0,0,.23-1.18,1.42,1.42,0,0,1,.28-1.48.52.52,0,0,0,.08-.23,6.61,6.61,0,0,1,.31-1.37,3,3,0,0,0,.18-.5.35.35,0,0,0-.08-.38,1.08,1.08,0,0,1-.3-.44l0-.19c.35-.16.5-.52.75-.77a7.94,7.94,0,0,1,.81-.93l.11,1.3c.43-.58.87-1,1.27-1.46a2.12,2.12,0,0,0,.59-1.79c0-.22-.09-.43-.13-.64a2.75,2.75,0,0,1,.46-.88c.09-.14.1-.35.31-.4s.18,0,.21-.14a4.28,4.28,0,0,0,.28-1.12,2.15,2.15,0,0,0,.57-1l.14-.16a3,3,0,0,0,.72-.61,2.19,2.19,0,0,0,.41-2.06v-.44c.14,0,.14-.14.17-.23.16-.52.3-1,.47-1.56.06-.19,0-.42.24-.55a1.81,1.81,0,0,0,.07.52c.12.33.26.36.49.1a28.36,28.36,0,0,1-5.4,21.78,6.23,6.23,0,0,1-.66.8c-.05,0-.11,0-.11.08h0c-.17,0-.26.12-.37.2a12.63,12.63,0,0,1-1.24.87,5.89,5.89,0,0,0-2.08,2,.55.55,0,0,1-.48.27,3.47,3.47,0,0,0-3,1.39,2.58,2.58,0,0,1-1.28.88,7.06,7.06,0,0,0-2,1.11A3.46,3.46,0,0,1,55,66.5c-.17,0-.32.1-.3.3s.19.22.36.21l.34,0a8.1,8.1,0,0,0,1-.34,6.13,6.13,0,0,1,1.74-.41,28.13,28.13,0,0,1-11.3,3.2,28.46,28.46,0,0,1-11-1.4,34.37,34.37,0,0,1-3.73-1.53l-1.46-.8L29.2,64.8A30.68,30.68,0,0,1,24.58,61a28.35,28.35,0,0,1-6.35-10A1.66,1.66,0,0,1,18.17,50.82ZM66.8,54.93a1,1,0,0,0,.78-.36,7.2,7.2,0,0,0,1.17-1.86,6,6,0,0,1,.63-1.41,1,1,0,0,0,.14-.41.38.38,0,0,0-.23-.41c-.16-.07-.35-.1-.44.05-.27.42-.75.62-1,1a1.83,1.83,0,0,1-1.51.75h-.16c-.15,0-.26.13-.25.29a2.93,2.93,0,0,1-.2,1,1.18,1.18,0,0,0,0,.59A1.24,1.24,0,0,0,66.8,54.93Zm-2.67.74c-.15,0-.34,0-.41.16a.42.42,0,0,0,.2.49,1.13,1.13,0,0,0,.18.12,3.86,3.86,0,0,1,1,.6.87.87,0,0,0,.34.14.26.26,0,0,0,.31-.1c.07-.11,0-.22-.07-.31a5.23,5.23,0,0,1-.39-.42A1.51,1.51,0,0,0,64.13,55.67Z"/><path class="cls-4" d="M22.17,30c-.46.69-.93,1.37-1.37,2.08a33.85,33.85,0,0,0-3,6.2,41,41,0,0,0-1.3,4.35A15.76,15.76,0,0,1,16.42,40,28.49,28.49,0,0,1,37.35,13.6a28.48,28.48,0,0,1,4.76-.87,28.59,28.59,0,0,1,15.24,2.74l.29.12,1.39.76,1.47.89.06.12-.22,0a35.83,35.83,0,0,0-3.84-.94A15,15,0,0,0,54,16L54,16c-.07-.1-.21-.09-.31-.15a.48.48,0,0,1-.23-.61c.19-.34.19-.35-.18-.49a14.32,14.32,0,0,0-2.59-.52c-1.31-.19-2.63-.27-4-.37a1.13,1.13,0,0,0-1,.32,4,4,0,0,1-1,.78c-.09.05-.24.15-.28,0-.09-.41-.32-.31-.56-.18a2.27,2.27,0,0,1-1.26.16.2.2,0,0,1-.21-.11c0-.12.05-.18.13-.23.24-.15.49-.28.73-.44a1.84,1.84,0,0,0,.71-.54l-1,.11c-.28,0-.28,0-.48-.2,0,0-.08,0-.11,0a5.64,5.64,0,0,0-1.36.26c-.1,0-.24.11-.16.22.21.27,0,.37-.19.48.11.16.3.19.42.3s.12.07.09.14a.19.19,0,0,1-.13.07.84.84,0,0,1-.81-.23.32.32,0,0,0-.37,0,9.73,9.73,0,0,0-1.54.86,1,1,0,0,1-1.4-.32.39.39,0,0,0-.58-.17,2.35,2.35,0,0,0-.79.64,1.65,1.65,0,0,1-1.4.56c-.31,0-.41.14-.3.43a1,1,0,0,0,.34.42,1.09,1.09,0,0,0,1.42.08.82.82,0,0,1,.51-.23,6.32,6.32,0,0,0,1.89-.29.49.49,0,0,1,.57.15.42.42,0,0,0,.34.14l.79.07c0,.13-.11.24-.09.37l0,.06a1.8,1.8,0,0,0-.72.2,11,11,0,0,0-1.75.69h-.05a1.19,1.19,0,0,0-.81-.5,8.37,8.37,0,0,0-1.66-.2,2.75,2.75,0,0,1-1.16-.25,1,1,0,0,0-1,0c-.21.12-.41.26-.61.4a3.39,3.39,0,0,1-1.4.61,5.1,5.1,0,0,0-2.64,1.34,8.27,8.27,0,0,1-1.36,1.06A6.4,6.4,0,0,0,24.3,23a5.76,5.76,0,0,1-1,1.24,3.7,3.7,0,0,0-1.36,2.14,8.32,8.32,0,0,1-.7,2.32c-.35.79-.06,1.21.79,1.32Z"/><path class="cls-5" d="M29.2,64.8l1.43.89L30,66.78q-1.35,2.34-2.69,4.68c-.92,1.59-1.85,3.18-2.76,4.78a3.86,3.86,0,0,0-.62,1.19h-.06a1.73,1.73,0,0,1-.48-2.54l5.69-9.84Z"/><path class="cls-6" d="M59,16.35l-1.39-.76,4.62-8c.44-.76.87-1.53,1.32-2.29a1.62,1.62,0,0,1,2.28-.59C65,6.12,64.22,7.52,63.41,8.93c-1.32,2.27-2.63,4.55-3.95,6.83C59.34,16,59.27,16.23,59,16.35Z"/><path class="cls-7" d="M59,16.35c.24-.12.31-.38.43-.59,1.32-2.28,2.63-4.56,3.95-6.83.81-1.41,1.63-2.81,2.45-4.22a1.84,1.84,0,0,1,.49.38,1.86,1.86,0,0,1-.06,2.18C65.85,8,65.45,8.7,65,9.42a1.28,1.28,0,0,0-.21.42c-.61.94-1.15,1.92-1.69,2.9-.34.58-.69,1.15-1,1.74a9.29,9.29,0,0,0-.68,1.24c-.37.47-.59,1-.94,1.52Z"/><path class="cls-8" d="M23.87,77.44h.06l0,0,0,0Z"/><path class="cls-9" d="M63.14,12.74c.54-1,1.08-2,1.69-2.9A37.12,37.12,0,0,1,75.66,20.45,36.67,36.67,0,0,1,81.4,34.9a35.67,35.67,0,0,1,.51,6.92,37.14,37.14,0,0,1-29.46,35.5q-1.56.33-3.15.51c-1,.14-2,.17-3,.25h-3a38.51,38.51,0,0,1-8.6-1.4A36.39,36.39,0,0,1,27.85,74a.43.43,0,0,1,.08-.27c.52-.9,1-1.8,1.57-2.7a29.61,29.61,0,0,0,4.57,2,34.11,34.11,0,0,0,6,1.42,40.4,40.4,0,0,0,4.38.36c.6,0,1.2,0,1.8,0,1.18,0,2.34-.16,3.51-.32A32,32,0,0,0,55.36,73a33.48,33.48,0,0,0,6.49-2.92A34.46,34.46,0,0,0,68.51,65c.41-.39.79-.81,1.18-1.23s.73-.79,1.06-1.2a35.91,35.91,0,0,0,2.72-3.79,31.79,31.79,0,0,0,3.07-6.35A34.08,34.08,0,0,0,78,46.81a32.68,32.68,0,0,0,.47-4.3,32.33,32.33,0,0,0,0-3.41c-.06-1-.14-2-.28-2.91a32.18,32.18,0,0,0-1.11-5A34.51,34.51,0,0,0,74,24.09a35.5,35.5,0,0,0-5.25-6.82c-.47-.49-1-.91-1.48-1.37a33.52,33.52,0,0,0-2.72-2.2C64.06,13.37,63.56,13.12,63.14,12.74Z"/><path class="cls-10" d="M43.29,78.08h3v12H32.73c-.31,0-.46,0-.47-.41a5.47,5.47,0,0,1-.12-1,1.89,1.89,0,0,1,1-1.5,6.33,6.33,0,0,1,2.31-.57,24.21,24.21,0,0,0,3.28-.37,1.48,1.48,0,0,0,1.3-1.55c.06-.72.12-1.44.19-2.16a1.19,1.19,0,0,1,1.08-1.26,4.42,4.42,0,0,0,1.26-.5,1.47,1.47,0,0,0,.69-1.24C43.3,79.05,43.29,78.56,43.29,78.08Z"/><path class="cls-11" d="M46.32,90.08v-12c1-.08,2-.11,3-.25,0,.55,0,1.11,0,1.67a1.49,1.49,0,0,0,.85,1.37,4,4,0,0,0,1.22.43,1,1,0,0,1,.89.86A10.46,10.46,0,0,1,52.45,84a7.53,7.53,0,0,0,.16,1.16,1.29,1.29,0,0,0,1,1,8.66,8.66,0,0,0,1.83.32,19.15,19.15,0,0,1,3.19.38,3.13,3.13,0,0,1,1.09.48,1.89,1.89,0,0,1,.69,2.15.45.45,0,0,0,0,.19c0,.37-.14.4-.46.4H46.32Z"/><path class="cls-12" d="M29.5,71c-.53.9-1.05,1.8-1.57,2.7a.43.43,0,0,0-.08.27c-.11,0-.14.12-.19.2-.47.81-.95,1.63-1.41,2.45a1.7,1.7,0,0,1-2.29.86l0,0a3.86,3.86,0,0,1,.62-1.19c.91-1.6,1.84-3.19,2.76-4.78S29.1,68.34,30,66.78l.63-1.09,1.46.8a15.33,15.33,0,0,0-.88,1.59C30.58,69,30.07,70,29.5,71Z"/><path class="cls-13" d="M54,16,54,16c-.14.16-.36.18-.53.27a.31.31,0,0,0-.18.39c.05.18.2.16.34.14a3.18,3.18,0,0,0,.52-.1,1.18,1.18,0,0,1,1.37.43.49.49,0,0,0,.4.21.67.67,0,0,1,.54.21,1.08,1.08,0,0,0,1,.4,1.26,1.26,0,0,1,.79.17.39.39,0,0,0,.48,0,3.58,3.58,0,0,0,.39-.21,1,1,0,0,1,1-.14c.61.19,1.23.36,1.84.53l.19.12A29.2,29.2,0,0,1,66.9,23a27.87,27.87,0,0,1,4.69,8.22c-.31.16-.25.43-.2.69.17.71.35,1.42.52,2.14,0,.15.12.39-.06.44s-.23-.19-.28-.34c-.17-.48-.33-1-.54-1.41,0-.08-.08-.22-.17-.2s-.12.15-.13.26a6.58,6.58,0,0,0,.09,1.25c.14.94.27,1.89.43,2.83a4.19,4.19,0,0,0,.24,1.25v.44c-.22.15-.21.4-.3.61-.28.68-.55,1.37-.83,2.06l-.14.16a.87.87,0,0,1-.92,0c-.32-.18-.59,0-.71.32a2.69,2.69,0,0,1-.41,1A1.11,1.11,0,0,0,68,43.79,6.2,6.2,0,0,1,68.33,45c-.37.53-.73,1.07-1.11,1.59a3.52,3.52,0,0,1-.71.87,8.32,8.32,0,0,0-.77-1.87,2.82,2.82,0,0,1-.65,1.61c-.07.08,0,.16,0,.24A2.17,2.17,0,0,1,65,48.88a.51.51,0,0,0,0,.42l0,.19c-.13,0-.2.12-.29.21s-.25.38-.46.49a1.83,1.83,0,0,1,0-.9,6.29,6.29,0,0,1,.5-2.3.37.37,0,0,0,0-.18,18.45,18.45,0,0,1,.45-3.3c.07-.39-.1-.55-.45-.38s-.32,0-.31-.23c0-.55,0-1.1.08-1.64a.57.57,0,0,0-.26-.57.37.37,0,0,1-.16-.49c0-.12.07-.24.11-.36.15-.5,0-.79-.58-.78a3.83,3.83,0,0,0-1.93.62,4.6,4.6,0,0,0-1,.79,4.15,4.15,0,0,1-2,1.16.83.83,0,0,0-.71.84c0,.23,0,.46-.08.69a1.65,1.65,0,0,1-1.41,1.39,5.43,5.43,0,0,0-.88.23.26.26,0,0,1-.4-.21,7,7,0,0,1,0-1.83c.2-1.76.59-3.49.85-5.25,0-.1,0-.21,0-.31s0-.24-.2-.27c-.62-.12-.76-.31-.62-.94a1.37,1.37,0,0,0-.1-.85,9.85,9.85,0,0,0-.84-1.69.94.94,0,0,0-.68-.45,12.53,12.53,0,0,1-1.81-.43,1.64,1.64,0,0,1-1.12-1,2.51,2.51,0,0,0-.28-.57.85.85,0,0,0-.77-.45c-.66,0-.81-.14-.87-.82a3.61,3.61,0,0,0-.45-1.53c-.16-.27-.34-.62-.7-.53s-.35.49-.37.8a7.41,7.41,0,0,0,.36,2.29A1,1,0,0,0,49,31.5c.28-.06.55-.15.82-.22.1,0,.23-.06.31,0s0,.22,0,.29c-.31.38-.1.64.16.93a3.36,3.36,0,0,1,.62.87c.19.43.15.68-.27.89a11.15,11.15,0,0,1-2.77,1,26.35,26.35,0,0,1-3.76.4,18.33,18.33,0,0,1-2.67-.08c-.41,0-.46-.11-.37-.53.14-.72.29-1.44.44-2.16a5.24,5.24,0,0,0,.11-1.25,12.64,12.64,0,0,1,.28-2.81A11.47,11.47,0,0,0,42,27.35c0-.45,0-.9.1-1.35,0-.24-.09-.23-.24-.17s-.34.34-.44.56a8,8,0,0,0-.45,1.44c-.24,1-.4,2-.7,3a5.2,5.2,0,0,0,.12,2.65,12.08,12.08,0,0,1,.35,2.68c0,.43.12.57.55.68a23.89,23.89,0,0,0,2.52.5s.07,0,.1,0,.45,0,.49.25a.75.75,0,0,1-.24.71c-.82.7-1.67,1.36-2.53,2a5.48,5.48,0,0,0-.49.35,2.69,2.69,0,0,1-1.79.65,1.63,1.63,0,0,0-1,.37,3.52,3.52,0,0,1-1.52.73l-.51.15A1.53,1.53,0,0,0,35,44.09a9.43,9.43,0,0,1-.54,2.29,18,18,0,0,1-.77,2.13c-.19.4-.37.73-.92.76a8.74,8.74,0,0,0-1.89.35c-.31.09-.54.22-.46.61a.59.59,0,0,1-.1.42,5.89,5.89,0,0,0-.32.54,1.69,1.69,0,0,1-1.26,1.08.52.52,0,0,0-.37.35A2.44,2.44,0,0,1,26,54.24a2.82,2.82,0,0,1-2.28-.79,1.8,1.8,0,0,1-.51-1.26c0-1.11-.14-2.22-.25-3.33a19.85,19.85,0,0,1-.08-3.27,6.24,6.24,0,0,0-.24-2.15,2.33,2.33,0,0,1,.23-1.68,5.92,5.92,0,0,1,.45-.91,3.55,3.55,0,0,0,.45-1.71c.12-1.3.27-2.6.29-3.89a1.37,1.37,0,0,1,.87-1.39c.54-.26.61-.82.67-1.35,0-.19-.1-.29-.29-.28a.68.68,0,0,1-.72-.73,6.83,6.83,0,0,0-.06-.79.62.62,0,0,0-.7-.64H22.6a.66.66,0,0,1-.37-.06,25.33,25.33,0,0,1,2.58-3.17,35.44,35.44,0,0,1,2.79-2.69A36.14,36.14,0,0,1,31,21.53a32.07,32.07,0,0,1,2.81-1.68,27,27,0,0,1,3.32-1.54h.05a1.12,1.12,0,0,1,.13.76c0,.4-.18.56-.59.56a1.15,1.15,0,0,0-.74.19l0,0,0,0a1.09,1.09,0,0,0,0,.25A12.62,12.62,0,0,0,37.11,22c.18.27.53.3.84.36.1,0,.16-.08.2-.17a.66.66,0,0,1,1.24-.09,3.22,3.22,0,0,1,.39.76c.27.72.17.65,1,.66a2,2,0,0,1,1.49.5.58.58,0,0,0,.65.08,3.31,3.31,0,0,0,.56-.29c.39-.27.77-.55,1.15-.83.15-.11.36-.14.5-.32a4,4,0,0,0-.55-.1A1.28,1.28,0,0,1,43.42,22a.69.69,0,0,0-.67-.33c-.41,0-.5-.05-.54-.45s0-.61.34-.77a.7.7,0,0,0,.2-.15c.13-.13.12-.25,0-.37A.5.5,0,0,0,42,20c-.21.22-.39.47-.59.7s-.46.33-.68.19a.53.53,0,0,1-.21-.74c.3-.52.43-1.12.7-1.65a1,1,0,0,0,0-1c-.06-.1-.13-.25-.27-.21s-.1.19-.1.3a6.7,6.7,0,0,1-.06,1.1c0,.18-.1.28-.26.11s-.2-.05-.28,0a4,4,0,0,1-.28.3c-.06.06-.14.09-.21,0s-.06-.51.12-.58.14-.13.1-.26c-.1-.28-.18-.56-.27-.84l0-.06a37,37,0,0,1,5.4-1.22A36.08,36.08,0,0,1,49,15.79,39.32,39.32,0,0,1,54,16Zm-2.42,5.62-.42,0c-.67.11-.84.4-.64,1.06a2.25,2.25,0,0,1,.08.24c.07.22.14.44.2.66.1.43,0,.54-.41.56s-.52.21-.4.58a2.79,2.79,0,0,0,.56.9.93.93,0,0,0,1,.26c.31-.13.26-.42.27-.68s.09-.5.43-.5c.1,0,.21,0,.18-.15s-.08-.48-.27-.56-.3-.35-.4-.58,0-.56.22-.79.37-.13.56,0a.68.68,0,0,0,.28.07c.17,0,.29-.05.23-.29a.79.79,0,0,0-.69-.67Zm-7.14-1.85a.9.9,0,0,0,.62.88c.62.18,1.18.5,1.78.72a.91.91,0,0,1,.49.37,1,1,0,0,0,.54.42c.24.09.36,0,.32-.26a1.21,1.21,0,0,0-.22-.52,1.61,1.61,0,0,1-.26-.6c-.07-.26,0-.4.26-.45a1.4,1.4,0,0,0,.66-.28.18.18,0,0,0,.08-.13c0-.07-.08-.05-.12-.06s-.37-.08-.55-.14c-.55-.18-.55-.18-.81.31a.35.35,0,0,1-.39.21c-.17,0-.23-.12-.26-.29a2.25,2.25,0,0,0-.16-.77c-.1-.2-.23-.26-.39-.09a1.13,1.13,0,0,1-.68.27,5.12,5.12,0,0,0-.68.14C44.51,19.5,44.4,19.59,44.42,19.74Zm11.17,3.81c0-.19-.27-.47-.46-.5a3.19,3.19,0,0,0-1,.45,1.23,1.23,0,0,0,.55.62c.32.22.42.18.61-.16a2,2,0,0,1,.18-.23A1.4,1.4,0,0,0,55.59,23.55Z"/><path class="cls-14" d="M37.16,18.31a27,27,0,0,0-3.32,1.54A32.07,32.07,0,0,0,31,21.53a36.14,36.14,0,0,0-3.43,2.62,35.44,35.44,0,0,0-2.79,2.69A25.33,25.33,0,0,0,22.23,30l-.06,0L22,30c-.85-.11-1.14-.53-.79-1.32a8.32,8.32,0,0,0,.7-2.32,3.7,3.7,0,0,1,1.36-2.14,5.76,5.76,0,0,0,1-1.24,6.4,6.4,0,0,1,2.23-2.19,8.27,8.27,0,0,0,1.36-1.06,5.1,5.1,0,0,1,2.64-1.34,3.39,3.39,0,0,0,1.4-.61c.2-.14.4-.28.61-.4a1,1,0,0,1,1,0,2.75,2.75,0,0,0,1.16.25,8.37,8.37,0,0,1,1.66.2A1.19,1.19,0,0,1,37.16,18.31Z"/><path class="cls-13" d="M33.28,53.72a2.63,2.63,0,0,1,1.06-1.94.68.68,0,0,0,.28-.6c0-.24,0-.49,0-.73a.4.4,0,0,1,.52-.42,2.71,2.71,0,0,1,.43.1,1.49,1.49,0,0,0,1.52-.2,6.5,6.5,0,0,0,1-.83,1.18,1.18,0,0,1,.21-.18c.06-.05.13-.1.21,0a.18.18,0,0,1,0,.2,1.8,1.8,0,0,1-.23.65,7.29,7.29,0,0,0-.89,1.59,7.53,7.53,0,0,1-1.22,1.75c-.42.52-.93,1-1.31,1.54s-.78.51-1.2,0A1.25,1.25,0,0,1,33.28,53.72Z"/><path class="cls-13" d="M64.21,50.19c.21-.11.3-.33.46-.49s.16-.2.29-.21a1.08,1.08,0,0,0,.3.44.35.35,0,0,1,.08.38,3,3,0,0,1-.18.5,6.61,6.61,0,0,0-.31,1.37.52.52,0,0,1-.08.23,1.42,1.42,0,0,0-.28,1.48,1.63,1.63,0,0,1-.23,1.18c-.2.36-.47.36-.69,0a1.74,1.74,0,0,1-.31-1c0-.7,0-1.39,0-2.09a2.52,2.52,0,0,0-.07-.72v-.07c.16-.07.23-.27.42-.31.08.17.12.42.38.37s.27-.31.26-.53a2.32,2.32,0,0,0-.07-.46Z"/><path class="cls-15" d="M57.64,45.63a3.81,3.81,0,0,1-.19.89c-.13.28-.36.36-.71.25s-.28-.35-.22-.55a6,6,0,0,1,.75-1.35c.09-.13.16,0,.21.06S57.57,45.4,57.64,45.63Z"/><path class="cls-16" d="M63.63,50.88c-.19,0-.26.24-.42.31a4.8,4.8,0,0,0-.67-1.58.33.33,0,0,1,.05-.46.36.36,0,0,1,.49,0,1.46,1.46,0,0,1,.5,1c0,.2.06.4.08.59Z"/><path class="cls-17" d="M63.63,50.88l0-.19c.24-.07.34-.32.54-.43a2.32,2.32,0,0,1,.07.46c0,.22,0,.47-.26.53S63.71,51.05,63.63,50.88Z"/><path class="cls-13" d="M66.76,59.11c0,.24-.21.35-.34.5a28.47,28.47,0,0,1-8.17,6.55.59.59,0,0,1-.14.06,6.13,6.13,0,0,0-1.74.41,8.1,8.1,0,0,1-1,.34l-.34,0c-.17,0-.34,0-.36-.21s.13-.26.3-.3a3.46,3.46,0,0,0,1.35-.72,7.06,7.06,0,0,1,2-1.11,2.58,2.58,0,0,0,1.28-.88,3.47,3.47,0,0,1,3-1.39.55.55,0,0,0,.48-.27,5.89,5.89,0,0,1,2.08-2,12.63,12.63,0,0,0,1.24-.87C66.5,59.23,66.59,59.09,66.76,59.11Z"/><path class="cls-13" d="M66.8,54.93a1.24,1.24,0,0,1-1.16-.76,1.18,1.18,0,0,1,0-.59,2.93,2.93,0,0,0,.2-1c0-.16.1-.25.25-.29h.16a1.83,1.83,0,0,0,1.51-.75c.3-.37.78-.57,1-1,.09-.15.28-.12.44-.05a.38.38,0,0,1,.23.41,1,1,0,0,1-.14.41,6,6,0,0,0-.63,1.41,7.2,7.2,0,0,1-1.17,1.86A1,1,0,0,1,66.8,54.93Z"/><path class="cls-18" d="M71.59,31.26a25,25,0,0,1,1,3.24,3,3,0,0,0-.18,1.33c-.21.13-.18.36-.24.55-.17.51-.31,1-.47,1.56,0,.09,0,.22-.17.23a4.19,4.19,0,0,1-.24-1.25C71.09,36,71,35,70.82,34.09a6.58,6.58,0,0,1-.09-1.25c0-.11,0-.24.13-.26s.13.12.17.2c.21.45.37.93.54,1.41.05.15.08.4.28.34s.09-.29.06-.44c-.17-.72-.35-1.43-.52-2.14C71.34,31.69,71.28,31.42,71.59,31.26Z"/><path class="cls-19" d="M68.33,45A6.2,6.2,0,0,0,68,43.79a1.11,1.11,0,0,1,.19-1.08,2.69,2.69,0,0,0,.41-1c.12-.36.39-.5.71-.32a.87.87,0,0,0,.92,0,2.15,2.15,0,0,1-.57,1c-.13.06-.27.11-.4.18-.36.19-.39.29-.3.71a.91.91,0,0,0,.21.37c-.21.05-.22.26-.31.4a2.75,2.75,0,0,0-.46.88Z"/><path class="cls-20" d="M68.33,45h.06c0,.21.1.42.13.64a2.12,2.12,0,0,1-.59,1.79c-.4.45-.84.88-1.27,1.46,0-.5-.07-.9-.11-1.3l0-.14a3.52,3.52,0,0,0,.71-.87C67.6,46.07,68,45.53,68.33,45Z"/><path class="cls-21" d="M66.51,47.46l0,.14a7.94,7.94,0,0,0-.81.93c-.25.25-.4.61-.75.77a.51.51,0,0,1,0-.42,2.17,2.17,0,0,0,.13-1.44c0-.08-.08-.16,0-.24a2.82,2.82,0,0,0,.65-1.61A8.32,8.32,0,0,1,66.51,47.46Z"/><path class="cls-22" d="M64.13,55.67a1.51,1.51,0,0,1,1.12.68,5.23,5.23,0,0,0,.39.42c.08.09.14.2.07.31a.26.26,0,0,1-.31.1.87.87,0,0,1-.34-.14,3.86,3.86,0,0,0-1-.6,1.13,1.13,0,0,1-.18-.12.42.42,0,0,1-.2-.49C63.79,55.63,64,55.7,64.13,55.67Z"/><path class="cls-23" d="M70.36,41.28c.28-.69.55-1.38.83-2.06.09-.21.08-.46.3-.61a2.19,2.19,0,0,1-.41,2.06A3,3,0,0,1,70.36,41.28Z"/><path class="cls-24" d="M72.37,35.83a3,3,0,0,1,.18-1.33,16.37,16.37,0,0,1,.38,2c-.23.26-.37.23-.49-.1A1.81,1.81,0,0,1,72.37,35.83Z"/><path class="cls-25" d="M69.16,43.73a.91.91,0,0,1-.21-.37c-.09-.42-.06-.52.3-.71.13-.07.27-.12.4-.18a4.28,4.28,0,0,1-.28,1.12C69.34,43.69,69.28,43.76,69.16,43.73Z"/><path class="cls-26" d="M66.87,59c0,.06,0,.11-.11.08S66.82,59,66.87,59Z"/><path class="cls-27" d="M54,16a39.32,39.32,0,0,0-5-.18,36.08,36.08,0,0,0-3.88.35,37,37,0,0,0-5.4,1.22c0-.13.07-.24.09-.37L39,16.92a.42.42,0,0,1-.34-.14.49.49,0,0,0-.57-.15,6.32,6.32,0,0,1-1.89.29.82.82,0,0,0-.51.23,1.09,1.09,0,0,1-1.42-.08,1,1,0,0,1-.34-.42c-.11-.29,0-.43.3-.43a1.65,1.65,0,0,0,1.4-.56,2.35,2.35,0,0,1,.79-.64.39.39,0,0,1,.58.17,1,1,0,0,0,1.4.32A9.73,9.73,0,0,1,40,14.65a.32.32,0,0,1,.37,0,.84.84,0,0,0,.81.23.19.19,0,0,0,.13-.07c0-.07,0-.1-.09-.14s-.31-.14-.42-.3c.21-.11.4-.21.19-.48-.08-.11.06-.19.16-.22a5.64,5.64,0,0,1,1.36-.26s.09,0,.11,0c.2.24.2.23.48.2l1-.11a1.84,1.84,0,0,1-.71.54c-.24.16-.49.29-.73.44-.08.05-.17.11-.13.23a.2.2,0,0,0,.21.11A2.27,2.27,0,0,0,44,14.72c.24-.13.47-.23.56.18,0,.18.19.08.28,0a4,4,0,0,0,1-.78,1.13,1.13,0,0,1,1-.32c1.32.1,2.64.18,4,.37a14.32,14.32,0,0,1,2.59.52c.37.14.37.15.18.49a.48.48,0,0,0,.23.61C53.77,15.88,53.91,15.87,54,16Z"/><path class="cls-28" d="M39.68,17.42c.09.28.17.56.27.84,0,.13.06.2-.1.26s-.22.42-.12.58.15.08.21,0a4,4,0,0,0,.28-.3c.08-.09.16-.17.28,0s.22.07.26-.11a6.7,6.7,0,0,0,.06-1.1c0-.11,0-.27.1-.3s.21.11.27.21a1,1,0,0,1,0,1c-.27.53-.4,1.13-.7,1.65a.53.53,0,0,0,.21.74c.22.14.45.07.68-.19s.38-.48.59-.7a.5.5,0,0,1,.73-.06c.16.12.17.24,0,.37a.7.7,0,0,1-.2.15c-.34.16-.37.45-.34.77s.13.48.54.45a.69.69,0,0,1,.67.33,1.28,1.28,0,0,0,1.15.52,4,4,0,0,1,.55.1c-.14.18-.35.21-.5.32-.38.28-.76.56-1.15.83a3.31,3.31,0,0,1-.56.29.58.58,0,0,1-.65-.08,2,2,0,0,0-1.49-.5c-.82,0-.72.06-1-.66a3.22,3.22,0,0,0-.39-.76.66.66,0,0,0-1.24.09c0,.09-.1.19-.2.17-.31-.06-.66-.09-.84-.36a12.62,12.62,0,0,1-1.06-1.9,1.09,1.09,0,0,1,0-.25h0a1.15,1.15,0,0,1,.74-.19c.41,0,.57-.16.59-.56a1.12,1.12,0,0,0-.13-.76A11,11,0,0,1,39,17.62,1.8,1.8,0,0,1,39.68,17.42Z"/><path class="cls-29" d="M60.56,17.36a8.71,8.71,0,0,1,1.47,1c-.61-.17-1.23-.34-1.84-.53a1,1,0,0,0-1,.14,3.58,3.58,0,0,1-.39.21.39.39,0,0,1-.48,0A1.26,1.26,0,0,0,57.5,18a1.08,1.08,0,0,1-1-.4.67.67,0,0,0-.54-.21.49.49,0,0,1-.4-.21,1.18,1.18,0,0,0-1.37-.43,3.18,3.18,0,0,1-.52.1c-.14,0-.29,0-.34-.14a.31.31,0,0,1,.18-.39c.17-.09.39-.11.53-.27a15,15,0,0,1,2.5.34,35.83,35.83,0,0,1,3.84.94Z"/><path class="cls-30" d="M31.21,68.08a34,34,0,0,0,4.43,1.8,30.93,30.93,0,0,0,5.94,1.25,28.38,28.38,0,0,0,4.32.17A30.32,30.32,0,0,0,73.6,50.57a30.24,30.24,0,0,0,1.32-6,28.51,28.51,0,0,0,.16-5.14,29.86,29.86,0,0,0-6.5-17.15,30.23,30.23,0,0,0-7.14-6.54,9.29,9.29,0,0,1,.68-1.24c.33-.59.68-1.16,1-1.74.42.38.92.63,1.36,1a33.52,33.52,0,0,1,2.72,2.2c.49.46,1,.88,1.48,1.37A35.5,35.5,0,0,1,74,24.09a34.51,34.51,0,0,1,3.12,7.13,32.18,32.18,0,0,1,1.11,5c.14,1,.22,1.93.28,2.91a32.33,32.33,0,0,1,0,3.41,32.68,32.68,0,0,1-.47,4.3,34.08,34.08,0,0,1-1.49,5.63,31.79,31.79,0,0,1-3.07,6.35,35.91,35.91,0,0,1-2.72,3.79c-.33.41-.7.81-1.06,1.2s-.77.84-1.18,1.23a34.46,34.46,0,0,1-6.66,5.11A33.48,33.48,0,0,1,55.36,73a32,32,0,0,1-5.63,1.31c-1.17.16-2.33.27-3.51.32-.6,0-1.2.06-1.8,0A40.4,40.4,0,0,1,40,74.36a34.11,34.11,0,0,1-6-1.42,29.61,29.61,0,0,1-4.57-2C30.07,70,30.58,69,31.21,68.08Z"/><path class="cls-31" d="M51.56,21.59l.8.11a.79.79,0,0,1,.69.67c.06.24-.06.28-.23.29a.68.68,0,0,1-.28-.07c-.19-.11-.38-.19-.56,0s-.37.44-.22.79.11.46.4.58.22.35.27.56-.08.16-.18.15c-.34,0-.42.22-.43.5s0,.55-.27.68a.93.93,0,0,1-1-.26,2.79,2.79,0,0,1-.56-.9c-.12-.37,0-.57.4-.58s.51-.13.41-.56c-.06-.22-.13-.44-.2-.66a2.25,2.25,0,0,0-.08-.24c-.2-.66,0-1,.64-1.06Z"/><path class="cls-32" d="M44.42,19.74c0-.15.09-.24.23-.27a5.12,5.12,0,0,1,.68-.14,1.13,1.13,0,0,0,.68-.27c.16-.17.29-.11.39.09a2.25,2.25,0,0,1,.16.77c0,.17.09.27.26.29a.35.35,0,0,0,.39-.21c.26-.49.26-.49.81-.31.18.06.36.09.55.14s.12,0,.12.06a.18.18,0,0,1-.08.13,1.4,1.4,0,0,1-.66.28c-.27.05-.33.19-.26.45a1.61,1.61,0,0,0,.26.6,1.21,1.21,0,0,1,.22.52c0,.25-.08.35-.32.26a1,1,0,0,1-.54-.42.91.91,0,0,0-.49-.37c-.6-.22-1.16-.54-1.78-.72A.9.9,0,0,1,44.42,19.74Z"/><path class="cls-33" d="M55.59,23.55a1.4,1.4,0,0,1-.12.18,2,2,0,0,0-.18.23c-.19.34-.29.38-.61.16a1.23,1.23,0,0,1-.55-.62,3.19,3.19,0,0,1,1-.45C55.32,23.08,55.6,23.36,55.59,23.55Z"/><path class="cls-34" d="M36,19.83l0,0,0,0Z"/></g></g></svg>