<svg xmlns="http://www.w3.org/2000/svg" xmlns:xlink="http://www.w3.org/1999/xlink" viewBox="0 0 100 100"><defs><style>.cls-1{fill:#161616;}.cls-2{fill:url(#linear-gradient);}</style><linearGradient id="linear-gradient" x1="18.31" y1="50" x2="81.69" y2="50" gradientUnits="userSpaceOnUse"><stop offset="0" stop-color="aqua"/><stop offset="1" stop-color="lime"/></linearGradient></defs><g id="Layer_2" data-name="Layer 2"><g id="Layer_1-2" data-name="Layer 1"><rect class="cls-1" width="100" height="100" rx="8.12"/><path class="cls-2" d="M22.36,45.73c-.92,0-1.83,0-2.75,0-.7,0-1.29-.2-1.3-1s.56-1.13,1.32-1.13c1.8,0,3.59,0,5.39,0,.7,0,1.07-.09,1.29-.89a5.52,5.52,0,0,1,2.51-3.38.8.8,0,0,0,.38-1.12q-1.92-5.64-3.77-11.32c-.2-.62-.58-.73-1.13-.83a3.95,3.95,0,1,1,2.12-7.55,3.8,3.8,0,0,1,2.48,3.65,1.09,1.09,0,0,0,.71,1.11q5.24,2.53,10.47,5.11c.49.24.85.33,1.26-.17a4.24,4.24,0,0,1,2-1.28.82.82,0,0,0,.66-.93c0-1-.06-2,0-2.94a1.25,1.25,0,0,0-.84-1.34,3.88,3.88,0,0,1-2.06-4.09,4,4,0,0,1,7.56-.92,3.91,3.91,0,0,1-1.74,5,1.3,1.3,0,0,0-.85,1.43c0,.94,0,1.89,0,2.84,0,.53.13.87.69,1a3.35,3.35,0,0,1,1.75,1c.62.73,1.12.51,1.8.16,2.57-1.34,5.17-2.64,7.77-3.93A1,1,0,0,0,58.82,23a5.69,5.69,0,0,1,3.37-6,5.79,5.79,0,0,1,6.56,1.35,5.64,5.64,0,0,1,.68,6.88,1.12,1.12,0,0,0,.11,1.58c1.35,1.55,2.63,3.16,3.92,4.76a.87.87,0,0,0,1.14.34,5.17,5.17,0,0,1,6.73,3,5.22,5.22,0,0,1-3,6.75,1,1,0,0,0-.73,1.08c.11,3.17.2,6.33.27,9.5a1.16,1.16,0,0,0,.79,1.24,4.74,4.74,0,0,1-3,9,1.07,1.07,0,0,0-1.25.44c-1.28,1.65-2.59,3.28-3.9,4.9a1,1,0,0,0,0,1.39,6.57,6.57,0,0,1,.07,7.94,6.69,6.69,0,0,1-7.46,2.53A6.77,6.77,0,0,1,59,70.12c.28-.6.24-.88-.24-1.3-2.27-2-4.51-4-6.76-6.08a1.66,1.66,0,0,0-2.44.82c-.69,3.72-1.34,7.44-2.06,11.15-.12.63.18.78.6,1a5.36,5.36,0,0,1,.45,9,5.49,5.49,0,0,1-6.18.07A5.33,5.33,0,0,1,40.2,79.1a1.17,1.17,0,0,0-.52-1.52q-2.7-1.86-5.33-3.82a1.15,1.15,0,0,0-1.61,0,6.47,6.47,0,1,1-5.32-11.49c1.17-.25,1.47-.77,1.61-1.84.35-2.84.8-5.68,1.26-8.51.11-.69.06-1.11-.68-1.46a6.06,6.06,0,0,1-3.4-4,.94.94,0,0,0-1.11-.8C24.19,45.76,23.27,45.73,22.36,45.73ZM39.76,31.6c.4-.83-.28-1.17-1-1.54-3.35-1.61-6.68-3.26-10-4.89-.37-.18-.7-.42-1.15,0s-.28.73-.15,1.14c1.22,3.64,2.47,7.29,3.63,11a1.25,1.25,0,0,0,1.46,1.08A6.4,6.4,0,0,1,33.33,51c-.6.08-.83.26-.92.86-.47,3.29-1,6.57-1.47,9.86-.07.45,0,.72.53.92a4,4,0,0,1,1.77,1.15c.75,1,1.39.95,2.44.42,2.93-1.49,6-2.83,8.92-4.24.39-.18.88-.29.81-.94A3.9,3.9,0,0,1,49.72,55a.86.86,0,0,0,.94-.52c1.12-2,2.24-4,3.38-5.95a.87.87,0,0,0,0-1.06,4,4,0,0,1-.46-3.91.85.85,0,0,0-.2-1c-1.56-1.66-3.15-3.31-4.63-5A1.38,1.38,0,0,0,46.89,37,5.3,5.3,0,0,1,39.76,31.6ZM67,27.36a6.74,6.74,0,0,1-3.11.62c-.25,0-.25.36-.32.57-1.35,4.19-2.68,8.38-4,12.57a.86.86,0,0,0,.29,1.09,3.57,3.57,0,0,1,1.24,3.42,1,1,0,0,0,.52,1.09c3.41,2.17,6.83,4.34,10.19,6.59,1.09.73,2,1.36,3.2.23a.14.14,0,0,1,.08,0c.68-.11.75-.56.72-1.15-.08-1.5-.11-3-.16-4.5-.05-1.72-.11-3.45-.14-5.18a.91.91,0,0,0-.71-1,5.13,5.13,0,0,1-2.85-7.62,1,1,0,0,0-.13-1.36c-1.36-1.62-2.7-3.27-4.05-4.9A.88.88,0,0,0,67,27.36ZM57,49.06c-.68-.23-1,.2-1.34.76-1,1.88-2.1,3.76-3.18,5.61a1,1,0,0,0,0,1.24,3.75,3.75,0,0,1,.55,3.44.84.84,0,0,0,.2,1q3.53,3.18,7,6.38c.21.18.39.34.76.1a6.6,6.6,0,0,1,6.46-.71,1,1,0,0,0,1.36-.39c1.27-1.69,2.57-3.36,3.88-5a.9.9,0,0,0,0-1.21A4.11,4.11,0,0,1,72.26,57a1,1,0,0,0-.55-1.29q-5.64-3.61-11.25-7.28a1,1,0,0,0-1.25,0A4,4,0,0,1,57,49.06ZM35.3,68.25a4.42,4.42,0,0,1-.47,2.55c-.21.32-.29.59.15.89,2,1.38,4,2.8,6,4.24a1,1,0,0,0,1.46,0,4.11,4.11,0,0,1,2.16-.86c.57,0,.79-.33.9-.92.62-3.59,1.29-7.17,2-10.75.08-.43.32-.83-.24-1.19s-1-.73-1.73-.35c-2.86,1.41-5.76,2.75-8.65,4.1C35.27,66.69,35.26,66.67,35.3,68.25ZM55.56,41.46c1.4,0,1.8-.34,2.24-1.74q1.68-5.26,3.38-10.53c.59-1.84.58-1.83-.88-3.12a.72.72,0,0,0-.95-.11Q55.17,28.11,51,30.21a1,1,0,0,0-.64,1.13,5,5,0,0,1-.67,3.39.52.52,0,0,0,.06.76c1.76,1.88,3.51,3.78,5.26,5.67A.68.68,0,0,0,55.56,41.46Z"/></g></g></svg>