<svg xmlns="http://www.w3.org/2000/svg" viewBox="0 0 579.22 560.95"><defs><style>.cls-1{fill:#2d2d2d;}</style></defs><g id="Layer_2" data-name="Layer 2"><g id="Layer_1-2" data-name="Layer 1"><path class="cls-1" d="M442.18,214.5c-7.31,7.25-14.59,14.52-22,21.71-1.53,1.5-2.55,2.62-1.35,5,1.09,2.19,2.07,3.95,4.7,2.94,2.24-.87,2.91,2.23,5.07,1.74l-3.62,4c8.65-.36,12.22-2.21,12-6.06a7.81,7.81,0,0,0-8.6-7.14l-.49-.45c1.12-4.71,5.24-4.43,8.53-4.49,4.31-.06,6.19-2.31,7.45-6.07-2.51-1.05-4.33,2.11-6.87,1.25,4.66-3.56,13.87-7,20-7.4-1.27.73-2.07,1.17-2.83,1.64-1.65,1-5.38.59-4.72,3,.89,3.3,1.54,7.85,6.74,8a25.5,25.5,0,0,1,3.47.43c1.69.26,3.48,1.31,3.87,2.53.47,1.48-1.65,2.07-2.84,2.92a13.17,13.17,0,0,0-4.55,5.31l14.59-3.23c-3.61,2.75-7.91,3.48-12,4s-2,2.67-2,4.47c0,2.51,1,2.83,3.38,2.34q28.29-5.85,56.86-10c.27,0,.58.15,1,.67-23.5,5.39-47.23,9.47-71.43,13.15.69-2,2.8-1.26,3.11-2.93-5.42-5.78-9.2,1.84-14.18,1.69-1.23-1,.94-2.24-.05-3.67-1.74.34-3.66.69-5.55,1.1-7.27,1.55-7.27,1.56-5.95,10.07-5.25-4.27-10.31-5.43-16.05.16.73-3.62,1.17-6,1.67-8.28.35-1.63-.76-2.56-1.8-3.25s-1.75.52-2.41,1.16c-8.59,8.35-17.14,16.75-25.73,25.09-1.18,1.14-2.09,2.39-1.3,3.92,1.5,2.92-.16,5.23-1.14,7.7l.06-.06c-3.22.77-3.79,4.22-6,6-3.2-2.34-6.52-4.55-9.58-7.07-3.22-2.65-4.65-2.17-4.55,2.08-5.09,6.95-7.85,15.13-11.85,22.66-4.36,8.22-8.36,16.63-12.29,25.06-1.22,2.61-2.22,2.62-4.2.91-6.55-5.64-13.17-11.19-19.77-16.77-4-4.85-3-10.59-2.85-16.17A70.73,70.73,0,0,0,362,222.21c-2-11.37-6.08-21.92-13.95-30.69.28-2-.67-4.27,1.18-6.37,4.66,8.62,11.26,15.47,16.56,23.27,1.27,1.85,3,3.17,5.46,2.75,7.19-1.23,14.44-2.2,21.55-3.77,13.13-2.9,26.43-4.81,39.64-7.17,7.36-1.31,14.7-2.73,22.63-4.21a8.61,8.61,0,0,0-4.93-1.68c-7.26-.74-14.53-1.34-21.76-2.31-24.48-3.28-48.94-6.76-73.56-8.78-4-.33-7-1.57-7.67-6,.38-.69,1.25-1.58,1.06-2-2.4-5.83-.67-11.83-.81-17.73s0-11.88,0-17.82l1.31-.06v15.65c8-13.32,13.67-27.49,21.73-40.44.11,4.06-1.79,7.4-3.64,10.61-6.28,10.91-10.89,22.65-17.12,33.62-2.55,4.48-1,11.39-.9,17.18,0,1.8,2.4,1.54,3.74,1.74,14.39,2.16,28.81,4.17,43.21,6.29,17.51,2.57,35,5.24,52.5,7.8,4.72.69,9.47,1.16,14.11,1.72l-13,13.37L449,207l3.9-4.41-.47-.75-23.56,13.68c0,1.5,4.11.84,1.53,2.84s-2.2,4.51-2.21,7.08c-2.95-1.26-5.89-2-8.6.22-1.44-1.29.76-3-1.08-4.37-.85,1.52-2.63.73-3.88,1.72-8.21,6.51-17.78,10.82-26.63,16.29a5.83,5.83,0,0,0-2.84,3.81q-2.86,11.84-5.83,23.65c-.29,1.18-.58,2.36.61,3.16,1.45,1,2-.59,2.75-1.24,7-6.44,13.87-13,20.77-19.46.76-.72,2.12-1.21,1.21-2.78-1.1-1.92.75-2.26,1.78-2.7,9.08-3.95,15.08-11.5,21.62-18.41,5.24-3,8.73-7.93,13.32-11.64Z"/><path class="cls-1" d="M206.53,300.82c-4.38-4.56-2.15-9.84-1-14.6,1.46-6,.9-10.33-4.29-14.61a208.09,208.09,0,0,1-19.63-19.1c-4.76-5.1-9.9-6.18-16.92-2.95,2.16-4.2.74-6.84-2.36-8.69,1.08-1.9,3.26-.82,3.55-1.13l-34.78-36.48c2.78-.42,6.25-2.78,7,2.51-2.42,1.72.23,2.37.86,3,9,8.66,18.3,17,27,25.95,2,2.07,4.2-.62,4.67,1,1.08,3.72,4,3.64,8.94,3.93-6,2.59-3.59,4.21-1.66,6,8.61,8.09,17.17,16.24,25.77,24.35,4.43,4.18,8.9,8.31,13.82,12.9,1.33-5.69,2.31-10.69,3.72-15.57.74-2.54.11-3.79-2-5.26C204,251.63,189,241,173.94,230.44c2.71-1.36,5.94.33,8.67-2.25Q199,212.64,216,197.58c4.7-4.19,8.76-9.22,15.18-13v14.92c-8.59,14.82-10.87,30.68-8.26,47.52,4.08,26.3,26.09,50.15,51.87,55.83.83,5.6-.51,11.13-.51,16.7-5.48,4.84-10.88,9.76-16.45,14.48-3.43,2.9-14,.58-15.95-3.37q-9-18.09-18-36.21c.22-2.36.44-4.71.73-7.88C218.06,291.6,211.92,295.71,206.53,300.82Z"/><path class="cls-1" d="M274.26,319.53c0-5.57,1.34-11.1.51-16.7l-.75-2.56c1.35-2.26,1.31-4.77,1-7.21-.11-1,1.35-3.53-1.77-2.71-2.44-1.87-4.7-5-7.35-5.36-8-1.13-15.06-4.25-22.1-7.75l-6.8-7.92c-2.54-7-4.3-14-4.23-21.55.11-12.74-.53-25.49-.86-38.23a3.68,3.68,0,0,0-1.19-3.35l.72-1.87.46-1.2c-.46-1.17.41-2.62-.75-3.64V184.56c-6.42,3.8-10.48,8.83-15.18,13q-16.9,15.07-33.37,30.61c-2.73,2.58-6,.89-8.67,2.25l-35.86-24.67c-.72-5.29-4.19-2.93-7-2.51-2.74-3.07-7.6-4.09-8.67-9.21,10.48-1.54,20.94-3.11,31.41-4.63,14.64-2.12,29.35-3.78,43.88-6.47,8.24-1.53,16.59-1.9,24.82-3.49,8-1.55,8.28-1.74,7.59-9.84-.43-5.1,1.17-10.56-.08-15.35-1.66-6.38,0-12,1.08-18q.93-2.91,1.87-5.82c1.69-4.83,5.76-7.68,9.18-11.08.59-.37,1.19-.72,1.78-1.08l4.23-2a.77.77,0,0,0,.85-.34.6.6,0,0,1,.35-.57l2.67-1a10.87,10.87,0,0,0,6-2.08l1.78,0,.1.1c1,1.2,2.07.57,3.09,0l8.67-.32c3.83.53,4.57-2.51,5.78-5,4.14-8.57,8.3-17.13,12.61-26,1.23,1.85.49,3.07.29,4.33-1.34,8.48-5.62,16.33-5.39,25.15.06,2.16-1.65,2.65-3,3.48h-3a8.42,8.42,0,0,0-7,0c-8.76-.87-16.92,1.89-24.63,5.27-8.83,3.87-13.87,11.41-14.27,21.12s0,19.64.18,29.46c.54,25.34,1.83,50.68,1.59,76-.25,26.53,14.87,36.73,37.69,37.09,4.31.07,5.23,1.35,5.2,5.32-.12,14.14.13,28.29.15,42.44,0,2.56,0,4.71,3.48,4.54,3.05-.15,2.81,2.14,2.83,4.15.24,28,.43,55.92.8,83.89,0,3.45-1.34,4-4.14,3.36l.18-1.4c1.68-25,0-49.91-.22-74.87,0-2.41,1.63-5.14-.86-7.3a14.41,14.41,0,0,0-6.31-.23c-9.49,1.24-18.67,5.42-28.54,3.12l-4.28-7.57a2.62,2.62,0,0,1,2.23-2.3c10.36.06,20.47,2.26,30.67,3.69,2.41.34,4.81,1,7.11-1.33-6.18-1.87-6.21-6.68-6-11.79C275,324.39,275.64,321.84,274.26,319.53Z"/><path class="cls-1" d="M271,120.31c2.25-3.92,5.9-1.54,8.78-1.58,2.14,0,1,2.71,1,4.18.31,7.66.68,8.14,8.61,8.12,3.58,0,7.41.75,10.39-2.22l-.17,0c.73,3.34-1.79,3.38-3.83,3.51-3.13.19-6.29,0-9.75.35,4.55.74,4.59,3.87,4.95,7.36,3.34,31.54,2,63.11.84,94.68-.29,8.13-1.19,16.24-1.52,24.37-.15,3.64-2,5.29-5.18,4.93-3.9-.45-4.06,1.65-3.88,4.37.11,1.66.39,3.3.5,4.95.12,2,1.56,4.52-1.77,5.18-2.45.5-5.16,2.85-7.35-.54-1.22-1.87-3.21-1.36-4.94-1.71-7.12-1.48-14.48-1.94-20.16-7.66-4.24-4.27-7.73-16.5-5.35-21.69.86-1.86,2.17-.54,3.12-.27a128.18,128.18,0,0,0,27.89,4.55c3,.18,7.34,1.78,8.29-3s-1.86-7.36-6.46-8.15a26.92,26.92,0,0,1,0-3c.46-4.15-.87-6.34-5.52-5.7-1.57.22-3.28-.37-4.89-.73-2.6-.58-4.95-.39-6.86,1.7-.55-.79-1-1.62-1.65-2.35a4,4,0,0,0-4.48-1.33c-1.31.54-.49,2.35-.32,3.6.72,5.45.77,5.3-4.73,4.11-3.6-.77-6.72-1.6-6.11-6.32.13-1-.74-2.1,1.06-2.73,4.17-1.48-3.62-.74.69-2.38,4.26.68,9.61,1.66,15,2.38,5.09.68,10.22,1.14,15.34,1.61,3.13.29,6.59.74,8.11-2.94,1.72-4.18,0-7.54-4.62-10-.4-3.18.64-6.5-1-9.55.31-.44,2-.95,1.11-.95-5.39,0-10.9-1.55-16.19.66-2.22.44-1.83,3.38-3.85,4-2.29-5.94-2.29-5.94-9.75-5.66.39,2.31,4.1-.26,4,2.73-.08,2.34,1,5.57-1.27,6.68-2.62,1.31-6.89.68-8.44-1.1-2-2.29-1.13-6.42-.42-9.59.44-1.94,2.9-.89,4.4-.72,9.27,1.07,18.58.67,27.87.86,3.19.06,7,.41,8-3.35s.74-7.69-3.53-9.86c.17-3.21,3.58-7-1.71-9.22.59-.27,1.52-.39,1.71-.83.38-.93-.51-.88-1.1-.82-3.24.37-6.58-.21-9.72,1.08-7.79,1-7.78,1-8,8.27a10.3,10.3,0,0,1-.24,1.44c-4.34-.14-1.48-3.44-2.24-5.15-.64-1.42,1.53-4.23-1.2-4.32s-5.53,1-5.46,4.82c0,1.59.87,4.06-.62,4.62a18.8,18.8,0,0,1-7.84.87c-2.09-.14-1.14-2.35-1.39-3.69-.47-2.5,0-4.4,3.13-4.32-.48-1.36-2.41.12-2.25-1.81.07-.11.19-.55.37-.58a175.3,175.3,0,0,1,31.69-2.3c3.42,0,6.62,0,8.06-3.44a8.16,8.16,0,0,0-1.63-9.2c4.07-11.41,5.09-23.15,1.4-34.63C278.72,126.87,277.2,121.15,271,120.31Zm-20.6,129.52c-.62-.49-1.68-.9-1.91-.2-.38,1.12.82.66,1.4.77,4,1.6,5.6,5.34,4.85,11.09-1.28,9.82-1,10.94,8.73,12.47,10.63,1.68,8.6,3.3,8-6.57,4-2.34,5.82-6.71,4.34-10.89-1.31-3.69-4.69-2.85-7.59-3.1-2.74-.23-5.23.84-7.85,1.08-.84-2.09,2.37-.61,2-2.3-1.79-1.13-3.84-.73-5.76-1.05C254.59,250.77,252.52,250.27,250.43,249.83Z"/><path class="cls-1" d="M331.94,342.17c.95-1,1.9-2,2.84-3.07,4.82-.77,8.8-3.58,13.16-5.46a3.41,3.41,0,0,0,2-2.63c1.91-9.51,4.12-19,5.13-28.64l1-.76-.56-.54-.66,1.11c-1.19,1.1-1.76,2.89-3.6,3.28l5.51-11.67c1.89,1.92,1.09,3.58,1.23,5.12.4,4.21.11,8.7,3.86,11.84,1.55,1.29,1.33,2.67.59,4.42-2.57,6.1-5,12.27-7.4,18.43-.44,1.12-.83,2.32-2.17,2.46-5.49.59-10.19,3.8-14.08,6.77-6.42,4.9-12.08,11.3-11.14,20.75.22,2.21-.31,4.49-.53,7.07-2-1.66-.23-4-1.51-5.53-3.58,11.65,12.55,33.2,26.49,32.25,0,.77-.18,2,1.08,1.43,2.54-1.18,5.16-.46,7.72-.72,3.27-1.53,7.16-.38,10.34-2.56,1-.69,2.15.47,3,1.22,3.61,3.16,7.2,6.35,10.8,9.53-.05,3-1.6,6.94,4.8,5.93-4.93,2.52-1.93,4.85-.79,7.1,1.48,2.91,3.37,5.07,7,2.94,2.5,2.43,6-.5,9.49,2.13-18.47.77-36.13-.24-53.56,2.94,1.45-1.73,3.16-1,4.76-1.09,2.79-.21,5.22-3.73,4.27-7.58,2.74,3.3,5.07,6.1,9.83,3.76-4.64-2.43-8.82-5.69-13.49-6.72-3.43-.76-7.3,2.36-10,4.77-2.43,2.16-3.85,1.34-5.91.31,4.65-1.45,8.4-4.51,12.68-6.55,2.35-1.13,3.13-2.47,1.95-5a71.41,71.41,0,0,1-2.5-7.29c-5.15,5.91-12.75,8.59-16.07,15.9-.53,1.16-1.37.26-1.95-.1-4.33-2.7-9.11-4.74-12.73-8.51q1.59-8.47,3.16-16.95l.21-.28-.28.21c-5.89,2-8,6.6-8.31,12.34-1.9-1.55-2.73-2.63-1.55-5.75,1.46-3.88,3.12-8.42,1.26-12.93l.77-.76,4.63,3.67c3.36-7,3.26-7.23-2.68-11.42-4.73-3.32-9.39-6.74-14.08-10.11a23.92,23.92,0,0,1,4.7-5.63C317.94,355.3,324.89,348.67,331.94,342.17Zm50.7,79.25c-7.23-5.93-14.26-11.65-21.24-17.43a2.32,2.32,0,0,0-2.71-.56c-1,.61-.32,1.81-.34,2.75-.12,5.4,1.8,9.13,7.24,11.35S375.59,424.16,382.64,421.42Z"/><path class="cls-1" d="M347.16,177.28c.68,4.4,3.65,5.64,7.67,6,24.62,2,49.08,5.5,73.56,8.78,7.23,1,14.5,1.57,21.76,2.31a8.61,8.61,0,0,1,4.93,1.68c-7.93,1.48-15.27,2.9-22.63,4.21-13.21,2.36-26.51,4.27-39.64,7.17-7.11,1.57-14.36,2.54-21.55,3.77-2.49.42-4.19-.9-5.46-2.75-5.3-7.8-11.9-14.65-16.56-23.27-1.85,2.1-.9,4.35-1.18,6.37l-.09,3.76,0,4.9q-.07,8-.14,16.08-.44-3-.86-6.07Z"/><path class="cls-1" d="M245.16,346.09c9.87,2.3,19-1.88,28.54-3.12a14.41,14.41,0,0,1,6.31.23c-7,4.12-13.87,8.34-20.91,12.31-2.84,1.61-4.68,3.59-4.82,6.92-2.12.58-2.8,1.42-.51,2.81a.86.86,0,0,1-.7,1.1c-1.24,1.87-1.54,3.77-.13,5.71a8.74,8.74,0,0,1,.94,5.33c-1.49-.71-3-1.33-4.46-2.15-2.42-1.41-4-.66-4.18,2-.29,3.45-.17,6.95-.17,10.43,0,1.17.68,2,1.86,1.7,3.09-.78,6.82-.48,8.22-4.42,1,1.33.85,2.86.79,4.38a10.55,10.55,0,0,0-4.78.89c-5.67,2.27-5.55,2.14-2.07,7.25,2.35,3.44,6.11,6,6.81,10.49l-31.51-25.52c-2.6,7.78,2.46,10.79,7.87,13.58l-.73,1a8.06,8.06,0,0,1-1.81-.82c-4.16-3.33-8.4-4.18-12.87-.58-1,.79-2.12.77-4,.5,2.74-1.55,5-2.74,7.12-4.07,1.24-.77,3.41-1,2.25-3.51-.8-1.74-.56-4.46-2.27-5.16s-3,1.67-4.25,2.85c-8,7.38-17.09,13.53-24.3,21.79-.45.51-1.52.47-2.31.68a7.49,7.49,0,0,1,1.17-4.74c2.33-3.18,2.12-6.46.58-9.84,5.29-4.63,10.7-9.12,15.81-13.94,2.88-2.71,5.48-3.32,9.3-1.85,10,3.85,22-2.15,27.62-11.25C248.09,359.77,246.36,353.17,245.16,346.09Z"/><path class="cls-1" d="M325,465.05c-8.3-.43-16.59-1.18-24.92-.8-2.26.1-2.83-1-2.82-3,.06-8.82.1-17.64,0-26.46,0-2.43,1.13-2.64,3-2.67q25.22-.44,50.42-1c1.95,0,3.54.84,5.22,1.48,20.17,7.69,40.54,14.7,61.75,19a84.84,84.84,0,0,0,15.84,1.69c12.45.16,20.28-5.53,18.36-18.91,3.34,5.9,2,14.12-3.75,17.78-4.08,2.59-3,4.57-.75,7.25a34.07,34.07,0,0,1,4.48,6.33c-3.31-.74-4.8-3.56-6.82-5.68-3.22-3.39-10.45-5.87-14-3.49-2.06,1.39-2.5,1-3.95-.11a6.29,6.29,0,0,0-3.33-.9c-7.13-.34-13.92-2.33-21.44-4.56,1.42,2.49,2.49,4.34,3.85,6.72a4.19,4.19,0,0,1-3.83-3.17c-1.73-4.44-5.73-5.08-9.52-6.14-.92-.26-2.12-.49-2.63.61s.16,1.79.74,2.69c2.59,4,5.09,8.05,7.45,12.18.76,1.32,2.24,2.6,1.09,4.9-5.15-5.6-7.85-12.48-11.65-18.63-1.65-2.67-3.31-4.86-6.61-5.34-5.9-.87-11.11-4-17.47-5.89,4.55,11.39,10.71,21.24,14.6,32.09l-3.4,1.21-.48,0-.45-.17,1.12-.92c2-1.51-.05-2.72-.51-3.74-3.75-8.32-8-16.41-11.47-24.86-2-4.84-5.24-6.58-10.29-7.46,2.49,6.72,6.15,12.5,7.29,20.46-4.27-5.11-5.78-10.22-7.38-15.16-1.47-4.54-3.62-6.69-8.62-4.54.75,2,1.54,4,2.24,6q3.72,10.63,7.39,21.29l-.84,1.23c-.67-1.48-1.45-2.92-2-4.44-2.65-7.31-5.58-14.54-7.68-22-1.1-3.9-3.48-4.35-6.18-3.46-2.94,1-.6,3.26-.2,4.85,1.13,4.5,2.49,8.94,3.75,13.4l-.84.67c-1.24-3.58-2.3-7.23-3.79-10.7-1.63-3.8-.28-11.69-8.79-7,0,0-.31-.65-.55-.71-5.47-1.41-6.06-.65-5,4.92,1,5.23,2.85,10.41,2.05,15.88-1.64-6.77-4.12-13.36-3.95-20.55a17.36,17.36,0,0,0-10.1,4.79c.7-4.31.24-6.31-3.8-4.14-1.16.63-3,.43-4.4.07-2.2-.57-2.36.34-2.33,2.12.09,7,.2,14,0,20.95-.08,3,1.21,3.63,3.83,3.59,3-.06,3.19-1.74,2.81-4a24.52,24.52,0,0,1-.18-9.84c1.87,3.49,1.75,7.35,2.21,11,.31,2.55,1.17,3.41,3.69,3.29,4.52-.23,9.07-1.09,13.53.44C325,464,325,464.54,325,465.05Z"/><path class="cls-1" d="M450,400.31c-5,9.31-12.17,15.4-23.2,15.88-8.33.35-15.36-3-22.11-7.42-1-.68-1.75-2.88-3.73-1.61l.12.11c1.7-1.79-1.41-1.69-1.15-2.91a91.74,91.74,0,0,0-1.4-9.84c-.83-3.33.11-3.82,3.14-3,7,1.95,14,2.5,20.82-1.23,2-1.09,4.73-2.33,6.67-1.32C436.13,392.63,443.66,395.35,450,400.31Z"/><path class="cls-1" d="M111.3,259.35,132.71,262c-2.3-4.52-6.15-6.3-10.83-7.22,6.79-.94,14.36,4.19,21.33-2.84l-31.57-6.74c5.29-1.51,10.07.81,15,1.6a94.58,94.58,0,0,1,13.55,3.07c3.36,1,3.8-1.3,4.43-3.17.83-2.46-1.62-1.92-2.75-2.25-4.1-1.2-8.25-2.2-13.34-3.52,2.79-1.29,4.58-.6,6.34-.14,3,.8,6.07,1.73,9.13,2.5,2.44.62,4.65.22,5.13,4.41.44,3.86,3.29,7.94,8.8,7.61a12.29,12.29,0,0,1,6.42,1,8.21,8.21,0,0,1-4.13,5.79c-4.17,2.39-4,5.7-2.73,9.52a8.25,8.25,0,0,1,.25,5.48c-4.21-.74-7.55-4.63-12-3.58-1.55.37-3.92.67-4.81,3,2.46,1.61,5.35-.22,8.16,1.46a54.85,54.85,0,0,1-16.84.43c0,.73-.14,1.49,0,1.55,6.08,2.54,3.39,8.7,5.36,12.93.44.94-.64,2.05-1,1.74-4.16-3.84-9.25,1-13.75-1.93,1.37-1,4.7-.37,4-3.35-.69-2.76-3.28-3.34-6.25-4.08,2.1-1.77,4.18-.94,5.92-1.32a4.15,4.15,0,0,0,3.47-4.25c0-2.6-2.53-1.32-3.87-1.39-9.29-.46-18.64.5-27.89-1.82,4.28-1.58,8.76-1.27,13.17-.8,7,.75,14.11.51,21.16.52s2.94-5.77,4.2-8.67c1.12-2.59-1.48-3.91-4.13-4.2-7.17-.8-14.32-1.68-21.49-2.52Z"/><path class="cls-1" d="M105.46,430c4.54,4.11,7.45,4.54,12,1.69,1-.6,2.27-.89,2.73-.12,2.48,4.13,6.45,2.55,9.84,2.66,13.63.43,27.78-1.57,40.78,1.45,20.19,4.7,40.32,1.28,60.36,3.2a14.82,14.82,0,0,0,9.27-2.08c3.59-2,8.78-1.07,13.13-2,9.44-2.06,18.87-3.58,28.56-2.46,0,2.12.06,4.24-.12,6.35-.23,2.59,1.28,5.64-1.79,7.57.05-2.48.08-5,.16-7.45.06-1.67,1.2-3.66-2-3.82-3-.16-3.09,1.63-3.25,3.72-.17,2.29.47,4.67-.7,7.29-3-3.2,1.09-6.69-.64-9-2.14-2.91-6,.19-9.25-1.41-2.27-1.1-4.95,2.22-5.67,5.69-1.6-1.33.46-4.12-2.24-4s-5.52,0-5.94,4.24c-.64-1.47-1-3-1.36-3-2.56-.09-5.45-1.44-6.6,2.84-1.75,6.5-2.84,13.31-6.71,19.1-.11-6.7,2.95-12.64,4.39-18.95.62-.45.9-1.27.41-1.66-.72-.6-.83.52-1.27.83-5.44.15-6.94,4.05-8.27,8.38-1.67,5.42-3.65,10.75-5.5,16.11l-1.61,0c1.36-6.68,4.21-12.88,6.16-19.36.38-1.28,1.93-3.25,0-3.76s-4.62-1.55-6.25,1.2c-.6,1-.43,2.73-2.58,2.84l1.31-4.09c-4.17-1.36-6.41-.27-8.09,4.12-3.13,8.2-7,16.1-10.74,24.08-.5,1.08-.5,2.68-3.28,3.3l14.63-32.25c-9.48,0-18.33,0-27.19,0-2,0-2.23,1.8-3,2.93C179.35,452.75,173.73,461.4,168,470c-.85,1.27-1.31,3.13-4.05,3.27,5.93-8.51,10.05-17.61,16.16-25.52,1.18-1.54,3.54-3.76,1.82-5.18s-5.09-2.68-7.35.57c-.5.73-1.54,1.09-2.52,1.75-1-2.18,3.32-4.16-.07-6.12-2.73-1.57-5-1.63-7.59.52-1.58,1.3-1.83-2.18-4.2-1.92-4.9.56-9.93.07-14.9,0-3.16,0-6.33-.1-9.49-.09-4.59,0-9.58-1.28-12.61,3.91-.19.34-1.15.24-1.76.34-.62-2.17,1.88-2.37,1.93-3.91-3.06-.83-5.64-2.47-9.33-.19-3,1.83-6.25-1.39-8.75-3.49-3.09-2.61-5.63-3.21-8.56.19a9.71,9.71,0,0,1-5.19,2.76c2-4.2,6.17-6.13,9.58-8.83Z"/><path class="cls-1" d="M184.15,380.59c-.63,2.31-1.21,4.63-1.9,6.91-.39,1.26-.07,1.56,1.22,1.9,1,.27,1.93-2.12,2.6.05.45,1.47-.7,2.32-1.46,3.41-1.37,2-4.52,2.34-4.7,5.31l0,0c-1.51-1-2.22.56-3.1,1.13-18.25,11.75-34.62,6.14-42-14.31-.59-1.63,0-4.27-2.72-4.78l-.24-1.33c1.43-2.44,2.65-1.84,3.54.35.71,1.77,1.08,3.69,2.75,4.91,1.63,1.75,3.34.91,5,.09,3.87-1.9,7.75-3.81,11.57-5.8,2.53-1.31,5.11-1.71,7.65-.37,5.84,3.07,11.81,2.9,17.88,1C182.06,378.44,183.53,378.37,184.15,380.59Zm-40.31,13.84,1,1c6.83,9,25.88,8.3,34.14-2.85-11.35,7.75-22.28,10.56-33.53,1.65a.37.37,0,0,0-.42-.42c-.73-1-1.46-2-2.18-3-.14-.92-.21-2.1-1.24-2.27-.79-.14-.56.88-.61,1.46C140.36,392.51,142.72,393.07,143.84,394.43Z"/><path class="cls-1" d="M291.48,498.12c-24.11-.84-49.56-1.05-74.48-7-4.32-1-8.75-2-12.38-4.84-1.25-1-3.06-2.07-1.93-4,1.33-2.27,2.52.12,3.58.6,9.68,4.33,20.06,5.85,30.4,7.1a449.76,449.76,0,0,0,74.2,2.87c20.48-.93,41-1.9,60.92-7.54a30.43,30.43,0,0,0,8.17-3.16c.75-.47,1.6-1.48,2.5-.19a2.16,2.16,0,0,1-.19,2.74c-1.77,2.43-4.46,3.44-7.09,4.36-9.28,3.24-18.95,4.77-28.65,5.91C328.68,497.14,310.73,497.75,291.48,498.12Z"/><path class="cls-1" d="M374.91,472.22l3.4-1.21c1.89,2.49,4.89,3.32,7.38,4.89,5,3.16,6.42,6.87,5.41,11.48-.74,3.38-3.69,2.9-5.57,4.13s-4.44,1.78-6.69,2.63a8.38,8.38,0,0,0-4.82,1.78c-8.25,1.88-16.47,3.9-25,4.32l-1,.23-1.34.6-2.87.19c-3.08,1.16-7.7-1.65-9.24,3.57a1.83,1.83,0,0,1-1.22.06c-1.81-4.41-4.39-1.27-6.82-.83-3.53.64-7-1-10.71-.31-2.86.52-4.71.89-4.12,4.78-.13-5.94-4.2-4-7-4.34l-6.41.34c-4.2.9-8.45.66-12.71.64-1.73,0-3.52-.54-5.21.74-1.17.88-2.82,4-3.92-.6-.35-1.5-4.2-.6-6.42-1l-2.27,0c-3.88-.22-7.78-.47-10.79,3.72-.44-5-3.22-3.87-6.79-4.36-5.32-.73-11,.92-16.28-2-1.8-1-5.27-2.54-7.95-.19-1-1.22-2.32-1.32-3.72-1.29-8.43-2.35-16.87-4.64-24.37-9.4-.91-1.31-2.16-2.5-1.5-4.36,7.79,6.34,17.38,8,26.76,9.71,34.05,6.12,68.38,6.39,102.81,4.3a260.7,260.7,0,0,0,48.61-7.12A38.1,38.1,0,0,0,386.64,488c4.5-3,4.53-6.45,0-9.39C382.93,476.17,378.84,474.32,374.91,472.22Z"/><path class="cls-1" d="M282,114.09c1.39-.83,3.1-1.32,3-3.48-.23-8.82,4.05-16.67,5.39-25.15.2-1.26.94-2.48-.29-4.33-4.31,8.89-8.47,17.45-12.61,26-1.21,2.51-1.95,5.55-5.78,5L283,88.3l-.11.11c3.72-5.64,6.15-12,9.13-19.27,5.68,11.45,10.81,21.77,15.92,32.1,1.62,3.27,3.29,6.52,4.7,9.88.56,1.33.83,2.61,2.58,2.09,1.49-.44,1.54-1.66,1.72-3.1a189.41,189.41,0,0,1,3.39-19c1.5,4.66-.47,9.1-.77,13.63a32.89,32.89,0,0,1-.83,5.41c-.46,1.91.17,2.87,2.09,3,6.71.6,12.29,3.93,17.87,7.57a20.48,20.48,0,0,0,2.57-8.42c1.79,4.89-.89,7.86-.61,11.82-8.68-6.23-17.76-9.58-27.79-9.82-8.31-.2-16.63,0-24.95-.07C286,114.29,284,114.16,282,114.09Zm27.07-1.69a1.32,1.32,0,0,0,.78-2q-8.15-16.59-16.3-33.16c2.26,11.93.79,25.12,11.61,34-5.33,2.37-11.1,0-16.5,1.79C295.45,112.9,302.29,114.57,309.05,112.4Z"/><path class="cls-1" d="M450,400.31c-6.3-5-13.83-7.68-20.84-11.32-1.94-1-4.68.23-6.67,1.32-6.8,3.73-13.78,3.18-20.82,1.23-3-.84-4-.35-3.14,3a91.74,91.74,0,0,1,1.4,9.84c-4-7.81-4.69-16.37-5.56-24.88-.22-2.11.51-3,2.5-1.84,4.76,2.68,8.5.84,11.95-2.52,5.1.59,1.14-2.85,1.87-4.2l-.15-.05,1.64.21c12.44,8.79,24.58,18,38.15,25.11C453.31,397.76,450.63,399,450,400.31Z"/><path class="cls-1" d="M453.83,324.25c2.61,7.24,6.34,14.3,7.51,21.76,1.13,7.23,3,14.47,2.83,21.93,0,1.51-.2,2.57,2.38,3.63a135.69,135.69,0,0,1,28.86,16.15c-8.11-4-16.25-7.86-24.31-11.93-6.48-3.28-6.43-3.38-6.92,4-.14,2.13-.24,4.27-.38,6.62-2.63-1.09-2.16-3.07-2.06-5a103.65,103.65,0,0,0-.18-17.44,17.86,17.86,0,0,0-2.18-7.44c.27,4.61.72,9.21.73,13.82,0,2.67,1.2,5.6-1,8-.52-4.38,1.17-8.94-1.13-13.16-1.89-12.49-4.2-24.85-9.77-36.38a145.94,145.94,0,0,0-8.53-15.2c-.63-1-3.16-2.1-1-3.46,1.79-1.15,2.38,1.28,3.12,2.34a109.67,109.67,0,0,1,14.13,30.06c.22.69-.17,1.76,1.42,1.92.56-2.92-1-5.39-1.81-7.88a117.2,117.2,0,0,0-12.75-25.81c-.71-1.11-2.84-2.51-1-3.65,1.67-1,2.25,1.49,3,2.56,1.42,1.93,2.42,3,5.45,3.33,8.19.92,16.48,2.07,24.4,4.68.38.13.62.64,1.22,1.3-8.85.74-16.67-4.23-25.66-2.77,2.5,2.32,1.16,6,3.8,8.08Z"/><path class="cls-1" d="M271,120.31c6.17.84,7.69,6.56,9,10.68,3.69,11.48,2.67,23.22-1.4,34.63-5.92-1.4-11.91-.74-17.7.28-4.74.84-5.49-.71-4.72-4.65.25-1.29.51-2.58.76-3.87,5.47-.35,11-.5,16.39-1.14,2.72-.32,6.26-.16,6.6-4.38,1.65-3.64,1.9-7-2-9.43-3.62-1.64-7.22-1.86-10.78.2-1.89.27-3.77.65-5.68.76-3.12.18-4.07-1.34-3-4.23,1.91-.58,1.62-3.34,4.18-3.66,7.46-.94,9.19-3.65,7.66-11.08.1-1.07.2-2.14.32-3.18,0,0-.15-.23-.15-.23l.16-.29A.45.45,0,0,1,271,120.31Z"/><path class="cls-1" d="M309.42,276.58c4.66-2.26,9.46-2.37,14-3.95,5.47-1.91,3.69-6.34,3.45-9.61s-3.45-2.6-6-2a21,21,0,0,1-4,.33c-2.28.08-4.92,2.61-6.37,1.17-1.21-1.22-.46-4.39-.6-6.7,0-.66-.16-1.31-.23-1.9-4,.58-8,1.42-9.83-4.69,4.19,3.38,8.43,2.31,12.33,1.88,8.2-.9,16.44-1.81,24.34-4.46,2-.68,3.05-.6,3.11,2.17.37,15.82-6.64,25.25-24,27.46C313.63,276.5,311.52,276.48,309.42,276.58Z"/><path class="cls-1" d="M385.73,353.66a27.65,27.65,0,0,1,.32-4.15c.74-3.51,2.11-6.85,5.77-8.12,3.81-1.32,7.24,0,9.93,2.86,6.67,7.11,9.64,15.43,7.19,25.09-1.87,7.41-8.81,9.57-14.56,4.53C388.44,368.67,385.88,361.8,385.73,353.66Zm4.42,7.88c3.93-9.13,4.63-9.38,12.57-4.79.28.17.55.37.83.55.72.45,1.49.88,2.22.11.55-.59-.06-1.17-.19-1.78-.87-4.27-4.14-7-6.71-10.07-2.09-2.49-6.74-1.55-8.78,1.12C387.42,350.17,387.32,356.85,390.15,361.54Z"/><path class="cls-1" d="M241.48,485.54c7.6,0,15.21-.1,22.82,0,30.46.46,60.86,0,90.85-6.33a44.16,44.16,0,0,0,10.8-3.68c2.57-1.29,4.91-.55,6,1.68,1.42,2.92-1.5,3.62-3.39,4.21a142.93,142.93,0,0,1-26.18,5.1c-16.9,2-33.84,1.84-50.77,2C274.83,488.7,258.07,488.05,241.48,485.54Z"/><path class="cls-1" d="M403.14,314.36c1.3-6.19,4-11.91,6-17.84.89-2.56,2.26-2.94,4.47-1.83.74.37,1.57.56,2.32.92,4.22,2,9.17,4.18,11.15,8,2.58,5-4.24,6.92-6.23,10.66-1.76,3.31-4.6,6-7,9-7.58.49-7.57.49-9.77-6.69A18,18,0,0,0,403.14,314.36Z"/><path class="cls-1" d="M332,145.41c-7.9-1-15.79-2.07-23.68-3-1.29-.16-2.29-.26-2.06-2,.81-6,1.57-11.94,2.36-18,1.79.35,1.52,1.63,1.35,2.41-1.05,4.65,2.41,5.67,5.48,7a6.36,6.36,0,0,0,1.43.42c10.53,2,10.53,2,11.49-8.76,9.25,3.81,13.2,11.53,12.43,24.69l-5.55-2.06c1.8-1.38,1.89-3.33,1.74-5.34-.12-1.48-.08-3.18-2.16-3.24-1.85-.05-2.55,1.3-2.69,2.9S332,143.77,332,145.41Z"/><path class="cls-1" d="M201.69,374.45c-2.92,4.78-5.17,10-9.1,14.33-1.92-.32,1.11-3.95-2.67-3.7-1.89.13,0-2.27.68-3.29,7.81-11.78,13.55-24.43,15-38.61.62-6.21.1-12.54.92-18.9,2.43,3.8,1.08,8.25,2.17,13.48,2.41-5.82,0-10.72,1.46-15.43,2.41,5,1.6,10.31,1.12,16.91,2.75-3.88,1.18-7.07,2.31-11.1,3.76,9.22,7.14,17.51,10.53,25.8l-1.06.66c-3.81-4.84-10.17-7.51-11.66-15.63-1.09,13.18-4.81,24.52-9.8,35.49Zm-1.4-3.19a16.57,16.57,0,0,0,3.39-8.71C202.08,365.27,200.46,368,200.29,371.26Z"/><path class="cls-1" d="M297,306.77c0,7.8-.08,15.6,0,23.4,0,2.48-.58,3.8-3.27,3.62-2.32-.15-4.76.25-4.75-3.39.06-15.94.08-31.87-.08-47.81,0-3.57,2.12-2.93,4.22-3,2.36-.11,4,0,3.89,3.3-.25,8-.08,15.93-.08,23.9Z"/><path class="cls-1" d="M331.94,342.17c-7.05,6.5-14,13.13-21.24,19.43a23.92,23.92,0,0,0-4.7,5.63c-3.21-.23-4.86-1.76-5.44-5.12-1.09-6.27-4.14-12.2-3.21-18.83h1.71c-.72,4.26,2.25,3.08,4.33,2.8C312.92,344.84,322.43,343.49,331.94,342.17Z"/><path class="cls-1" d="M386.24,398.78a4.38,4.38,0,0,1,.45,4.46c-6.16-6.44-9-14.73-13.58-21.95l.08,0c-3.52-10.49-7.49-20.88-8.78-32-1.06-9.22-2.31-18.46-.08-27.82,2.82,1.27,1.73,3.69,1.63,5.55a111.42,111.42,0,0,0,4,37c.17.57.05,1.4,1.55,1.48-1.46-8.09-3.44-16-3.9-24.12a67.06,67.06,0,0,1,.2-13.44c.15-1.09-.43-3.17,1.77-2.75,1.81.35.6,1.93.53,2.89a99.2,99.2,0,0,0,12,55.17c2.34,4.33,5.22,8.36,7.84,12.54.66,1.05,2.19,2.23.7,3.39-1.26,1-2.41-.32-3.35-1.25A163.79,163.79,0,0,1,372,368.24,86.4,86.4,0,0,0,386.24,398.78Z"/><path class="cls-1" d="M184.15,380.59c-.62-2.22-2.09-2.15-3.91-1.58-6.07,1.93-12,2.1-17.88-1-2.54-1.34-5.12-.94-7.65.37-3.82,2-7.7,3.9-11.57,5.8-1.66.82-3.37,1.66-5-.09a231.24,231.24,0,0,0,28.68-18.44c3-2.25,6-4.36,3.45-8.86-.69-1.22.69-2.29,1.58-3.82.26,4.07-.38,7.84,1.6,11,2.11,3.39,4.29,6.93,9.39,4.57,2.15-1,3.64-.29,3.2,2.37C185.5,374.19,185.52,377.53,184.15,380.59Z"/><path class="cls-1" d="M297.41,400.24V370.77c.69,2.16,1,3.3,1.42,4.44l.33,1h.74l3,6c2.12,4.39,1.29,9.42,3.22,13.94,5,11.65,14.05,19,24.73,24.93a39.43,39.43,0,0,1,8.19,5.4c-4.5,0-9-.06-13.51,0-8,.12-16,.15-23.91.56-3.43.18-4.92-.69-4.48-4.28.27-2.13.18-4.3.25-6.45,1.81,2.73-.79,6.28,1.65,8.9,1.15-.49,3.48,1.43,3.37-1.7,0-1,.93-1,1.15-.35,1.81,5.09,5.71,1.13,8.46,2,2.09,1,4.51,1.77,4.84-1.45.36-3.64.95-7.66-2.7-10.4-3.69-4.46-7.31-9-9.56-14.39-1.76-4.21-3.69-8.36-5.55-12.53V379C297.32,386.06,299,393.23,297.41,400.24Z"/><path class="cls-1" d="M194.13,347.77a26.48,26.48,0,0,1-5.88,16.76c-3.22,4.23-11,3.18-13.51-1.59a18.33,18.33,0,0,1,8-24.7C188.37,335.49,194.09,340.27,194.13,347.77Zm-3.16,7.8c-.39-5.78,2-10.5-2.66-14.1a5.18,5.18,0,0,0-6.44-.14c-3.29,2.45-5,6-5.33,10.59C184.05,347.57,184.05,347.57,191,355.57Z"/><path class="cls-1" d="M449.86,268.45c1.45-.19,2.91-.34,4.34-.6s3.13-.23,3.05-2.44a3.83,3.83,0,0,0-2.52-3.4c-3.57-1.62-8.51,1.26-8.78,5.26-.15,2.22.12,3.24-2.92,2.27-2-.65-4.71.79-7.09,1.3a10.24,10.24,0,0,1-5.68-.15c1.81-1.73,3.54-1.48,5.05-1.38,2.4.14,3.58-1,3.43-3.14-.16-2.32-2.14-2.07-3.82-2-1.5.1-3,.16-4.49.29a19.23,19.23,0,0,1-4.43.08c2.52-1.82,5.54-1.79,8.39-2.38,2.59-.55,5.8.23,7.25-3.11.13-.28.95-.61,1.08-.49,4.94,4.39,10.22.13,15.3.57,2.61.23,2.43-2.83,4.39-4.37.78,4,3.43,3.09,6.2,2.72a35.31,35.31,0,0,1,8.71.28c-4.81.93-8.73,3.08-11.38,8.26,8.93.79,17.52-2,26.59-.44-7.53,2.15-14.86,1.71-22,3.3-6.55,1.47-13.7.32-20.59.32Z"/><path class="cls-1" d="M433.14,300.2c-10.78-20.51-42.6-23.14-56.54-4.69A49.35,49.35,0,0,0,368.69,312c-.26.9-.26,2.66-2,2.18s-.82-2-.6-2.89a54,54,0,0,1,9-19.66c.92-1.23,2.86-2.09,2.13-4.2l-.06.06c3.86-.16,5.37-3.92,8.49-5.43,16.16-7.83,29.59-2,42.33,7.87,2.1,1.61,3.79,3.77,5.92,5.35,2.39,1.77,2.07,3.67.93,5.85Z"/><path class="cls-1" d="M206.53,300.82c5.39-5.11,11.53-9.22,18.07-14.27-.29,3.17-.51,5.52-.73,7.88-.89,1.39-2.33,2.5-.52,4.47,1.41,1.53.71,3.57-.36,5.27a8.76,8.76,0,0,0-2.11,4.81c-1,6.43-2.33,12.81-3.53,19.21a163.55,163.55,0,0,1-7.55-19.63C208.93,305.91,207.63,303.4,206.53,300.82Z"/><path class="cls-1" d="M147,312.41l3.51-.25a91,91,0,0,0-16.06,38.37c-.58,3.25.11,6.63-1.17,9.78H131.2c-.09-1-.64-2,.43-2.78,0-.6-.09-1.2-.13-1.79-.25.06-.64.05-.72.2-.49.94-.06,1.43.91,1.57-3.13,4-1.8,8.33-.73,12.62l.12,3.31c-2,2.49-2.66-.24-2.84-1.06-1.07-4.76,1.41-9.93-1.66-14.49,4.22-6.6,3.21-14.58,5.74-21.64.56-1.55,1.91-3.48.11-5s-3.46.09-5.1.57c-5.42,1.56-10.8,3.26-16.18,4.94a10.4,10.4,0,0,1-5.35.32c3.75-2.81,7.67-3.77,11.44-4.49,5.76-1.09,11-4.53,17.18-3.72,1.06.14.81-1.19,1.11-1.78,1.46-3,2.45-6.14,4.49-8.81.43.12,1.08.47,1.24.32.67-.66,0-1.1-.44-1.52.17-.71.09-1.54,1-1.9C143.83,314.87,145.27,313.37,147,312.41Zm-8.15,13.68c-1.76,2.3-2.35,5.09-3.29,7.74-1.53,3.81-2.72,7.7-2.26,12q1.48-5.7,3-11.38l3.36-7.77c.65-1.53,2-2.84,1.75-5.16A7.51,7.51,0,0,0,138.85,326.09Z"/><path class="cls-1" d="M169.4,322.28q-5.35-6.48-10.72-13c-1.19-1.43-1.56-2.05.56-3.53,13.47-9.4,13.4-9.51,18.43,5.73a105.12,105.12,0,0,1,4.11,15.8c-1,.32-1.9-.05-1.95-.92-.29-5-3.11-4.52-6.48-3.15a18.13,18.13,0,0,1-2.89.66l.56-.48Z"/><path class="cls-1" d="M331.89,190.22c-9.12,0-18.24-.18-27.36,0-2.87.06-2.16-1.54-2.31-3.12-.35-3.86,2.37-8.23-2-11.69,5.09,3.45,10.71,2.84,16.2,2.89a202.11,202.11,0,0,1,26,2.37c-1.5,2.27-3.29.81-4.41,1.61-3.13.3-6.16-.55-9.23-.87-2.3-.25-3.77.77-3.53,3.44.18,2-.53,4.54,2.91,4.45A5.26,5.26,0,0,1,331.89,190.22Z"/><path class="cls-1" d="M328.2,214.55c-7.42.51-14.85,1-22.27,1.58-2,.17-2-1-2.33-2.33-.84-3.15-.21-6.37-.62-9.52-.2-1.47.88-.91,1.37-.91,12.11.09,24.21,0,36.3-.89.22,0,.47.37.69.55.21,1.75-2.06.79-2.23,2.11-1.78.24-3.66,1-5.3.63-5.33-1.18-6.33,1.45-5.78,5.85C328.15,212.59,328.14,213.57,328.2,214.55Zm-23.71-9.1v.61h17v-.61Z"/><path class="cls-1" d="M328,166.42c-7.12-.5-14.23-1-21.36-1.46-1.42-.09-3,0-2.52-2,1.06-4.79-.8-8.59-4.17-12,5.12,3.74,10.89,2.73,16.25,3.32,8.67,1,17.28,2,25.4,5.94l-9.35-1.87C329.22,160.23,329.22,163.66,328,166.42Z"/><path class="cls-1" d="M400.92,407.16c8.54,9.09,19.19,13.36,31.29,10.67C445,415,451.29,404.89,454.74,393a5.64,5.64,0,0,1,2.75-3.89c-.32,11.54-5.1,20.19-13,27.11-9.73,8.58-20.83,8.57-32,3.23-7.92-3.79-15.63-8.16-19.72-18.27,4.1,1.93,5.18,5.25,8.23,6Z"/><path class="cls-1" d="M207,435.18q-13,0-25.94,0c-1.9,0-4,.08-3.84-2.57.11-2.11,1.86-2.42,3.67-2.39,17.79.2,35.58.37,53.37.61,1.76,0,4-.06,3.77,2.72-.21,2.54-2.21,2.46-4.09,2.45H207Z"/><path class="cls-1" d="M348,200.18c0-1.63,0-3.26,0-4.9,28.88,39,5.81,97.21-42,106l0-2.12c28.31-7.27,45.87-25.06,51.39-53.83,3-15.71-.05-30.71-8.32-44.52C348.88,200.5,348.33,200.39,348,200.18Z"/><path class="cls-1" d="M270.36,124.42c1.53,7.43-.2,10.14-7.66,11.08-2.56.32-2.27,3.08-4.18,3.66-.44-1.47,2.11-4.26-.82-4.21-1.83,0-6.59-1.45-5.76,4,.68,4.46-1.41,7.08-6.23,7.4-2.08.15-4.11,1.11-6.18,1.71-1.69-11.22,2.45-19.62,12.5-25a51,51,0,0,1,0,5.82c-.28,2.28.71,3.09,2.74,3.86,3.71,1.4,6.69-1.25,10-1.3C269.82,131.36,269.83,127.82,270.36,124.42Z"/><path class="cls-1" d="M336.58,235.5c-8.81,3.11-18.09,3.62-27.25,4.57-4,.42-2.17-3.59-3-5.47-1-2.21.47-2.87,2.58-2.5.69.12,1.25-.34,1.62-1.38-3-.78-6.46.73-9-1.7-.47-.46-1.65-.79-.74-1.88.56-.67,1-.43,1.66,0,6.33,4.12,13,.87,19.48.65,5.72-.2,11.39-1.84,17.08-2.84.68-.12,1.7-1,1.85.4.14,1.27-1.07.89-1.8,1-1,.52-1.95,1.36-3,1.51-2.74.39-5.29.6-5,4.45S334.39,235.05,336.58,235.5Z"/><path class="cls-1" d="M391.39,408.23c3.36.3,4.48,2.1,5.87,3.35a56.32,56.32,0,0,0,16,10.73c16.38,6.82,31.68,1.65,40.5-13.71a55.2,55.2,0,0,0,5.15-12.32c.37-1.25.82-2.33,2.31-1.86.94.3.68,1.34.59,2.15-1.73,15-15.91,30.33-30.53,32.2-12,1.53-22-3.7-31-11C397.2,415.28,393.72,412.92,391.39,408.23Z"/><path class="cls-1" d="M186,283.8c-5.58-4.06-10.48-3.89-15.74.68,2.12-6.4-.56-10.77-5.9-15.25,7.25.24,11.84-2.05,12.55-10.25,2.08,3.59,3,6.39,4.88,8.08s5.3,1,9.15,1.67C185.64,272.88,183.37,277.44,186,283.8Z"/><path class="cls-1" d="M433.14,300.2l1.66.88-1.9,4.13A71.28,71.28,0,0,0,420,294.46c-19.11-11.77-38.1-4.76-46.08,17a48.8,48.8,0,0,0-1.83,5.64c-.93,4-1.46-1-2.22-.06l-.94-1.68c1.41-3.34,2.74-6.71,4.26-10,9.65-20.86,29.7-26.32,48.66-13.29a65.78,65.78,0,0,1,9.25,7.56C431.58,300.13,432,301.82,433.14,300.2Z"/><path class="cls-1" d="M219.49,402.67c-2.18,3.9-4.41,7.76-6.49,11.71-.65,1.24-2.58,3.09-.85,3.94s4.59,1.37,6.08-1.37c1.85-3.4,3.69-6.8,5.86-10,.07,3-2,5.07-2.8,7.63-.41,1.32-3,3-.6,4.06,2,.89,4.77,1.39,6.1-2a40.85,40.85,0,0,1,6.28-11c-1.86,4.28-3.73,8.56-5.64,13,2.74.77,4.94,1.07,5.92-2l.86.8c2.42,2.69,5.12,2.67,6.28-.08,1-2.37,1.9-4.78,3.26-8.22.49,4.11-1.34,6.5-1.82,9.2-.25,1.38-2.34,3,.56,3.86,2.11.58,3.75.17,4.5-2.35.82-2.78,1.37-5.72,3.29-8.51.94,4.45-2.56,8-1.25,12.07-.73,1.87-2.24,2.06-3.94,1.81-3.15-2-5.8-4.9-9.9-5l-55.25-.86c-1.71,0-3.47-.39-5.33.62,4.72-1.09,7.2-4.68,10-8.22,1,2.94-1.79,4-2.17,6.05,5.06,1.71,8.43-.07,10.91-4.58,1.36-2.48,2.76-5.27,6.75-5.91-2.29,3.17-4,6.15-6.32,8.57-2.53,2.66-.37,3.2,1.37,3.72,3.35,1,6.47-1.58,9.76-1,4.64.76,5.26-3.11,7-5.67,2.39-3.56,4.6-7.23,6.89-10.85Z"/><path class="cls-1" d="M355.09,302.37c-1,9.67-3.22,19.13-5.13,28.64a3.41,3.41,0,0,1-2,2.63c-4.36,1.88-8.34,4.69-13.16,5.46q8.27-16.82,16.52-33.64c1.84-.39,2.41-2.18,3.6-3.28Z"/><path class="cls-1" d="M412.81,437.38c-1.89-2.07-3.83-4.1-5.64-6.24a2.7,2.7,0,0,0-3.15-.79c-1.85.63-.5,1.85-.33,2.85.32,1.95.62,3.89,1,6.16-2.05.19-3.45-1-4.6-2.16-5.22-5.27-11.76-6.19-18.69-5.95-.74,0-1.93-.32-2.07.66s.89,2,.64,2.76c-.41,1.24-1.67.56-2.53.28s-1-1.88-2.21-1.73c-3.66.44-6.54-1.81-9.86-3.09,17.29-.93,34.47-5.12,51.83-.7-1.81,1.08-4.27.48-5.56,2-2.06,2.46,1.56,3.37,1.89,5.27C413.27,436.94,413,437.16,412.81,437.38Z"/><path class="cls-1" d="M306,299.18c0,.71,0,1.41,0,2.12,0,.92,0,1.83.08,2.75-.1,5.58-1.15,11.32,2.85,16.17-2.37-.12-3.1,1.2-3.06,3.35s-.22,4.27,0,6.37c.4,4.1-1.06,6.69-5.3,7.24-1.34.17-1.63.8-1.44,1.94-.79.9.24,2.84-1.74,3.06-.57-3.8-1.08-7.3,4.75-7.18,2.55.05,1.88-2.65,1.88-4.36,0-14.11.18-28.21-.05-42.31-.06-3.92.61-5.38,5-5.28,8.68.21,17.08-1.51,24.57-6.34l.69.76A90.53,90.53,0,0,1,311,289.16c-4.33,1.38-5.8,3.39-5.12,7.55A20.22,20.22,0,0,1,306,299.18Z"/><path class="cls-1" d="M217.35,328.19c1.2-6.4,2.5-12.78,3.53-19.21a8.76,8.76,0,0,1,2.11-4.81c1.81,3.14,2.1,7.34,6.2,8.86.56.21.94.68.54,1-4.06,3.45.29,5.13,1.51,7.48,1.45,2.78-1.84.79-2,2.34l5.8,4.87c-2.25.78-4,.11-5.7-.08-2.43-.28-2.43-.31-3.37,2.13-.67,1.74-5.35,2.11-7,.41A13,13,0,0,1,217.35,328.19Z"/><path class="cls-1" d="M152.75,303.48c-1.87-.77-1.54-1.71-.34-2.92,9.34-9.39,19.69-16.38,33.85-14.21a21.75,21.75,0,0,1,11.4,5.72c6.84,6.22,10.29,14.18,12.26,23.28-3.55-.2-2.88-3-3.45-4.5-3.9-10.55-10.1-18.59-21.76-21.09-7.32-1.57-13.75.95-20,4.35-1.88,1-3.59,2.37-5.37,3.57C157.15,299.58,154.48,301,152.75,303.48Z"/><path class="cls-1" d="M152.75,303.48c1.73-2.49,4.4-3.9,6.63-5.8,1.69,2.94,2.82-.05,3.75-.6,7.2-4.26,14.56-7.28,23.18-4.94,9.53,2.58,19.26,14.34,19.83,24.13.05.87,0,1.66-1.45,2-.64-1.87-1.27-3.8-1.95-5.72-6.48-18.19-26-23.08-40.75-11.64-2.1,1.62-4.08,3.42-6.06,5.19-1.08,1-2.37,1.71-3.55.78C151,305.85,151.85,304.54,152.75,303.48Z"/><path class="cls-1" d="M179.91,398.17c2.48,0,3.31-2.36,5-3.44.75-.46,1.28-1.83,2.36-.82s-.28,1.57-.81,2.2c-1.13,1.35-2.3,2.65-3.46,4a.73.73,0,0,0,.05-.09c-4.17,2.36-7.74,5.61-12.24,7.51-15,6.29-28.65,1.56-36.26-12.77a33.54,33.54,0,0,1-3.67-9.22c-.22-1.13-1.87-2.76,0-3.42s1.74,1.49,2.11,2.61a40.19,40.19,0,0,0,7.87,14.3c11,12.67,29.72,9.46,39.07-.86Z"/><path class="cls-1" d="M291.1,426.76a1.18,1.18,0,0,1-1.49-.9c1.33-16.59-.13-33.21.59-49.8,1.64-5.71.37-11.56.76-17.34.17-2.44-.52-5.05,1.48-7.12l-.12.35a5.14,5.14,0,0,0,.69,4.29c0,21,0,42,.05,63.06C293.07,422,292.92,424.58,291.1,426.76Z"/><path class="cls-1" d="M280,151.86c-.34,4.22-3.88,4.06-6.6,4.38-5.43.64-10.92.79-16.39,1.14-4.53-.58-7.74.41-6.93,6,.42,2.92-.84,4.25-3.68,4.43-1,.06-1.93.49-2.91.53-1.64.07-4.2,2.64-4.65-.81-.25-2-1.2-5.28,2.44-6.18l-1.44-2.23c8.4-2.78,17-3.93,25.64-4.77C270.35,153.84,275.41,154.26,280,151.86Z"/><path class="cls-1" d="M403.14,314.36a18,18,0,0,1,1,2.24c2.2,7.18,2.19,7.18,9.77,6.69-3.86,6.16-8.27,12-11.29,18.67a4.63,4.63,0,0,1-.84-.17c-3.79-1.62-4.69-3.79-3.41-8.18C400.22,327.3,401,320.64,403.14,314.36Z"/><path class="cls-1" d="M275.35,181c5.29,2.19,1.88,6,1.71,9.22l-19-.08a10.3,10.3,0,0,0,.24-1.44c.19-7.26.18-7.26,8-8.27C269.18,182.2,272.35,180.23,275.35,181Z"/><path class="cls-1" d="M361.59,328.9c.56,7-.17,12.4,1,17.73a3.28,3.28,0,0,1-1.13,3.1,125.45,125.45,0,0,1-12.84,12.49C352.54,351.31,355.82,340.39,361.59,328.9Z"/><path class="cls-1" d="M373.11,381.29c-1,4.17,3.21,6.62,3.54,11.52-8.46-6.92-17.2-12.07-26.87-18.62,7,0,12.6-.07,18.24,0,1.72,0,1.51,1.92,2.22,2.94,1,1.39.38,3.91,2.95,4.17Z"/><path class="cls-1" d="M256.2,210.21c2-.62,1.63-3.56,3.85-4l3.18.27a16.41,16.41,0,0,0,10.61,0h1.29c1.61,3.05.57,6.37,1,9.55-5.12-.25-10.25-.85-15.35-.64C256.52,215.59,255.49,213.89,256.2,210.21Z"/><path class="cls-1" d="M280.18,446.29c3.07-1.94,1.56-5,1.79-7.58.18-2.11.09-4.23.12-6.35,1.49-.15,3-.56,2.92,1.93-.08,9.15-.09,18.3,0,27.44,0,2.59-1.38,2.45-3.14,2.48-6,.12-12,.34-17.94.51l-2-1.35c4.6.42,9.13-1.18,13.76-.4,2.47.41,4-.33,4-3.39C279.67,455.15,280,450.72,280.18,446.29Z"/><path class="cls-1" d="M119.58,423.64c.34-1.28.52-2.8,2.42-2.41,4.45.91,6.93-2,9.73-4.65,3.47-3.29,6.91-6.66,11.47-8.68-3.42,5.11-8.5,8.56-13.08,12.59,8.42,3.25,14.25-1.23,19.79-6.81-.32,3.55-3.31,4.58-4.95,7.33,5.17.18,10.36,1.92,13.93-3.72,1.41,1.91-1.06,2.42-.43,4.31h14.29l0,.75H146.2c-7,0-14,0-20.95-.15-2.55-.06-3.82.58-3.36,3.29C120.11,426.13,120.37,424.22,119.58,423.64Z"/><path class="cls-1" d="M257.82,232.39c1.91-2.09,4.26-2.28,6.86-1.7,1.61.36,3.32.95,4.89.73,4.65-.64,6,1.55,5.52,5.7a26.92,26.92,0,0,0,0,3c-4.6-.34-9.19-.73-13.8-1C256.27,238.8,258.52,234.86,257.82,232.39Z"/><path class="cls-1" d="M294.13,449.82c0,4.82.05,9.64,0,14.46,0,1.35.48,3.39-1.74,3.47-2,.08-1.64-2-1.67-3-.26-10.13-.32-20.27-.46-30.4,0-1.42.49-2.1,2-2.13s1.88.88,1.87,2.19c0,5.15,0,10.3,0,15.45Z"/><path class="cls-1" d="M155.5,424.62c4.65,0,9.31,0,14,0,1.42,0,3.42-.2,3.34,1.92-.07,1.68-1.81,1.62-3.15,1.6l-28.93-.32c-1.43,0-2.68-.07-2.61-2,.08-2.28,1.81-1.48,2.92-1.5,4.82-.08,9.65,0,14.47,0Z"/><path class="cls-1" d="M55.25,285.86c19.34-1.09,38.72-1.75,58.26-1.52C111.44,286.55,63.29,288,55.25,285.86Z"/><path class="cls-1" d="M357,288.36c-.1-4.25,1.33-4.73,4.55-2.08,3.06,2.52,6.38,4.73,9.58,7.07l-5.67,12.19C362.53,299.53,359.77,294,357,288.36Z"/><path class="cls-1" d="M255.9,407.91c-.7-4.5-4.46-7.05-6.81-10.49-3.48-5.11-3.6-5,2.07-7.25a10.55,10.55,0,0,1,4.78-.89c1,5.79,2.07,11.59,3.13,17.38.27,1.44-.11,2.82-1.43,3.22C256.52,410.22,256.72,408.4,255.9,407.91Z"/><path class="cls-1" d="M123.85,230.35c-19.61-4.44-38.46-11.07-57.23-18C86.19,216.88,105.12,223.38,123.85,230.35Z"/><path class="cls-1" d="M244,118.34c-.59.36-1.19.71-1.78,1.08-5.39-18.65-10.85-37.28-14.84-56.31C234.27,81.11,238.35,100,244,118.34Z"/><path class="cls-1" d="M40.41,134.92c14.52,7.64,29.12,15.13,42.18,25.17A249.38,249.38,0,0,1,40.41,134.92Z"/><path class="cls-1" d="M378.83,71.26c-.61,6.66-19.71,51.5-24.06,56.6C361.76,109.06,369.82,90.72,378.83,71.26Z"/><path class="cls-1" d="M402.87,157.5a486.4,486.4,0,0,1,40.94-44.76A487.58,487.58,0,0,1,402.87,157.5Z"/><path class="cls-1" d="M255.15,384.9c-1.4,3.94-5.13,3.64-8.22,4.42-1.18.3-1.87-.53-1.86-1.7,0-3.48-.12-7,.17-10.43.22-2.62,1.76-3.37,4.18-2,1.43.82,3,1.44,4.46,2.15Q254.53,381.15,255.15,384.9Z"/><path class="cls-1" d="M526.8,120.55c-12.81,10.15-25.87,20.07-40.54,27.57C498.71,137.41,512.73,129,526.8,120.55Z"/><path class="cls-1" d="M126.93,339.38c-18.72,7.5-37.51,14.78-57.05,19.87A497.51,497.51,0,0,1,126.93,339.38Z"/><path class="cls-1" d="M459.85,307.51A441.15,441.15,0,0,1,519.4,316C499.35,314.58,479.58,311.2,459.85,307.51Z"/><path class="cls-1" d="M185.67,17.66c6.88,14.69,13.43,29.52,17.67,45.26C195.47,48.62,190.67,33.1,185.67,17.66Z"/><path class="cls-1" d="M558.23,388.32c-15.41-5.21-30.76-10.56-45.91-17.52C516.91,370,552.08,383.31,558.23,388.32Z"/><path class="cls-1" d="M80.85,480c11-11.92,22.23-23.6,35.23-33.43C105.51,459,93.37,469.71,80.85,480Z"/><path class="cls-1" d="M470.91,435.91c13.67,9,25.48,20.18,37.35,31.32C495,457.75,482.3,447.64,470.91,435.91Z"/><path class="cls-1" d="M434.08,525.74c-8.65-13.14-17.92-25.93-24.16-40.49C419.62,497.77,426.87,511.73,434.08,525.74Z"/><path class="cls-1" d="M374.57,14c-4.16,14.87-8.15,29.79-15,43.86a24.48,24.48,0,0,1,.57-4.23c4.22-13.35,8.51-26.68,12.78-40Z"/><path class="cls-1" d="M567.74,204.62c-15.43,5.51-31.06,10.53-47.32,13.32C535.58,211.44,551.76,208.47,567.74,204.62Z"/><path class="cls-1" d="M249.75,561c1.26-15.41,2.3-30.86,6.47-45.85C255.71,530.62,253.19,545.85,249.75,561Z"/><path class="cls-1" d="M281.26,47.84C278.58,32,279.1,16,279.63,0,281.36,15.9,282.46,31.82,281.26,47.84Z"/><path class="cls-1" d="M431.81,91.43C439.91,78,449.81,66,460,54.14,451.42,67.17,442.77,80.19,431.81,91.43Z"/><path class="cls-1" d="M529.59,294.36c16.43-.95,32.75.86,49.63,2C574.23,298.29,538.3,296.91,529.59,294.36Z"/><path class="cls-1" d="M110.91,215.72l47,17.53-.56,1.51c-15.85-5.35-31.62-10.93-47.14-17.19Z"/><path class="cls-1" d="M344.85,559.15c-3.92-15.42-8.08-30.69-9.34-46.53C340.58,527.77,343,543.45,344.85,559.15Z"/><path class="cls-1" d="M4.85,221.56c16.15,2.21,32.29,5.09,48,10.16C36.48,230.23,20.75,225.82,4.85,221.56Z"/><path class="cls-1" d="M105.25,148.33c15.46,9.59,29.88,20.6,43.88,32.18C133.93,170.57,119.07,160.15,105.25,148.33Z"/><path class="cls-1" d="M48.58,308.79c-16,3.84-32.31,4.55-48.58,5.49C16.08,311.27,32.24,309,48.58,308.79Z"/><path class="cls-1" d="M201.57,374.46c3.06,0,2.7-3,3.21-4.53,1.29-3.95,3.25-5.64,7.56-4.81,2.65.5,5.48.09,8.7,1.24l-18.9,12-.88-.59c0-1.13,2.34-1.94.44-3.32Z"/><path class="cls-1" d="M331.89,190.22a5.26,5.26,0,0,0-3.74-.91c-3.44.09-2.73-2.4-2.91-4.45-.24-2.67,1.23-3.69,3.53-3.44,3.07.32,6.1,1.17,9.23.87,0,.75.52,1,1.14,1.19.33,2.52-1.45,5.23.72,7.57Z"/><path class="cls-1" d="M190.14,123.45c9,13.93,18,27.84,26.27,42.19l-1.41.88q-13.26-20.88-26.51-41.78Z"/><path class="cls-1" d="M190,142.52l-30-42.8C163.65,100.42,189.55,136.49,190,142.52Z"/><path class="cls-1" d="M157.82,533.55c7.43-14.26,13.42-28.34,21.89-41.87C179.72,497.32,162.57,530.27,157.82,533.55Z"/><path class="cls-1" d="M224.09,465.19l1.61,0c6.18,2.29,12.06,0,18-1.16l2.2.23.06,0,2.06,1.65c-9.53,1.76-19.24,2.12-28.77,4.06-8.08,1.64-15.08,5.38-22.37,8.85,4-4.54,9.37-6.71,14.86-8.74l2.31-.8,9-2.07c.45,0,1.08.17,1.31-.05.42-.44,0-.78-.46-1Z"/><path class="cls-1" d="M396.11,422.24c-3.63,2.13-5.52,0-7-2.94-1.14-2.25-4.14-4.58.79-7.1-6.4,1-4.85-2.95-4.8-5.93,6.13,4.51,10.46,10.9,17.78,16Z"/><path class="cls-1" d="M28.82,401.93c13.57-7,27.2-13.88,41.75-18.7-13,8-27,13.79-41,19.75Z"/><path class="cls-1" d="M119.58,423.64c.79.58.53,2.49,2.31,1.85,1-1.12,2.16-1.65,3.51-.94a1.39,1.39,0,0,1,.23,2.1c-1.4.69-2,3.58-3.68,2.49-2.79-1.85-6.16,1.42-9.09-2-1.45-1.7-5.71-.25-7.4,2.91l-4.34-2,.5-.94c1-.43,3.55,1.15,2.36-1.92,1.58-2,4.54-1,6.16-2.91a2.41,2.41,0,0,0,1.8-2.2h0l2.83,1.12,2.23,3.18c1.18,1.15,2.32,2.13,2.51-.64Z"/><path class="cls-1" d="M134,101.42c-9.66-8-16.51-18.6-24.75-27.9a44.72,44.72,0,0,1-6.11-8.78c11.06,11.56,22.16,23.05,31.48,36.09A7,7,0,0,0,134,101.42Z"/><path class="cls-1" d="M390.85,182l30.81-31.85,0,0L390.15,181.4Z"/><path class="cls-1" d="M352.91,464.39l.84-1.22c1.24,2.61,3.23,3.71,6.17,4.16,5.15.79,10.42,1.4,15.18,3.84l-1.12.92c-16-4.63-32.5-5.82-49-7,0-.51,0-1,0-1.52l2.09.37,2.83.28,4,0,2.1,0c4.68.9,9.58,0,14.17,1.76C351.5,466.43,353,466.54,352.91,464.39Z"/><path class="cls-1" d="M472.08,387.15c5.6.74,10.09,3.8,14.8,6.41,6.08,3.36,12.11,6.82,18.19,10.17,1,.54,2.49.59,1.49,2.29-.8,1.34-1.77,1-2.89.29Q487.89,396.69,472.08,387.15Z"/><path class="cls-1" d="M537.64,251.05l-38.19,4.63c-.06-.47-.13-.93-.19-1.4,12.55-2.64,25.3-3.95,38.06-5.26Z"/><path class="cls-1" d="M497.39,322.54a357,357,0,0,1,38.16,6.92C532,331.21,504.15,326.29,497.39,322.54Z"/><path class="cls-1" d="M328.2,214.55c-.06-1-.05-2-.17-2.93-.55-4.4.45-7,5.78-5.85,1.64.36,3.52-.39,5.3-.63h0q0,4-.05,8.07C335.54,214.54,331.84,214.32,328.2,214.55Z"/><path class="cls-1" d="M234.62,43.72A174.16,174.16,0,0,1,242.86,80,163.79,163.79,0,0,1,234.62,43.72Z"/><path class="cls-1" d="M142.09,164c10.12,5.88,18.24,14.2,27.12,21.6C158.85,180.07,149.47,173.31,142.09,164Z"/><path class="cls-1" d="M318,39.68c-1,11.59-1.93,23.19-4.27,34.61L312,74.08q2.11-17.3,4.21-34.57Z"/><path class="cls-1" d="M53.39,195.73A175.51,175.51,0,0,1,89.71,209.1,192.47,192.47,0,0,1,53.39,195.73Z"/><path class="cls-1" d="M61.21,160.62,94.3,177.87l-1,1.8-33-17.4Z"/><path class="cls-1" d="M443.36,444.56a2.1,2.1,0,0,0-.21-3c-3.27-3.7-6.36-7.57-9-10.7,3.85-1.3,9.79-.07,11.76,4,1.79,3.7,2.29,7.66-1.76,10.62Zm-4-10.84-1.12-.18.68.68a25.32,25.32,0,0,0,5.63,5.87C444.89,436,442.28,434.75,439.39,433.72Z"/><path class="cls-1" d="M237.8,425.29H177.24C180.43,423.13,221.57,422.9,237.8,425.29Z"/><path class="cls-1" d="M513.34,172.86c-10.83,6.48-21.93,12.41-33.93,16.44A186,186,0,0,1,513.34,172.86Z"/><path class="cls-1" d="M48.22,354.41a185.57,185.57,0,0,1,36.69-11A183.85,183.85,0,0,1,48.22,354.41Z"/><path class="cls-1" d="M489.57,173a267.28,267.28,0,0,1-34.47,18.19,243.6,243.6,0,0,1,33.72-19Z"/><path class="cls-1" d="M533.44,366.14,498,354c.18-.53.37-1.07.55-1.61l35.55,11.92C533.85,364.93,533.64,365.53,533.44,366.14Z"/><path class="cls-1" d="M129.68,321.91C115.4,327,100.61,330.07,85.78,333A289.14,289.14,0,0,1,129.68,321.91Z"/><path class="cls-1" d="M463.69,414.88l29.53,22.36-1.17,1.58-29.34-22.53Z"/><path class="cls-1" d="M199.28,84.58l-15-33.31,1.76-.81,14.84,33.3Z"/><path class="cls-1" d="M410,463l20.43,30.39-1.63,1.1L408.55,464Z"/><path class="cls-1" d="M396.87,61.65a193.72,193.72,0,0,1-16.66,33.89A166.87,166.87,0,0,1,396.87,61.65Z"/><path class="cls-1" d="M354.1,38.47,344.68,73.4,343,73l9.24-35.29Z"/><path class="cls-1" d="M164.65,454.54a156.66,156.66,0,0,1-20.22,28.26A162.64,162.64,0,0,1,164.65,454.54Z"/><path class="cls-1" d="M170.46,323.91a18.13,18.13,0,0,0,2.89-.66c3.37-1.37,6.19-1.9,6.48,3.15,0,.87,1,1.24,1.95.92.86,1.06-1.18,2.47.42,3.45-.53,2.76-1.55,5-5,4.41C176.33,330.6,172.27,327.93,170.46,323.91Z"/><path class="cls-1" d="M494.45,128.84,464.7,151.18l-1-1.33,29.57-22.54Z"/><path class="cls-1" d="M406.14,267.5c-3.09,1.41-.42,5.51-4.59,6.57-7.11,1.8-4.41-5.18-7.49-7.05,3-.07,4.6-2.07,6.37-3.78C401.46,265.59,403.05,267.29,406.14,267.5Z"/><path class="cls-1" d="M111.44,466.65,137.08,440l1.25,1.17L112.88,468Z"/><path class="cls-1" d="M176.27,105.11Q166.54,89.54,156.82,74l1.41-.88c7,10,13.83,20.26,19.39,31.22Z"/><path class="cls-1" d="M128.25,270.35c-15.58-.36-30.19-2-45.23-3.33C89.12,265.36,121,267.62,128.25,270.35Z"/><path class="cls-1" d="M432.19,72.16l-20.93,30.55-1.42-1L430.61,71Z"/><path class="cls-1" d="M123.57,149.88a158.08,158.08,0,0,1-28.4-23.8c10.27,7,20.21,14.33,29.1,23Z"/><path class="cls-1" d="M498.85,212.1,534,200.37c.19.55.38,1.09.56,1.64-11.57,4.36-23.41,8-35.23,11.58C499.16,213.09,499,212.59,498.85,212.1Z"/><path class="cls-1" d="M99.7,202.52a238.38,238.38,0,0,1,36.77,15.38C123.68,214.16,111.71,208.36,99.7,202.52Z"/><path class="cls-1" d="M269.09,30.82,272,67.12l-1.53.12c-1.6-12-2.37-24.15-3.1-36.27Z"/><path class="cls-1" d="M326,392.26q-1.57,8.48-3.16,16.95a8.11,8.11,0,0,1-5.22-4.68c.35-5.74,2.42-10.33,8.31-12.34Z"/><path class="cls-1" d="M454,324.36c0-1.94.91-2.47,2.74-2q16.51,4.15,33,8.24c-.09.43-.19.86-.28,1.29-7.71-1.74-15.4-3.57-23.13-5.19-4.15-.87-8.1-2.79-12.49-2.44Z"/><path class="cls-1" d="M69.56,246.87l-36.95-5.94.3-1.88,36.87,6.1Z"/><path class="cls-1" d="M115.38,406.37,85.26,427.76c1.46-4.18,22.24-19.55,29.36-22.4Z"/><path class="cls-1" d="M93.14,385.32,60.28,402.56l-.88-1.7,32.94-17.11Z"/><path class="cls-1" d="M291.1,426.76c1.82-2.18,2-4.74,2-7.46-.06-21,0-42-.05-63.06h0c.25,0,.51.05.76.06q.12,33.7.28,67.39C294.05,425.89,293.77,427.36,291.1,426.76Z"/><path class="cls-1" d="M32.23,322l37-5.69.27,1.68-36.93,5.92Z"/><path class="cls-1" d="M438.39,132.82a216.21,216.21,0,0,1,26.29-25C456.83,117,448.73,126,439.24,133.6Z"/><path class="cls-1" d="M191.37,302.78c1,2.9,2.54,4.57,5.93,4.2-2.54,2.19-2.68,4.51-2,7.5-2.77-1.1-5.12-2.24-8,1.62.69-4.36.74-7-3-8.26A12.65,12.65,0,0,0,191.37,302.78Z"/><path class="cls-1" d="M114.76,421.21l-2.83-1.12c7.75-6.87,15.11-14.25,25.08-19.74-.4,3.2-2.49,3.92-3.81,5-5,4.07-10.21,7.88-15.27,11.88C116.6,418.27,114.61,418.94,114.76,421.21Z"/><path class="cls-1" d="M510.82,282.58h37l0,1h-37C510.85,283.22,510.84,282.9,510.82,282.58Z"/><path class="cls-1" d="M328,166.42c1.27-2.76,1.27-6.19,4.25-8,1,2.88,4.35,1.16,5.87,3a16.38,16.38,0,0,1,0,6.9A40.75,40.75,0,0,1,328,166.42Z"/><path class="cls-1" d="M503,283.7H468.42v-.92h34.71Z"/><path class="cls-1" d="M208.29,140.91l-17.72-31.82,1.23-.69a353.49,353.49,0,0,1,17.83,31.86Z"/><path class="cls-1" d="M211.17,125q8.49,17.16,17,34.31l-1.21.6-17.19-34.21Z"/><path class="cls-1" d="M72.53,236c9.76.5,19.19,2.93,28.5,5.89C90.94,243,82,238.34,72.53,236Z"/><path class="cls-1" d="M148.28,293.79c-.22-3-.49-5.45-2.61-6.6,3.44-4.69,7.22-5,11.3-.29-1.15,1.38-2.79,3.28-1.05,6.45C153,292.69,150.67,291.42,148.28,293.79Z"/><path class="cls-1" d="M501.06,223.21c-8.87,4.13-18.3,6.15-27.83,7.83A108,108,0,0,1,501.06,223.21Z"/><path class="cls-1" d="M37.5,274.64c12.76-.55,25.52-.81,38.2,1.15C62.94,276.43,50.18,276.71,37.5,274.64Z"/><path class="cls-1" d="M341.68,354.67c.76,3.87-.63,7.8.39,11.69,1.3,5,3,9.73,6.89,13.56-8.75-2.43-12.53-15.87-7.29-25.22Z"/><path class="cls-1" d="M446,174.39l24.13-16.48C467.67,162.72,451.6,173.83,446,174.39Z"/><path class="cls-1" d="M336.58,235.5c-2.19-.45-5.19.66-5.52-3.21s2.22-4.06,5-4.45c1.05-.15,2-1,3-1.51C341.53,230.93,340.56,234.58,336.58,235.5Z"/><path class="cls-1" d="M493.7,362.6c-9.57-1.81-18.16-6.24-26.91-10.3A108.81,108.81,0,0,1,493.7,362.6Z"/><path class="cls-1" d="M219.31,106.79q-5-12.74-10.07-25.45l1.74-.63c4.27,8.16,6.66,17,10.07,25.51Z"/><path class="cls-1" d="M267.81,504.29l2.27,0c-1.45,7-1.41,14.17-2.08,21.26-.26,2.78-.25,5.6-1.9,8.18C265.56,523.89,267.28,514.11,267.81,504.29Z"/><path class="cls-1" d="M196.41,486.38c-.66,1.86.59,3.05,1.5,4.36-2.69-.12-4,1.29-5,3.73-2.18,5.35-4.66,10.59-7.14,15.81-.51,1.06-.45,2.79-3.25,2.86,3.54-8.77,7.34-17,11.55-25,.78-.57,1.56-1.14,2.33-1.72Z"/><path class="cls-1" d="M297.41,400.24c1.6-7-.09-14.18,1.65-21.25v7.4q0,19.39,0,38.79c-2.44-2.62.16-6.17-1.65-8.9Q297.42,408.26,297.41,400.24Z"/><path class="cls-1" d="M480.53,291.09l28.77,1.54c0,.53-.07,1.06-.11,1.59-9.66.5-19.2-.79-28.78-1.43Z"/><path class="cls-1" d="M203.85,90.53q6.92,15.66,13.84,31.31l-1.32.59L202.29,91.28Z"/><path class="cls-1" d="M458.41,225.59l33-11,.51,1.5L459,227Z"/><path class="cls-1" d="M166.15,138.26a1.2,1.2,0,0,1-1.71-.35q-8.41-9.74-16.79-19.51c-.42-.48-.81-1.07.16-2.28,6.75,6.94,13.09,14,18.25,22.19Z"/><path class="cls-1" d="M302.91,382.17l-3-6c-.49-8.12-4-15.54-5.36-23.48-.51-3.08-1.32-6.11-.9-9.42,2.43,9.43,5,18.83,7.24,28.3C301.7,375.08,303.56,378.4,302.91,382.17Z"/><path class="cls-1" d="M345.38,103.85a113.53,113.53,0,0,1,8.24-26.71C352.94,86.68,348.85,95.17,345.38,103.85Z"/><path class="cls-1" d="M140.55,149.73c8.91,7.37,17.68,14.9,25.49,23.5a203.6,203.6,0,0,1-26.27-22.63Z"/><path class="cls-1" d="M467,276.28c-12.87,1.68-25.82.71-38.71,1.71l-.07-1.39,29.84-1.09C461,276.72,464.08,275.61,467,276.28Z"/><path class="cls-1" d="M99.79,170.45c9.29,3.23,17,9.21,25,14.57A113.81,113.81,0,0,1,99.79,170.45Z"/><path class="cls-1" d="M189.33,474.71c2.18-9,7.85-16.3,12.34-24.17C198.32,459,194.88,467.38,189.33,474.71Z"/><path class="cls-1" d="M216.86,374.56c9.67.08,17.66-3.49,23.94-12C239.25,372.2,228.43,377.42,216.86,374.56Z"/><path class="cls-1" d="M302.49,81.35c-1.66-8.54.49-16.95,1.36-25.42C303.84,64.41,304.44,72.9,302.49,81.35Z"/><path class="cls-1" d="M370.43,134.2a140.57,140.57,0,0,1,15.23-27.52C381.38,116.33,376.63,125.7,370.43,134.2Z"/><path class="cls-1" d="M298.34,504.53l6.41-.34c-3,.22-3.89,1.18-3.43,4.69.75,5.65.2,11.48.2,18-1.21-2.28-2.57-3.27-2-6.31C300.5,515.31,299.74,509.81,298.34,504.53Z"/><path class="cls-1" d="M402,131.4c.51-3.6,3.06-6,5.16-8.64,3.79-4.75,6.57-10.3,11.33-14.38.26.46.6.83.52,1-4.75,8.06-10.11,15.64-17.1,22Z"/><path class="cls-1" d="M434.69,172c7.74-6.08,15.15-12.63,23.49-17.88l.94,1.25-23.68,17.44Z"/><path class="cls-1" d="M97.47,303.61c-9.44,1.73-18.82,3.72-28.48,3C78.29,303.89,87.89,303.68,97.47,303.61Z"/><path class="cls-1" d="M114.29,363.5c-8.21,4.6-16.62,8.75-25.67,11.45,7.67-5.52,16.47-8.69,25-12.45Z"/><path class="cls-1" d="M343.88,501.26l2.87-.19c-1,5.64,2.05,10.51,3,15.78.62,3.46,2.21,6.76,1.5,10.5C347.74,518.94,345.93,510.07,343.88,501.26Z"/><path class="cls-1" d="M342.83,80.35l-6.37,24.06-1.46-.36q3.11-12,6.2-24.07Z"/><path class="cls-1" d="M552,235.37c4.71-2.9,10.33-2.58,15.13-5,1.24-.62,2.48.51,2.78,1.45.41,1.28-1,1.33-2,1.57A51.94,51.94,0,0,1,552,235.37Z"/><path class="cls-1" d="M451.25,182c6.72-4.37,13.3-9,20.94-11.79-6,4.75-12.12,9.17-19.16,12.22-.45.2-1.2-.26-1.8-.42Z"/><path class="cls-1" d="M2.4,287.27a31.08,31.08,0,0,1,18.48-.54A39.83,39.83,0,0,1,2.4,287.27Z"/><path class="cls-1" d="M377.44,448.65c5.11,6.45,8.3,14,12.28,22.38C385.25,466.7,378.66,454.67,377.44,448.65Z"/><path class="cls-1" d="M429.1,156.44c-6.35,7.4-14.25,13.1-21.81,19.18a183.15,183.15,0,0,1,21.07-20.14Z"/><path class="cls-1" d="M470.16,292.48l-30.91-1.68.1-1.54,31,1.6Z"/><path class="cls-1" d="M480.6,301.2a61.42,61.42,0,0,1,21.9,2.2C495,304.62,487.86,302.59,480.6,301.2Z"/><path class="cls-1" d="M190.88,394.06c1.54,3.38,1.75,6.66-.58,9.84a7.49,7.49,0,0,0-1.17,4.74c-.44,1.13-1.27,1.89-3.37,3C187.75,405.3,185.86,398.86,190.88,394.06Z"/><path class="cls-1" d="M132.38,117.22,112.74,96.75l1.3-1.22a269.38,269.38,0,0,1,19.19,20.62Z"/><path class="cls-1" d="M317.07,559.25c-2.57-5.72-2.45-11.66-2.24-17.63C317.33,547.32,317.65,553.25,317.07,559.25Z"/><path class="cls-1" d="M491.13,351.61,465.48,343c9.27.52,17.43,4.65,26.15,7Z"/><path class="cls-1" d="M349.21,391.93c6,.5,12-2.79,18-1A20.26,20.26,0,0,1,349.21,391.93Z"/><path class="cls-1" d="M77.29,246.56l25.64,4.1-.18,1.27c-8.64-.7-17.13-2.47-25.67-3.93Z"/><path class="cls-1" d="M33.73,201.85a38.16,38.16,0,0,1-17.46-5.38C22.58,196.51,28.24,198.86,33.73,201.85Z"/><path class="cls-1" d="M229.11,103.87c-4.08-7.17-6-15.08-7.75-23A69.53,69.53,0,0,1,229.11,103.87Z"/><path class="cls-1" d="M399.25,25.53C398,31.64,396,37.24,392.12,42A33.61,33.61,0,0,1,399.25,25.53Z"/><path class="cls-1" d="M472.87,470.07a65.13,65.13,0,0,1,14,13.9C482.06,482.55,475,475.48,472.87,470.07Z"/><path class="cls-1" d="M407.78,535.38a37.7,37.7,0,0,1-7.48-16.22C404,524,407.09,529.17,407.78,535.38Z"/><path class="cls-1" d="M128,51.88a38,38,0,0,1,10.23,14.75C133.83,62.44,129.92,57.89,128,51.88Z"/><path class="cls-1" d="M281.09,425.37l-.18,1.4c-6.43-.24-13,1.3-19.28-1,.14-.2.29-.39.43-.58,2.16.1,4.31.2,6.47.32,3.77.22,7.73.72,7.58-5.57C276.68,423.26,276.21,427,281.09,425.37Z"/><path class="cls-1" d="M59.71,115.07c6,2.16,10.73,6.18,14.95,10.86A39,39,0,0,1,59.71,115.07Z"/><path class="cls-1" d="M218.51,30.93c-2.91-5.41-4.87-11.06-4.84-17.26C217.11,18.9,218.07,24.86,218.51,30.93Z"/><path class="cls-1" d="M222.76,553.11c.6-6.05,1.21-12,4.5-17.08C227.14,542.15,226.21,548,222.76,553.11Z"/><path class="cls-1" d="M499.27,234.55c-7.16,2.28-14.14,4.75-21.65,4.57A57.25,57.25,0,0,1,499.27,234.55Z"/><path class="cls-1" d="M537.93,145.74c-4.47,4.46-10.06,7-16,8.9A36.4,36.4,0,0,1,537.93,145.74Z"/><path class="cls-1" d="M259.87,112.42l-1.78,0q-2-10.85-4-21.7l1.35-.29C257.89,97.5,258.3,105.1,259.87,112.42Z"/><path class="cls-1" d="M102.23,233c-8.27-.49-16-3-23.64-6.24C86.7,227.86,94.68,229.48,102.23,233Z"/><path class="cls-1" d="M464.56,360.73c8,1.94,14.14,5.73,20.43,9.16C480,369.64,468.71,364.54,464.56,360.73Z"/><path class="cls-1" d="M390.52,130.81l15.39-23.41,1.56,1-16.23,23.12Z"/><path class="cls-1" d="M65.63,457.07c3.72-5.09,8.79-8.48,14.28-11.36A35.69,35.69,0,0,1,65.63,457.07Z"/><path class="cls-1" d="M135.88,517.61c2-5.78,5.62-10.48,9.42-15.61C145.71,505.92,140.9,514,135.88,517.61Z"/><path class="cls-1" d="M108.34,163.52a71.79,71.79,0,0,1,19.51,12.63C120.4,173.45,114.44,168.37,108.34,163.52Z"/><path class="cls-1" d="M362.33,83.49c-1.19,6.53-2.67,13-5.57,19-.41.84-.76,2.1-2,1.75s-1-1.59-.62-2.43C356.82,95.67,359.59,89.59,362.33,83.49Z"/><path class="cls-1" d="M306,22.2a38.91,38.91,0,0,1,1.21-17.47C308.27,10.66,308.41,16.53,306,22.2Z"/><path class="cls-1" d="M452.45,212c6.87-4.62,14.6-7.13,22.3-9.72A90.05,90.05,0,0,1,452.45,212Z"/><path class="cls-1" d="M89.53,362.6a90,90,0,0,1,21-8c-6.21,4.25-13.15,6.81-20.32,8.85Z"/><path class="cls-1" d="M272.55,74.53,274,95.28l-1.46.13Q271.66,85,270.8,74.56Z"/><path class="cls-1" d="M222.28,500.14c1.4,0,2.75.07,3.72,1.29-3.48,4.77-3.27,11-7,17.31C218.56,511.33,222.66,506.07,222.28,500.14Z"/><path class="cls-1" d="M526.22,402.56a37.16,37.16,0,0,1,16.36,8.22C536.35,409.63,531.1,406.48,526.22,402.56Z"/><path class="cls-1" d="M466.59,88c3.09-5.36,6.86-10.1,12.2-13.44C476.15,80.25,471.47,84.2,466.59,88Z"/><path class="cls-1" d="M553.65,321c6.21-1.09,12.12.5,18,2.41C565.47,324.46,559.55,322.9,553.65,321Z"/><path class="cls-1" d="M245.09,425.17c1.7.25,3.21.06,3.94-1.81a1.21,1.21,0,0,1,1,0c0,.4,0,.8,0,1.21,1.24,2.18,3.44,1.41,5.28,1.65,2,.26,4.2.06,6,1.95-2.13,2.05-3.87.14-5.61,0-3.63-.25-7.27-.43-10.87-.87-1.2-.15-3.62,1.14-3.43-1.23C241.51,424,243.81,425.56,245.09,425.17Z"/><path class="cls-1" d="M182.81,464.16c3.22-6.47,5.91-13.27,11.24-18.42A58.7,58.7,0,0,1,182.81,464.16Z"/><path class="cls-1" d="M120.85,370.9c-6.54,3.36-13.08,6.74-19.63,10.08-.7.35-1.68.76-2-.35a1.8,1.8,0,0,1,.72-1.62C107.11,376.89,113.13,372,120.85,370.9Z"/><path class="cls-1" d="M36.77,371c-5.32,3.46-11,5.79-17.33,6.11C24.65,373.44,30.6,371.83,36.77,371Z"/><path class="cls-1" d="M120,193.68,99.83,183.12l.75-1.45,20.06,10.73Z"/><path class="cls-1" d="M283,88.3c-.64-.11-1.8.88-1.82-.6-.06-6.74,0-13.47.5-20.23,2.14,6.86,1.32,13.93,1.21,20.94Z"/><path class="cls-1" d="M233,130.5q-.94,2.91-1.87,5.82c-2.71-6.33-5.57-12.6-6.94-19.42,2.47,2.72,3.2,6.27,4.72,9.43C229.82,128.19,230.16,130.56,233,130.5Z"/><path class="cls-1" d="M374,495.92a8.38,8.38,0,0,1,4.82-1.78c-1.9,1.58-.25,3.07.24,4.48a102.38,102.38,0,0,1,3.44,10.64c-3.08-2.68-3.88-6.56-5.62-9.92C376.2,498,376.43,495.83,374,495.92Z"/><path class="cls-1" d="M175.67,148.56q6.68,7.89,13.36,15.79c-5.88-4-10.19-9.42-14.58-14.76Z"/><path class="cls-1" d="M159.23,114.14A65.3,65.3,0,0,1,172,131.24c-5.53-4.64-9.57-10.5-13.52-16.44A9.4,9.4,0,0,0,159.23,114.14Z"/><path class="cls-1" d="M410.32,134.68c3.56-5.83,8.27-10.65,13.38-15.15-3.51,5.86-7.34,11.45-12.61,15.92Z"/><path class="cls-1" d="M332,145.41c0-1.64,0-3.29.14-4.92s.84-3,2.69-2.9c2.08.06,2,1.76,2.16,3.24.15,2,.06,4-1.74,5.34A3.47,3.47,0,0,1,332,145.41Z"/><path class="cls-1" d="M95.84,294.66c-8.26,2.21-16.43,1.7-24.59,1.18C79.48,295,87.68,293.35,95.84,294.66Z"/><path class="cls-1" d="M313.58,527.14a23,23,0,0,1-1.33-13.34A20.81,20.81,0,0,1,313.58,527.14Z"/><path class="cls-1" d="M283.88,429.5l-3.87.29a1.26,1.26,0,0,0-2.05,0H263.42l0-1.28h20.47A1.13,1.13,0,0,0,283.88,429.5Z"/><path class="cls-1" d="M292.44,351.6c-2,2.07-1.31,4.68-1.48,7.12-.39,5.78.88,11.63-.76,17.34v-32.5C291.81,346.49,292,349.09,292.44,351.6Z"/><path class="cls-1" d="M161.05,479.19c-1.45,4.59-3.39,8.82-7.56,11.53C154.56,485.93,157.65,482.43,161.05,479.19Z"/><path class="cls-1" d="M226.19,366.78c2.55-5.43,4.6-11,2.73-17.9,4.37,6.19,3.66,12.07-1.61,18.64Z"/><path class="cls-1" d="M500.79,389.86a20.46,20.46,0,0,1,12.26,5.92C508.11,395.66,504.57,392.49,500.79,389.86Z"/><path class="cls-1" d="M252.07,114.47l-2.67,1c-.64-4.6-2.49-9-2.17-14.66C250.76,105.28,250.19,110.32,252.07,114.47Z"/><path class="cls-1" d="M347,210.19q.42,3,.86,6.07c.1,5.39.48,10.78-.58,16.12l-1-.13A150.47,150.47,0,0,1,347,210.19Z"/><path class="cls-1" d="M304.19,50.22a23,23,0,0,1,.88-13.34A17.94,17.94,0,0,1,304.19,50.22Z"/><path class="cls-1" d="M109.62,301.39l19.51-2.09.13,1.29a111,111,0,0,1-19.51,2Z"/><path class="cls-1" d="M230.66,521.86c-.81-4.74.86-9,2.84-13.09C234.43,513.5,233.09,517.77,230.66,521.86Z"/><path class="cls-1" d="M346.2,232.25l1,.13c-.07,3.81-1.67,8.72.11,11.2,3.83,5.32-1.41,8.7-1.14,13Z"/><path class="cls-1" d="M509.09,161.54c-3.14,3.91-7.54,5.48-12.09,6.78A21.1,21.1,0,0,1,509.09,161.54Z"/><path class="cls-1" d="M391.22,159.55,377.6,175.92l-.74-.71a181,181,0,0,1,13.49-16.63Z"/><path class="cls-1" d="M386.36,55.44A21.66,21.66,0,0,1,381,67.82,19.88,19.88,0,0,1,386.36,55.44Z"/><path class="cls-1" d="M201.76,170.54a98.72,98.72,0,0,1-12.59-16.9c5.31,4.72,9.39,10.44,13.47,16.17Z"/><path class="cls-1" d="M388.32,493.7c3,3.68,5.47,7.57,5.78,12.44C390.6,502.73,389,498.4,388.32,493.7Z"/><path class="cls-1" d="M76.85,315.3c6-1.22,12-2.46,18.32-1.43L77,316.67Z"/><path class="cls-1" d="M134.14,313.64c-7,1.28-13.65,4.08-20.87,3.32C120.2,315.57,127,313.09,134.14,313.64Z"/><path class="cls-1" d="M453.41,450.66c3.94,2.6,7.67,5.44,9.69,9.89C458.57,458.56,455.75,454.86,453.41,450.66Z"/><path class="cls-1" d="M50.53,366.07a21.78,21.78,0,0,1,13.12-4.39C59.6,364.09,55.59,366.6,50.53,366.07Z"/><path class="cls-1" d="M524.05,240.55a20.84,20.84,0,0,1,14.16-3C533.35,241,528.5,239.87,524.05,240.55Z"/><path class="cls-1" d="M226.07,57.91c-2.59-3.91-4.21-8.13-3.68-13C225.36,48.71,226,53.21,226.07,57.91Z"/><path class="cls-1" d="M154.57,89.94a22.28,22.28,0,0,1-8.08-11.4C150.74,81.22,152.74,85.52,154.57,89.94Z"/><path class="cls-1" d="M456.86,98.71a22.7,22.7,0,0,1-9.38,10C449.78,104.63,452.23,100.66,456.86,98.71Z"/><path class="cls-1" d="M131.2,360.31h2.08q.14,4,.28,7.94c-.07.12-.22.27-.19.35a3.91,3.91,0,0,0,.37.7c.65,2.36.47,4.19-2.66,4.14l-.12-3.31Z"/><path class="cls-1" d="M504.72,264.25c4.11-.57,8.07-2.73,13.54-.95A21.16,21.16,0,0,1,504.72,264.25Z"/><path class="cls-1" d="M60.94,210.59c-4.66-.46-9.31-1-13-4.29A21.63,21.63,0,0,1,60.94,210.59Z"/><path class="cls-1" d="M538.71,318.6a20.1,20.1,0,0,1-13.44-1.69C530,315.59,534.38,316.83,538.71,318.6Z"/><path class="cls-1" d="M250,424.59c0-.41,0-.81,0-1.21a4.57,4.57,0,0,0,5.25-3c2.17.71-2.15,3.93,1.65,3.72,1.48-.08,3.78,1.36,4.15-1.8a65.26,65.26,0,0,1,1.57-6.6c1.1,3.93-.11,6.67-.56,9.47-.14.19-.29.38-.43.58Z"/><path class="cls-1" d="M60,264.55a21.15,21.15,0,0,1,12.22.91A17.12,17.12,0,0,1,60,264.55Z"/><path class="cls-1" d="M86.34,134.65c4.8,1.2,8.16,4.24,11.08,7.89A21.47,21.47,0,0,1,86.34,134.65Z"/><path class="cls-1" d="M170.07,433H139.93v-.49h29.95Z"/><path class="cls-1" d="M457.1,283.21H428v-.58h29.09Z"/><path class="cls-1" d="M325.36,62.19c1.32,4.14.18,7.9-1.48,11.58C322.57,69.69,324.18,66,325.36,62.19Z"/><path class="cls-1" d="M496.76,428.1c-4.21-.69-6.95-3.42-9.53-6.37C491.34,422.49,494.23,425,496.76,428.1Z"/><path class="cls-1" d="M430.34,476.5c2.71,2.77,5.66,5.35,7,9.41C433.82,484.71,431.5,481.69,430.34,476.5Z"/><path class="cls-1" d="M243.11,336.22a2.62,2.62,0,0,0-2.23,2.3c-3.18-1.25-5.56-3.73-8.2-6C236.37,333,240.8,331.22,243.11,336.22Z"/><path class="cls-1" d="M438.78,297.51c4.94-1.18,9.81-.45,14.61,1.05C448.44,299.84,443.68,297.71,438.78,297.51Z"/><path class="cls-1" d="M474.9,129.75c3.26-4.08,6.4-6.32,10-8.93C484.06,124.66,481,127.44,474.9,129.75Z"/><path class="cls-1" d="M534.73,355c-4.65.55-8.07-1.65-12.18-3.23C527.15,350.77,530.87,351.77,534.73,355Z"/><path class="cls-1" d="M78.79,403c-3.17,3.31-6.16,4.64-9,6.19-.77.43-2,1-2.54-.29s.57-1.44,1.5-1.79C71.74,406,74.18,403.56,78.79,403Z"/><path class="cls-1" d="M252.38,74.17c-2.25-3.6-2.57-7.53-2.22-11.61C252.49,66.09,252.53,70.13,252.38,74.17Z"/><path class="cls-1" d="M248,465.93,246,464.28l16-.91,2,1.35Z"/><path class="cls-1" d="M50.83,286.76c-6,.76-10.51,1-15.33.33C38.09,284.87,44.65,284.54,50.83,286.76Z"/><path class="cls-1" d="M499.34,333.67a22,22,0,0,1,13.36,3.41A24.43,24.43,0,0,1,499.34,333.67Z"/><path class="cls-1" d="M45.6,252c-3.88.24-7.81,1-12.65-1.54A18.84,18.84,0,0,1,45.6,252Z"/><path class="cls-1" d="M129.11,385a45.51,45.51,0,0,1-14,7.63l13.17-8.86Z"/><path class="cls-1" d="M259.36,45.84c-1.48-3.59-2.86-7.18-1.49-11.18C260.19,38.06,260,41.94,259.36,45.84Z"/><path class="cls-1" d="M283.88,429.5a1.13,1.13,0,0,1,0-.95H300.8C294.57,429.19,289.26,430.47,283.88,429.5Z"/><path class="cls-1" d="M516.33,196.89c5.16-3.51,8.23-4.51,11.63-4.09C524.94,195.4,521.71,196.6,516.33,196.89Z"/><path class="cls-1" d="M194.29,515a13.78,13.78,0,0,1,4.28-11C198.53,508,197.57,510.57,194.29,515Z"/><path class="cls-1" d="M181.77,68a16.5,16.5,0,0,1-5.29-10.31C179.66,59.59,181.58,63.32,181.77,68Z"/><path class="cls-1" d="M481.4,404.27c-4.47-.53-7-3.9-10.6-5.5C474.8,398.19,477.61,399.62,481.4,404.27Z"/><path class="cls-1" d="M129.5,463.3A15.66,15.66,0,0,1,122,472C123.29,468.06,126.22,465.52,129.5,463.3Z"/><path class="cls-1" d="M357.5,511.18A15.86,15.86,0,0,1,361,523.05,18.75,18.75,0,0,1,357.5,511.18Z"/><path class="cls-1" d="M69,176.84a20.26,20.26,0,0,1-11.8-5.66C62.73,171.63,65.81,174.31,69,176.84Z"/><path class="cls-1" d="M178.65,86.39c3.49,2.67,5,6.5,6.13,10.6C181.45,94.22,179.67,90.54,178.65,86.39Z"/><path class="cls-1" d="M277.1,532.46c-1.77-4-1.72-8,.3-13.16A24.25,24.25,0,0,1,277.1,532.46Z"/><path class="cls-1" d="M429.17,440c3.62,1.9,4.83,6.45,8.8,8.1h-9.34c.76-2.15,3,0,4-1.58l-4.36-5.81Z"/><path class="cls-1" d="M378.3,135.79c-.37,4.85-3.67,8.09-5.64,12.06l-1.32-.75Z"/><path class="cls-1" d="M384.82,153.17l7.68-10.73,1,.75c-1.79,4.17-5,7.39-7.91,10.84Z"/><path class="cls-1" d="M80.53,256.49c5.06-.61,9.94.22,16.08,1.45C90.24,259,85.42,257.34,80.53,256.49Z"/><path class="cls-1" d="M428.36,155.48l11.87-10.59a37,37,0,0,1-11.13,11.55Z"/><path class="cls-1" d="M77.82,192.7c4.64.72,8.24,2.7,12.06,5A14.21,14.21,0,0,1,77.82,192.7Z"/><path class="cls-1" d="M339.78,49.33a16.29,16.29,0,0,1,2.35-10.91C343.2,42.42,341.75,45.91,339.78,49.33Z"/><path class="cls-1" d="M420.86,68.6a15.34,15.34,0,0,1-6.06,9.5C416,74.39,417.53,70.92,420.86,68.6Z"/><path class="cls-1" d="M37.16,332.61c3.4-2.66,7.38-2.43,11.33-2.44C45,332.24,41.31,333.38,37.16,332.61Z"/><path class="cls-1" d="M498.56,192.13c-3.19,3.11-7.22,4.25-11.45,4.92C490.45,194.3,494.11,192.29,498.56,192.13Z"/><path class="cls-1" d="M107.11,398.47c-3,3-6.13,5.88-11.7,7.2C99.27,401.55,102.86,399.48,107.11,398.47Z"/><path class="cls-1" d="M397.28,85.54c-.39,4.55-3.2,7.77-5.86,11.06A19.14,19.14,0,0,1,397.28,85.54Z"/><path class="cls-1" d="M337.17,61.19c.69,3.71-.45,7.06-2.15,10.27A16.14,16.14,0,0,1,337.17,61.19Z"/><path class="cls-1" d="M132.19,424.15c1.38.77,4.11-1.24,4.3,1.65.17,2.53-2.35,2-3.76,1.74-1.59-.33-4.64,1.61-4.56-1.85C128.23,423,130.8,424.8,132.19,424.15Z"/><path class="cls-1" d="M65.17,338.22c4.61-3.3,8.85-3.28,13-3.52A23.73,23.73,0,0,1,65.17,338.22Z"/><path class="cls-1" d="M97.66,391.81C95,394.5,92.2,396.88,87.28,398,90.55,394,94.16,393,97.66,391.81Z"/><path class="cls-1" d="M154.47,239.91a41.44,41.44,0,0,1-14.26-4.3C145.39,235.66,149.87,238.06,154.47,239.91Z"/><path class="cls-1" d="M456.78,130.6c-1.56,4.4-5.54,6.15-8.91,8.57C449.61,135,453.19,132.8,456.78,130.6Z"/><path class="cls-1" d="M544.77,273c-3.76,1.79-7.6,1.25-11.46.49C537,271.7,540.91,272.36,544.77,273Z"/><path class="cls-1" d="M458.3,143.9c2.22-3,4.71-5.77,8.36-7.18C465.14,140.5,461.38,141.86,458.3,143.9Z"/><path class="cls-1" d="M468.4,408.46c3.69.9,6.58,3,10,6.84C473.43,413.78,470.86,411.19,468.4,408.46Z"/><path class="cls-1" d="M155.64,449.66a26.93,26.93,0,0,1-7.14,9.72C148.74,455.61,150.21,453.53,155.64,449.66Z"/><path class="cls-1" d="M262.09,68.16c-1-3.35-2.85-6.6-1.29-11.54A21.39,21.39,0,0,1,262.09,68.16Z"/><path class="cls-1" d="M100.64,193.06c5.18-.39,8.86,3,13.29,4.67l-.49,1.12Z"/><path class="cls-1" d="M408.61,88.6c-.74,3.69-3.26,6.2-5.65,8.83C404.25,94.11,405.2,90.62,408.61,88.6Z"/><path class="cls-1" d="M457.94,365.24c2.3,4.22.61,8.78,1.13,13.16-.48,1.6.5,3.55-1.47,4.91C458.32,377.26,457.92,371.25,457.94,365.24Z"/><path class="cls-1" d="M107.83,105.45c4.07,1.1,6.12,4.4,8.27,7.62C112.22,111.85,110,108.67,107.83,105.45Z"/><path class="cls-1" d="M89.66,186.75c-3.55-.63-6.92-1.81-9.56-4.44C84,182.22,86.78,184.54,89.66,186.75Z"/><path class="cls-1" d="M299.71,276.82H286.42C289.3,277.58,294.44,274.24,299.71,276.82Z"/><path class="cls-1" d="M486.34,274.54h13c-4.91,1.5-8.94,1.23-12.93,1.42Z"/><path class="cls-1" d="M68.5,254.78c-3.61.62-7.14.66-10.41-1.27C61.74,252.51,65.17,253.27,68.5,254.78Z"/><path class="cls-1" d="M137.49,454.13a15,15,0,0,1,7.19-7.73C142.84,449.49,141.06,452.62,137.49,454.13Z"/><path class="cls-1" d="M175.83,410c1.56-4,6.44-5.51,7.25-10a.3.3,0,0,1,0,.08c1,.74,2.48,1.14.81,2.83-2.51,2.55-4.81,5.32-7.2,8Z"/><path class="cls-1" d="M120.07,379.25c-3.3,3.52-8.11,4.71-11.76,7.68l0,.05c-1.06-2.42,1.26-2.66,2.4-3.35,2.88-1.76,5.94-3.24,8.92-4.82Z"/><path class="cls-1" d="M297.36,342.18c2-.22.95-2.16,1.74-3.06,2.81-.41,4.32,2.08,7,2.67-2.43,1.93-4.82,1.3-7.07,1.5h-1.71Z"/><path class="cls-1" d="M84,323c4.37-1.36,8.74-2.58,13.36-2.35C93.07,322.36,88.67,323.47,84,323Z"/><path class="cls-1" d="M505.59,200.88c-2.76,3-6.56,3.4-10.31,4A19.77,19.77,0,0,1,505.59,200.88Z"/><path class="cls-1" d="M512.51,348c-5.19.64-8.24-1.67-11.6-3.05A20.88,20.88,0,0,1,512.51,348Z"/><path class="cls-1" d="M307.66,382.19q2.29,6.27,4.6,12.53A19.68,19.68,0,0,1,307.66,382.19Z"/><path class="cls-1" d="M60.9,327.67a17,17,0,0,1,10.41-1.93C68,327.37,64.71,328.74,60.9,327.67Z"/><path class="cls-1" d="M126.45,138.92c-2.78-2-5.87-3.75-7.9-8a21.68,21.68,0,0,1,8.76,7.18Z"/><path class="cls-1" d="M338,168.29a16.38,16.38,0,0,0,0-6.9c5.37.05,2.76,4.19,2.87,6.38C341.08,170.55,339.19,168.89,338,168.29Z"/><path class="cls-1" d="M192,88.14c-2.39-2.74-4.54-5.59-5.06-10.24C190.41,81.07,191.13,84.64,192,88.14Z"/><path class="cls-1" d="M438.28,160.21a34.28,34.28,0,0,1,10.29-8.75C446.14,155.48,442.12,157.74,438.28,160.21Z"/><path class="cls-1" d="M489.66,341.15c-5.38.42-8.6-1.78-12.07-3.07C481.4,338,484.92,339.08,489.66,341.15Z"/><path class="cls-1" d="M147,312.41c-1.73,1-3.17,2.46-5.23,2.78.89-3.37,3.29-5.56,5.76-7.69C149.75,309.55,145.64,310.58,147,312.41Z"/><path class="cls-1" d="M222.18,133.24c1.83,2.85,3.54,5.74,3.79,9.25C224.23,139.61,222.36,136.78,222.18,133.24Z"/><path class="cls-1" d="M115.57,352c4.07-1.51,7.82-3.91,12.31-4.22-4,1.84-7.52,5-12.44,4.19Z"/><path class="cls-1" d="M179.69,174.66l8.24,8.37c-5.3-.33-6.3-5-9.06-7.57Z"/><path class="cls-1" d="M177.19,335.18c3.46.56,4.48-1.65,5-4.41.35,1.89,2.45,3.73.18,5.72S178,339.23,177.19,335.18Z"/><path class="cls-1" d="M423.31,467.62c-3.38-1.86-4.16-4.92-5.8-7.24C420.56,461.46,422.39,463.6,423.31,467.62Z"/><path class="cls-1" d="M467,276.28c-2.95-.67-6,.44-8.94-.77h16.67l0,.77Z"/><path class="cls-1" d="M304.6,377.09c-.88-3-1.54-5.27-2.2-7.53C303.55,371.76,308.15,372.87,304.6,377.09Z"/><path class="cls-1" d="M220.44,161.83c-1.89-3-3.88-5.87-4.68-9.4a19.29,19.29,0,0,1,5.41,8.75C220.92,161.39,220.68,161.6,220.44,161.83Z"/><path class="cls-1" d="M133.23,116.15a16.67,16.67,0,0,1,5.57,6.8c-2.77-1.18-4.6-3.45-6.42-5.73Z"/><path class="cls-1" d="M339.86,191.05c-2.17-2.34-.39-5.05-.72-7.57C342.57,185.7,341.3,188.37,339.86,191.05Z"/><path class="cls-1" d="M181.9,169.46c-2.94-2.53-5.63-5.26-7.12-9.22l7.91,8.47Z"/><path class="cls-1" d="M391.41,170.73a44.81,44.81,0,0,1-8.26,8.75l-.58-.59a53,53,0,0,1,8.17-8.82C391,170.3,391.18,170.52,391.41,170.73Z"/><path class="cls-1" d="M394.91,439.9c-5.39,1-4.92-2.8-5.58-6.12C392.17,435.19,392.7,438.15,394.91,439.9Z"/><path class="cls-1" d="M448.77,434.38c-1.69-2.37-3.21-4.9-6.12-6.16,4.92-1.28,5.43,2.7,6.89,5.52Z"/><path class="cls-1" d="M339.05,213.21q0-4,.05-8.07C341.83,207.48,341.8,211.18,339.05,213.21Z"/><path class="cls-1" d="M160.27,145.08l8,7.86-1.09,1.11q-3.81-4.08-7.63-8.17Z"/><path class="cls-1" d="M196.41,486.38c-.77.58-1.55,1.15-2.33,1.72-.18-3.18-1.39-6.57,2.54-9.43C195.82,481.56,193.87,484.09,196.41,486.38Z"/><path class="cls-1" d="M234.55,121.73a39.16,39.16,0,0,1-3.24-11c2.38,3.1,3,6.83,3.88,10.47Z"/><path class="cls-1" d="M171.65,166.73l8,7.93-.82.8a45.38,45.38,0,0,1-8.07-7.9Z"/><path class="cls-1" d="M419.41,174.69l6.78-5.62a12.76,12.76,0,0,1-6,6.49Z"/><path class="cls-1" d="M214.06,469.3l-2.31.8a35.82,35.82,0,0,1,3.87-9.31l.63.63C216.26,464.26,213.76,466.39,214.06,469.3Z"/><path class="cls-1" d="M412.14,371.08l-1.64-.21c1.3-4.09,0-8.39,1.64-12.51Z"/><path class="cls-1" d="M149.21,133.15l6.13,6.27c-3.56-.7-5.14-3.35-7.18-5.5Z"/><path class="cls-1" d="M267.18,142.63c3.56-2.06,7.16-1.84,10.78-.2Z"/><path class="cls-1" d="M314.35,382.92l-6.3-6.74.53-.61,6.57,6.52C314.88,382.37,314.62,382.65,314.35,382.92Z"/><path class="cls-1" d="M379.7,160a30.6,30.6,0,0,1,5.12-6.86l.81.86L380.55,161C380.26,160.66,380,160.35,379.7,160Z"/><path class="cls-1" d="M128.81,126.56a9.59,9.59,0,0,1-4.44-4.87c3.17-.07,3.91,2.64,5.54,4.13Z"/><path class="cls-1" d="M361,398.08c-2.56.26-5.18-.46-7.72.72-1.26.58-1.07-.66-1.08-1.43C355.09,397.61,358.14,396.35,361,398.08Z"/><path class="cls-1" d="M391.24,131.56l-3.49,5.63c-.48-2.9,1.32-4.55,2.77-6.38Z"/><path class="cls-1" d="M145,142.41l-5-4.93c2.76.57,4.42,2.25,5.91,4.13Z"/><path class="cls-1" d="M414.41,178.83l5-4.14.81.87c-1.45,1.64-2.89,3.29-5.11,3.89A6.89,6.89,0,0,0,414.41,178.83Z"/><path class="cls-1" d="M372.15,159.46a17.14,17.14,0,0,1-4,6l-.7-.64,4.09-5.87Z"/><path class="cls-1" d="M252.94,372.05c-1.41-1.94-1.11-3.84.13-5.71C255.1,368.29,252.34,370.13,252.94,372.05Z"/><path class="cls-1" d="M410.65,370.92c-.73,1.35,3.23,4.79-1.87,4.2Z"/><path class="cls-1" d="M146.91,132.47c-1.36-1.08-2.92-2-3.49-4.15,2.65-.18,3.11,2.18,4.43,3.36Z"/><path class="cls-1" d="M167.74,164.6c-1.16-1-3-1.42-2.71-4.29l3.64,3.48Z"/><path class="cls-1" d="M378.24,163.59a4.52,4.52,0,0,1-4.08,3.43l3.3-4.21Z"/><path class="cls-1" d="M272,114.12a8.42,8.42,0,0,1,7,0Z"/><path class="cls-1" d="M368.93,315.37l.94,1.68c0,1.21-.79,1.36-1.52.89a2.06,2.06,0,0,1-1.07-2.44C367.62,314.59,368.38,315.62,368.93,315.37Z"/><path class="cls-1" d="M253.77,365.24c-2.29-1.39-1.61-2.23.51-2.81Z"/><path class="cls-1" d="M29.57,403c-1.18.32-2.08,1.74-3.65.9.44-1.47,1.77-1.57,2.9-1.95Z"/><path class="cls-1" d="M434.2,173.55a7.16,7.16,0,0,1-4.13,2.86c.7-2.23,2.2-2.85,3.37-3.76Z"/><path class="cls-1" d="M176.65,410.91c-1.14,1.17-2.29,2.33-3.43,3.49l-.84-.71,3.45-3.67Z"/><path class="cls-1" d="M148.47,145.82l-3.5-3.41.89-.8a9.44,9.44,0,0,1,3.31,3.59C148.93,145.4,148.7,145.61,148.47,145.82Z"/><path class="cls-1" d="M104,425.19c1.19,3.07-1.4,1.49-2.36,1.92A2.81,2.81,0,0,1,104,425.19Z"/><path class="cls-1" d="M439.77,307.15c-.26,2.13-1.66.56-2.51.77l.93-1.79Z"/><path class="cls-1" d="M317.36,385.85l-3-2.93c.27-.27.53-.55.8-.83a7,7,0,0,1,3,3Z"/><path class="cls-1" d="M377.6,175.92c-.79.87-1.25,2.22-2.93,2a4.66,4.66,0,0,1,2.19-2.68Z"/><path class="cls-1" d="M127.31,138.05c.76.43,2.09.95,1.28,1.88s-1.55-.34-2.14-1Z"/><path class="cls-1" d="M218.78,402a3.13,3.13,0,0,1,1.8-2.63c.73,1.49-.54,2.27-1.09,3.28Z"/><path class="cls-1" d="M119.5,423.75c-.19,2.77-1.33,1.79-2.51.64Z"/><path class="cls-1" d="M293,356.24a5.14,5.14,0,0,1-.69-4.29c1,.77.64,1.92.84,2.92-.05.46-.1.92-.16,1.38Z"/><path class="cls-1" d="M439.77,307.15l-1.58-1c-.15-.8.44-1.41,1-1.28C440.51,305.18,439.72,306.33,439.77,307.15Z"/><path class="cls-1" d="M439.11,302.45c-.52.29-.92.69-1.19.62a1.13,1.13,0,0,1-.66-.92,1.23,1.23,0,0,1,.93-.73C438.44,301.42,438.71,302,439.11,302.45Z"/><path class="cls-1" d="M372.8,157.15c.16-.57.21-1.54,1.09-1,.63.42.17,1.18-.31,1.68Z"/><path class="cls-1" d="M172.07,415.27l-.87,1.13-.53-.49,1.16-.83Z"/><path class="cls-1" d="M390.35,158.58l2.19-2.53c.8,2.08-.48,2.68-1.32,3.5Z"/><path class="cls-1" d="M380.55,161l-2.31,2.62-.78-.78L379.7,160C380,160.35,380.26,160.66,380.55,161Z"/><path class="cls-1" d="M234.76,398.49,231.53,397l.73-1,3.29,1.7Z"/><path class="cls-1" d="M140.82,317.09c.47.42,1.11.86.44,1.52-.16.15-.81-.2-1.24-.32C140.29,317.89,140.56,317.49,140.82,317.09Z"/><path class="cls-1" d="M111.94,420.08a2.41,2.41,0,0,1-1.8,2.2C109.64,420.64,110.53,420.14,111.94,420.08Z"/><path class="cls-1" d="M130.56,126.46l3,2.47c-2.54.89-2.94-.57-3.72-1.4Z"/><path class="cls-1" d="M223.9,466.17c.42.23.88.57.46,1-.23.22-.86.05-1.31.05C223.33,466.88,223.61,466.52,223.9,466.17Z"/><path class="cls-1" d="M263.06,112.49c-1,.6-2.05,1.23-3.09,0Z"/><path class="cls-1" d="M130.77,378.45c-.37.52-.71,1.28-.92,1.25-.75-.13-.7-.84-.7-1.47s.49-.88.89-.75S130.54,378.12,130.77,378.45Z"/><path class="cls-1" d="M183.82,171.52l-1.92-2.06.79-.75,1.94,2.07Z"/><path class="cls-1" d="M170.8,167.56l-2-2,.8-1c.69.71,1.39,1.42,2.08,2.14Z"/><path class="cls-1" d="M235.55,397.67c.46.47,1.84.58,1.06,1.54-.46.56-1.4,0-1.85-.72C235,398.21,235.29,397.94,235.55,397.67Z"/><path class="cls-1" d="M90.23,363.43a2.22,2.22,0,0,1-2.89.56c.37-1.09,1.45-1,2.19-1.39Z"/><path class="cls-1" d="M233.35,416.59l1.18-2a1.79,1.79,0,0,1-.32,2.83Z"/><path class="cls-1" d="M449.54,433.74c.23,1,1.06,2-.13,2.93l-.64-2.29Z"/><path class="cls-1" d="M149.17,145.2a3.3,3.3,0,0,1,2,2,6.87,6.87,0,0,0-.58.63l-2.1-2C148.7,145.61,148.93,145.4,149.17,145.2Z"/><path class="cls-1" d="M444.19,445.45c-.79,1.13-2.37,1.18-2.72.43-.43-.91,1.35-.64,1.89-1.32C443.63,444.86,443.91,445.15,444.19,445.45Z"/><path class="cls-1" d="M441.38,213.68c.8-.51,1.25-2.35,2.44-1.13.49.52-.87,1.43-1.64,1.95Z"/><path class="cls-1" d="M230.76,332.47c-.36.35-.56.69-.75.68a6.86,6.86,0,0,1-1.36-.32c.2-.18.39-.49.6-.51A8.24,8.24,0,0,1,230.76,332.47Z"/><path class="cls-1" d="M159.54,145.88c-.56-.37-1.89-.48-1-1.51.69-.82,1.38-.08,1.76.71Z"/><path class="cls-1" d="M411.09,135.45c-.39.88-1,1.13-1.82.59l1.05-1.36Z"/><path class="cls-1" d="M371.52,158.94l1.28-1.79.78.72-1.43,1.59Z"/><path class="cls-1" d="M368.13,165.45c-.14.56-.31,1.35-1,.84s-.1-1,.33-1.48Z"/><path class="cls-1" d="M119.6,378.81a.89.89,0,0,1,1.46-.15l-1,.59Z"/><path class="cls-1" d="M490.84,171.19c.27-.71,1-1,1.38-.5s-.42.82-.77,1.18C491.26,171.64,491.05,171.41,490.84,171.19Z"/><path class="cls-1" d="M202.64,169.81c.47.64,1.15,1.56.31,2-1.21.67-.88-.76-1.19-1.3Z"/><path class="cls-1" d="M131.85,378.86l.24,1.33-1,.64C130.77,380,130.84,379.24,131.85,378.86Z"/><path class="cls-1" d="M235.19,121.18c.69.33.94,1.13.47,1.46-.68.47-.73-.59-1.11-.91Z"/><path class="cls-1" d="M270.69,120.72l-.16.29s.17.25.15.23A.49.49,0,0,0,270.69,120.72Z"/><path class="cls-1" d="M148.16,133.92l-1.25-1.45.94-.79,1.36,1.47Z"/><path class="cls-1" d="M278,429.83a1.26,1.26,0,0,1,2.05,0Z"/><path class="cls-1" d="M222.44,162.93c-1.34.84-1.46-.51-2-1.1.24-.23.48-.44.73-.65L222.4,163Z"/><path class="cls-1" d="M491.45,171.87,489.57,173l-.75-.83a2.2,2.2,0,0,1,2-1C491.05,171.41,491.26,171.64,491.45,171.87Z"/><path class="cls-1" d="M113.6,362.5c.55,0,1.46-.19,1.57,0,.4.75-.44.75-.88,1Z"/><path class="cls-1" d="M226.31,368.54a1.21,1.21,0,0,1-2,.37l1.18-1.35Z"/><path class="cls-1" d="M173.22,414.4c-.18.56-.4,1.07-1.15.87l-.24-.19.55-1.39Z"/><path class="cls-1" d="M108.31,386.93l-.72-.51.44-.26c.08.27.17.53.25.81Z"/><path class="cls-1" d="M166.06,138.31l.42.55h-.4c0-.2,0-.41.07-.61Z"/><path class="cls-1" d="M184.83,172.52c-.33-.34-.67-.67-1-1l.81-.74,1.05,1.05Z"/><path class="cls-1" d="M390.74,170.07c.23-.41.5-.89,1-.48.12.1-.21.75-.33,1.14C391.18,170.52,391,170.3,390.74,170.07Z"/><path class="cls-1" d="M202.14,378.35l-.93.63c0-.4,0-.81,0-1.22Z"/><path class="cls-1" d="M215.62,460.79c.36-.39.77-.65,1.14-.07.06.09-.33.46-.51.7Z"/><path class="cls-1" d="M299.16,376.2l-.33-1Z"/><path class="cls-1" d="M225.5,367.56l.69-.78,1.12.74-1,1Z"/><path class="cls-1" d="M428.42,236.7a6.39,6.39,0,0,1-1.2.26c-.3-.7.3-.63.71-.71Z"/><path class="cls-1" d="M139.77,150.6c-.24-.36-.78-.89-.69-1,.54-.92,1-.12,1.47.18Z"/><path class="cls-1" d="M129.91,125.82a1.06,1.06,0,0,1,.65.64l-.72,1.07-1-1Z"/><path class="cls-1" d="M185.68,171.83c.21.46,1.09.9.13,1.39-.16.09-.64-.45-1-.7Z"/><path class="cls-1" d="M383.15,179.48c-.2.49-.51.84-1,.48-.07,0,.29-.7.45-1.07Z"/><path class="cls-1" d="M439.24,133.6c-.34.24-.85.76-1,.67-.84-.51-.19-1,.15-1.45Z"/><path class="cls-1" d="M413.51,436.73c.35.47.83,1,.11,1.46-.05,0-.53-.52-.81-.81C413,437.16,413.27,436.94,413.51,436.73Z"/><path class="cls-1" d="M158.49,114.8c-.35-.47-.75-1-.06-1.43.06-.05.53.5.8.77A9.4,9.4,0,0,1,158.49,114.8Z"/><path class="cls-1" d="M134.6,100.83l.18,1.14-.8-.55A7,7,0,0,1,134.6,100.83Z"/><path class="cls-1" d="M293,356.25c.06-.46.11-.92.16-1.38l.6,1.44C293.51,356.3,293.25,356.28,293,356.25Z"/><path class="cls-1" d="M428.31,440.71c-.22-.46-1-.92-.1-1.38.17-.08.63.43,1,.67Z"/><path class="cls-1" d="M402,131.3l-.42.61-.16-.37.67-.14Z"/><path class="cls-1" d="M169.4,322.28l1.62,1.15C169.94,323.81,169.78,322.89,169.4,322.28Z"/><path class="cls-1" d="M222.4,163l-.26.24.29-.32S222.4,163,222.4,163Z"/><path class="cls-1" d="M124.27,149.1c.42.19,1,.42.54.93-.13.17-.81-.09-1.24-.15Z"/><path class="cls-1" d="M348.09,500.47l1-.23Z"/><path class="cls-1" d="M115.44,352l.78.88-.42.18c-.07-.34-.13-.68-.21-1Z"/><path class="cls-1" d="M341.67,354.7l1,.21c-.57.94-.65-.08-.95-.23Z"/><path class="cls-1" d="M151.15,147.22l.63.61-1.21,0A6.87,6.87,0,0,1,151.15,147.22Z"/><path class="cls-1" d="M415.11,179.45l-.61.56c0-.39-.05-.79-.08-1.18A8,8,0,0,1,415.11,179.45Z"/><path class="cls-1" d="M133.74,369.3a3.91,3.91,0,0,1-.37-.7c0-.08.12-.23.19-.35Z"/><path class="cls-1" d="M299.85,128.81l0,.25a2.18,2.18,0,0,1-.22-.21Z"/><path class="cls-1" d="M249.05,116a.77.77,0,0,1-.85.34A.85.85,0,0,1,249.05,116Z"/><path class="cls-1" d="M168.67,163.79l.9.8-.8,1-1-1Z"/><path class="cls-1" d="M451.23,182l.9.39c-.74.81-.48-.46-.87-.41Z"/><path class="cls-1" d="M435.44,172.82l-1.24.73-.76-.9,1.25-.64Z"/><path class="cls-1" d="M333.5,276.71c.39-.09,1-.37,1.13-.23.38.44,0,.8-.44,1Z"/><path class="cls-1" d="M274,300.27c-29.44-9.75-46.24-30-49.55-60.84a58.71,58.71,0,0,1,6.26-33.24,3.68,3.68,0,0,1,1.19,3.35c-6,11.72-6.46,24.17-4.3,36.76,1.42,8.26,3.73,16.38,9.39,23l6.8,7.92c-.05,2.28,1.59,3.55,3,4.91A64.41,64.41,0,0,0,268.39,296c1.66.64,3.8,2.63,5.38.4,1.28-1.79.82-4.1-.51-6,3.12-.82,1.66,1.74,1.77,2.71C275.33,295.5,275.37,298,274,300.27Z"/><path class="cls-1" d="M231.45,204.32l.46-1.2Z"/><path class="cls-1" d="M271.52,267.39c-.81-4.27-3.35-6.17-7.63-5.31-2,.4-2.72-.24-2.83-2.18s-.42-3.61-.64-5.42c2.62-.24,5.11-1.31,7.85-1.08,2.9.25,6.28-.59,7.59,3.1C277.34,260.68,275.47,265.05,271.52,267.39Z"/><path class="cls-1" d="M275.35,181c-3-.75-6.17,1.22-9.11-.57,3.14-1.29,6.48-.71,9.72-1.08.59-.06,1.48-.11,1.1.82C276.87,180.59,275.94,180.71,275.35,181Z"/><path class="cls-1" d="M275.13,206.5h-1.28l-10.62,0-3.18-.27c5.29-2.21,10.8-.64,16.19-.66C277.09,205.55,275.44,206.06,275.13,206.5Z"/><path class="cls-1" d="M249.92,250.4c-.58-.11-1.78.35-1.4-.77.23-.7,1.29-.29,1.92.2Z"/><path class="cls-1" d="M354.9,302.18l.66-1.11.56.54-1,.76Z"/><polygon class="cls-1" points="325.96 392.19 326.24 391.98 326.03 392.26 325.96 392.19"/><path class="cls-1" d="M239.47,440.68c.44-.31.55-1.43,1.27-.83.49.39.21,1.21-.41,1.66Z"/><path class="cls-1" d="M142.84,390.83,141,390c0-.58-.18-1.6.61-1.46C142.63,388.73,142.7,389.91,142.84,390.83Z"/><path class="cls-1" d="M145,393.82a.37.37,0,0,1,.42.42l-.61,1.2-1-1Z"/><path class="cls-1" d="M305.14,111.28c1.13,1,2.59.81,3.91,1.12-6.76,2.17-13.6.5-20.41.67C294,111.27,299.81,113.65,305.14,111.28Z"/><path class="cls-1" d="M390.15,361.54c-2.83-4.69-2.73-11.37-.06-14.86,2-2.67,6.69-3.61,8.78-1.12,2.57,3.06,5.84,5.8,6.71,10.07.13.61.74,1.19.19,1.78-.73.77-1.5.34-2.22-.11-.28-.18-.55-.38-.83-.55C394.78,352.16,394.08,352.41,390.15,361.54Z"/><path class="cls-1" d="M386.24,398.78A86.4,86.4,0,0,1,372,368.24,163.79,163.79,0,0,0,387.27,398Z"/><path class="cls-1" d="M312,425.16q1.08-5.93,2.14-11.85c3.65,2.74,3.06,6.76,2.7,10.4C316.54,426.93,314.12,426.2,312,425.16Z"/><path class="cls-1" d="M191,355.57c-6.92-8-6.92-8-14.43-3.65.35-4.58,2-8.14,5.33-10.59a5.18,5.18,0,0,1,6.44.14C193,345.07,190.58,349.79,191,355.57Z"/><path class="cls-1" d="M131.69,357.51c-1-.14-1.4-.63-.91-1.57.08-.15.47-.14.72-.2,0,.59.08,1.19.13,1.79Z"/><ellipse class="cls-1" cx="313" cy="205.76" rx="12.04" ry="0.43"/><path class="cls-1" d="M263.23,206.48l10.62,0A16.44,16.44,0,0,1,263.23,206.48Z"/><path class="cls-1" d="M243.71,464A93.79,93.79,0,0,1,249,445c.35,6.7-2.7,12.75-3.12,19.27Z"/><path class="cls-1" d="M334,464.21c.27-4.28-2.58-8-1.9-12.43,2.49,3.75,2.42,8.35,4,12.39Z"/><path class="cls-1" d="M327.09,463.9l2.83.28Z"/><path class="cls-1" d="M439.39,433.72c2.89,1,5.5,2.3,5.19,6.37a25.32,25.32,0,0,1-5.63-5.87A2.32,2.32,0,0,0,439.39,433.72Z"/><path class="cls-1" d="M439,434.22l-.68-.68,1.12.18A2.32,2.32,0,0,1,439,434.22Z"/><path class="cls-1" d="M340.6,452.74c.37,1,.84,2,.31,3.16-1.46-.38-.88-1.63-1.15-2.49Z"/><path class="cls-1" d="M266.79,441.08c.22,6.1-1.51,11.23-2,17.61C263.35,453,264.25,445.46,266.79,441.08Z"/></g></g></svg>