<svg xmlns="http://www.w3.org/2000/svg" viewBox="0 0 1921.62 898.14"><defs><style>.cls-1{fill:#11232a;}.cls-2{fill:#0e1f29;}.cls-3{fill:#13252d;}.cls-4{fill:#172730;}.cls-5{fill:#203037;}.cls-6{fill:#b5a085;}.cls-7{fill:#bf7b60;}.cls-8{fill:#bfd7ce;}.cls-9{fill:#5b2c5c;}.cls-10{fill:#efefef;}.cls-11{fill:#8c4672;}.cls-12{fill:#332941;}.cls-13{fill:#d04553;}.cls-14{fill:#d8e5e0;}.cls-15{fill:#f4f3f3;}.cls-16{fill:#f8f8f8;}</style></defs><g id="Layer_2" data-name="Layer 2"><g id="Layer_1-2" data-name="Layer 1"><path class="cls-1" d="M1456.52,897.78H761.18c3.72-24.06-6.79-42.53-22.74-59.11-2.14-2.23-3.16-5.86-6.88-5.07-4.72,1-4.86,5.23-4.88,9.06-.07,18.37-.06,36.75-.08,55.12H665.14c4.38-17.85-8.91-31.43-11.51-47.6-2.32-14.43-8.19-26.22-21.26-34.54-9.64-6.14-17.72-14-17.91-27.6-.1-7.36-3.77-16.4-13.13-16.42-12.56,0-16.71-6.21-18.11-17.3-.65-5.07-4.19-9.31-9.31-11.48-7.58-3.21-12.24-8-13.17-17-1-9.62-8.32-14.7-16.58-19.46-30.29-17.45-48.7-58.56-41.58-90.83,6.13-27.76,6.13-27.76,32-13.42l0,7.59c-2.86.58-7.28.61-5.49,4.91,1.3,3.12,4,.91,5.55-1.23h7.51c16.41,4.41,9.73-8.65,11.55-15.27h0c4,1.82,8,3.51,11.83,5.48,4.15,2.11,9,4,12.27.21,4.19-4.73-2.09-7.53-3.76-11.19a9.88,9.88,0,0,0-8.93-6,12.21,12.21,0,0,1,7.74-11.51c7.85.35,11.48-2.28,16.84-9.87,10.74-15.24,0-25.7-2.58-38.09l.52-1.61c8.11-7.22,3.44-16.49,4-24.91l1.2-40.69c10.11-3.21,9-12.56,10.68-20.14s-2.74-16.69,5-23.13v.17c-.92,4.48-1.6,8.91,2.54,12.35,11.25,16.29,19.37,33.78,20.71,53.87-11,2.39-16.82-3.64-19.79-15.72-7.78,24.34-6.49,26.34,14.77,27.19-.66,17.93,2.39,36.11-3.71,53.67-9.74,34.24,1,67.73,1.18,108.91,14.7-25.4,22.93-14.73,29.19-2.81,4.51,8.61,11.19,11.56,19.66,12.94l8.17,3.75,4.57,15.4c-1.84,5.36.87,7.64,5.74,8.44,0,0-.08,0-.08,0q.45,3.41.89,6.82l-.88,1.62.93-1.58h1.56l1.55-.23c33.75-6.74,46.82-1,65.18,28.16,2.87,4.55,5.17,10.69,12.36,10.62,1.32,10.49,8.83,19.4,7.81,30.49-2.22-.93-5-1.34-6.55-2.91-3.32-3.28,0-15.91-11-8-6.77,4.89-7.43,11.23-1.32,17.71,2.14,2.26,4.87,4.69,5.54,7.47,1.67,7,3.25,15.3,12,13.5,9.24-1.89,2.61-11.78,5.48-17.4,1.1,1.5,2.74,2.86,3.2,4.53,1.85,6.9.57,18.38,9,18.11,9.44-.31,5.67-12.06,7.51-18.85.82-3,.6-6.26,1-9.38,2.86-19.73-2.29-40.21,5.59-59.46,3,.83,5.07,9.33,9.3,1.22,10.75-3.44,12.53,8.45,19.49,11.37,10.66,4.48,19.94,7.64,2.17,16.89-6.68,3.48-10.39,15.57-4.49,21.13,5.53,5.22,12.25-3.29,15.94-8.58,9-12.92,17-26.47,26-39.46,6.68-9.67,11.11-15.84,23.56-10,6.5,3.07,12.64-.71,16.34-6.55,4.4-7-3.59-8-6.2-11.59-1.74-2.43-4.5-5.54-4.07-7.84.9-4.87,5.89-3.6,9.49-3.77,5.09-.23,10.2-.1,15.29-.12h7.48c8.58,4.75,16.49,5.89,23.77-2.76s-8.55-7.48-5.12-15.65c8.07,3.46,16.79,3.5,25.52,3,4.44-.25,11.57-2.21,6.48-7-11.66-11-7.25-27.5-16-39,6,.17,13.2-12.44,18,3,2.29,7.41,9.85,2.2,14.66-.38,6-3.22,9.55-10.62,17.61-10.48l28.37,8.11q15.91,24.66,31.84,49.32l3.77-2.34q2.85-33.13,5.72-66.27l1.61.1,1.59-.3c15.9-8.45,36.8,2.82,52.43-13.5l-29.71-13.35.42-7.41c9.13-1.86,6.76-9.33,7.47-15.3,13.23.93,21.88-11.1,34.41-12.17-2.59,7.18,13.84,13.12,1.16,21.19-6.22,4-11.3,9.86-7.39,17.64,3.57,7.1,11.28,7.49,18.47,7.51,5.12,0,10.27-.35,15.35.12,5.46.5,13-3,15.87,2.93,3.1,6.37-5.15,9.06-8.17,13.54-3.4,5.06-12.33,7.85-9.82,15,2.28,6.48,10.34,5.74,16.58,7.07,23.18,4.91,50.49,3.46,57.66,35,.21.94,3.22,1.24,8.5,3.08-8.11-21.43-14-40.76-26.21-57.47q-5.07-16.71-10.13-33.44c-2.73-6.21,1.69-14.73-6.24-19.25,10.64-7.1,1.26-8.16-3.2-9-11.73-2.09-23.63-3.26-35.46-4.79l-3.75-3.1c11.13-3.87,22.07,1.69,33.31.65,8.61-.8,13.35-3.06,12.8-12.23l11.87,5.66c5,7.13,2.16,22.38,18.45,17.88,8.56,9.94,20.1,15.84,30.86,22.8l1,6.71c-.31,4.18.67,7.88,5.44,8.38,12.84,1.33,18.77,9.32,24.15,20.41,11.08,22.88,25.07,23.39,42.59,3,12.43-3.58,23.54-.13,36,3,30.28,7.55-1.94,18.86,3,27.19.31.52.18,1.28.4,1.87,3,8.16,6,19.26-5.16,20.28-14.84,1.37-31.86,8.38-44.92-4.7-3.24-3.25-3.5-9.49-10.17-8.75-7.08.78-8.49,5.93-10.16,12-6.29,22.66-4.17,25.84,19.23,26,5.12,0,10.24,0,15.37,0,42.81.14,38.92-3.85,38.53,37.55-.13,14.22,3.51,23.87,19.84,24.16,6.82.13,10.6,4.4,10.8,11.07.3,10.23.24,20.48,0,30.72-.11,5.62-2.88,9.2-8.55,11.26-21.77,7.93-27.2,15.83-21.16,37.25,3.42,12.13,6.23,31.28,21,31.06C1458.72,865.37,1457.49,880.35,1456.52,897.78ZM653.61,739.24c0-2.66-.06-3.94,0-5.22.83-14.75-2.88-27.43-18.93-31.17-11.17-2.61-20.13,2.75-24.6,13.54-6.27,15.12,1.51,24,14.29,30.68,6.82,3.57,10.59,9.11,7.71,17.34-1.71,4.91-1.26,9.07,4.88,10,5.43.83,7.65-2.51,9.56-7.22C650.38,757.72,655.49,748.68,653.61,739.24Zm184.33,63.42c-6.2-.46-7.78,3.58-7.4,8.34.46,5.77-3.49,14.25,4.76,16.24,7,1.7,8.65-5.94,9.8-11.28C846.39,809.93,844.65,804.74,837.94,802.66Zm-22.77-14.88c-2.95,1.13-4.08,3.72-3.76,7,.23,2.42.56,5.32,3.85,5.29,3.5,0,5.68-2.24,5.92-5.72C821.44,790.74,819,789,815.17,787.78Z"/><path class="cls-2" d="M1456.52,897.78c1-17.43,2.2-32.41-24.3-32-14.73.22-17.54-18.93-21-31.06-6-21.42-.61-29.32,21.16-37.25,5.67-2.06,8.44-5.64,8.55-11.26.19-10.24.25-20.49,0-30.72-.2-6.67-4-10.94-10.8-11.07-16.33-.29-20-9.94-19.84-24.16.39-41.4,4.28-37.41-38.53-37.55-5.13,0-10.25,0-15.37,0-23.4-.16-25.52-3.34-19.23-26,1.67-6,3.08-11.17,10.16-12,6.67-.74,6.93,5.5,10.17,8.75,13.06,13.08,30.08,6.07,44.92,4.7,11.15-1,8.18-12.12,5.16-20.28-.22-.59-.09-1.35-.4-1.87-5-8.33,27.24-19.64-3-27.19-12.42-3.1-23.53-6.55-36-3l4-7.48c5.52-3.62,10.62-7.56,11.58-14.75,6.43-1.16,13.48.22,19-4.65,6.48-.93,13.87,2.54,19.22-3.94h11.51c-4.51,23.19,16.24,23.75,28.62,31.62,3.75,2.38,7.48,9.09,12.84,3.13,2.3-2.55,3.94-7.12,3.47-10.42-.85-5.87-6.59-5.13-10.88-5-8.48.34-11.49-3.93-11.06-11.72l4.29-4.11c34,17.9,59.09-2.06,84.73-19.77l14.84,2.09c2.91,3,5.44,2.38,7.72-.78l.53-.09c7.16-.4,15,.71,18.59-8l7.45-6.09c35.25-21.65,69.44-45,106.23-64.17,21.37-11.15,45.08-12.47,67.59-18.73,5.57-1.55,9.16,3.56,13.06,6.71,24.77,20,50.88,38.47,72.58,62.07.28,3.32,1.84,5.26,5.41,5.05l.24.21c.88,4.85,1.4,10.05,8.6,8.51a10,10,0,0,0,2,1.79c-2.34,8,4.18,12,8.58,15.55,11.61,9.39,17,21.76,20.32,35.59q1.89,16.85,3.77,33.69c-2.1,18.56,2.81,36.56,4.43,54.82-2.84,12.82,3.16,24.76,2.92,42.63,4.68-11.32,2.14-20.76,11-24,0,60.17-.26,120.34.25,180.51.09,9.61-2.11,12.56-11.8,11.75-11.44-1-23-.23-34.55-.23-4.9-30.23-10.61-60.35-14.41-90.72-2.7-21.52-4.6-41.73-34.55-36.57-4.34.75-5.14-8.47-11.27-3.41a168.33,168.33,0,0,0,5.78,19.67c13,37,30.77,72.38,39.08,111Z"/><path class="cls-3" d="M534.57,602.15c-25.86-14.34-25.86-14.34-32,13.42-7.12,32.27,11.29,73.38,41.58,90.83,8.26,4.76,15.58,9.84,16.58,19.46.93,9,5.59,13.77,13.17,17,5.12,2.17,8.66,6.41,9.31,11.48,1.4,11.09,5.55,17.27,18.11,17.3,9.36,0,13,9.06,13.13,16.42.19,13.61,8.27,21.46,17.91,27.6,13.07,8.32,18.94,20.11,21.26,34.54,2.6,16.17,15.89,29.75,11.51,47.6H377c-.7-4.13,1.52-8.77-2.16-12.54-6.66,2.11-5.05,7.79-5.52,12.54H311.7c-8.87-21.27-12.89-23.23-23.1-11.26H277.17c-2.37-3.76-5.38-7.27-7-11.33-3.53-9.06-4.58-17.92-14.28-2.58-7.84,12.39-23.62,4.52-35.66,6.5-4.1.68-5.11-6.26-2.7-10.86,12.07-23,26.41-44.79,37.17-68.62,3.83-8.47,0-20.18,10.34-25.62,16.73-8.84,13.88-22.35,8.7-36.13-2.49-6.63-6.57-13.12-2.41-20,7.14-11.75,4.7-24.63,6-37.19,2.75-27.31-6.91-55,3.25-82.12,1.72-4.57.82-10.49-4.49-13.53s-8.11,1.64-11.36,4.4c-5.45,4.63-11.37,8.17-18.69,8.75q1.22-15.71,2.44-31.42c26.89,12.84,28.61,11.75,28.65-18.21,0-5.76.15-11.52,0-17.27-.25-7.5.75-18.67-8.11-18.78-9.38-.11-10.34,11.11-11,19.41-.38,5.09-.18,10.23-.2,15.35,0,5.42-2.88,8.16-8.13,8.68l.16-34.48a764.49,764.49,0,0,0,8.21-99.9q2-9.64,3.94-19.29c.77-2.12,1.55-4.23,2.33-6.35q10.59-33.1,21.17-66.2c13.92,9.63,28.77,15.48,46.08,11.35l25.2-11.28c27.39-8.06,48.49-25.24,66.91-46.27,5.84-7.4,3.16-20,14.61-24,4.77,6.07-3.58,11.35-.85,19.21l24.18-9.68,11-2.29c2.9,13.94,12.44,24.27,19.56,35.91l19.53,30.83,23.13,42c4.69,9.1,5.14,20.64,15.24,26.65.18,5.27-1.57,11,3.35,15.18Q564.2,468.25,575,519.09c1.37,6.42,2.68,13.41,12.06,8.06,2.58,12.39,13.32,22.85,2.58,38.09-5.36,7.59-9,10.22-16.84,9.87,3.57-10.17,3.29-17.27-10.83-15.44-8.07,1-16.22.9-24.41,2-17.2,2.31-22.51,6.4-6.77,19.57C537.32,586.71,542.51,593.54,534.57,602.15ZM381.05,871.09c7-6.22,7.84-14.47,7.73-23.06.9-1.42,1.83-2.82,2.65-4.29a10.73,10.73,0,0,0-1.34-1c-.61,1.63-1.21,3.27-1.81,4.9-6.83,6.31-7.86,14.53-7.61,23.17-.91,1.39-1.84,2.77-2.67,4.21a12.14,12.14,0,0,0,1.35,1Q380.19,873.54,381.05,871.09Zm45.39-131.26c-9,14.13-13.76,29.67-15.26,46.28-.87,1.46-1.77,2.9-2.53,4.42-.06.11.84.72,1.3,1.1q1-2.4,2.09-4.79c9.18-14.05,13.78-29.62,15.37-46.19.87-1.49,1.77-3,2.52-4.52.07-.13-.85-.75-1.31-1.14C427.89,736.61,427.17,738.22,426.44,739.83ZM303.64,419.39c-1.84-5-2-12.93-10.67-12.19-8.2.69-8.21,8.73-9.76,14.49-2.26,8.4,4.52,7.17,9.27,7.42C298.74,429.45,304.05,428.23,303.64,419.39Zm-27.05,54.19c-.44-4.82-2.74-8.34-7.74-8.86-6.15-.65-6.94,3.86-6.93,8.47,0,4.45.34,9.2,6.53,8.92C273.53,481.87,275.91,478.39,276.59,473.58ZM444.72,699.64c-8.53,9.92-14.12,16.37-12.1,29.46C439.49,719.81,444.19,713,444.72,699.64ZM397.41,827.55c6.6-11.6,10.12-18.24,7.25-27C400.92,807.07,396.23,813.32,397.41,827.55Zm-127-389.86c-3,.46-4.05,2.54-4.07,5.18,0,3.12,2.21,4.7,4.72,3.67a8.09,8.09,0,0,0,4.25-5.16C276,438.14,273,437.78,270.45,437.69Zm37.16,67.66c-.62-2.25-.5-5.54-4.08-4.76-2.8.6-3.26,3.41-2.94,5.92.31,2.33.43,5.56,4,4.79C307.41,510.7,307.63,507.9,307.61,505.35ZM395.37,832.2l-.93-1.25-1.14,1,1.55,1.6C395,833.13,395.2,832.67,395.37,832.2Z"/><path class="cls-4" d="M246,598.22c7.32-.58,13.24-4.12,18.69-8.75,3.25-2.76,6.1-7.4,11.36-4.4s6.21,9,4.49,13.53c-10.16,27.08-.5,54.81-3.25,82.12-1.27,12.56,1.17,25.44-6,37.19-4.16,6.85-.08,13.34,2.41,20,5.18,13.78,8,27.29-8.7,36.13-10.3,5.44-6.51,17.15-10.34,25.62-10.76,23.83-25.1,45.59-37.17,68.62-2.41,4.6-1.4,11.54,2.7,10.86,12-2,27.82,5.89,35.66-6.5,9.7-15.34,10.75-6.48,14.28,2.58,1.59,4.06,4.6,7.57,7,11.33-15.86,7.31-35,0-50,11.26H111.94c-14.09-17.56-28.18-4.63-42.26,0H65.84c-17.23-15.21-42.7-15.21-53.79,0-6.35-.18-12.75,2.5-12-9.63,1.56-24.87.47-49.9.47-74.86C12.9,808.92,16,797.63,20.06,787.08c6.08-15.7,14.09-31.1,32.21-33.5C85,749.25,115.67,738,147.3,730c50.39-12.74,84.49-53.25,83.26-105.86C225.94,609.67,242.09,607.59,246,598.22Z"/><path class="cls-5" d="M230.56,624.14c1.23,52.61-32.87,93.12-83.26,105.86-31.63,8-62.32,19.25-95,23.58-18.12,2.4-26.13,17.8-32.21,33.5C16,797.63,12.9,808.92.53,813.29V632.78c9.79,0,14.11-4.44,15.09-14.71,1.51-15.82,1-32.07,7.11-47.24,13.45,14.87,7.08,37.61,20.18,54.2,12.88-16.52,23.25-32.43,31.36-49.79l14.67,18c4.77,3.74,9.06-1.32,13.65-.76,2.59.71,4.32-.29,5.36-2.67l1-.65,1.15.07c14.23,1.94,24.7-9.05,37.79-11l32.56.64,4.63,0c13,12.65,26.25,25.06,35.67,40.86C222.83,623.3,224.84,628.14,230.56,624.14Z"/><path class="cls-6" d="M1859.89,897.78c-8.31-38.65-26.05-74-39.08-111a168.33,168.33,0,0,1-5.78-19.67c6.13-5.06,6.93,4.16,11.27,3.41,30-5.16,31.85,15,34.55,36.57,3.8,30.37,9.51,60.49,14.41,90.72Z"/><path class="cls-6" d="M1870.37,547.47c14.94,12.62,33.9,8.6,51,12.34v38.4l-22.09.4c-3.31-13.83-8.71-26.2-20.32-35.59C1874.55,559.46,1868,555.45,1870.37,547.47Z"/><path class="cls-3" d="M726.6,897.78c0-18.37,0-36.75.08-55.12,0-3.83.16-8.06,4.88-9.06,3.72-.79,4.74,2.84,6.88,5.07,15.95,16.58,26.46,35.05,22.74,59.11h-3.85c-2.5-8.36-5.23-16.67-7.41-25.12-1.23-4.77-.78-11.41-7.36-11.11-6.36.28-6,7.69-6.85,11.91-1.55,7.9-1.06,16.19-1.43,24.32Z"/><path class="cls-7" d="M1907.47,687.12c-1.62-18.26-6.53-36.26-4.43-54.82l18.32,4.32v46.09l-8.09,4.07Z"/><path class="cls-8" d="M1921.36,636.62,1903,632.3q-1.89-16.84-3.77-33.69l22.09-.4Z"/><path class="cls-5" d="M734.28,897.78c.37-8.13-.12-16.42,1.43-24.32.83-4.22.49-11.63,6.85-11.91,6.58-.3,6.13,6.34,7.36,11.11,2.18,8.45,4.91,16.76,7.41,25.12Z"/><path class="cls-8" d="M12.05,897.78c11.09-15.21,36.56-15.21,53.79,0Z"/><path class="cls-9" d="M227.19,897.78c15-11.27,34.12-3.95,50-11.26H288.6c2.85,3.56,8.46,5.24,7.74,11.26Z"/><path class="cls-4" d="M296.34,897.78c.72-6-4.89-7.7-7.74-11.26,10.21-12,14.23-10,23.1,11.26Z"/><path class="cls-10" d="M69.68,897.78c14.08-4.63,28.17-17.56,42.26,0Z"/><path class="cls-11" d="M1907.47,687.12l5.8-.35c1.58,5.65-3.58,14.88,8.09,15.14v3.84c-8.83,3.24-6.29,12.68-11,24C1910.63,711.88,1904.63,699.94,1907.47,687.12Z"/><path class="cls-2" d="M1921.36,701.91c-11.67-.26-6.51-9.49-8.09-15.14l8.09-4.06Z"/><path class="cls-12" d="M369.33,897.78c.47-4.75-1.14-10.43,5.52-12.54,3.68,3.77,1.46,8.41,2.16,12.54Z"/><path class="cls-3" d="M489.78,249.23c18.59-27.34,33.78-56.72,40.69-88.85,2.69-12.52,12.94-21.4,12.25-34.4,2.78-7,5.65-14,8.32-21,1.9-5,4.59-7.55,9.88-4.1.4,10.18,6.57,17.68,11.88,25.59q9.65,34.28,19.3,68.57c-.48,9.2.24,18.72,10.7,21.32,6,1.5,14.29-2.63,14.66-8.91.82-13.85,12.85-24.78,9.23-39.36-1.05-15,5.35-32.07-12.05-42.41-10.52-6.69-24.17-10.11-26.55-25.33,24.09,4.51,37.33-9.73,51.23-26.6,19.08-23.17,33.85-50.46,60.13-67.24A150.24,150.24,0,0,0,700,79.27l1.23,15.88c2.29,7.48-6.55,20.68,7.07,21.79,15.8,1.29,32.31,3,48-2.69,6.9-.75,14.25,1.82,20.61-2.81,8.33-.41,16.79,2.36,25-1l1.3-.73-.33-1.46c1.33-3.84-.5-9.79,4.27-11.17,5.36-1.56,5.6,5,8.21,7.86,2,2.21,3.38,5,6.93,5l4.11.83c-.48,26.22,6.89,51.32,11.67,76.69,7.7,40.87,10.89,82.59,23.06,122.61q0,15.36,0,30.71c-.06,24.17,6.7,35.91,20.48,33.28,7.59-1.45,15.2-1.41,22.62-2.79,14.36-2.67,26.77-6.68,26.62-26.13-.09-11.19,6.85-20.39,20.31-11.65,6.43,4.18,13.32,12.41,18.66,2.25,4-7.62,9.09-19.62-5.18-25.42l0,0-2.81-3.76.31-8.19c.3-.38.93-.88.84-1.11a13.67,13.67,0,0,0-1.32-2.27q-.51-3.84-1-7.7c7.55-7.48,3-11.75-4.08-15.33-9.31-21.05-12.24-43.61-15.71-66q.36-5.47.74-10.95c2.14-19,3.49-38.09,6.69-56.88,2.5-14.62,1.44-26-14.48-31.87-3.81-1.42-6.67-5.4-10.26-8.46,15.48-8.9,43.31-2.79,61.33,12.64-5.62,9.93-18,5.4-26.26,11.34a61,61,0,0,0,21,16.36c.52,2.16,1,4.34,1.55,6.51,0,2.69,0,5.37-.07,8.06-7.91,10,3.57,17.81,2.91,27-8,21.67-11.43,44.78-5.87,66.55,8.84,34.65,10.71,70.55,21.14,104.8,9.26,30.43-5.77,58.21-11.66,86.67-6.75,32.63-33.6,59.24-30.34,95.38,3.08,32.17-6.61,64.1-3.17,96.9,9.79-2,12.62-13,22-12.68l.19.19c8.73,11.46,4.32,28,16,39,5.09,4.8-2,6.76-6.48,7-8.73.5-17.45.46-25.52-3-3.43,8.17,12.5,6.88,5.12,15.65s-15.19,7.51-23.77,2.77c1.74-4.83,10.94-2.2,9.83-9.28-.64-4.09-4.7-5.52-8.64-5.69-8.07-.35-8.84,5.13-8.72,11.23,0,1.24,0,2.49,0,3.74-5.09,0-10.2-.11-15.29.12-3.6.17-8.59-1.1-9.49,3.77-.43,2.3,2.33,5.41,4.07,7.84,2.61,3.64,10.6,4.64,6.2,11.59-3.7,5.84-9.84,9.62-16.34,6.55-12.45-5.88-16.88.29-23.56,10-9,13-17,26.54-26,39.46-3.69,5.29-10.41,13.8-15.94,8.58-5.9-5.56-2.19-17.65,4.49-21.13,17.77-9.25,8.49-12.41-2.17-16.89-7-2.92-8.74-14.81-19.49-11.37,5-7.33,15-1.89,20.54-7.87,2.62,3.46,6.54,3.16,10.28,4,22.24,4.82,26.93-22.38,45.32-24.81l-23.8-6a14.58,14.58,0,0,1-.56-3.22c-1.82-19.25-18.63-28.46-42.51-23.28l-25.55-12.72c-6.52-15.84-7.35-33-11.32-49.4q-1-5.82-2.06-11.65c-.6-2.4-1.21-4.81-1.81-7.22-.29-7.95-.94-15.82-4.64-23.08q-.51-4-1-7.92l-2.79-11.24c-1.77-25.56-11.53-50.2-8.79-76.28l1.88-84.47c4-23.72.88-47.73,2.84-71.48,1.2-14.59-2.56-25.77-15.57-33.15a28.68,28.68,0,0,0-1.44-18.68c-15.75-36.27-31.34-72.61-47.1-108.88-1.32-3-2-8.17-8.48-4.22,7.94,29.81,9.95,60.83,14.86,91.41,1.2,7.52,1.15,15.46,8.31,20.53-6.44,24.2-5.78,49.22-7.77,73.87-1.78,22-8.71,43.93-2,66.18q1.53,7.53,3.07,15.07.95,9.44,1.87,18.87c-16.74,11.43-36.15,16.65-54.83,23.57-3.28-9.91-6.28-19.93-9.92-29.72-3.28-8.79-2.39-20.53-15.17-23.18L639,387.47l-4.77-19.55a124.76,124.76,0,0,0-10.71-38.57q-1.15-5.55-2.32-11.08c-1.1-13.56-7.59-21.58-21.4-25.38-15.83-4.37-31-11.09-46.49-16.79-1.47-4.18-3.83-4.66-7-1.69L540,276.74c-11.77-3.08-24.71,2-35.91-5.13-8-3.37-15.38-8.45-24.56-8.18C478.84,255.72,488.08,255.19,489.78,249.23Z"/><path class="cls-11" d="M984,179.61c.66-9.16-10.82-17-2.91-27,8.43,12.61,16,25.94,25.5,37.67,12.84,15.82,24.9,32.82,44,42.25,8.51,13,8.3,29.8,18.28,42.17-1.5,21.51,6.36,41.59,12.2,61.32,8.6,29,7.52,58.42,9.92,87.71.7,8.46-2.6,16.68-11.58,20.12-7.35,2.82-8.94,6.55-3.86,12.72l3.89,8.07c8.18,21.85,15.94,43.87,24.71,65.47,4.24,10.43,9.73,3.06,14.5-.49a46.62,46.62,0,0,0,22.95-15.09l24.91,9.36c-2.28,4.7,2.17,6.25,4.21,8.93l-6.26,3.62c-12.52,1.08-21.17,13.11-34.4,12.18a26.32,26.32,0,0,1-15.91-5.27c-6-4.37-11.8-4.74-15.3,3.47-5.57,4.11-11.09,8.28-16.73,12.28-3.43,2.43-5.82,8.05-10.82,6.08-5.34-2.11-3-7.8-2.79-11.81,1.09-17,2.71-34,4.14-51,.47-.41,1.39-.89,1.33-1.2a17.16,17.16,0,0,0-1.09-3.11l.22-11c3.78-4.27,5-9.61.75-13.3-3.19-2.75-5,1.46-5.87,4.53a24.11,24.11,0,0,1-2.92,1.13c2.71-20-12.92-37.64-7.59-58q-.29-3.72-.58-7.43c0-10.15-2.14-20.47-2.09-30.21.13-26-8.29-51.05-6.29-77.08,2.35-30.46-11-53.59-37.28-66.1q-9.54-19.12-19.09-38.24C991.3,194.11,989.76,186.11,984,179.61Z"/><path class="cls-13" d="M1166.53,523.94l-24.92-9.38c-23.73-46.94-25.32-61.11-66-57.95-5.08-6.17-3.49-9.9,3.86-12.72,9-3.44,12.28-11.66,11.58-20.12-2.4-29.29-1.32-58.7-9.92-87.71-5.84-19.73-13.7-39.81-12.2-61.32l49.8,73.82c1,1.8,2.09,3.6,3.14,5.39q1.13,5,2.26,10c-2.62,5.63,1.08,7.52,5.37,9.07.93,9.47,5.84,17.44,9.73,25.79l2.18,4c.4,1.21.79,2.41,1.18,3.62.79,1.62,1.59,3.24,2.38,4.85,9.15,29.94,26.3,56.12,39.59,84.1.15,6.54-4.33,10.75-7.78,15.48-5.8-.62-8.21,1.87-7,7.66l-.44.31c-2.34.1-3.46,1-2.42,3.48Z"/><path class="cls-9" d="M1105.87,238.66c-3.54-3.57-6.12-7.65-6.75-12.75-.52-3.36-.74-6.95-5.57-6.75l.09.61c3-9.57-3.7-9.17-9.7-9.52-7.68-5.22-14.34-11.42-19.06-19.52-1.1-17.14,3.2-31.6,18.58-41.7,3.22-2.12,4.77-7.47,4-12.27l-.28.26c4.45.41,9,1.14,12.1-3.32l18.74,8a4.38,4.38,0,0,0,5.68,2.58c.72-.21,1.12-1.51,1.66-2.31l-6.43-1.35c8.64-3,16.83,7.65,25.61.86.41,9.06,1.64,18.22-3.39,26.59C1133.13,193.5,1114.48,213.57,1105.87,238.66Z"/><path class="cls-11" d="M962.16,298.34q-.15,4.1-.32,8.19c-.48,2.31.82,3.3,2.82,3.76l0,0c-.81,4.83,3.18,11.24-3.11,13.56l-15.6-14.05c-1.19-28.41-20-53.09-17.56-82.38.19-2.3-3.69-4.92-5.65-7.4-4-5-6.94-10.56-7.8-17.09-2.84-21.45-11.36-40.94-18.63-61.12-5.93-16.48-19.6-29.24-20.8-47.35L881,75.1l7.35,4.7a25.87,25.87,0,0,0,7,19.16q2.26,5.72,4.55,11.41c1.34,8.43,5.07,15.88,9.34,23.12.66,1.34,1.31,2.68,2,4-1.1,5.86,2,8,7.28,8.15,2.85,21.79,7.54,42.89,22.38,60.23,3.47,22.43,6.4,45,15.71,66,.39,5.37-.51,11.08,4.08,15.33q.52,3.86,1,7.7A3.89,3.89,0,0,0,962.16,298.34Z"/><path class="cls-8" d="M1141.11,168.1c5-8.37,3.8-17.53,3.39-26.59,22.2-2.82,21.73,16.24,27.16,29,2.08,4.87,1,11.11,1.31,16.73q-.39,38-.79,76c-5.29,2.06-4.4,8.1-7.46,11.6l-.52,9-26.41-12.07C1140.37,237.19,1142.65,202.71,1141.11,168.1Z"/><path class="cls-6" d="M1050.6,232.57c-19.12-9.43-31.18-26.43-44-42.25-9.52-11.73-17.07-25.06-25.5-37.67,0-2.7,0-5.38.07-8.07l33.49.65-.08-.06c.44.94.88,1.88,1.33,2.82l3.14-3a26.86,26.86,0,0,0,2.83.29C1031.3,174.44,1044.18,202.44,1050.6,232.57Zm-30.09-74.34c-.45.35-1.32.79-1.27,1a17.87,17.87,0,0,0,1.09,2.93c.46-.35,1.34-.79,1.28-1A17.14,17.14,0,0,0,1020.51,158.23Z"/><path class="cls-7" d="M777,111.44c-6.36,4.63-13.71,2.06-20.6,2.81-8.56-1.85-17.83,2.24-26-3.06,14.83-15.78,6.12-32,.73-48-5-14.7-15.16-28-11.29-44.93l8.59-.54Z"/><path class="cls-7" d="M1214.21,398.46q4.41,12.23,8.8,24.44c-6.55,7.29-10.32,14.41-6.07,25.17,2.77,7,4,16.37-2.65,23-7,6.9-7.34,15.49-8,24.21q-3.48-8.08-7-16.18c-.27-1.3-.55-2.6-.83-3.9q-1.32-2.94-2.65-5.88c-.42-3.17-.85-6.34-1.27-9.51l-2.88-8.1a3.85,3.85,0,0,0-.65-3.33c.18-7.7-2.29-14.61-6.36-21q-2.49-12.39-5-24.78Z"/><path class="cls-12" d="M1141.11,168.1c1.54,34.61-.74,69.09-3.32,103.57,0,5.69-.2,11.25-7.91,11.75-3.29-1.48-4-4.5-4.5-7.61,10.78-5.07,10.67-15.22,6.8-22.86-4.45-8.8-12.31,1.05-18.77.39q-3.77-7.35-7.54-14.68C1114.48,213.57,1133.13,193.5,1141.11,168.1Z"/><path class="cls-4" d="M1176.73,510.8c3.45-4.73,7.93-8.94,7.78-15.48l5.25-.15c5.58,3.39,10.13,8.74,17.33,9,9,5.5,20.24,7.37,26.72,16.84.55,9.17-4.19,11.43-12.8,12.23-11.24,1-22.18-4.52-33.31-.64-.17,1-.31,2-.41,3l-11.26-.56-5.3-2.19c-2-2.68-6.49-4.23-4.21-8.93,0,0,.33-1.68.31-1.68.8-1.16,1.62-2.32,2.44-3.48l.43-.31A9.35,9.35,0,0,0,1176.73,510.8Z"/><path class="cls-8" d="M1214.21,398.46l-34.51,4.08c-4.82-18.12-13.64-35.1-15.59-54.05C1192.47,353.46,1210.62,368.67,1214.21,398.46Z"/><path class="cls-12" d="M881,75.1q-2.75,9.69-5.49,19.38c-6.55,3-13,5.23-17.54-3.08-7.81-5.75-13.81-14-23.5-17.15-.32-9.53,7-6.74,12-7.26,6.83-.7,13.69-1,20.54-1.47,3.23,4.32,8.13,5.52,12.92,6.93A4.53,4.53,0,0,0,881,75.1Z"/><path class="cls-13" d="M572.8,126.45c-5.31-7.91-11.48-15.41-11.88-25.59l27.18-.54c2.37,15.23,16,18.65,26.54,25.34C600.78,130.5,586.71,124.21,572.8,126.45Z"/><path class="cls-11" d="M728.38,17.7l-8.6.54c-12.64,5-21.15,11.32-17.62,27.87,2.24,10.53,4.16,22.5-2.13,33.16a150.24,150.24,0,0,1-.58-72.78C716.88-9.86,720.75,8.77,728.38,17.7Z"/><path class="cls-5" d="M1129.88,283.42c7.71-.5,7.91-6.06,7.91-11.75l26.42,12.07,5.56,5q-.81,11-1.63,21.94l-11.28-4.34C1149.28,297.05,1135.06,295.55,1129.88,283.42Z"/><path class="cls-14" d="M895.34,99a25.87,25.87,0,0,1-7-19.16c12.8,11.87,30.37,18.81,32.36,40.78,1.08,11.93-2.44,13.17-11.46,12.92-4.28-7.25-8-14.7-9.35-23.13C906.44,103.35,907.55,98.49,895.34,99Z"/><path class="cls-13" d="M834.46,74.25c9.69,3.17,15.69,11.4,23.5,17.15-7,12.25-23.37,9.09-31.54,19.36l-4.11-.83C824.59,97.43,828,85.32,834.46,74.25Z"/><path class="cls-12" d="M1087.42,136.76c.81,4.8-.74,10.15-4,12.27-15.38,10.1-19.68,24.56-18.58,41.7-13.6-11.76-14-23.68-.37-35.69C1071.84,148.57,1076.27,138.45,1087.42,136.76Z"/><path class="cls-6" d="M940.85,205.89c-14.84-17.34-19.53-38.44-22.38-60.23l7.56-.4c6.06,16.28,3.09,35.39,15.56,49.67Q941.22,200.42,940.85,205.89Z"/><path class="cls-7" d="M979.6,138.07a61,61,0,0,1-21-16.36c8.27-5.94,20.64-1.41,26.26-11.34a2.89,2.89,0,0,1,2.61.14c.22,2.57.43,5.14.65,7.71Q983.86,128.15,979.6,138.07Z"/><path class="cls-9" d="M1113.41,253.34c6.46.66,14.32-9.19,18.77-.39,3.87,7.64,4,17.79-6.8,22.86A62,62,0,0,1,1113.41,253.34Z"/><path class="cls-8" d="M1021.86,145.31A27.33,27.33,0,0,1,1019,145l-4.46.15.08.06L999,122.33l1.05-1.12c8.26,1.06,14.86,5.58,22,9.54C1032.26,136.45,1027.35,140.55,1021.86,145.31Z"/><path class="cls-15" d="M1207.09,504.18c-7.2-.27-11.75-5.62-17.33-9l8.61-2.3-.16.44c-2.36-5-4-9.87,1.12-14.24q3.5,8.08,7,16.18Z"/><path class="cls-15" d="M1184.69,427.32c4.07,6.42,6.54,13.33,6.36,21C1181.87,443.48,1178.17,436.94,1184.69,427.32Z"/><path class="cls-14" d="M926,145.26l-7.56.4c-5.29-.16-8.38-2.29-7.28-8.15C917,138.41,925.29,134.63,926,145.26Z"/><path class="cls-12" d="M1099.24,133.7c-3.11,4.46-7.65,3.73-12.1,3.32C1089.67,130.45,1094,130.22,1099.24,133.7Z"/><path class="cls-12" d="M1083.94,210.25c6,.35,12.73-.05,9.7,9.52Z"/><path class="cls-15" d="M1129.45,373c-4.29-1.55-8-3.44-5.37-9.07C1129.17,365,1130.05,368.56,1129.45,373Z"/><path class="cls-14" d="M879.93,72.45c-4.79-1.41-9.69-2.61-12.92-6.93C873.44,63.88,879.33,63.23,879.93,72.45Z"/><path class="cls-8" d="M988.13,118.22c-.22-2.57-.43-5.14-.65-7.71,4.29.55,7.84,2.07,8.81,6.87l-1.18,1.27Z"/><path class="cls-15" d="M1191.7,451.68l2.88,8.1C1191.82,457.72,1191.44,454.81,1191.7,451.68Z"/><path class="cls-12" d="M1093.55,219.16c4.83-.2,5,3.39,5.57,6.75Z"/><path class="cls-8" d="M996.29,117.38c1.26,1.28,2.51,2.56,3.77,3.83,0,0-1,1.12-1,1.12l-3.91-3.68Z"/><path class="cls-7" d="M802.9,108.21l.33,1.46-1.3.73s-.35-1.39-.35-1.39Z"/><path class="cls-15" d="M1141.36,402.75l-2.18-4Z"/><path class="cls-15" d="M1121.82,354c-1-1.79-2.09-3.59-3.14-5.39C1119.73,350.36,1120.77,352.16,1121.82,354Z"/><path class="cls-15" d="M1195.85,469.29q1.34,2.94,2.65,5.88Q1197.18,472.23,1195.85,469.29Z"/><path class="cls-4" d="M1198.21,493.31l.16-.44Z"/><path class="cls-15" d="M1144.92,411.22c-.79-1.61-1.59-3.23-2.38-4.85C1143.33,408,1144.13,409.61,1144.92,411.22Z"/><path class="cls-14" d="M642.51,392.25c12.79,2.65,11.9,14.39,15.18,23.18,3.64,9.79,6.64,19.81,9.92,29.72l13.56,41.29c.18,4.31-1.73,9,2,12.69.47,7.11,1.17,14.15,6.27,19.79l.11.74c-3,6.27-6.83,12.27-8.67,18.85-4.6,16.47-9,32.83-22.77,44.52q-12.61-48.46-25.22-96.93a2.33,2.33,0,0,0-1.26-3c-1.34-20.09-9.46-37.58-20.71-53.87,1.68-4.64,1.15-8.82-2.54-12.35v-.17q-2.59-8.93-5.21-17.84c.43-1.34.87-2.67,1.3-4C617.23,394.68,630.08,396.57,642.51,392.25Z"/><path class="cls-13" d="M1207.09,504.18l-.78-8.93c.64-8.72,1-17.31,8-24.21,6.68-6.6,5.42-16,2.65-23-4.25-10.76-.48-17.88,6.07-25.17,7.57,3.08,12.52,9.93,14.87,16.36,6.83,18.73,21.51,20.7,37.83,20.9,6.61,4.4,6.9,10.92,6.83,18.08-.17,16.86.28,33.72.47,50.59-12.63,2.61-25,.09-37.33-2.15L1233.81,521C1227.33,511.55,1216.07,509.68,1207.09,504.18Z"/><path class="cls-12" d="M1170.73,532.86l5.3,2.2c1,24,8.58,29.12,30.94,22.07,7.76-2.44,14.24-8.78,23.14-7.69,7.93,4.52,3.51,13,6.24,19.24-10-.71-14,6.52-13.61,14,.8,13.85,12.38,17.1,23.74,19.48,12.26,16.71,18.1,36,26.21,57.47-5.28-1.84-8.29-2.14-8.5-3.08-7.17-31.57-34.48-30.12-57.66-35-6.24-1.33-14.3-.59-16.58-7.07-2.51-7.15,6.42-9.94,9.82-15,3-4.48,11.27-7.17,8.17-13.54-2.88-5.92-10.41-2.43-15.87-2.93-5.08-.47-10.23-.1-15.35-.12-7.19,0-14.9-.41-18.47-7.51-3.91-7.78,1.17-13.69,7.39-17.64,12.68-8.07-3.75-14-1.16-21.19C1166.56,535.27,1168.64,534.07,1170.73,532.86Z"/><path class="cls-13" d="M587.06,527.15c-9.38,5.35-10.69-1.64-12.06-8.06q-10.86-50.84-21.57-101.71.12-7.58.24-15.18l-.06.09c15.63,2.2,30.63-3.06,46-3.87.55,20.82-4.91,41-6.83,61.52l-1.2,40.7c-5.11,7.7-3.74,16.43-4,24.9Z"/><path class="cls-13" d="M685.71,686.39q-2.28-7.71-4.57-15.4l-1.41-17.24c4-18.34,9.37-36.51,11.64-55.07,2.1-17.18,8.1-17.72,19.78-8.15l3.79,4.1,5.41,20.93c-2.22,25.29-4.3,50.6-14,74.47l-6.89,4.22-8,.57h.09C692.54,690,690.68,687.12,685.71,686.39Z"/><path class="cls-8" d="M804.36,643.33,829.91,656l42.51,23.28a14.58,14.58,0,0,0,.56,3.22c-9.11,10.72-23.76,14.9-31.8,26.88-5.56,6-15.5.54-20.54,7.87-4.23,8.11-6.26-.39-9.3-1.22a16.43,16.43,0,0,0-.49-3.62c-.64-4.9-.24-10.25-2.11-14.63C801.12,680,798.32,662.1,804.36,643.33Z"/><path class="cls-12" d="M679.73,653.75,681.14,671,673,667.24c1.19-13.36-1.86-28.51-13.26-32.82-14.29-5.41-15.22-15.24-17.47-26-1.93-9.25-1.25-19.44-4.88-27.85-4.67-10.79,2.41-27.11-14.42-32.33,6.1-17.56,3-35.74,3.71-53.67.48-4,2-7.22,6.28-8.43q12.62,48.46,25.22,96.92C661.47,607.77,670.62,630.76,679.73,653.75Z"/><path class="cls-4" d="M622.94,548.2c16.83,5.22,9.75,21.54,14.42,32.33,3.63,8.41,2.95,18.6,4.88,27.85,2.25,10.8,3.18,20.63,17.47,26,11.4,4.31,14.45,19.46,13.26,32.82-8.47-1.38-15.15-4.33-19.66-12.94-6.26-11.92-14.49-22.59-29.19,2.81C624,615.93,613.2,582.44,622.94,548.2Z"/><path class="cls-7" d="M810.85,712.45a16.43,16.43,0,0,1,.49,3.62c-7.88,19.25-2.73,39.73-5.59,59.46-.45,3.12-.23,6.38-1,9.38-1.84,6.79,1.93,18.54-7.51,18.85-8.43.27-7.15-11.21-9-18.11-.46-1.67-2.1-3-3.2-4.53a1.81,1.81,0,0,0-.31-2.22c.63-3.71-.18-6.72-4-8.21l.14,0c1-11.09-6.49-20-7.81-30.49q-.36-7.43-.71-14.85C784.17,718.25,796.36,711.92,810.85,712.45Z"/><path class="cls-3" d="M653.61,739.24c1.88,9.44-3.23,18.48-7.08,28-1.91,4.71-4.13,8-9.56,7.22-6.14-.94-6.59-5.1-4.88-10,2.88-8.23-.89-13.77-7.71-17.34-12.78-6.68-20.56-15.56-14.29-30.68,4.47-10.79,13.43-16.15,24.6-13.54,16,3.74,19.76,16.42,18.93,31.17C653.55,735.3,653.61,736.58,653.61,739.24Z"/><path class="cls-12" d="M1372.15,598.41l-4,7.48c-17.52,20.36-31.51,19.85-42.59-3-5.38-11.09-11.31-19.08-24.15-20.41-4.77-.5-5.75-4.2-5.45-8.37l57,4.88,15.24.15C1367.35,586,1353,595.59,1372.15,598.41Z"/><path class="cls-9" d="M1054.93,617.71l-28.38-8.1c1.27-11.82,17.56-6.38,20-18.31l-17.82-4.5c10.4-4,19.74-12.25,32.17-7.84,10.06,10,21.37,9.62,33.31,4,1.58,3.78.15,9,5.2,11.12,0,1.37,0,2.75.07,4.12l-1.59.3-1.61-.11C1081.73,603.23,1067.74,609.21,1054.93,617.71Z"/><path class="cls-6" d="M1054.93,617.71c12.81-8.5,26.8-14.48,41.33-19.3q-2.87,33.15-5.72,66.28l-3.77,2.34Q1070.84,642.37,1054.93,617.71Z"/><path class="cls-12" d="M534.57,602.15c7.94-8.61,2.75-15.44-3.78-20.9-15.74-13.17-10.43-17.26,6.77-19.57,8.19-1.11,16.34-1,24.41-2,14.12-1.83,14.4,5.27,10.83,15.44a12.18,12.18,0,0,0-7.73,11.51c-8.45-.74-12.09,3.26-11.42,11.53h0c-6.08,3.4-11.09,7.61-11.55,15.27h-7.51c0-1.23,0-2.46-.06-3.68Z"/><path class="cls-5" d="M772.25,725.38q.36,7.43.71,14.85c-7.19.07-9.49-6.07-12.36-10.62-18.36-29.11-31.43-34.9-65.18-28.15,1.33-2.4,2.66-4.81,4-7.21l6.9-4.22c15.85,1.4,27.95-11.69,43.56-11.23C758.93,693.56,761.2,711.58,772.25,725.38Z"/><path class="cls-3" d="M1028.69,586.8l17.84,4.5c-2.42,11.93-18.71,6.49-20,18.31-8-.15-11.59,7.25-17.6,10.47-4.81,2.58-12.37,7.79-14.66.38-4.78-15.48-12-2.87-18-3l-.19-.18c1.35-16.45,10.73-22.85,26.71-23.32,5-.15,12.76,7.43,15.8-3.28l9.24-4Z"/><path class="cls-8" d="M1245.68,526.68c12.36,2.24,24.7,4.76,37.34,2.15,10.63,4.52,22.07,3.25,33.13,4.68,6.23.81,13.47.46,11.16,10.4l-5,.85-58.17-.2C1247.84,549.06,1250.7,533.81,1245.68,526.68Z"/><path class="cls-11" d="M1230.11,549.44c-8.9-1.09-15.38,5.25-23.14,7.69-22.36,7-30,1.93-30.94-22.07q5.63.26,11.27.56l4.15.08c11.83,1.53,23.73,2.7,35.46,4.79C1231.37,541.28,1240.75,542.34,1230.11,549.44Z"/><path class="cls-6" d="M1264.13,544.56l58.17.2c-.19,9.64-12.46,12.82-12.15,22.73-5.05.2-10.13,3.23-15.16-.13C1284.23,560.4,1272.69,554.5,1264.13,544.56Z"/><path class="cls-7" d="M1295,567.36c5,3.36,10.11.33,15.17.13,15.17,1.25,25.18-5.88,31.3-19.3l6,5.72q2.76,12.52,5.53,25.05l-57-4.88Q1295.49,570.72,1295,567.36Z"/><path class="cls-5" d="M1099.46,598.22c0-1.37,0-2.75-.07-4.12l6.46-7.89,4.13-4-.52-1c7.56,1.08,8-7.19,12.72-9.76l29.71,13.35C1136.26,601,1115.36,589.77,1099.46,598.22Z"/><path class="cls-3" d="M784.68,778.9a1.81,1.81,0,0,1,.31,2.22c-2.87,5.62,3.76,15.51-5.48,17.4-8.78,1.8-10.36-6.5-12-13.5-.67-2.78-3.4-5.21-5.54-7.47-6.11-6.48-5.45-12.82,1.32-17.71,11-7.94,7.64,4.69,11,8,1.59,1.57,4.33,2,6.55,2.91l-.14,0C780.48,774.17,781.22,777.21,784.68,778.9Z"/><path class="cls-12" d="M1098.86,546.85c3.5-8.2,9.26-7.83,15.3-3.46a26.32,26.32,0,0,0,15.91,5.27c-.71,6,1.66,13.44-7.47,15.29l-1-.73c-9.48-8.15-14.81,2-21.79,4.94Z"/><path class="cls-11" d="M1246.48,602.13c-11.36-2.38-22.94-5.63-23.74-19.48-.44-7.45,3.58-14.68,13.61-14Q1241.41,585.42,1246.48,602.13Z"/><path class="cls-4" d="M592.79,459.94c1.92-20.54,7.38-40.7,6.83-61.52,1.2.15,2.4.29,3.6.41q2.61,8.93,5.21,17.84c-7.7,6.44-3.28,15.43-5,23.13S602.9,456.73,592.79,459.94Z"/><path class="cls-3" d="M553.65,598.15c-.67-8.27,3-12.27,11.42-11.53a9.87,9.87,0,0,1,8.92,6c1.67,3.66,8,6.46,3.76,11.19-3.31,3.74-8.12,1.9-12.27-.21C561.61,601.66,557.6,600,553.65,598.15Z"/><path class="cls-3" d="M837.94,802.66c6.71,2.08,8.45,7.27,7.16,13.3-1.15,5.34-2.78,13-9.8,11.28-8.25-2-4.3-10.47-4.76-16.24C830.16,806.24,831.74,802.2,837.94,802.66Z"/><path class="cls-4" d="M632.93,486.1c-4.24,1.21-5.8,4.42-6.28,8.43-21.26-.85-22.55-2.85-14.77-27.19,3,12.08,8.78,18.11,19.79,15.72A2.33,2.33,0,0,1,632.93,486.1Z"/><path class="cls-12" d="M934.16,678.81c0-1.25,0-2.5,0-3.74-.12-6.1.65-11.58,8.72-11.23,3.94.17,8,1.6,8.64,5.69,1.11,7.08-8.09,4.45-9.83,9.28Z"/><path class="cls-3" d="M542.12,613.43c.46-7.66,5.47-11.87,11.55-15.27C551.85,604.78,558.53,617.84,542.12,613.43Z"/><path class="cls-3" d="M815.17,787.78c3.82,1.18,6.27,3,6,6.61-.24,3.48-2.42,5.7-5.92,5.72-3.29,0-3.62-2.87-3.85-5.29C811.09,791.5,812.22,788.91,815.17,787.78Z"/><path class="cls-12" d="M1122.18,571.37c-4.76,2.57-5.16,10.84-12.72,9.76,3.09-6.62,6.16-13.26,12.18-17.91l1,.73Z"/><path class="cls-3" d="M587.58,525.54c.27-8.47-1.1-17.2,4-24.9C591,509.05,595.69,518.32,587.58,525.54Z"/><path class="cls-3" d="M534.55,609.74c0,1.22.05,2.45.06,3.68-1.54,2.14-4.25,4.35-5.55,1.23C527.27,610.35,531.69,610.32,534.55,609.74Z"/><path class="cls-11" d="M685.71,686.39c5,.73,6.83,3.58,5.75,8.44C686.58,694,683.87,691.75,685.71,686.39Z"/><path class="cls-4" d="M608.42,416.84c3.69,3.53,4.22,7.71,2.54,12.35C606.82,425.75,607.5,421.32,608.42,416.84Z"/><path class="cls-11" d="M699.42,694.25c-1.34,2.4-2.67,4.81-4,7.21l-1.55.22h-1.56l0,0q-.43-3.4-.89-6.81Z"/><path class="cls-5" d="M692.31,701.67l-.93,1.58.88-1.62Z"/><path class="cls-12" d="M1191.45,535.7l-4.15-.08c.09-1,.23-2,.4-3Q1189.58,534.14,1191.45,535.7Z"/><path class="cls-4" d="M1327.31,543.91c2.31-9.94-4.93-9.59-11.16-10.4-11.06-1.43-22.5-.16-33.13-4.68-.2-16.87-.65-33.73-.48-50.59.07-7.16-.22-13.68-6.83-18.08-3-10.09-11.58-16.24-17.6-24.16-7.29-9.58,2.24-7.91,6.2-10.08,4.19,2.14,8,.74,11.65-1.39,4.06,3.34,9,2.43,13.64,2.78l25.56,3.6c23.78,6.75,40.91,21.07,51.4,43.69,2.87,6.19,7.9,11.38,12,17a7.46,7.46,0,0,0,.82,3.31q.43,11.07.86,22.12c-.78,5.16-.6,10.21,3.55,14,14.56,13.12,19.59,34.49,38.22,44.07-5.35,6.48-12.74,3-19.22,3.94l-9.3-8.74c-5.11-4.54-10.17-9.14-15.34-13.62-10.72-9.29-22.31-15.91-37.29-11.68Z"/><path class="cls-9" d="M1380.19,517.05q-.42-11.05-.86-22.12c3.25-.38,6.25-1.17,7.76-4.52q2.23-3.48,4.45-7c9.68-.39,13.08-12.4,23-12.39,15.75-1,30.33,9.09,46.41,4.85,7.78,4.8,20.35,4.77,19,18.8v7.06q-.57,7.94,7.37,8.08v0c6.61,9.37-2.61,24.28,10.94,31.22l.84,6.88c1.38,7.16.6,16.73,9.11,18.73,7.71,1.81,10.93-6.89,15.39-12,2.92-3.35,6.34-6.18,6.37-11.09,5.13,5.15,14.22,6.26,15.56,15.27-25.65,17.72-50.77,37.68-84.74,19.78,4.51-11.93,6.51-24.27-.48-35.56-6.55-10.58-7.35-20.39-2.63-31.84,4-9.78-.5-15.64-11.14-16.77-4.32-.46-9.52-.28-12.7-2.6-15.58-11.39-23.81-.87-26.13,11.24C1404.06,522,1393.58,520.81,1380.19,517.05Z"/><path class="cls-12" d="M1380.19,517.05c13.39,3.76,23.87,5,27.48-14,2.32-12.11,10.55-22.63,26.13-11.24,3.18,2.32,8.38,2.14,12.7,2.6,10.64,1.13,15.17,7,11.14,16.77-4.72,11.45-3.92,21.26,2.63,31.84,7,11.29,5,23.63.48,35.56l-4.29,4.12c-8.29-.69-12-15-23-7.66H1422c-18.63-9.58-23.66-31-38.22-44.07C1379.59,527.26,1379.41,522.21,1380.19,517.05Z"/><path class="cls-12" d="M1587.16,552.12c-3.62,8.66-11.43,7.55-18.59,8-3-11.87-17.36-17.65-16.92-31.39.85-5.59,1.4-11-6.88-10.72l-.15-.38,8.9-5.47,22.15,11C1579.06,533,1580.7,543.5,1587.16,552.12Z"/><path class="cls-6" d="M1551.65,528.68c-.44,13.74,13.89,19.52,16.92,31.39l-.53.09-7.72.78-14.84-2.09c-1.33-9-10.42-10.13-15.55-15.28-.19-2.35-.38-4.71-.56-7.06q.32-7.69.62-15.38l14.63-3.55.15.37C1544.33,523.27,1548.08,525.92,1551.65,528.68Z"/><path class="cls-1" d="M1433.47,575.08c11-7.32,14.7,7,23,7.66-.43,7.78,2.58,12,11.06,11.71,4.29-.17,10-.91,10.88,5,.47,3.3-1.17,7.87-3.47,10.42-5.36,6-9.09-.75-12.84-3.13C1449.71,598.83,1429,598.27,1433.47,575.08Z"/><path class="cls-7" d="M1587.16,552.12c-6.46-8.62-8.1-19.14-11.49-29q-1.92-12.4-3.85-24.79c14.92.83,19.7,10.21,20.36,23.55.4,8.06,1.6,16.08,2.43,24.12Z"/><path class="cls-9" d="M1372.15,598.41c-19.15-2.82-4.8-12.42-3.91-19.3l7.48-3.3,8,7.85C1382.77,590.85,1377.67,594.79,1372.15,598.41Z"/><path class="cls-14" d="M1383.73,583.66l-8-7.85-3.8-4.39c6.82-6.92,14.57,3.37,21.52-1.16l9.3,8.75C1397.21,583.88,1390.16,582.5,1383.73,583.66Z"/><path class="cls-6" d="M1859.72,537.17c4.68,1,7.85,3.55,8.6,8.52C1861.12,547.22,1860.6,542,1859.72,537.17Z"/><path class="cls-12" d="M1560.32,560.94l7.72-.78C1565.76,563.32,1563.23,564,1560.32,560.94Z"/><path class="cls-6" d="M1854.07,531.91c3,.35,5,1.84,5.41,5.05C1855.91,537.17,1854.35,535.23,1854.07,531.91Z"/><path class="cls-15" d="M223.49,521.33l26.35.17q-.08,17.24-.16,34.48c-2.18,3.41-2.17,7.06-1.2,10.82q-1.22,15.71-2.44,31.42c-3.95,9.37-20.1,11.45-15.48,25.92-5.72,4-7.73-.84-9.86-4.41-9.42-15.8-22.67-28.21-35.67-40.86L184,551.66c8.33,2.33,8.81,2.19,7.91-1-1.77-6.27-7.07-12.35,0-18.57,4.92,1.41,8.51-1.41,12.22-3.85,4.3,1.1,8.65,2,12.9,3.33C231.63,536,226.27,527.85,223.49,521.33ZM207.1,585.6c-.31-.49-.63-1-.95-1.47-.37.44-1.15,1.09-1.05,1.28a9.91,9.91,0,0,0,1.57,1.82Zm-11.43-24.14-1-1.23c-.37.37-.73.75-1.1,1.13l1.52,1.26Zm6.36,17c.43-.42,1.18-.82,1.21-1.27s-.64-1-1-1.45c-.42.43-1.16.84-1.19,1.29S201.69,578,202,578.48Zm-3.54-10.33c-.43.38-1.17.74-1.22,1.17s.6.94.95,1.42c.41-.43,1.11-.83,1.14-1.28S198.75,568.51,198.49,568.15Z"/><path class="cls-7" d="M621.18,318.27q1.16,5.53,2.32,11.07c-9.48,5.63-11.75-6.4-19.2-7.75-39.34-7.15-39.25-7.66-42.84,32.45-1.84,20.57-9.22,26.53-26.62,21.51l-23.13-42c8,.89,10.78-3.81,13.05-10.61,4.46-13.31,9.85-26.29,14.86-39.41,5.19,2.08,10.26,4.56,15.6,6.17C578.33,296.68,594.77,319,621.18,318.27Z"/><path class="cls-6" d="M534.84,375.55c17.4,5,24.78-.94,26.62-21.51,3.59-40.11,3.5-39.6,42.84-32.45,7.45,1.35,9.72,13.38,19.2,7.75a124.9,124.9,0,0,1,10.71,38.58c-6.8,5.08-12.86,9.28-15.9-3.79-3-12.89-10.91-12.29-22-8.31-20.63,7.42-15.33,23.57-15.2,38.34-8.41,5.27-19.49,1.5-27.5,8.13l.06-.09a4.25,4.25,0,0,0-3.59,0C540,396.19,539.53,384.65,534.84,375.55Z"/><path class="cls-12" d="M539.62,283.56c-5,13.12-10.4,26.1-14.86,39.41-2.27,6.8-5.08,11.5-13.05,10.61l-19.53-30.83c11.79-7.38,12.6-19,11.95-31.14,11.2,7.12,24.14,2.05,35.9,5.13Q539.82,280.15,539.62,283.56Z"/><path class="cls-4" d="M248.48,566.8c-1-3.76-1-7.41,1.2-10.82,5.25-.52,8.1-3.26,8.13-8.68,0-5.12-.18-10.26.2-15.35.63-8.3,1.59-19.52,11-19.41,8.86.11,7.86,11.28,8.11,18.78.19,5.75,0,11.51,0,17.27C277.09,578.55,275.37,579.64,248.48,566.8Z"/><path class="cls-6" d="M438.29,259.6c-6.41-11.73,2.31-20,5.62-29.47,8.38.39,4.92,8.84,9.49,11.08l8.22,27.92-24.18,9.68C434.71,271,443.06,265.67,438.29,259.6Z"/><path class="cls-11" d="M504.13,271.61c.65,12.15-.16,23.76-11.95,31.14-7.12-11.64-16.66-22-19.55-35.91l3.86-3.53c1.34,2.39,2.71,3.35,4.19.1l-1.11,0C488.75,263.16,496.16,268.24,504.13,271.61Z"/><path class="cls-10" d="M476.49,263.31l-3.86,3.53-11,2.29-8.22-27.92c13.39-3.07,23.09,10.6,36.38,8-1.7,6-10.94,6.49-10.21,14.2l1.1,0Z"/><path class="cls-12" d="M331.57,341.11c-2.88-4-14.37-6.71-1.64-12.95,3.89-1.91,7.18-5.14,10.51-8,4.37-3.8,9.09-8.54,14.95-5.49,6.95,3.63,1.47,10,1.38,15.19Z"/><path class="cls-4" d="M303.64,419.39c.41,8.84-4.9,10.06-11.16,9.72-4.75-.25-11.53,1-9.27-7.42,1.55-5.76,1.56-13.8,9.76-14.49C301.63,406.46,301.8,414.38,303.64,419.39Z"/><path class="cls-4" d="M276.59,473.6c-.68,4.79-3.06,8.27-8.14,8.51-6.19.28-6.51-4.47-6.53-8.92,0-4.61.78-9.12,6.93-8.47C273.85,465.24,276.15,468.76,276.59,473.6Z"/><path class="cls-12" d="M411.17,786.11c1.51-16.61,6.24-32.15,15.27-46.28l1,.83c-1.6,16.56-6.2,32.13-15.38,46.18Z"/><path class="cls-12" d="M444.72,699.64c-.53,13.34-5.23,20.17-12.1,29.46C430.6,716,436.19,709.56,444.72,699.64Z"/><path class="cls-12" d="M397.41,827.55c-1.18-14.23,3.51-20.48,7.25-27C407.53,809.31,404,816,397.41,827.55Z"/><path class="cls-4" d="M270.46,437.68c2.54.1,5.5.46,4.89,3.7a8.09,8.09,0,0,1-4.25,5.16c-2.51,1-4.75-.55-4.72-3.67C266.4,440.23,267.49,438.15,270.46,437.68Z"/><path class="cls-4" d="M307.59,505.36c0,2.54-.18,5.34-3,5.94-3.58.77-3.7-2.46-4-4.79-.32-2.51.14-5.32,2.94-5.92C307.11,499.81,307,503.1,307.59,505.36Z"/><path class="cls-12" d="M380.67,870.77c-.25-8.64.78-16.86,7.61-23.17l.5.43c.11,8.59-.77,16.84-7.73,23.06Z"/><path class="cls-8" d="M262,402.31c-2.53-.8-6.9-.32-5.4-4.71,1.21-3.55,4.92-2,7.73-1.64C263.54,398.08,262.76,400.19,262,402.31Z"/><path class="cls-9" d="M550.08,402.2a4.25,4.25,0,0,1,3.59,0q-.12,7.6-.24,15.18C548.51,413.16,550.26,407.47,550.08,402.2Z"/><path class="cls-12" d="M426.44,739.83c.73-1.61,1.45-3.22,2.18-4.84.46.39,1.38,1,1.31,1.14-.75,1.55-1.65,3-2.51,4.53Z"/><path class="cls-12" d="M412,786.84q-1.05,2.38-2.09,4.79c-.46-.38-1.36-1-1.3-1.1.76-1.52,1.66-3,2.53-4.42Z"/><path class="cls-12" d="M395.37,832.2c-.17.47-.35.93-.52,1.4L393.3,832l1.14-1Z"/><path class="cls-12" d="M388.28,847.6c.6-1.63,1.2-3.27,1.81-4.9a10.73,10.73,0,0,1,1.34,1c-.82,1.47-1.75,2.87-2.65,4.29Z"/><path class="cls-12" d="M381.05,871.09q-.85,2.45-1.7,4.89a12.14,12.14,0,0,1-1.35-1c.83-1.44,1.76-2.82,2.67-4.21Z"/><path class="cls-13" d="M1391.54,483.45l-4.44,7-8.59,1.21c-4-5.64-9.08-10.83-12-17-10.49-22.62-27.62-36.94-51.4-43.68,6.14-10.32,16.52-3,24.46-5.87,3.68-1.35,7.34-1.66,11,.08l9.8-2.09c26.28-8.13,25.24,16.63,34.68,28.78Q1393.32,467.65,1391.54,483.45Z"/><path class="cls-8" d="M1453,467.36c-7.31-.83-7.57-11.59-15.75-11.18-.36-6.93.78-14.39-1.43-20.67-3.22-9.1-2.31-15.88,5.22-21.76-7.86-10.59-7.92-28-26-29.68-5.59-1.09-12.25,1.21-16.16-5.15a12,12,0,0,1,10.7-7.45c8.72,6.14,21.08,1.26,29.07,9.63,10.84,11.34,9.25-.57,11.15-6l10.35.19c-.4,13.21,7.7,15.28,18.35,14,2,7.48,6.21,14.45,5.14,22.63-6.28,3.26-14.19-.25-20,4.79a15.76,15.76,0,0,0-3.61.61c-5.6.47-8.9,4.29-7,8.95C1458.69,440.19,1454.33,453.7,1453,467.36Z"/><path class="cls-11" d="M1168.14,310.7q.81-11,1.63-21.94c12.84-.44,23.33,13.41,37.28,6.1l5.47-.29c2.84,15.59,4,31.54,10,46.46-.27,1.31-.54,2.62-.8,3.93-8.78-5.91-16.33-4.71-22.6,3.89-10.45-10.26-20-21.2-27.49-33.88l-3.57-4.76Z"/><path class="cls-14" d="M1409.59,371.47a12,12,0,0,0-10.7,7.46c-8.46,2.3-8.39,8.91-8,15.71a29.75,29.75,0,0,1-19.77-4.51c6.2-18-16.39-33.84-4-52.34,9.28-1.78,17.85-1,24.47,6.8,10.93-.67,19.22,6.27,29.66,8.68Z"/><path class="cls-6" d="M1453,467.36c1.35-13.66,5.71-27.17,0-41.06-1.91-4.66,1.39-8.48,7-8.95,3.3,7.35,9.58,15.29,5.93,22.82-7,14.55,1.4,19.2,10.78,27.77,10.63,9.71,19.85,2.9,29.65,3.53-1.07,10.56,2.36,16.53,14.3,15.23,5.45-.59,11,.23,16.57.4-1,4.1-17.76,3.73-3.42,12.13-3.49,6.29-11.42,6-15.94,10.79-4.62-2.64-9.16-5.6-14.89-3.55-4.83-9.54-13.15-12.21-23.06-11.76,1.35-14-11.22-14-19-18.8C1459.88,471.56,1457,469,1453,467.36Z"/><path class="cls-7" d="M1506.36,471.47c-9.8-.63-19,6.18-29.65-3.53-9.38-8.57-17.83-13.22-10.78-27.77,3.65-7.53-2.63-15.47-5.93-22.82a15.22,15.22,0,0,1,3.61-.6c10.87,13.54,22.76-.37,34.07,1.28,2.91,8.27-1.91,17.87,4.43,25.55C1508,452.2,1506.52,461.94,1506.36,471.47Z"/><path class="cls-13" d="M1506.36,471.47c.16-9.53,1.59-19.27-4.25-27.89,15.68-22.26,16.84-22.18,28.17,1.82q9.77,20.7,19.52,41.42l-12.57.28c-5.53-.17-11.12-1-16.57-.4C1508.72,488,1505.29,482,1506.36,471.47Z"/><path class="cls-11" d="M1409.59,371.47l11.71-18.2c-10.44-2.41-18.73-9.35-29.66-8.68,12-11.82,23.68-13.68,35,.83,1.15,1.47,2.85,3.93,4,3.77,22.49-3.08,16.42,14.65,19.13,25.95-1.9,5.39-.31,17.3-11.15,6C1430.67,372.73,1418.31,377.61,1409.59,371.47Z"/><path class="cls-10" d="M1260.61,325.52c20.8-8.75,36.39-2.24,48.74,17.2-9.37,1.76-14.26-5.54-21.33-9-3.28,6.65-.68,15.18-8.27,20.3-5-7.08,2.67-21-13.44-21.88-7.17,5.42,11.87,28.38-13.35,24.09-1.23-1.45-2.47-2.9-3.7-4.36L1249,341l-.75-9.33a2.65,2.65,0,0,1,.27-2.24c4.36-.19,9.06.67,12-3.87Z"/><path class="cls-11" d="M1339.62,425.05c-7.94,2.84-18.32-4.45-24.46,5.87l-25.56-3.61c1.33-8.71-7.1-12.89-9.25-20l7.17-1.92C1307.7,404.5,1326.46,407.37,1339.62,425.05Z"/><path class="cls-6" d="M1367.17,337.79c-12.39,18.5,10.2,34.32,4,52.34-7.26,2-12.06-2.07-16.64-6.67-.36-7,11.67-10.74,6.5-17.85-4.92-6.78-13.62-3.59-20.94-2.74-.7.08-1.61-1.68-2.43-2.58,4.85-9.55-9.52-8.86-7.17-18.05Z"/><path class="cls-7" d="M1390.94,394.64c-.44-6.8-.51-13.41,8-15.71,3.91,6.35,10.57,4.05,16.16,5.14,3.77,11,10.74,19.91,18.46,28.34l-30.61,1.34C1393.87,410.53,1396.29,400.15,1390.94,394.64Z"/><path class="cls-13" d="M1199.1,348.85c6.27-8.6,13.82-9.8,22.6-3.89q4.24,11.39,8.51,22.78c-3.46,7.67,8.12,15.68-.54,23.22Z"/><path class="cls-8" d="M1229.67,391c8.66-7.54-2.92-15.55.54-23.22,20.63,11.88,11-12.6,19-15.85,1.23,1.46,2.47,2.91,3.7,4.36q-.15,11.56-.29,23.12c-13.33,7.49-5.27,20.63-8.15,30.88C1237.5,405.41,1232.85,398.75,1229.67,391Z"/><path class="cls-6" d="M1248.55,329.41a2.68,2.68,0,0,0-.26,2.24c-13-4.29-13-18.63-20.56-27.34-4.73-5.44,9.84-13,21.6-9.5l-.54,26.86Z"/><path class="cls-9" d="M1212.52,294.57l-5.47.29-12.24-14.19c-.89-9.65,4.5-20.16-3.94-28.77,13-9.15,19.74-6.3,20,10.12C1211.11,272.88,1212,283.72,1212.52,294.57Z"/><path class="cls-8" d="M1337.66,360.29c.82.9,1.73,2.66,2.43,2.58,7.32-.85,16-4,20.94,2.74,5.17,7.11-6.86,10.81-6.5,17.85-9.45,1.52-18.85,1-23.63-8.39C1327.83,369,1330.63,363.05,1337.66,360.29Z"/><path class="cls-14" d="M1249.26,351.89c-8,3.25,1.58,27.73-19,15.85q-4.26-11.39-8.51-22.78c.26-1.31.53-2.62.8-3.93L1249,341Q1249.16,346.43,1249.26,351.89Z"/><path class="cls-14" d="M1402.9,413.75l30.61-1.33,7.51,1.33c-7.53,5.88-8.44,12.66-5.22,21.76,2.21,6.28,1.07,13.74,1.43,20.67-10.24-6.49-9.28-20.12-18.77-28.75C1414,423.38,1407.05,419.35,1402.9,413.75Z"/><path class="cls-5" d="M1190.87,251.9c8.44,8.61,3.05,19.12,3.94,28.77l-30.09-5.89c3.06-3.5,2.17-9.54,7.46-11.6C1181.47,264.49,1183.66,254,1190.87,251.9Z"/><path class="cls-14" d="M1571.82,498.35q1.93,12.39,3.85,24.79l-22.14-11c-3.22-7,6.52-8.05,6.38-13.67l1.16-.4C1564.84,491.65,1568.35,494.47,1571.82,498.35Z"/><path class="cls-11" d="M1391.54,483.45q1.79-15.81,3.56-31.63l19.42,19.24C1404.62,471.05,1401.22,483.06,1391.54,483.45Z"/><path class="cls-6" d="M1244.52,410.25c2.88-10.25-5.18-23.39,8.15-30.88.87,9.16,1.93,18.3,2.53,27.48.22,3.32,2.27,8.12-2.56,9.46C1248.45,417.47,1246.34,413.52,1244.52,410.25Z"/><path class="cls-11" d="M1478.51,389.32c-10.65,1.29-18.75-.78-18.35-14C1482.23,359.1,1473.33,383.44,1478.51,389.32Z"/><path class="cls-10" d="M1248.79,321.67l.54-26.86c11,7.58,15.83,17.42,11.28,30.71l0,0Z"/><path class="cls-10" d="M1287.52,405.4l-7.17,1.92c-6.85-10.51-3.87-20.21,2.77-31.37C1290.69,385.85,1286.12,396.13,1287.52,405.4Z"/><path class="cls-8" d="M1537.23,487.1l12.57-.28L1561.07,498l-1.16.4-26.1.79C1519.47,490.83,1536.26,491.2,1537.23,487.1Z"/><path class="cls-6" d="M1497.68,418c-11.31-1.65-23.2,12.26-34.07-1.28,5.85-5.05,13.76-1.54,20-4.8C1488.18,414.31,1495.45,410.35,1497.68,418Z"/><path class="cls-10" d="M1276,424.53c-3.68,2.13-7.46,3.53-11.65,1.39.41-3.86,1-7.85,6.09-7.73C1274.19,418.28,1275.52,421.16,1276,424.53Z"/><path class="cls-10" d="M1268.56,377.39l-4.13,3.85c-1.08-1.29-3-2.58-3-3.87s1.93-2.57,3-3.86Z"/><path class="cls-11" d="M1360.42,423l-9.8,2.09C1353.37,422,1356.89,422.51,1360.42,423Z"/><path class="cls-5" d="M1168,310.21l3.57,4.76Z"/><path class="cls-6" d="M223.49,521.33c2.78,6.52,8.14,14.63-6.48,10.22-4.25-1.28-8.6-2.23-12.9-3.33-6-4.94-10-3.33-12.22,3.85-7.07,6.22-1.77,12.3,0,18.57.9,3.21.42,3.35-7.91,1-6.52-3.61,5.6-12.24-2.67-13.41-5.46-.77-14.37-.5-15.76,9.1-6.12-1.4-12.32-2.51-18.33-4.29-4.34-1.29-7.7-1.27-8.29,4-2.19,19.21-16.94,29.72-28.88,42.19l-1.15-.07-1,.65c-1.79.9-3.57,1.79-5.36,2.67-4.59-.56-8.88,4.5-13.65.76-1.6-8.32,1.67-14.57,7.49-20.46C106.62,562.42,112.54,550,112,535.09a36.32,36.32,0,0,0,19.93-9.73c3.54-1.25,7.58-4.29,10.56-3.47C169.6,529.28,196.49,517.63,223.49,521.33Z"/><path class="cls-11" d="M73,572c.46,1.06.9,2.14,1.31,3.22C66.16,592.6,55.79,608.51,42.91,625c-13.1-16.59-6.73-39.33-20.18-54.2,2.2-5.82-6.67-11.84.33-17.58C35.46,570.73,56.29,565.85,73,572Z"/><path class="cls-9" d="M110.05,589.2c11.94-12.47,26.69-23,28.88-42.19.59-5.22,3.95-5.24,8.29-4,6,1.78,12.21,2.89,18.33,4.29,0,1.61.07,3.22.11,4.82-4.7,9.52-16.2,14.38-17.82,26C134.75,580.15,124.28,591.14,110.05,589.2Z"/><path class="cls-14" d="M147.84,578.18c1.62-11.63,13.12-16.49,17.82-26,13.17,4.32,10.21,17.55,14.74,26.65Z"/><path class="cls-11" d="M180.4,578.82c-4.53-9.1-1.57-22.33-14.74-26.65,0-1.6-.07-3.21-.11-4.82,1.39-9.6,10.3-9.87,15.76-9.1,8.27,1.17-3.85,9.8,2.67,13.41L185,578.87Z"/><path class="cls-9" d="M102.59,592.45c1.79-.88,3.57-1.77,5.36-2.67C106.91,592.16,105.18,593.16,102.59,592.45Z"/><path class="cls-10" d="M73,572c-16.66-6.17-37.49-1.29-49.89-18.77,15.86-17,35.92-28.41,55.06-41,.62-.41,2.89,1.66,4.39,2.58-1.19,7.07-8.19,12.47-6.53,22.83l12.55-10.45C91.33,544.91,100,564.67,73,572Z"/><path class="cls-11" d="M88.53,527.19,76,537.64c-1.66-10.36,5.34-15.76,6.53-22.83,3.44-3.39,7.59-5,11-.92C99.29,520.69,89.16,522.31,88.53,527.19Z"/><path class="cls-15" d="M131.9,525.36A36.32,36.32,0,0,1,112,535.09c2.5-9-10.12-10.91-8.56-20.57C114.31,514.11,122.33,522.06,131.9,525.36Z"/><path class="cls-9" d="M826.42,110.76C834.59,100.49,851,103.65,858,91.4c4.57,8.31,11,6.07,17.54,3.08,1.19,18.11,14.86,30.87,20.79,47.35C903.56,162,912.08,181.5,914.92,203c.86,6.53,3.79,12,7.8,17.09,2,2.48,5.84,5.1,5.65,7.4-2.4,29.29,16.37,54,17.56,82.38l-8-3.54c-4.93-10.72-14.06-18.4-20.15-28.6-11-18.36-23.07-16.28-32.43,3.45-5.58,11.77-8.76,25.44-24.2,28.93-12.17-40-15.36-81.74-23.06-122.61C833.31,162.08,825.94,137,826.42,110.76Z"/><path class="cls-16" d="M772.25,725.38c-11-13.8-13.32-31.82-22.37-46.58-14.11-19.09-18.34-42.79-29.53-63.24q-2.7-10.47-5.41-20.93c-2.53-12.75,17,.12,13.46-10.71-4.57-14.11,14.55-22,7.65-36.39-1-2,6.08-2.83,9.77-3.1l7.63,4c5.74,17.15,17.78,25.85,35.72,26.66.6,2.41,1.21,4.82,1.81,7.22-4.11,1.33-9.34,2.59-8.54,7.87.93,6.16,6.71,3.33,10.6,3.78,4,16.42,4.8,33.56,11.32,49.4-6,18.78-3.24,36.72,4.38,54.5,1.87,4.38,1.47,9.73,2.11,14.63C796.36,711.92,784.17,718.25,772.25,725.38Z"/><path class="cls-5" d="M984,179.61c5.77,6.5,7.31,14.5,8.16,22.76-6,2.66-10.77,8.95-7.64,13.47,8.5,12.28,4,26.34,7.86,39.21,6.17,20.48,13.94,41.75,13.69,62.6-.37,29.75,8.3,58.6,1.93,89.3-8.67,41.84,13.25,79.62,25.94,118.26-.93,10.89-9.45,17.45-17,21.79-11.71,6.77-18,14.86-17.67,28.18C989.13,569,986.38,557,985,547.87c-3.07-20-12.61-20.86-27.71-14.86-3.26-36.14,23.59-62.75,30.34-95.38,5.89-28.46,20.92-56.24,11.66-86.67-10.43-34.25-12.3-70.15-21.14-104.8C972.56,224.39,976,201.28,984,179.61Z"/><path class="cls-7" d="M761.09,267.43c13,7.38,16.77,18.56,15.57,33.15-2,23.75,1.18,47.76-2.83,71.47-31.19,31.41-31.19,31.41-56.33,15.59-6.74-22.25.19-44.23,2-66.18,2-24.65,1.33-49.67,7.77-73.87C741.18,249.68,748.7,262.71,761.09,267.43Z"/><path class="cls-4" d="M937.93,306.28l8,3.54,15.6,14.05c6.29-2.32,2.3-8.73,3.11-13.56,14.27,5.8,9.17,17.8,5.18,25.42-5.34,10.16-12.23,1.93-18.66-2.25-13.46-8.74-20.4.46-20.31,11.65.15,19.45-12.26,23.46-26.62,26.13-7.42,1.38-15,1.34-22.62,2.79-13.78,2.63-20.54-9.11-20.48-33.28,25.22,7,44.57-1.24,58.62-25.36C924,308.08,926.87,299.43,937.93,306.28Z"/><path class="cls-12" d="M937.93,306.28c-11.06-6.85-13.92,1.8-18.18,9.13-14,24.12-33.4,32.32-58.62,25.36q0-15.36,0-30.71c15.44-3.49,18.62-17.16,24.2-28.93,9.36-19.73,21.45-21.81,32.43-3.45C923.87,287.88,933,295.56,937.93,306.28Z"/><path class="cls-12" d="M957.26,533c15.1-6,24.64-5.1,27.71,14.86,1.41,9.12,4.16,21.1,14.33,27.31-1.16,12.48,7.7,11.54,15.72,11.73l3.61,3.73c-3,10.71-10.84,3.13-15.8,3.28-16,.47-25.36,6.87-26.71,23.32-9.41-.32-12.24,10.63-22,12.67C950.65,597.11,960.34,565.18,957.26,533Z"/><path class="cls-8" d="M771.94,456.53c-2.74,26.08,7,50.72,8.79,76.28-16.49,8.4-41.48-10.09-42.53-31.41-1.14-23,4.61-46.32-3.57-68.94,8.16,1.6,13.48,7.51,17,14C756.37,455.14,763.13,457.28,771.94,456.53Z"/><path class="cls-10" d="M761.09,267.43c-12.39-4.72-19.91-17.75-33.85-19.84-7.16-5.07-7.11-13-8.31-20.53-4.91-30.58-6.92-61.6-14.86-91.41,6.48-4,7.16,1.2,8.48,4.22,15.76,36.27,31.35,72.61,47.1,108.88A28.68,28.68,0,0,1,761.09,267.43Z"/><path class="cls-12" d="M572.8,126.45c13.91-2.24,28,4,41.84-.79,17.4,10.34,11,27.43,12.05,42.41-8.66,3.93-16.59,8.65-19.53,18.57-2.3,7.73-8.46,8.43-15.06,8.38Q582.44,160.73,572.8,126.45Z"/><path class="cls-6" d="M771.94,456.53c-8.81.75-15.57-1.39-20.31-10.1-3.52-6.46-8.84-12.37-17-14q-1.26-5.11-2.5-10.25c1.45-9.64-4.84-14.7-11.56-19.5q-1.53-7.53-3.07-15.07c25.14,15.82,25.14,15.82,56.33-15.59Z"/><path class="cls-13" d="M700,79.27c6.29-10.66,4.37-22.63,2.13-33.16-3.53-16.55,5-22.88,17.62-27.87-3.86,16.9,6.34,30.23,11.3,44.93,5.39,16,14.1,32.24-.73,48-14.67,3.68-22.57-4.93-29.09-16Z"/><path class="cls-12" d="M681.17,486.43l-13.56-41.28c18.68-6.92,38.09-12.14,54.83-23.57a17,17,0,0,0,2,.72l3,41.25c-11.26-6.22-20.15-3.31-28.32,6.19C693.82,475.9,687.2,480.91,681.17,486.43Z"/><path class="cls-8" d="M581.12,394.16c-.14-14.77-5.44-30.92,15.19-38.34,11.09-4,19-4.58,22,8.31,3,13.07,9.1,8.87,15.9,3.79L639,387.47c-14,4.71-29.37.41-43.06,6.84Z"/><path class="cls-14" d="M727.43,463.55l-3-41.25,7.73-.09q1.25,5.13,2.5,10.25c8.18,22.62,2.43,46,3.57,68.94,1,21.32,26,39.81,42.53,31.41l2.79,11.24c-4.65.74-6.51,3.92-7.11,8.18l-23-3.84-7.63-4q-5.37-11.37-10.73-22.75c-1.53-6.4.7-13.43-3.29-19.41C730.3,489.36,732,476.11,727.43,463.55Z"/><path class="cls-13" d="M539.62,283.56q.2-3.42.41-6.82l6.24-2.32,7,1.68c15.47,5.7,30.66,12.42,46.49,16.79,13.81,3.8,20.3,11.82,21.4,25.38-26.41.73-42.85-21.59-66-28.54C549.88,288.12,544.81,285.64,539.62,283.56Z"/><path class="cls-5" d="M592.1,195c6.6,0,12.76-.65,15.06-8.38,2.94-9.92,10.87-14.64,19.53-18.57,3.62,14.58-8.41,25.51-9.23,39.36-.37,6.28-8.65,10.41-14.66,8.91C592.34,213.74,591.62,204.22,592.1,195Z"/><path class="cls-11" d="M841.18,709.42c8-12,22.69-16.16,31.8-26.88l23.8,6c-18.39,2.43-23.08,29.63-45.32,24.81C847.72,712.58,843.8,712.88,841.18,709.42Z"/><path class="cls-10" d="M995.11,118.65l3.91,3.68,15.62,22.9-33.49-.65c-.52-2.17-1-4.35-1.55-6.51q4.26-9.93,8.53-19.85Z"/><path class="cls-10" d="M753.45,548.39l23,3.84c2.84,4.08,5.43.29,8.12-.26,3.7,7.26,4.35,15.13,4.64,23.08C771.23,574.24,759.19,565.54,753.45,548.39Z"/><path class="cls-12" d="M872.42,679.32,829.91,656C853.79,650.86,870.6,660.07,872.42,679.32Z"/><path class="cls-11" d="M701.26,95.15c6.52,11.1,14.42,19.71,29.09,16,8.17,5.31,17.44,1.22,26,3.07-15.71,5.73-32.22,4-48,2.69C694.71,115.83,703.55,102.63,701.26,95.15Z"/><path class="cls-11" d="M595.92,394.31c13.69-6.43,29.1-2.13,43.06-6.84l3.54,4.78c-12.44,4.32-25.29,2.43-38,2.58Z"/><path class="cls-8" d="M732.13,422.21l-7.73.09a17,17,0,0,1-2-.72q-.93-9.43-1.87-18.87C727.29,407.51,733.58,412.57,732.13,422.21Z"/><path class="cls-10" d="M793,593.92c-3.89-.45-9.67,2.38-10.6-3.78-.8-5.28,4.43-6.54,8.54-7.87Q792,588.09,793,593.92Z"/><path class="cls-4" d="M960.64,287.26c-4.59-4.25-3.69-10-4.08-15.33C963.66,275.51,968.19,279.78,960.64,287.26Z"/><path class="cls-8" d="M784.53,552c-2.69.55-5.28,4.34-8.12.26.6-4.26,2.46-7.44,7.11-8.18Q784,548,784.53,552Z"/><path class="cls-12" d="M553.29,276.1l-7-1.68C549.46,271.44,551.82,271.92,553.29,276.1Z"/><path class="cls-4" d="M962.16,298.34a3.89,3.89,0,0,1-.48-3.38,13.67,13.67,0,0,1,1.32,2.27C963.09,297.46,962.46,298,962.16,298.34Z"/><path class="cls-4" d="M964.66,310.29c-2-.46-3.3-1.45-2.82-3.76C962.79,307.78,963.72,309,964.66,310.29Z"/><path class="cls-12" d="M1033.93,525.21C1021.24,486.57,999.32,448.79,1008,407c6.37-30.7-2.3-59.55-1.93-89.3.25-20.85-7.52-42.12-13.69-62.6-3.88-12.87.64-26.93-7.86-39.21-3.13-4.52,1.65-10.81,7.64-13.47q9.55,19.13,19.1,38.25c3.42,10.2,10,20.47,9.73,30.58-1.14,48,13.36,94.91,7.42,143.33-3.73,30.32,13.47,55.34,28.62,80.08C1048.39,504.1,1046.71,518.85,1033.93,525.21Z"/><path class="cls-9" d="M1057,494.61c-15.15-24.74-32.35-49.76-28.62-80.08,5.94-48.42-8.56-95.35-7.42-143.33.24-10.11-6.31-20.38-9.73-30.58,26.26,12.5,39.63,35.63,37.28,66.09-2,26,6.42,51.09,6.29,77.08,0,9.74,2,20.06,2.09,30.21-1.24-.05-2.48-.12-3.72-.19-2.46-8.1-3.21-16.95-11.73-26,1.32,12.27.24,21.93,11.62,26.14.18,3.26,1.07,6.11,4.41,7.51-5.33,20.36,10.3,38,7.58,58A25.65,25.65,0,0,1,1057,494.61Z"/><path class="cls-4" d="M1057,494.61a25.65,25.65,0,0,0,8-15.18,26.13,26.13,0,0,0,2.94-1.12c1.7,2.93,3.4,5.84,5.11,8.76-.08,3.68-.15,7.35-.23,11-.08,1.44-.16,2.87-.23,4.31-1.43,17-3.05,34-4.14,51-.25,4-2.55,9.7,2.79,11.81,5,2,7.39-3.65,10.82-6.08,5.64-4,11.16-8.17,16.73-12.28l1,21.3-5.07,10.63c-11.34-8.78-22.58,2.57-33.9.17-12.43-4.41-21.77,3.85-32.17,7.84l-.86-.16-12.83.27c-8-.19-16.88.75-15.72-11.73-.33-13.32,6-21.41,17.67-28.18,7.51-4.34,16-10.9,17-21.79C1046.71,518.85,1048.39,504.1,1057,494.61Z"/><path class="cls-7" d="M1075.56,456.61c40.73-3.16,42.32,11,66,57.95a46.57,46.57,0,0,1-22.95,15.1c-7.31-15.11-16.68-29.2-19.11-46.56-.9-6.44-5.83-12.5-9.6-18.29-2.93-4.47-6.93-5.55-10.5-.13Z"/><path class="cls-6" d="M1079.45,464.68c3.57-5.42,7.57-4.34,10.5.13,3.77,5.79,8.7,11.85,9.6,18.29,2.43,17.36,11.8,31.45,19.11,46.56-4.77,3.55-10.26,10.92-14.5.49C1095.39,508.55,1087.63,486.53,1079.45,464.68Z"/><path class="cls-9" d="M1073.12,487.07c-1.71-2.92-3.41-5.83-5.11-8.76.87-3.08,2.67-7.29,5.86-4.54C1078.14,477.46,1076.9,482.8,1073.12,487.07Z"/><path class="cls-12" d="M1057.49,421.43c-3.34-1.4-4.23-4.25-4.41-7.51l.12-.11c1.23.07,2.47.14,3.71.19Q1057.21,417.71,1057.49,421.43Z"/><path class="cls-9" d="M1072.66,502.41c.07-1.44.15-2.87.23-4.31a16.47,16.47,0,0,1,1.1,3.11C1074.05,501.52,1073.13,502,1072.66,502.41Z"/><path class="cls-11" d="M1176.73,510.8a9.35,9.35,0,0,1-7,7.66C1168.52,512.67,1170.93,510.18,1176.73,510.8Z"/><path class="cls-11" d="M1169.27,518.77c-.82,1.16-1.64,2.32-2.44,3.48C1165.81,519.81,1166.93,518.87,1169.27,518.77Z"/><path class="cls-16" d="M1118.89,140.65l6.43,1.35c-.54.8-.94,2.1-1.66,2.31a4.38,4.38,0,0,1-5.68-2.58S1118.89,140.65,1118.89,140.65Z"/><path class="cls-16" d="M895.34,99c12.21-.47,11.1,4.39,4.55,11.41Q897.61,104.67,895.34,99Z"/><path class="cls-10" d="M1164.72,274.78l30.09,5.89,12.24,14.19c-14,7.31-24.44-6.54-37.28-6.1l-5.56-5Z"/><path class="cls-10" d="M1020.51,158.22a17.56,17.56,0,0,1,1.1,2.95c.06.24-.82.68-1.28,1a17.87,17.87,0,0,1-1.09-2.93C1019.19,159,1020.06,158.58,1020.51,158.22Z"/><path class="cls-10" d="M1014.56,145.17,1019,145l-3.13,3C1015.44,147.05,1015,146.11,1014.56,145.17Z"/><path class="cls-7" d="M679.73,653.75c-9.11-23-18.26-46-21.58-70.73,13.79-11.68,18.17-28,22.77-44.51,1.84-6.58,5.72-12.58,8.68-18.84,3.93,12.11,8,24.15,11.69,36.33,2.21,7.37,5.1,13.15,14.31,11.4q-2.24,11.57-4.45,23.13c-11.68-9.57-17.68-9-19.78,8.15C689.1,617.24,683.74,635.41,679.73,653.75Z"/><path class="cls-13" d="M715.6,567.4c-9.21,1.75-12.1-4-14.31-11.4-3.64-12.18-7.76-24.22-11.69-36.33,0,0-.12-.75-.11-.76,9.08-5.69,19.87,2.66,27.89-2,14.31-8.35,12.23,2.44,13.75,9.87L720,556.51c-4.45,1.52-4.79,4.93-4.07,8.83A1.65,1.65,0,0,1,715.6,567.4Z"/><path class="cls-9" d="M727.43,463.55c4.52,12.56,2.87,25.81,4.37,38.71-15.28-15.31-31.88-10.13-48.59-3.13-3.77-3.73-1.86-8.38-2-12.69,6-5.53,12.65-10.54,17.94-16.7C707.28,460.24,716.17,457.33,727.43,463.55Z"/><path class="cls-11" d="M683.21,499.13c16.71-7,33.31-12.18,48.59,3.13,4,6,1.76,13,3.29,19.42l-4,5.09c-1.52-7.43.56-18.22-13.75-9.87-8,4.67-18.81-3.68-27.89,2C684.38,513.28,683.68,506.24,683.21,499.13Z"/><path class="cls-9" d="M595.92,394.31l8.6.52c-.43,1.33-.87,2.66-1.3,4-1.2-.12-2.4-.26-3.6-.41-15.38.81-30.38,6.07-46,3.87,8-6.63,19.09-2.86,27.5-8.13Z"/><path class="cls-11" d="M720.35,615.56c11.19,20.45,15.42,44.15,29.53,63.24-15.61-.46-27.71,12.63-43.56,11.23C716.05,666.16,718.13,640.85,720.35,615.56Z"/><path class="cls-10" d="M731.13,526.77l4-5.09q5.37,11.39,10.73,22.75c-3.69.27-10.76,1.05-9.77,3.1,6.9,14.35-12.22,22.28-7.65,36.39,3.51,10.83-16-2-13.46,10.71l-3.79-4.1q2.22-11.56,4.45-23.13a1.66,1.66,0,0,0,.33-2.07c3.07-2.15,4-5.3,4.07-8.82Z"/><path class="cls-1" d="M784.68,778.9c-3.46-1.69-4.2-4.73-4-8.21C784.5,772.18,785.31,775.19,784.68,778.9Z"/><path class="cls-4" d="M1371.92,571.42l3.8,4.39-7.48,3.3L1353,579q-2.76-12.53-5.54-25.05C1355.41,560,1366.68,561.52,1371.92,571.42Z"/><path class="cls-7" d="M1094.78,578.79l5.07-10.63c7-2.92,12.31-13.09,21.79-4.94-6,4.65-9.09,11.29-12.18,17.91l.52,1-4.13,4-6.46,7.89c-5.05-2.16-3.62-7.34-5.2-11.12C1094.39,581.58,1094.59,580.18,1094.78,578.79Z"/><path class="cls-12" d="M1094.78,578.79c-.19,1.39-.39,2.79-.59,4.19-11.94,5.6-23.25,6-33.31-4C1072.2,581.36,1083.44,570,1094.78,578.79Z"/><path class="cls-9" d="M1015,586.91l12.83-.27q-4.59,2-9.22,4Z"/><path class="cls-13" d="M1327.31,543.91l13.51,1.06a18.54,18.54,0,0,1,.64,3.22c-6.12,13.42-16.13,20.55-31.3,19.3-.32-9.91,11.95-13.09,12.14-22.73Z"/><path class="cls-8" d="M1341.46,548.19a18.54,18.54,0,0,0-.64-3.22c15-4.23,26.56,2.39,37.28,11.68,5.17,4.48,10.23,9.08,15.34,13.62-7,4.52-14.7-5.77-21.52,1.15-5.24-9.9-16.51-11.39-24.46-17.51Z"/><path class="cls-12" d="M1105.85,586.21l4.13-4Z"/><path class="cls-11" d="M1378.51,491.62l8.59-1.21c-1.52,3.35-4.52,4.14-7.77,4.52A7.46,7.46,0,0,1,1378.51,491.62Z"/><path class="cls-13" d="M1479.92,494.71c9.91-.45,18.23,2.22,23.06,11.76l20.09,24.5c-1.77,14.49-6.74,24.43-24,17l-.84-6.88c.75-11.95,1.88-24-10.94-31.22v0c.19-5.11-2.69-7.42-7.37-8.08Z"/><path class="cls-11" d="M1499.06,547.93c17.27,7.47,22.24-2.47,24-17l6.3,5.54c.18,2.35.37,4.71.56,7.06,0,4.91-3.45,7.74-6.37,11.09-4.46,5.11-7.68,13.81-15.39,12C1499.66,564.66,1500.44,555.09,1499.06,547.93Z"/><path class="cls-11" d="M1487.28,509.83c12.82,7.19,11.69,19.27,10.94,31.22C1484.67,534.11,1493.89,519.2,1487.28,509.83Z"/><path class="cls-11" d="M1479.92,501.77c4.68.66,7.56,3,7.37,8.08Q1479.36,509.7,1479.92,501.77Z"/><path class="cls-11" d="M1533.81,499.23l26.1-.79c.14,5.62-9.6,6.63-6.38,13.67l-8.91,5.47L1530,521.13,1517.87,510C1522.39,505.25,1530.32,505.52,1533.81,499.23Z"/><path class="cls-11" d="M1551.65,528.68c-3.57-2.76-7.32-5.41-6.88-10.73C1553.05,517.69,1552.5,523.09,1551.65,528.68Z"/><path class="cls-10" d="M1517.87,510,1530,521.13q-.3,7.68-.62,15.38l-6.3-5.54L1503,506.47C1508.71,504.42,1513.25,507.38,1517.87,510Z"/><path class="cls-8" d="M191.89,532.07c2.22-7.18,6.19-8.79,12.22-3.85C200.4,530.66,196.81,533.48,191.89,532.07Z"/><path class="cls-6" d="M207.1,585.6l-.43,1.63a9.91,9.91,0,0,1-1.57-1.82c-.1-.19.68-.84,1.05-1.28C206.47,584.62,206.79,585.11,207.1,585.6Z"/><path class="cls-6" d="M195.67,561.46l-.57,1.16-1.52-1.26c.37-.38.73-.76,1.1-1.13Z"/><path class="cls-6" d="M202,578.49c-.35-.47-1-1-1-1.44s.77-.86,1.19-1.29c.36.48,1,1,1,1.45S202.46,578.06,202,578.49Z"/><path class="cls-6" d="M198.49,568.15c.26.36.9.86.87,1.31s-.73.85-1.14,1.28c-.35-.48-1-1-.95-1.42S198.06,568.53,198.49,568.15Z"/><path class="cls-3" d="M476.49,263.31l4.18.1C479.2,266.66,477.83,265.7,476.49,263.31Z"/><path class="cls-11" d="M1441,413.75l-7.51-1.33c-7.72-8.44-14.69-17.36-18.46-28.35C1433.1,385.75,1433.16,403.16,1441,413.75Z"/><path class="cls-15" d="M1248.79,321.67l11.79,3.87c-3,4.54-7.66,3.68-12,3.87Q1248.67,325.54,1248.79,321.67Z"/><path class="cls-12" d="M1053.08,413.92c-11.38-4.21-10.3-13.87-11.62-26.14,8.52,9.08,9.27,17.93,11.73,26Z"/><path class="cls-7" d="M720,556.51c-.11,3.52-1,6.67-4.07,8.82C715.21,561.44,715.55,558,720,556.51Z"/></g></g></svg>