<svg xmlns="http://www.w3.org/2000/svg" xmlns:xlink="http://www.w3.org/1999/xlink" viewBox="0 0 775.04 561.86"><defs><style>.cls-1{fill:url(#linear-gradient);}.cls-2{fill:url(#linear-gradient-2);}.cls-3{fill:url(#linear-gradient-3);}.cls-4{fill:url(#linear-gradient-4);}.cls-5{fill:url(#linear-gradient-5);}.cls-6{fill:url(#linear-gradient-6);}.cls-7{fill:url(#linear-gradient-7);}.cls-8{fill:url(#linear-gradient-8);}.cls-9{fill:url(#linear-gradient-9);}.cls-10{fill:url(#linear-gradient-10);}.cls-11{fill:url(#linear-gradient-11);}.cls-12{fill:url(#linear-gradient-12);}.cls-13{fill:url(#linear-gradient-13);}.cls-14{fill:url(#linear-gradient-14);}.cls-15{fill:url(#linear-gradient-15);}.cls-16{fill:url(#linear-gradient-16);}.cls-17{fill:url(#linear-gradient-17);}.cls-18{fill:url(#linear-gradient-18);}.cls-19{fill:url(#linear-gradient-19);}.cls-20{fill:url(#linear-gradient-20);}.cls-21{fill:url(#linear-gradient-21);}.cls-22{fill:url(#linear-gradient-22);}.cls-23{fill:url(#linear-gradient-23);}.cls-24{fill:url(#linear-gradient-24);}.cls-25{fill:url(#linear-gradient-25);}.cls-26{fill:url(#linear-gradient-26);}.cls-27{fill:url(#linear-gradient-27);}.cls-28{fill:url(#linear-gradient-28);}.cls-29{fill:url(#linear-gradient-29);}.cls-30{fill:url(#linear-gradient-30);}.cls-31{fill:url(#linear-gradient-31);}.cls-32{fill:url(#linear-gradient-32);}.cls-33{fill:url(#linear-gradient-33);}.cls-34{fill:url(#linear-gradient-34);}.cls-35{fill:url(#linear-gradient-35);}.cls-36{fill:url(#linear-gradient-36);}.cls-37{fill:url(#linear-gradient-37);}.cls-38{fill:url(#linear-gradient-38);}.cls-39{fill:url(#linear-gradient-39);}.cls-40{fill:url(#linear-gradient-40);}.cls-41{fill:url(#linear-gradient-41);}.cls-42{fill:url(#linear-gradient-42);}.cls-43{fill:url(#linear-gradient-43);}.cls-44{fill:url(#linear-gradient-44);}.cls-45{fill:url(#linear-gradient-45);}.cls-46{fill:url(#linear-gradient-46);}.cls-47{fill:url(#linear-gradient-47);}.cls-48{fill:url(#linear-gradient-48);}.cls-49{fill:url(#linear-gradient-49);}.cls-50{fill:url(#linear-gradient-50);}.cls-51{fill:url(#linear-gradient-51);}.cls-52{fill:url(#linear-gradient-52);}.cls-53{fill:url(#linear-gradient-53);}.cls-54{fill:url(#linear-gradient-54);}.cls-55{fill:url(#linear-gradient-55);}.cls-56{fill:url(#linear-gradient-56);}.cls-57{fill:url(#linear-gradient-57);}.cls-58{fill:url(#linear-gradient-58);}.cls-59{fill:url(#linear-gradient-59);}.cls-60{fill:url(#linear-gradient-60);}.cls-61{fill:url(#linear-gradient-61);}.cls-62{fill:url(#linear-gradient-62);}.cls-63{fill:url(#linear-gradient-63);}.cls-64{fill:url(#linear-gradient-64);}.cls-65{fill:url(#linear-gradient-65);}.cls-66{fill:url(#linear-gradient-66);}.cls-67{fill:url(#linear-gradient-67);}.cls-68{fill:url(#linear-gradient-68);}.cls-69{fill:url(#linear-gradient-69);}.cls-70{fill:url(#linear-gradient-70);}.cls-71{fill:url(#linear-gradient-71);}.cls-72{fill:url(#linear-gradient-72);}.cls-73{fill:url(#linear-gradient-73);}.cls-74{fill:url(#linear-gradient-74);}.cls-75{fill:url(#linear-gradient-75);}.cls-76{fill:url(#linear-gradient-76);}.cls-77{fill:url(#linear-gradient-77);}.cls-78{fill:url(#linear-gradient-78);}.cls-79{fill:url(#linear-gradient-79);}.cls-80{fill:url(#linear-gradient-80);}.cls-81{fill:url(#linear-gradient-81);}.cls-82{fill:url(#linear-gradient-82);}.cls-83{fill:url(#linear-gradient-83);}.cls-84{fill:url(#linear-gradient-84);}.cls-85{fill:url(#linear-gradient-85);}.cls-86{fill:url(#linear-gradient-86);}.cls-87{fill:url(#linear-gradient-87);}.cls-88{fill:url(#linear-gradient-88);}.cls-89{fill:url(#linear-gradient-89);}.cls-90{fill:url(#linear-gradient-90);}.cls-91{fill:url(#linear-gradient-91);}.cls-92{fill:url(#linear-gradient-92);}.cls-93{fill:url(#linear-gradient-93);}.cls-94{fill:url(#linear-gradient-94);}.cls-95{fill:url(#linear-gradient-95);}.cls-96{fill:url(#linear-gradient-96);}.cls-97{fill:url(#linear-gradient-97);}.cls-98{fill:url(#linear-gradient-98);}.cls-99{fill:url(#linear-gradient-99);}.cls-100{fill:url(#linear-gradient-100);}.cls-101{fill:url(#linear-gradient-101);}.cls-102{fill:url(#linear-gradient-102);}.cls-103{fill:url(#linear-gradient-103);}.cls-104{fill:url(#linear-gradient-104);}.cls-105{fill:url(#linear-gradient-105);}.cls-106{fill:url(#linear-gradient-106);}.cls-107{fill:url(#linear-gradient-107);}.cls-108{fill:url(#linear-gradient-108);}.cls-109{fill:url(#linear-gradient-109);}.cls-110{fill:url(#linear-gradient-110);}.cls-111{fill:url(#linear-gradient-111);}.cls-112{fill:url(#linear-gradient-112);}.cls-113{fill:url(#linear-gradient-113);}.cls-114{fill:url(#linear-gradient-114);}.cls-115{fill:url(#linear-gradient-115);}.cls-116{fill:url(#linear-gradient-116);}.cls-117{fill:url(#linear-gradient-117);}.cls-118{fill:url(#linear-gradient-118);}.cls-119{fill:url(#linear-gradient-119);}.cls-120{fill:url(#linear-gradient-120);}.cls-121{fill:url(#linear-gradient-121);}.cls-122{fill:url(#linear-gradient-122);}.cls-123{fill:url(#linear-gradient-123);}.cls-124{fill:url(#linear-gradient-124);}.cls-125{fill:url(#linear-gradient-125);}.cls-126{fill:url(#linear-gradient-126);}.cls-127{fill:url(#linear-gradient-127);}.cls-128{fill:url(#linear-gradient-128);}.cls-129{fill:url(#linear-gradient-129);}.cls-130{fill:url(#linear-gradient-130);}.cls-131{fill:url(#linear-gradient-131);}.cls-132{fill:url(#linear-gradient-132);}.cls-133{fill:url(#linear-gradient-133);}.cls-134{fill:url(#linear-gradient-134);}.cls-135{fill:url(#linear-gradient-135);}.cls-136{fill:url(#linear-gradient-136);}.cls-137{fill:url(#linear-gradient-137);}.cls-138{fill:url(#linear-gradient-138);}.cls-139{fill:url(#linear-gradient-139);}.cls-140{fill:url(#linear-gradient-140);}.cls-141{fill:url(#linear-gradient-141);}.cls-142{fill:url(#linear-gradient-142);}.cls-143{fill:url(#linear-gradient-143);}.cls-144{fill:url(#linear-gradient-144);}.cls-145{fill:url(#linear-gradient-145);}.cls-146{fill:url(#linear-gradient-146);}.cls-147{fill:url(#linear-gradient-147);}.cls-148{fill:url(#linear-gradient-148);}.cls-149{fill:url(#linear-gradient-149);}.cls-150{fill:url(#linear-gradient-150);}.cls-151{fill:url(#linear-gradient-151);}.cls-152{fill:url(#linear-gradient-152);}.cls-153{fill:url(#linear-gradient-153);}.cls-154{fill:url(#linear-gradient-154);}.cls-155{fill:url(#linear-gradient-155);}.cls-156{fill:url(#linear-gradient-156);}.cls-157{fill:url(#linear-gradient-157);}.cls-158{fill:url(#linear-gradient-158);}.cls-159{fill:url(#linear-gradient-159);}.cls-160{fill:url(#linear-gradient-160);}.cls-161{fill:url(#linear-gradient-161);}.cls-162{fill:url(#linear-gradient-162);}.cls-163{fill:url(#linear-gradient-163);}.cls-164{fill:url(#linear-gradient-164);}.cls-165{fill:url(#linear-gradient-165);}.cls-166{fill:url(#linear-gradient-166);}.cls-167{fill:url(#linear-gradient-167);}.cls-168{fill:url(#linear-gradient-168);}.cls-169{fill:url(#linear-gradient-169);}.cls-170{fill:url(#linear-gradient-170);}.cls-171{fill:url(#linear-gradient-171);}.cls-172{fill:url(#linear-gradient-172);}.cls-173{fill:url(#linear-gradient-173);}.cls-174{fill:url(#linear-gradient-174);}.cls-175{fill:url(#linear-gradient-175);}.cls-176{fill:url(#linear-gradient-176);}.cls-177{fill:url(#linear-gradient-177);}.cls-178{fill:url(#linear-gradient-178);}.cls-179{fill:url(#linear-gradient-179);}.cls-180{fill:url(#linear-gradient-180);}.cls-181{fill:url(#linear-gradient-181);}.cls-182{fill:url(#linear-gradient-182);}.cls-183{fill:url(#linear-gradient-183);}.cls-184{fill:url(#linear-gradient-184);}.cls-185{fill:url(#linear-gradient-185);}.cls-186{fill:url(#linear-gradient-186);}</style><linearGradient id="linear-gradient" x1="20.16" y1="417.54" x2="597.29" y2="417.54" gradientUnits="userSpaceOnUse"><stop offset="0.01" stop-color="#1a1a1a"/><stop offset="1" stop-color="#4d4d4d"/></linearGradient><linearGradient id="linear-gradient-2" x1="239.8" y1="389" x2="524.89" y2="389" xlink:href="#linear-gradient"/><linearGradient id="linear-gradient-3" x1="239.64" y1="113.57" x2="524.88" y2="113.57" xlink:href="#linear-gradient"/><linearGradient id="linear-gradient-4" x1="549.97" y1="113.75" x2="775.04" y2="113.75" xlink:href="#linear-gradient"/><linearGradient id="linear-gradient-5" x1="0" y1="113.74" x2="225.05" y2="113.74" xlink:href="#linear-gradient"/><linearGradient id="linear-gradient-6" x1="586.8" y1="352.93" x2="745.13" y2="352.93" xlink:href="#linear-gradient"/><linearGradient id="linear-gradient-7" x1="685.55" y1="451.41" x2="774.38" y2="451.41" xlink:href="#linear-gradient"/><linearGradient id="linear-gradient-8" x1="604.1" y1="451.36" x2="646.57" y2="451.36" xlink:href="#linear-gradient"/><linearGradient id="linear-gradient-9" x1="557.7" y1="452.23" x2="594.04" y2="452.23" xlink:href="#linear-gradient"/><linearGradient id="linear-gradient-10" x1="629.82" y1="91.2" x2="652.51" y2="91.2" xlink:href="#linear-gradient"/><linearGradient id="linear-gradient-11" x1="586.99" y1="46.55" x2="609.99" y2="46.55" xlink:href="#linear-gradient"/><linearGradient id="linear-gradient-12" x1="715.15" y1="46.77" x2="738.15" y2="46.77" xlink:href="#linear-gradient"/><linearGradient id="linear-gradient-13" x1="190.2" y1="200.02" x2="212.71" y2="200.02" xlink:href="#linear-gradient"/><linearGradient id="linear-gradient-14" x1="165.92" y1="114.78" x2="198.45" y2="114.78" xlink:href="#linear-gradient"/><linearGradient id="linear-gradient-15" x1="26.59" y1="107.46" x2="58.37" y2="107.46" xlink:href="#linear-gradient"/><linearGradient id="linear-gradient-16" x1="45.45" y1="182.89" x2="166.76" y2="182.89" xlink:href="#linear-gradient"/><linearGradient id="linear-gradient-17" x1="667.7" y1="91.24" x2="700.27" y2="91.24" xlink:href="#linear-gradient"/><linearGradient id="linear-gradient-18" x1="57.52" y1="39" x2="169.28" y2="39" xlink:href="#linear-gradient"/><linearGradient id="linear-gradient-19" x1="624.93" y1="135.98" x2="657.53" y2="135.98" xlink:href="#linear-gradient"/><linearGradient id="linear-gradient-20" x1="582.03" y1="180.76" x2="614.87" y2="180.76" xlink:href="#linear-gradient"/><linearGradient id="linear-gradient-21" x1="710.35" y1="136" x2="743.07" y2="136" xlink:href="#linear-gradient"/><linearGradient id="linear-gradient-22" x1="710.4" y1="91.22" x2="743.07" y2="91.22" xlink:href="#linear-gradient"/><linearGradient id="linear-gradient-23" x1="582.04" y1="136" x2="614.87" y2="136" xlink:href="#linear-gradient"/><linearGradient id="linear-gradient-24" x1="710.35" y1="180.93" x2="743.06" y2="180.93" xlink:href="#linear-gradient"/><linearGradient id="linear-gradient-25" x1="582.07" y1="91.23" x2="614.87" y2="91.23" xlink:href="#linear-gradient"/><linearGradient id="linear-gradient-26" x1="624.9" y1="91.23" x2="657.54" y2="91.23" xlink:href="#linear-gradient"/><linearGradient id="linear-gradient-27" x1="582.07" y1="46.55" x2="614.92" y2="46.55" xlink:href="#linear-gradient"/><linearGradient id="linear-gradient-28" x1="667.71" y1="180.67" x2="700.24" y2="180.67" xlink:href="#linear-gradient"/><linearGradient id="linear-gradient-29" x1="667.64" y1="46.55" x2="700.25" y2="46.55" xlink:href="#linear-gradient"/><linearGradient id="linear-gradient-30" x1="638.96" y1="180.79" x2="657.85" y2="180.79" xlink:href="#linear-gradient"/><linearGradient id="linear-gradient-31" x1="624.97" y1="46.52" x2="655.77" y2="46.52" xlink:href="#linear-gradient"/><linearGradient id="linear-gradient-32" x1="710.37" y1="46.48" x2="726.05" y2="46.48" xlink:href="#linear-gradient"/><linearGradient id="linear-gradient-33" x1="727.05" y1="46.56" x2="743.06" y2="46.56" xlink:href="#linear-gradient"/><linearGradient id="linear-gradient-34" x1="624.88" y1="180.77" x2="640.04" y2="180.77" xlink:href="#linear-gradient"/><linearGradient id="linear-gradient-35" x1="197.42" y1="176.04" x2="212.98" y2="176.04" xlink:href="#linear-gradient"/><linearGradient id="linear-gradient-36" x1="667.68" y1="137" x2="694.98" y2="137" xlink:href="#linear-gradient"/><linearGradient id="linear-gradient-37" x1="668.15" y1="121.08" x2="700.09" y2="121.08" xlink:href="#linear-gradient"/><linearGradient id="linear-gradient-38" x1="654.71" y1="46.07" x2="657.69" y2="46.07" xlink:href="#linear-gradient"/><linearGradient id="linear-gradient-39" x1="594.08" y1="413.15" x2="603.11" y2="413.15" xlink:href="#linear-gradient"/><linearGradient id="linear-gradient-40" x1="728.99" y1="413.31" x2="738.04" y2="413.31" xlink:href="#linear-gradient"/><linearGradient id="linear-gradient-41" x1="698.26" y1="135.99" x2="700.09" y2="135.99" xlink:href="#linear-gradient"/><linearGradient id="linear-gradient-42" x1="737.07" y1="413.66" x2="747.1" y2="413.66" xlink:href="#linear-gradient"/><linearGradient id="linear-gradient-43" x1="684.98" y1="165.96" x2="699.97" y2="165.96" xlink:href="#linear-gradient"/><linearGradient id="linear-gradient-44" x1="586.04" y1="413.63" x2="594.14" y2="413.63" xlink:href="#linear-gradient"/><linearGradient id="linear-gradient-45" x1="598.09" y1="489.52" x2="603.06" y2="489.52" xlink:href="#linear-gradient"/><linearGradient id="linear-gradient-46" x1="591.2" y1="489.54" x2="598.16" y2="489.54" xlink:href="#linear-gradient"/><linearGradient id="linear-gradient-47" x1="694.97" y1="150.98" x2="700.07" y2="150.98" xlink:href="#linear-gradient"/><linearGradient id="linear-gradient-48" x1="602.99" y1="413.13" x2="604.68" y2="413.13" xlink:href="#linear-gradient"/><linearGradient id="linear-gradient-49" x1="727.44" y1="413.13" x2="729.1" y2="413.13" xlink:href="#linear-gradient"/><linearGradient id="linear-gradient-50" x1="602.94" y1="489.66" x2="604.7" y2="489.66" xlink:href="#linear-gradient"/><linearGradient id="linear-gradient-51" x1="382" y1="500.22" x2="383.17" y2="500.22" xlink:href="#linear-gradient"/><linearGradient id="linear-gradient-52" x1="729.79" y1="62.92" x2="733.29" y2="62.92" xlink:href="#linear-gradient"/><linearGradient id="linear-gradient-53" x1="726.03" y1="62.02" x2="727.06" y2="62.02" xlink:href="#linear-gradient"/><linearGradient id="linear-gradient-54" x1="712.99" y1="62.78" x2="715.28" y2="62.78" xlink:href="#linear-gradient"/><linearGradient id="linear-gradient-55" x1="696.87" y1="30.45" x2="697.97" y2="30.45" xlink:href="#linear-gradient"/><linearGradient id="linear-gradient-56" x1="682.92" y1="30.45" x2="684.04" y2="30.45" xlink:href="#linear-gradient"/><linearGradient id="linear-gradient-57" x1="670.06" y1="30.43" x2="671.24" y2="30.43" xlink:href="#linear-gradient"/><linearGradient id="linear-gradient-58" x1="598.05" y1="30.47" x2="599.15" y2="30.47" xlink:href="#linear-gradient"/><linearGradient id="linear-gradient-59" x1="668.45" y1="61.14" x2="670.42" y2="61.14" xlink:href="#linear-gradient"/><linearGradient id="linear-gradient-60" x1="654.74" y1="61.17" x2="656.65" y2="61.17" xlink:href="#linear-gradient"/><linearGradient id="linear-gradient-61" x1="738.8" y1="62.71" x2="740.17" y2="62.71" xlink:href="#linear-gradient"/><linearGradient id="linear-gradient-62" x1="340.04" y1="423.35" x2="350.17" y2="423.35" xlink:href="#linear-gradient"/><linearGradient id="linear-gradient-63" x1="439.05" y1="423.97" x2="448.05" y2="423.97" xlink:href="#linear-gradient"/><linearGradient id="linear-gradient-64" x1="292.09" y1="423.36" x2="301.17" y2="423.36" xlink:href="#linear-gradient"/><linearGradient id="linear-gradient-65" x1="390.06" y1="423.45" x2="399.08" y2="423.45" xlink:href="#linear-gradient"/><linearGradient id="linear-gradient-66" x1="344.17" y1="497.25" x2="348.18" y2="497.25" xlink:href="#linear-gradient"/><linearGradient id="linear-gradient-67" x1="295.16" y1="497.19" x2="298.07" y2="497.19" xlink:href="#linear-gradient"/><linearGradient id="linear-gradient-68" x1="393.16" y1="497.19" x2="396.05" y2="497.19" xlink:href="#linear-gradient"/><linearGradient id="linear-gradient-69" x1="442.16" y1="497.19" x2="445.06" y2="497.19" xlink:href="#linear-gradient"/><linearGradient id="linear-gradient-70" x1="494.16" y1="497.27" x2="496.02" y2="497.27" xlink:href="#linear-gradient"/><linearGradient id="linear-gradient-71" x1="320.12" y1="497.15" x2="322.09" y2="497.15" xlink:href="#linear-gradient"/><linearGradient id="linear-gradient-72" x1="369.12" y1="497.19" x2="371.07" y2="497.19" xlink:href="#linear-gradient"/><linearGradient id="linear-gradient-73" x1="418.12" y1="497.19" x2="420.05" y2="497.19" xlink:href="#linear-gradient"/><linearGradient id="linear-gradient-74" x1="466.59" y1="497.13" x2="469.57" y2="497.13" xlink:href="#linear-gradient"/><linearGradient id="linear-gradient-75" x1="268.05" y1="497.83" x2="270.46" y2="497.83" xlink:href="#linear-gradient"/><linearGradient id="linear-gradient-76" x1="417.01" y1="405.98" x2="420.05" y2="405.98" xlink:href="#linear-gradient"/><linearGradient id="linear-gradient-77" x1="382.06" y1="402.75" x2="383.07" y2="402.75" xlink:href="#linear-gradient"/><linearGradient id="linear-gradient-78" x1="318.05" y1="405.95" x2="320.19" y2="405.95" xlink:href="#linear-gradient"/><linearGradient id="linear-gradient-79" x1="769.82" y1="451.41" x2="773.18" y2="451.41" xlink:href="#linear-gradient"/><linearGradient id="linear-gradient-80" x1="558.75" y1="451.78" x2="564.2" y2="451.78" xlink:href="#linear-gradient"/><linearGradient id="linear-gradient-81" x1="579.94" y1="446.29" x2="581.2" y2="446.29" xlink:href="#linear-gradient"/><linearGradient id="linear-gradient-82" x1="669.36" y1="91.2" x2="698.57" y2="91.2" xlink:href="#linear-gradient"/><linearGradient id="linear-gradient-83" x1="626.7" y1="136.03" x2="655.89" y2="136.03" xlink:href="#linear-gradient"/><linearGradient id="linear-gradient-84" x1="583.93" y1="180.77" x2="613.12" y2="180.77" xlink:href="#linear-gradient"/><linearGradient id="linear-gradient-85" x1="712.11" y1="136.04" x2="741.24" y2="136.04" xlink:href="#linear-gradient"/><linearGradient id="linear-gradient-86" x1="712.12" y1="91.25" x2="741.26" y2="91.25" xlink:href="#linear-gradient"/><linearGradient id="linear-gradient-87" x1="583.94" y1="136.25" x2="613.51" y2="136.25" xlink:href="#linear-gradient"/><linearGradient id="linear-gradient-88" x1="712.09" y1="180.77" x2="741.29" y2="180.77" xlink:href="#linear-gradient"/><linearGradient id="linear-gradient-89" x1="583.96" y1="91.56" x2="613.07" y2="91.56" xlink:href="#linear-gradient"/><linearGradient id="linear-gradient-90" x1="669.34" y1="180.43" x2="698.8" y2="180.43" xlink:href="#linear-gradient"/><linearGradient id="linear-gradient-91" x1="669.32" y1="46.58" x2="698.58" y2="46.58" xlink:href="#linear-gradient"/><linearGradient id="linear-gradient-92" x1="626.67" y1="180.9" x2="655.67" y2="180.9" xlink:href="#linear-gradient"/><linearGradient id="linear-gradient-93" x1="626.67" y1="46.62" x2="655.95" y2="46.62" xlink:href="#linear-gradient"/><linearGradient id="linear-gradient-94" x1="669.3" y1="136.07" x2="698.64" y2="136.07" xlink:href="#linear-gradient"/><linearGradient id="linear-gradient-95" x1="669.3" y1="125" x2="669.32" y2="125" xlink:href="#linear-gradient"/><linearGradient id="linear-gradient-96" x1="669.31" y1="148.91" x2="669.7" y2="148.91" xlink:href="#linear-gradient"/><linearGradient id="linear-gradient-97" x1="34.34" y1="337.07" x2="181.63" y2="337.07" xlink:href="#linear-gradient"/><linearGradient id="linear-gradient-98" x1="58.99" y1="442.42" x2="157.15" y2="442.42" xlink:href="#linear-gradient"/><linearGradient id="linear-gradient-99" x1="270.23" y1="343.8" x2="494.26" y2="343.8" xlink:href="#linear-gradient"/><linearGradient id="linear-gradient-100" x1="442.41" y1="468.91" x2="444.5" y2="468.91" xlink:href="#linear-gradient"/><linearGradient id="linear-gradient-101" x1="344.41" y1="468.88" x2="346.67" y2="468.88" xlink:href="#linear-gradient"/><linearGradient id="linear-gradient-102" x1="418.14" y1="451.39" x2="419.99" y2="451.39" xlink:href="#linear-gradient"/><linearGradient id="linear-gradient-103" x1="393.59" y1="468.88" x2="395.5" y2="468.88" xlink:href="#linear-gradient"/><linearGradient id="linear-gradient-104" x1="395.44" y1="443.89" x2="395.5" y2="443.89" xlink:href="#linear-gradient"/><linearGradient id="linear-gradient-105" x1="295.4" y1="468.83" x2="297.87" y2="468.83" xlink:href="#linear-gradient"/><linearGradient id="linear-gradient-106" x1="295.12" y1="63.92" x2="469.4" y2="63.92" xlink:href="#linear-gradient"/><linearGradient id="linear-gradient-107" x1="443.71" y1="161.03" x2="451.25" y2="161.03" xlink:href="#linear-gradient"/><linearGradient id="linear-gradient-108" x1="366" y1="161.05" x2="372.35" y2="161.05" xlink:href="#linear-gradient"/><linearGradient id="linear-gradient-109" x1="395.87" y1="161.27" x2="399.6" y2="161.27" xlink:href="#linear-gradient"/><linearGradient id="linear-gradient-110" x1="391.26" y1="161.31" x2="395.16" y2="161.31" xlink:href="#linear-gradient"/><linearGradient id="linear-gradient-111" x1="343.02" y1="161.29" x2="346.94" y2="161.29" xlink:href="#linear-gradient"/><linearGradient id="linear-gradient-112" x1="339.29" y1="161.15" x2="342.26" y2="161.15" xlink:href="#linear-gradient"/><linearGradient id="linear-gradient-113" x1="417.92" y1="161.25" x2="421.15" y2="161.25" xlink:href="#linear-gradient"/><linearGradient id="linear-gradient-114" x1="316.86" y1="161.33" x2="319.88" y2="161.33" xlink:href="#linear-gradient"/><linearGradient id="linear-gradient-115" x1="418.51" y1="161.25" x2="426.08" y2="161.25" xlink:href="#linear-gradient"/><linearGradient id="linear-gradient-116" x1="312.19" y1="161.3" x2="319.49" y2="161.3" xlink:href="#linear-gradient"/><linearGradient id="linear-gradient-117" x1="392.57" y1="161.3" x2="398.5" y2="161.3" xlink:href="#linear-gradient"/><linearGradient id="linear-gradient-118" x1="339.62" y1="161.27" x2="345.71" y2="161.27" xlink:href="#linear-gradient"/><linearGradient id="linear-gradient-119" x1="422.22" y1="182.45" x2="425.75" y2="182.45" xlink:href="#linear-gradient"/><linearGradient id="linear-gradient-120" x1="312.48" y1="185.93" x2="316" y2="185.93" xlink:href="#linear-gradient"/><linearGradient id="linear-gradient-121" x1="422.07" y1="134.73" x2="424.39" y2="134.73" xlink:href="#linear-gradient"/><linearGradient id="linear-gradient-122" x1="313.78" y1="134.82" x2="316.18" y2="134.82" xlink:href="#linear-gradient"/><linearGradient id="linear-gradient-123" x1="448.88" y1="180.37" x2="452.59" y2="180.37" xlink:href="#linear-gradient"/><linearGradient id="linear-gradient-124" x1="369.86" y1="180.38" x2="373.57" y2="180.38" xlink:href="#linear-gradient"/><linearGradient id="linear-gradient-125" x1="364.98" y1="180.38" x2="368.49" y2="180.38" xlink:href="#linear-gradient"/><linearGradient id="linear-gradient-126" x1="449.02" y1="135.27" x2="451.21" y2="135.27" xlink:href="#linear-gradient"/><linearGradient id="linear-gradient-127" x1="445.13" y1="187.37" x2="447.29" y2="187.37" xlink:href="#linear-gradient"/><linearGradient id="linear-gradient-128" x1="370" y1="135.47" x2="372.2" y2="135.47" xlink:href="#linear-gradient"/><linearGradient id="linear-gradient-129" x1="366" y1="135.27" x2="368.23" y2="135.27" xlink:href="#linear-gradient"/><linearGradient id="linear-gradient-130" x1="445.83" y1="134.88" x2="447.33" y2="134.88" xlink:href="#linear-gradient"/><linearGradient id="linear-gradient-131" x1="312.47" y1="160.48" x2="313.61" y2="160.48" xlink:href="#linear-gradient"/><linearGradient id="linear-gradient-132" x1="340.21" y1="116.78" x2="341.12" y2="116.78" xlink:href="#linear-gradient"/><linearGradient id="linear-gradient-133" x1="312.46" y1="167.87" x2="313.16" y2="167.87" xlink:href="#linear-gradient"/><linearGradient id="linear-gradient-134" x1="450.47" y1="150.86" x2="450.52" y2="150.86" xlink:href="#linear-gradient"/><linearGradient id="linear-gradient-135" x1="419.03" y1="152.92" x2="419.68" y2="152.92" xlink:href="#linear-gradient"/><linearGradient id="linear-gradient-136" x1="743.58" y1="451.41" x2="772.25" y2="451.41" xlink:href="#linear-gradient"/><linearGradient id="linear-gradient-137" x1="32.93" y1="113.64" x2="167.34" y2="113.64" xlink:href="#linear-gradient"/><linearGradient id="linear-gradient-138" x1="169.41" y1="112.5" x2="192.05" y2="112.5" xlink:href="#linear-gradient"/><linearGradient id="linear-gradient-139" x1="163.42" y1="169.28" x2="172.38" y2="169.28" xlink:href="#linear-gradient"/><linearGradient id="linear-gradient-140" x1="168.48" y1="59.23" x2="170.36" y2="59.23" xlink:href="#linear-gradient"/><linearGradient id="linear-gradient-141" x1="166.54" y1="57.25" x2="168.36" y2="57.25" xlink:href="#linear-gradient"/><linearGradient id="linear-gradient-142" x1="167.46" y1="58.26" x2="169.35" y2="58.26" xlink:href="#linear-gradient"/><linearGradient id="linear-gradient-143" x1="672.58" y1="91.03" x2="695.24" y2="91.03" xlink:href="#linear-gradient"/><linearGradient id="linear-gradient-144" x1="630.28" y1="135.95" x2="652.46" y2="135.95" xlink:href="#linear-gradient"/><linearGradient id="linear-gradient-145" x1="630.28" y1="135.98" x2="630.78" y2="135.98" xlink:href="#linear-gradient"/><linearGradient id="linear-gradient-146" x1="586.97" y1="180.79" x2="610.04" y2="180.79" xlink:href="#linear-gradient"/><linearGradient id="linear-gradient-147" x1="715.12" y1="135.98" x2="738.17" y2="135.98" xlink:href="#linear-gradient"/><linearGradient id="linear-gradient-148" x1="715.1" y1="91.19" x2="738.2" y2="91.19" xlink:href="#linear-gradient"/><linearGradient id="linear-gradient-149" x1="586.97" y1="135.98" x2="610.04" y2="135.98" xlink:href="#linear-gradient"/><linearGradient id="linear-gradient-150" x1="715.07" y1="180.81" x2="738.19" y2="180.81" xlink:href="#linear-gradient"/><linearGradient id="linear-gradient-151" x1="586.93" y1="91.21" x2="610.02" y2="91.21" xlink:href="#linear-gradient"/><linearGradient id="linear-gradient-152" x1="672.48" y1="180.7" x2="695.24" y2="180.7" xlink:href="#linear-gradient"/><linearGradient id="linear-gradient-153" x1="672.62" y1="46.46" x2="694.47" y2="46.46" xlink:href="#linear-gradient"/><linearGradient id="linear-gradient-154" x1="694.05" y1="46.52" x2="695.18" y2="46.52" xlink:href="#linear-gradient"/><linearGradient id="linear-gradient-155" x1="629.89" y1="180.6" x2="652.61" y2="180.6" xlink:href="#linear-gradient"/><linearGradient id="linear-gradient-156" x1="630.63" y1="46.47" x2="652.52" y2="46.47" xlink:href="#linear-gradient"/><linearGradient id="linear-gradient-157" x1="629.91" y1="46.53" x2="631.06" y2="46.53" xlink:href="#linear-gradient"/><linearGradient id="linear-gradient-158" x1="672.67" y1="136.03" x2="694.86" y2="136.03" xlink:href="#linear-gradient"/><linearGradient id="linear-gradient-159" x1="694.33" y1="136.01" x2="694.86" y2="136.01" xlink:href="#linear-gradient"/><linearGradient id="linear-gradient-160" x1="296.88" y1="63.93" x2="467.75" y2="63.93" xlink:href="#linear-gradient"/><linearGradient id="linear-gradient-161" x1="341.13" y1="161.37" x2="344.23" y2="161.37" xlink:href="#linear-gradient"/><linearGradient id="linear-gradient-162" x1="43.35" y1="337" x2="172.83" y2="337" xlink:href="#linear-gradient"/><linearGradient id="linear-gradient-163" x1="78.15" y1="442.35" x2="138.04" y2="442.35" xlink:href="#linear-gradient"/><linearGradient id="linear-gradient-164" x1="275.47" y1="343.77" x2="489.15" y2="343.77" xlink:href="#linear-gradient"/><linearGradient id="linear-gradient-165" x1="300.31" y1="63.97" x2="464.28" y2="63.97" xlink:href="#linear-gradient"/><linearGradient id="linear-gradient-166" x1="53.81" y1="113.71" x2="171.36" y2="113.71" xlink:href="#linear-gradient"/><linearGradient id="linear-gradient-167" x1="302.03" y1="63.97" x2="462.65" y2="63.97" xlink:href="#linear-gradient"/><linearGradient id="linear-gradient-168" x1="49.99" y1="337" x2="165.49" y2="337" xlink:href="#linear-gradient"/><linearGradient id="linear-gradient-169" x1="164.24" y1="336.42" x2="167.07" y2="336.42" xlink:href="#linear-gradient"/><linearGradient id="linear-gradient-170" x1="48.99" y1="336.94" x2="50.07" y2="336.94" xlink:href="#linear-gradient"/><linearGradient id="linear-gradient-171" x1="108.14" y1="371.77" x2="164.44" y2="371.77" xlink:href="#linear-gradient"/><linearGradient id="linear-gradient-172" x1="108.25" y1="301.87" x2="163.25" y2="301.87" xlink:href="#linear-gradient"/><linearGradient id="linear-gradient-173" x1="53.04" y1="372.24" x2="107.25" y2="372.24" xlink:href="#linear-gradient"/><linearGradient id="linear-gradient-174" x1="53.05" y1="301.85" x2="107.15" y2="301.85" xlink:href="#linear-gradient"/><linearGradient id="linear-gradient-175" x1="50.9" y1="303.32" x2="53.13" y2="303.32" xlink:href="#linear-gradient"/><linearGradient id="linear-gradient-176" x1="51.04" y1="371.16" x2="53.14" y2="371.16" xlink:href="#linear-gradient"/><linearGradient id="linear-gradient-177" x1="49.9" y1="369.49" x2="51.1" y2="369.49" xlink:href="#linear-gradient"/><linearGradient id="linear-gradient-178" x1="160.83" y1="372.68" x2="162.3" y2="372.68" xlink:href="#linear-gradient"/><linearGradient id="linear-gradient-179" x1="164.21" y1="370.11" x2="165.41" y2="370.11" xlink:href="#linear-gradient"/><linearGradient id="linear-gradient-180" x1="50.01" y1="304.83" x2="51.07" y2="304.83" xlink:href="#linear-gradient"/><linearGradient id="linear-gradient-181" x1="163.15" y1="302.84" x2="164.34" y2="302.84" xlink:href="#linear-gradient"/><linearGradient id="linear-gradient-182" x1="98.49" y1="442.24" x2="117.45" y2="442.24" xlink:href="#linear-gradient"/><linearGradient id="linear-gradient-183" x1="280.58" y1="343.64" x2="484.16" y2="343.64" xlink:href="#linear-gradient"/><linearGradient id="linear-gradient-184" x1="305.32" y1="63.88" x2="459.3" y2="63.88" xlink:href="#linear-gradient"/><linearGradient id="linear-gradient-185" x1="86.54" y1="113.62" x2="138.75" y2="113.62" xlink:href="#linear-gradient"/><linearGradient id="linear-gradient-186" x1="284.08" y1="343.84" x2="480.4" y2="343.84" xlink:href="#linear-gradient"/></defs><g id="Layer_2" data-name="Layer 2"><g id="Layer_1-2" data-name="Layer 1"><path class="cls-1" d="M597.29,491.63c0,15.16,0,30.32,0,45.48-.07,14.73-10,24.7-24.81,24.71q-202.18,0-404.39,0c-13.67,0-24-10.28-24.07-23.94-.07-9.33-.23-18.67.06-28,.13-4.21-1.24-5.31-5.35-5.29-30,.15-60,.09-89.94.07C31,504.68,20.18,493.86,20.17,476q0-87,0-173.93c0-17.81,10.8-28.72,28.59-28.76q59-.1,117.94,0c18.65,0,29.3,10.87,29.31,29.65q0,86.2,0,172.43c0,18.68-10.74,29.29-29.53,29.35-4.66,0-9.33.07-14,0-2.32,0-3.21.81-3.18,3.22.1,10.49-.23,21,.11,31.48.32,10,8.68,17,19.61,17q200.45,0,400.89,0c3,0,5.94.37,8.89-.75,8.79-3.32,12.93-9.16,12.93-18.6,0-13.5,0-27,0-40.49,0-1.86.88-4.09-1.42-5.41l.9-.83C593.29,490.48,595.53,490,597.29,491.63ZM190.34,389.24q0-43.22,0-86.44c0-15.93-8-24-23.89-24q-58.69,0-117.4,0c-14.88,0-23.38,8.32-23.39,23.11q-.06,87.2,0,174.39c0,14.55,8.49,23,23,23q59.45,0,118.91,0c14.25,0,22.75-8.45,22.76-22.6Q190.37,433,190.34,389.24Z"/><path class="cls-2" d="M382,502.21c-18.32.09-36.64.22-55,.26q-34.74.06-69.49,0c-11.36,0-17.7-6.22-17.71-17.57q-.08-95.72,0-191.44c0-11.63,6.36-17.9,17.94-17.9q124.46,0,248.92-.05a20.1,20.1,0,0,1,12.6,3.85c5.07,3.74,5.6,9,5.6,14.59q0,77.22,0,154.45c0,12.16,0,24.33,0,36.49,0,11.29-6.4,17.58-17.74,17.58H387.66c-1.5,0-3-.13-4.49-.2l-.21-4.08c3.36-1,6.8-.23,10.2-.42a2.78,2.78,0,0,0,2.89,0l22.07-.27a1.21,1.21,0,0,0,1.93.11l22.11.16a2.69,2.69,0,0,0,2.9,0l21.53.13,3,0c6.16-.06,12.31-.21,18.47-.14,2.56,0,3.45-.84,3.44-3.46-.09-25.47,0-50.94-.14-76.41,0-7.23-4.82-11.48-12.18-11.67a35.33,35.33,0,0,1-4.49-.05c-4.7-.76-5.7,1.32-5.67,5.75.16,28.13,0,56.27,0,84.4l-1.87,0c0-.83-.11-1.66-.11-2.49,0-27.65-.08-55.3.06-82.94,0-3.61-.74-5-4.65-4.79-4.79.31-9.64-.09-14.47-.19a15,15,0,0,0-8.69-.12c-6.39.9-12.81.11-19.21.41a2.18,2.18,0,0,0-3-.2,131.3,131.3,0,0,1-18.07-.14,16.36,16.36,0,0,0-8.67-.1c-4.62.14-9.28.68-13.86.31s-5.43,1.33-5.4,5.57c.15,28.21,0,56.43,0,84.64l-1.85,0c0-2-.13-4-.13-6,0-26.22-.15-52.43.11-78.65.05-4.78-1.51-5.83-5.84-5.61s-9,.51-13.4-.33c-3.31-.67-6.6-.91-9.85.28-4.15.05-8.33.37-12.46.05s-5.6.86-5.57,5.41c.2,28.26.05,56.53,0,84.8h-1.86q0-45.09,0-90.19c-.71-.73-1.43-.4-2.14,0-5.72-.05-11.44.49-17.14-.35a15.82,15.82,0,0,0-8.63.1c-2.15.11-4.31.25-6.46.3-7.88.19-12.55,4.58-12.57,12.35-.09,25.12,0,50.23-.1,75.35,0,3.18,1.12,4,4,3.87,6-.18,12-.08,18-.09a2.6,2.6,0,0,0,2.91.08l22.05-.32a1.26,1.26,0,0,0,2,.06l22.08.24a4.34,4.34,0,0,0,4,.07l20.94-.34a1.17,1.17,0,0,0,1.95.08c3.67.65,7.46-.53,11.08.73Zm-113.95-4.42c.81.3,1.63,1,2.41-.05l-1.21-.35q-.06-38.22-.12-76.44c0-12.77,5.86-18.78,18.53-18.81q40.47-.11,80.95,0c4.48,0,9-.49,13.45.35l.36.66.65-.78c4-.09,8-.25,12-.26q41.22,0,82.43,0c10.94,0,17.82,6,17.87,15.84.12,26.14,0,52.29,0,78.43-.4.39-1.21.95-1.13,1.16.35.93,1.14.65,1.85.33,3.5,0,7-.09,10.49-.12,9.71-.09,13.57-3.93,13.57-13.69q0-94.91,0-189.82c0-10.09-3.78-13.86-13.84-13.86H259c-10.69,0-14.53,3.75-14.53,14.3q0,93.91,0,187.82c0,1.33,0,2.67.06,4,.53,7,4.61,11,11.54,11.23C260.05,497.85,264.05,497.77,268.05,497.79Z"/><path class="cls-3" d="M382.52.2q62,0,123.94,0c12.32,0,18.41,6.13,18.41,18.41q0,95,0,189.92c0,12.36-6.08,18.61-18.31,18.59-41.31-.07-82.62-.31-123.92-.31-41.14,0-82.29.23-123.43.31-13.71,0-19.42-5.79-19.42-19.46,0-61.8.27-123.61-.16-185.42C239.53,6.89,245.6-.24,262.08,0,302.22.61,342.37.2,382.52.2Zm-.21,222.18H505.7c10.69,0,14.37-3.66,14.37-14.4q0-94.18,0-188.36c0-11-3.69-14.76-14.6-14.76H258.69c-10.19,0-14.23,4-14.23,14.22q0,94.43,0,188.86c0,10.65,3.88,14.45,14.45,14.45Z"/><path class="cls-4" d="M663,1.35c30.32,0,60.65-.05,91,0,12.16,0,21,8.5,21,20.7q.19,91.73,0,183.44c0,11.79-8.89,20.35-20.8,20.4-29,.12-58,.06-87,0-1.73,0-4.44,1-4.47-2.31s2.77-2.26,4.44-2.27q42.24-.11,84.49-.05c12.72,0,18.51-5.86,18.51-18.69q0-89.22,0-178.44c0-12.21-5.86-18.13-18-18.14q-89,0-177.93,0C560.37,6,555,11.61,555,25.57q0,89,0,177.94c0,6.38,1.16,12.21,7.38,15.69,3.1,1.74,6.44,2.09,9.9,2.09h84c1.33,0,2.67,0,4,.05s2.17.55,2.22,2.07-.69,2.46-2.33,2.49c-1.16,0-2.33,0-3.49,0-28,0-56-.46-84,.21-12.08.29-22.76-11.57-22.69-22.47.42-60.15.19-120.3.21-180.45,0-13.35,8.49-21.85,21.85-21.87Q617.51,1.3,663,1.35Z"/><path class="cls-5" d="M113,1.35q45.23,0,90.46,0C216.26,1.4,225,9.79,225,22.59q.17,91.22,0,182.44c0,12.13-8.73,20.83-20.87,20.88-29,.13-58,.06-87,0-1.74,0-4.47.94-4.33-2.43s2.89-2.14,4.56-2.14c28.16-.08,56.32-.05,84.48-.06,12.4,0,18.28-5.91,18.28-18.43q0-89.46,0-178.94c0-11.82-6-17.89-17.77-17.89Q112.65,6,22.94,6C11,6,5,12,5,23.75q0,90-.05,179.94c0,6.12,1.33,11.71,6.53,15.16,3.6,2.39,8,4.26,12.52,3.2a35.37,35.37,0,0,1,8.35-.75q37,0,74,0c1.33,0,2.66,0,4,.06s2.17.58,2.2,2.1c0,1.7-.75,2.42-2.37,2.45-1,0-2,.06-3,.06-28.5,0-57-.35-85.48.18C10.61,226.34-.07,215,0,204.16.37,143.85.16,83.53.18,23.22.18,9.85,8.66,1.37,22.05,1.36Q67.52,1.3,113,1.35Z"/><path class="cls-6" d="M586.8,413.34c.06-15.48.34-31,.12-46.45-.35-24.64,9.13-44.13,29.15-58.67,6.32-4.58,13.48-6.72,20.62-9.16,1.26-.43,3.07.1,3.57-2,1-4.44,4.38-5.29,8.42-5.26q17.48.12,35,0c3.82,0,7.14.79,8.14,5,.51,2.1,2,1.9,3.34,2.27,31.61,9.15,49.92,33.43,50,66.39,0,15.65,0,31.31,0,47-2.47,2.59-4.3,2.43-5.33-1.23-.44-18.48,1-37-.7-55.43C736.9,332,718.71,311,695.71,304.8c-2.16-.58-4-1.11-5.7,1.24-1.35,1.89-3.77,1.87-6,1.87l-35.48,0c-2.7,0-5.45-.09-7.17-2.64-1.51-2.24-3.32-.88-4.9-.43-24.91,7-44,30.43-44,57.71.05,16.16-.07,32.31-.11,48.47C591.63,414.44,589.47,414.51,586.8,413.34Z"/><path class="cls-7" d="M747.1,413.34c15.42,5.74,24.75,16.72,26.88,33,2.06,15.67-3.84,28.47-16.56,37.83a37.52,37.52,0,0,1-24.84,7.4c-2.84-.15-4.83.12-6.19,3.33-1.68,3.95-5.34,5.79-9.73,5.81-6,0-12,.07-18,0-9-.07-13.05-4-13.1-13.22-.08-17.66,0-35.32,0-53,0-6.66-.09-13.33,0-20,.17-8.28,4.2-12.27,12.33-12.37q8.73-.11,17.46,0c6.89.06,9.68,2.08,12.32,8.71a6.83,6.83,0,0,0,.24,4.59c0,22.64.07,45.28-.1,67.92,0,3.91,1,5.38,5.06,5.09,16.88-1.22,32.57-10.27,37.2-31,3.86-.48,3-3.52,2.89-5.8s1.27-5.69-2.87-6.32c-3.55-14.78-12.1-24.91-27-29.13ZM689.74,451c0,12.64-.07,25.29,0,37.93,0,5.53,3.14,8.52,8.65,8.45,5.81-.08,11.62-.37,17.43-.62s8.06-2.64,8.07-8.5q.09-36.95,0-73.88c0-5.69-2.5-8.16-8.28-8.22s-11.56.24-17.34.31c-6.79.09-8.54,1.75-8.57,8.59C689.69,427,689.72,439,689.74,451Z"/><path class="cls-8" d="M604.44,410.83c3.26-9.82,9.89-9.23,20.23-8.39a22.86,22.86,0,0,0,7.24-.09c8.23-1.84,14.54,3.28,14.58,11.81q.16,37.39,0,74.79c0,7.55-4.51,11.76-11.86,11.76-6,0-11.95.06-17.92,0-6.86-.08-9.76-2.21-12.21-8.79a7.16,7.16,0,0,0-.41-4.52l.06-72A7.44,7.44,0,0,0,604.44,410.83Zm38.15,41c0-12.31.06-24.62,0-36.92,0-6.5-2.33-8.74-8.72-8.82-6-.08-11.93-.1-17.89,0-4.92.11-7.67,2.49-7.7,7.26q-.19,37.92,0,75.84c0,4.38,2.48,7.18,7.1,7.43,5.63.3,11.26.58,16.9.66,7.31.1,10.31-2.84,10.35-10.08C642.63,475.46,642.58,463.65,642.59,451.84Z"/><path class="cls-9" d="M590.3,491.1c-17.44-4.67-29-16-32-33.17a39.88,39.88,0,0,1,18.38-40.62,24.22,24.22,0,0,1,9.45-3.95c-.52,2.41,1.7,2.1,2.85,2.85-13,3.63-21.3,12-25.74,24.62-1.36,3.87-1,5.83,3.81,5.46,4.27-.32,8.59,0,12.9,0h1.26c3.89-.31,7.37.58,7.34,5.17s-3.69,5.2-7.47,5.15c-5.62-.08-11.24-.05-16.87-.06-7.09-1.15-2.59-7.06-4.58-10.39.46,3.83-3.46,8.43,2.36,11.26.45,1.59.94,3.17,1.36,4.76,3.13,11.77,17.44,25.53,30.7,25.28l-2.84,2.82Z"/><path class="cls-10" d="M629.89,91c.31-10.52-2.68-11.32,11.19-11.24,13.1.07,11.3-.28,11.39,11.54.08,10.44,0,10.45-10.34,11C627.05,103.18,630.27,102.78,629.89,91Z"/><path class="cls-11" d="M598.43,57.6c-13.16.52-11.34.85-11.37-11.35,0-11.49-1.56-11,10.92-10.94,13.27.08,12-1.38,12,12C610,58.36,611.08,58.17,598.43,57.6Z"/><path class="cls-12" d="M730.09,56.14c-1.79.81-3.72.52-5.68,1.28-6.35,2.44-9.23,0-9.26-6.78,0-3.65,0-7.29,0-10.94,0-2.73,1.08-4.25,4.07-4.46,5.83-.4,11.36,2.07,17.21,1.56,2-.17,1.62,1.75,1.64,3,.07,4.31.06,8.62,0,12.93,0,1.79.31,4-1.88,4.67a15.35,15.35,0,0,1-7.85,0,.61.61,0,0,1,0-1.12C728.84,56,729.43,55.5,730.09,56.14Z"/><path class="cls-13" d="M190.2,200c0-5.45,4.52-11,8.92-11.06,8.38-.08,13.6,4.18,13.59,11.07,0,5.08-5.09,11.32-9.05,11.1C194.58,210.6,190.16,207,190.2,200Z"/><path class="cls-14" d="M169.28,49.36C188.38,65.91,198,87,198.44,112.08c.43,27.64-10.3,50.44-31.68,68.12l-.84-1c1.56-1.5,3.13-3,4.67-4.49,19.33-19,28.12-42.05,25.76-69.14-1.92-22.12-11.85-40.28-27.92-55.3Z"/><path class="cls-15" d="M45.45,167.18C16.06,132.51,21.74,76.29,57.52,47.75l.85,1c-1.54,1.51-3.09,3-4.62,4.51-17.22,17.2-25.77,38-25.43,62.3.26,18.9,6.94,35.64,18.07,50.74Z"/><path class="cls-16" d="M166.76,180.2a82.29,82.29,0,0,1-55.17,19.28c-27.08-.45-49.06-11.37-66.14-32.3l.94-.89c1.25,1.32,2.49,2.65,3.73,4,18.39,19.52,40.93,28.77,67.75,27.41,18-.92,33.78-7.76,48-18.43Z"/><path class="cls-17" d="M700.24,91.36c0,3.65-.08,7.31,0,11,.1,3.48-1.26,5.32-4.92,5.3-7.64-.06-15.27,0-22.91,0-3.35,0-4.76-1.63-4.72-4.95.09-7.48.11-15,0-22.43-.06-3.52,1.31-5.36,4.9-5.35,7.62,0,15.25,0,22.88,0,3.23,0,4.87,1.6,4.78,5C700.17,83.71,700.25,87.53,700.24,91.36Zm-30.85.06c0,3.5.07,7,0,10.49-.08,2.7.93,4,3.77,3.94,7.14-.09,14.29-.12,21.43,0,3.09.05,4.11-1.32,4-4.23-.12-3.49,0-7,0-10.49,0-14.38,0-14.38-14.3-14.55C669.37,76.42,669.37,76.42,669.39,91.42Z"/><path class="cls-18" d="M57.52,47.75c31.21-27.38,83.42-26.62,111.76,1.61l-.85,1c-17.93-15.24-38.71-22.07-62.12-20.67-18,1.07-33.79,8.15-47.94,19.1Z"/><path class="cls-19" d="M657.49,136c0,3.82,0,7.65,0,11.47,0,3.28-1.47,5-4.78,5q-11.46,0-22.92,0c-3.21,0-4.89-1.49-4.86-4.88q.1-11.46,0-22.94c0-3.69,1.85-5,5.26-5,7.31,0,14.62,0,21.92,0,3.75,0,5.51,1.63,5.42,5.42s0,7.31,0,11ZM641.7,121.51c-3.66,0-7.33.15-11,0-3.14-.17-4.05,1.2-4,4.12.12,7,.13,14,0,21-.06,3.09,1.18,4.08,4.15,4q10.49-.19,21,0c3.07.06,4.18-1.19,4.06-4.16-.14-3.49,0-7,0-10.49C655.86,121.51,655.86,121.51,641.7,121.51Z"/><path class="cls-20" d="M598.62,164.39c3.65,0,7.31.05,11,0,3.48,0,5.29,1.5,5.28,5.06q0,11.24,0,22.45c0,3.46-1.57,5.25-5.13,5.23-7.47,0-14.94,0-22.41,0-3.78,0-5.35-1.88-5.3-5.6.09-7.31.05-14.63,0-21.94,0-3.49,1.55-5.26,5.12-5.21C591,164.43,594.8,164.39,598.62,164.39Zm-.25,31c3.48,0,7-.15,10.44.05s4.35-1.25,4.27-4.41c-.15-6.64-.2-13.29,0-19.93.13-3.64-1-5.09-4.8-4.93-6.91.3-13.84.39-20.76.31-3,0-3.65,1.26-3.61,3.9.11,7,.17,13.95,0,20.92-.09,3.41,1.42,4.31,4.5,4.15C591.73,195.23,595.06,195.37,598.37,195.35Z"/><path class="cls-21" d="M727,152.41c-3.81,0-7.63,0-11.45,0-3.49,0-5.21-1.62-5.19-5.17,0-7.65,0-15.3,0-23,0-3,1.57-4.66,4.6-4.68q11.7,0,23.41,0c3.35,0,4.69,1.9,4.67,5.12,0,7.48-.07,15,0,22.45,0,3.55-1.59,5.23-5.11,5.22S730.65,152.4,727,152.41Zm-14.83-16.47c0,3.48.14,7,0,10.45-.14,2.91.73,4.28,3.89,4.22,7.13-.15,14.26-.12,21.39,0,2.76,0,3.88-1,3.84-3.78-.1-7.14-.08-14.28,0-21.42,0-2.62-.74-4-3.68-3.92-7.29.14-14.59.12-21.89,0-2.54,0-3.63.88-3.54,3.48C712.26,128.63,712.16,132.28,712.16,135.94Z"/><path class="cls-22" d="M743.05,91c0,3.82-.06,7.64,0,11.46.06,3.24-1.3,5.07-4.66,5.08q-11.71,0-23.42,0c-3.08,0-4.57-1.61-4.58-4.64q0-11.73,0-23.44c0-3.11,1.71-4.62,4.65-4.63,7.79-.05,15.59,0,23.38.06,3.34,0,4.7,1.9,4.63,5.13C743,83.72,743.05,87.38,743.05,91Zm-30.89.26c0,3.65.09,7.3,0,11-.08,2.57,1.06,3.59,3.54,3.58,7.27,0,14.55-.08,21.83,0,2.8,0,3.79-1.16,3.75-3.89-.11-7.13-.1-14.27,0-21.41,0-2.73-1-3.9-3.78-3.85-7.12.1-14.25.13-21.38,0-3.13-.06-4.08,1.29-4,4.18C712.27,84.32,712.16,87.81,712.16,91.3Z"/><path class="cls-23" d="M614.85,136.35c0,3.49-.05,7,0,10.48.08,3.66-1.42,5.62-5.28,5.59-7.48-.06-15,0-22.42,0-3.51,0-5.15-1.73-5.13-5.25.05-7.49,0-15,0-22.47,0-3.54,1.8-5.13,5.27-5.12q11.2,0,22.42,0c3.58,0,5.12,1.84,5.11,5.27C614.83,128.69,614.84,132.52,614.85,136.35Zm-1.82,1c0-4.7-.07-8.53,0-12.34.07-2.58-1-3.52-3.58-3.49-7.29.09-14.59.1-21.89,0-2.93-.06-3.71,1.27-3.65,3.92.12,4.64,0,9.29,0,13.94,0,11,0,11,11.22,11.25a24.93,24.93,0,0,0,3.95.09c4.39-.64,10,1.91,12.91-1.22S612.6,140.85,613,137.32Z"/><path class="cls-24" d="M726.84,164.39c3.65,0,7.3.06,10.95,0,3.46-.07,5.29,1.37,5.27,5q-.06,11.46,0,22.92c0,3.33-1.68,4.81-4.92,4.86q-11.14.13-22.28.36c-3.74.07-5.49-1.82-5.49-5.47,0-7.47,0-14.94,0-22.41,0-3.82,1.83-5.38,5.55-5.26S723.19,164.39,726.84,164.39Zm14.38,16.38c0-3.33-.16-6.66,0-10s-1-4.81-4.54-4.67c-7.05.29-14.11.36-21.17.34-2.63,0-3.49,1-3.45,3.54.11,7.15.14,14.3,0,21.45-.07,3.18,1.39,4,4.23,4,7-.1,13.94-.12,20.91,0,3.09.06,4.13-1.26,4-4.18C741.12,187.76,741.23,184.26,741.22,180.77Z"/><path class="cls-25" d="M599,74.9h11c3.3,0,4.91,1.7,4.92,4.92q0,11.48,0,23c0,3.23-1.62,4.86-5,4.84q-11.46-.08-22.92,0c-3.34,0-4.88-1.67-4.88-4.91,0-7.65,0-15.3,0-23,0-3.33,1.76-4.85,5-4.88,4,0,8,0,11.94,0Zm-.13,1.68v.16c-3.65,0-7.29.1-10.94,0-2.66-.1-4,.72-3.94,3.63q.16,11,0,21.9c0,3.22,1.3,4.45,4.5,4.29,6.95-.34,13.91-.58,20.86-.68,2.8,0,3.83-1.19,3.75-3.91-.12-4.32,0-8.63,0-13,0-12,0-12-11.73-12.27C600.49,76.69,599.67,76.62,598.84,76.58Z"/><path class="cls-26" d="M640.49,107.56c3.62-2.35,7.31-1.65,10.92-1.67,3.09,0,4.56-.94,4.48-4.31-.18-7-.11-14,0-21,0-2.74-1-3.92-3.82-3.89-7.16.09-14.31.13-21.47,0-3.23-.07-3.91,1.46-3.87,4.29.11,8.31,0,16.63,0,25.17-2.24-.68-1.75-2.52-1.76-4-.05-7.33.08-14.66-.07-22-.08-3.6,1.45-5.28,5-5.29l22.45,0c3.41,0,5.25,1.5,5.21,5.14-.07,7.5,0,15,0,22.49,0,2.88-.95,5-4.17,5C649.07,107.62,644.78,107.56,640.49,107.56Z"/><path class="cls-27" d="M599.15,30.43c18.43-.6,15.51-1.39,15.71,14.38,0,4.17-.07,8.33,0,12.5s-1.77,5.76-5.78,5.56c-3.18-.15-6.36,0-9.54,0,0-.54,0-1.09,0-1.64,3,0,6.08-.1,9.11,0s4.5-1,4.41-4.34c-.18-7-.13-14,0-21,0-2.75-1-3.94-3.77-3.91q-11,.12-21.95,0c-2.64,0-3.43,1.18-3.4,3.66q.15,11,0,22c0,2.59,1.06,3.61,3.56,3.56a53.79,53.79,0,0,1,9.81.51c-4,1.64-8.22,1.28-12.32.84-2.39-.26-2.95-2.41-2.95-4.57,0-7.66,0-15.32,0-23,0-3.35,1.77-4.84,5-4.76l11,.29Z"/><path class="cls-28" d="M700,167.54q.13,12.47.27,24.92c0,3.13-1.63,4.61-4.6,4.63-7.81.06-15.62.08-23.42,0-3,0-4.53-1.63-4.51-4.72,0-7.82,0-15.64,0-23.46,0-2,.47-4.09,2.64-4.21,4.86-.27,9.83-1.37,14.58.77l0-.07c-3.87,1.34-7.88.7-11.83.72-2.77,0-3.86,1.11-3.83,3.86q.14,10.69,0,21.39c0,3,1.2,4.09,4.18,4,6.79-.15,13.59-.19,20.38,0,3.46.1,4.71-1.13,4.68-4.58-.08-7.79.13-15.58.22-23.36Z"/><path class="cls-29" d="M698,30.58c2,.89,2.28,2.63,2.28,4.54q0,11.4,0,22.81c0,2.34-.52,4.71-3.24,4.71-9.2,0-18.44,1-27.61-.55l1-1c8,0,16,0,23.93.12,2.9,0,4.28-.93,4.23-4-.11-7.15-.08-14.3,0-21.45,0-2.77-1.14-3.8-3.91-3.75-7,.12-14,.19-20.93,0-3.69-.12-4.48,1.52-4.41,4.78.17,7.81.08,15.63.1,23.45l-1,1c-1.5-9.19-.4-18.44-.6-27.66a3.11,3.11,0,0,1,2.21-3l1.18-.2,11.68,0,1.12.18c4.26-.68,8.55-.29,12.83-.22Z"/><path class="cls-30" d="M640,164.5l12.48-.29c3.5-.08,5.3,1.66,5.31,5.13q0,11.49,0,23c0,3.52-2.11,5.1-5.46,5.06-4.16,0-8.32-.23-12.47-.36,0-.5.11-1,.16-1.5,3.8-.11,7.61-.35,11.41-.3,2.91,0,4.26-1,4.23-4.05q-.13-10.42,0-20.85c.05-3.11-1.48-4-4.3-3.92-4.13.08-8.27-.07-12.4-.13Z"/><path class="cls-31" d="M655.77,62.13c-9,1.48-18.16.42-27.23.56-2.36,0-3.55-1.62-3.55-4,0-8.13,0-16.26,0-24.39,0-2.34,1-4,3.45-4,9.08.1,18.19-.89,27.25.54l-1,1.07c-8,0-16,.11-24,0-3,0-4.13,1.08-4.06,4.11.15,6.66.22,13.33,0,20-.14,3.87,1.1,5.35,5.1,5.21,7.65-.26,15.31-.09,23-.1Z"/><path class="cls-32" d="M713,62.57c-2.32-.85-2.62-2.78-2.62-4.86,0-7.47.08-14.94,0-22.41,0-3.62,1.66-5.15,5.15-5.1s6.86,0,10.28,0l.09,1.82c-3.23,0-6.47.08-9.7,0-2.93-.09-4.15,1-4.09,4.11.16,7,.17,14,0,20.92-.08,3.4,1.47,4.3,4.53,4.21s6.29.15,9.43.25l0,1.06-10.75.2Z"/><path class="cls-33" d="M727.06,61.54c3.32-.11,6.63-.34,10-.29,2.83,0,4.32-.76,4.26-4-.15-7.15-.12-14.31,0-21.47,0-2.76-1-3.95-3.81-3.85-3.42.12-6.84,0-10.25,0,0-.54,0-1.07,0-1.6,4.31,0,8.64-.23,12.92.09,2.35.18,3,2.32,3,4.52q0,11.49,0,23c0,2.18-.55,3.95-2.89,4.64l-1.37.15h-9l-2.74-.26C727.06,62.18,727.06,61.86,727.06,61.54Z"/><path class="cls-34" d="M640,164.5,639,166.27a75.71,75.71,0,0,1-8,.17c-3.25-.25-4.47.91-4.31,4.2.21,4.48,0,9,0,13.46,0,11.08,0,11.08,11.31,11.28.66,0,1.32.09,2,.14,0,.5-.11,1-.16,1.5-18.08.47-14.6.8-14.91-14.14-.09-4.48.06-9,0-13.44-.07-3.62,1.66-5.16,5.15-5.07C633.4,164.45,636.72,164.46,640,164.5Z"/><path class="cls-35" d="M213,176.12c-.09,4.43-3.6,7.6-8.23,7.42a7.52,7.52,0,1,1,8.23-7.42Zm-1.83.59c.06-4.21-2.16-6.53-5.58-6.71s-6,1.82-6.34,5.58c-.33,3.38,2.58,6.79,5.87,6.61C208.65,182,210.83,180,211.15,176.71Z"/><path class="cls-36" d="M695,152.36c-7.31,0-14.61,0-21.92,0-3.07,0-5.38-1-5.3-4.45.2-8.79-.5-17.6.4-26.38l1.25,1.2c0,.49-.07,1-.1,1.47s0,1,0,1.5v22.47l.39,1.37c1.5,1.45,3.4.93,5.15.95,6.71.07,13.42.05,20.13.07C695,151.19,695,151.77,695,152.36Z"/><path class="cls-37" d="M669.4,122.78l-1.25-1.2c1.14-2.09,3.12-2.2,5.15-2.2h21.34c2.38,0,4.74.11,5.45,3.09l-1.81.06c-7-1.85-14.13-.58-21.19-.8C674.52,121.66,671.75,120.91,669.4,122.78Z"/><path class="cls-38" d="M655.67,30.89c.51.62,1.45,1.22,1.47,1.86.31,9.51,1.29,19-.49,28.51l-.95-1.06c0-7.05.16-14.1.11-21.15,0-2.39.74-5-1.1-7.09Z"/><path class="cls-39" d="M594.08,411.44a32.52,32.52,0,0,1,9-.11l-.12,3.6-8.85.31Z"/><path class="cls-40" d="M729,411.34h8.08a5.74,5.74,0,0,1,.9,3.93l-8.87-.39Z"/><path class="cls-41" d="M698.28,122.54l1.81-.06q0,13.52,0,27l-1.81-.05A244,244,0,0,0,698.28,122.54Z"/><path class="cls-42" d="M738,415.28a5.74,5.74,0,0,0-.9-3.93l2.71-.24c1,3.66,2.86,3.82,5.33,1.23l2,1-4,2.88Z"/><path class="cls-43" d="M700,167.54l-1.17,0c-1.72-1.36-3.76-.9-5.7-1.1-2.7-.28-5.59.93-8.09-1l0,.07c3.59-.45,7.24.41,10.82-.87C698.1,163.81,699.59,165.12,700,167.54Z"/><path class="cls-44" d="M594.08,411.44l.06,3.8-5.17,1c-1.15-.75-3.37-.44-2.85-2.85a.62.62,0,0,1,.68,0c2.67,1.17,4.83,1.1,5.63-2.3Z"/><path class="cls-45" d="M603.06,491.42l-5-.05c0-1.25,0-2.5.07-3.75l4.78.11Z"/><path class="cls-46" d="M598.16,487.62c0,1.25,0,2.5-.07,3.75a1.36,1.36,0,0,1-.8.26c-1.76-1.65-4-1.15-6.09-1.36l2.84-2.82Z"/><path class="cls-47" d="M698.26,149.45l1.81.05c-.69,2.75-2.6,3.32-5.1,2.86,0-.59,0-1.17,0-1.75C696.09,150.27,697.38,150.45,698.26,149.45Z"/><path class="cls-48" d="M603,414.93l.12-3.6,1.33-.5a7.44,7.44,0,0,1-.28,4.59Z"/><path class="cls-49" d="M729,411.34c0,1.18.07,2.37.11,3.55l-1.13.53a6.83,6.83,0,0,1-.24-4.59Z"/><path class="cls-50" d="M603.06,491.42l-.12-3.69,1.16-.33a7.16,7.16,0,0,1,.41,4.52Z"/><path class="cls-51" d="M383,498.19l.21,4.08-1.17-.06.15-3.92.4-.13Z"/><path class="cls-52" d="M729.79,62.76h3.5A5.32,5.32,0,0,1,729.79,62.76Z"/><path class="cls-53" d="M727.06,61.54c0,.32,0,.64,0,1l-1,0c0-.35,0-.71,0-1.06Z"/><path class="cls-54" d="M713,62.57l2.29.18A2.14,2.14,0,0,1,713,62.57Z"/><path class="cls-55" d="M698,30.58l-1.1-.26Z"/><path class="cls-56" d="M684,30.54l-1.12-.18Z"/><path class="cls-57" d="M671.24,30.33l-1.18.2Z"/><path class="cls-58" d="M599.15,30.43l-1.1.09Z"/><path class="cls-59" d="M669.39,62.09l-.94-.9,1-1,1,.91Z"/><path class="cls-60" d="M656.65,61.26l-.88.87-1-1,1-1Z"/><path class="cls-61" d="M738.8,62.78l1.37-.15Z"/><path class="cls-62" d="M344.88,441.45c-2.88-.62-3.87-2.33-3.8-5.32.18-8.29.09-16.58,0-24.88,0-1.75.52-3.69-1.06-5.16,3.25-1.19,6.54-.95,9.85-.28.06,10.36,0,20.72.27,31.08.09,3.19-1.71,3.87-4,4.53Z"/><path class="cls-63" d="M442.84,441.46c-2.79-.7-3.85-2.35-3.79-5.35.22-10.09.16-20.18.21-30.27A15,15,0,0,1,448,406c0,9.11-.12,18.22.09,27.32.08,3.75-.24,7.06-3.54,9.39Z"/><path class="cls-64" d="M295.91,441.45c-2.92-.57-3.87-2.3-3.81-5.27.19-10.09.14-20.18.18-30.27a15.82,15.82,0,0,1,8.63-.1c.06,10.28,0,20.57.25,30.84.08,3-1.4,4.12-3.83,4.81Z"/><path class="cls-65" d="M393.75,441.63c-2.67-.89-3.75-2.58-3.69-5.53.22-10.1.16-20.19.21-30.29a16.36,16.36,0,0,1,8.67.1c0,9.95-.09,19.9.13,29.84.07,3.16-.79,5.05-3.95,5.66Z"/><path class="cls-66" d="M344.17,497.75l.39-1.53,1.87.12,1.75,1.48A4.34,4.34,0,0,1,344.17,497.75Z"/><path class="cls-67" d="M295.16,497.69l.48-1.49h2c.15.52.29,1.05.43,1.57A2.6,2.6,0,0,1,295.16,497.69Z"/><path class="cls-68" d="M393.16,497.77c.14-.52.28-1,.43-1.57l1.82.14c.22.48.43,1,.64,1.43A2.78,2.78,0,0,1,393.16,497.77Z"/><path class="cls-69" d="M442.16,497.77l.45-1.58,1.76.16.69,1.4A2.69,2.69,0,0,1,442.16,497.77Z"/><path class="cls-70" d="M495.3,496.37l.72,1.49c-.71.32-1.5.6-1.85-.33C494.09,497.32,494.9,496.76,495.3,496.37Z"/><path class="cls-71" d="M320.12,497.45l.05-1.09H322l.06,1.16A1.26,1.26,0,0,1,320.12,497.45Z"/><path class="cls-72" d="M371,496.33l.07,1.23a1.17,1.17,0,0,1-1.95-.08l0-1.11Z"/><path class="cls-73" d="M420,496.34c0,.42,0,.84.07,1.27a1.21,1.21,0,0,1-1.93-.11c0-.38,0-.76,0-1.14Z"/><path class="cls-74" d="M466.59,497.88c.18-.5.35-1,.53-1.51l1.87,0c.2.53.39,1.05.58,1.58Z"/><path class="cls-75" d="M268.05,497.79l1.2-.4,1.21.35C269.68,498.75,268.86,498.09,268.05,497.79Z"/><path class="cls-76" d="M418.15,406.42l-1.14-.37a2.18,2.18,0,0,1,3,.2l-.06.17Z"/><path class="cls-77" d="M382.06,402.48l1-.12-.65.78Z"/><path class="cls-78" d="M320.19,406.17h-2.14C318.76,405.77,319.48,405.44,320.19,406.17Z"/><path class="cls-79" d="M770.13,457.47a2.12,2.12,0,0,1-.31-.87c3.23-3.46,3.25-6.92,0-10.38a2,2,0,0,1,.33-.87c4.14.63,2.81,3.93,2.87,6.32S774,457,770.13,457.47Z"/><path class="cls-80" d="M564.2,456.54l-2.22.87c-5.82-2.83-1.9-7.43-2.36-11.26C561.61,449.48,557.11,455.39,564.2,456.54Z"/><path class="cls-81" d="M579.94,446.29h0Z"/><path class="cls-82" d="M669.38,91.42c0-15,0-15,14.88-14.84,14.29.17,14.3.17,14.3,14.55,0,3.5-.12,7,0,10.49.11,2.91-.91,4.28-4,4.23-7.14-.12-14.29-.09-21.43,0-2.84,0-3.85-1.24-3.77-3.94C669.46,98.42,669.39,94.92,669.38,91.42Zm25.81.17c-.21-11.73,2.3-12.11-11.66-11.73-10.88.29-11-.07-10.89,10.58.08,13.19-1.9,11.79,12,11.81C695.19,102.26,695.19,102.18,695.19,91.59Z"/><path class="cls-83" d="M641.7,121.51c14.16,0,14.16,0,14.16,14.44,0,3.5-.12,7,0,10.49.12,3-1,4.22-4.06,4.16q-10.49-.21-21,0c-3,.06-4.21-.93-4.15-4,.15-7,.14-14,0-21-.05-2.92.86-4.29,4-4.12C634.37,121.66,638,121.51,641.7,121.51Zm-11.42,5.13v18.68a2.27,2.27,0,0,0,2,1.91c5.79.09,11.59.17,17.37,0,2.31-.07,2.76-2.06,2.76-4,0-4.81,0-9.61,0-14.42,0-2.51-1-4.2-3.74-4.21-5.13,0-10.26,0-15.4,0A2.84,2.84,0,0,0,630.28,126.64Z"/><path class="cls-84" d="M598.38,195.36c-3.32,0-6.65-.13-10,0-3.08.16-4.59-.74-4.5-4.15.18-7,.12-13.95,0-20.92,0-2.64.62-3.93,3.61-3.9,6.92.08,13.85,0,20.76-.31,3.76-.16,4.93,1.29,4.8,4.93-.23,6.64-.18,13.29,0,19.93.08,3.16-1,4.59-4.27,4.41S601.85,195.35,598.38,195.36Zm0-25.84c-12.58-.39-11.43-1.11-11.36,10.91.08,11.64-2.2,11.77,11.69,11.8,13.23,0,11.15-.78,11.2-11.4C610,168.29,610.94,169.13,598.42,169.52Z"/><path class="cls-85" d="M712.16,135.94c0-3.66.1-7.31,0-11-.09-2.6,1-3.51,3.54-3.48,7.3.09,14.6.11,21.89,0,2.94,0,3.71,1.3,3.68,3.92-.08,7.14-.1,14.28,0,21.42,0,2.79-1.08,3.82-3.84,3.78-7.13-.1-14.26-.13-21.39,0-3.16.06-4-1.31-3.89-4.22C712.3,142.92,712.16,139.42,712.16,135.94Zm26,.25c-.17-11.64,2-12.11-11.38-11.5l-.5,0c-12.33-.57-11.12-.15-11.1,10.88,0,12.1-1.51,11.9,11.72,11.9S738,147.41,738.14,136.19Z"/><path class="cls-86" d="M712.16,91.3c0-3.49.11-7,0-10.46-.12-2.89.83-4.24,4-4.18,7.13.16,14.26.13,21.38,0,2.82,0,3.82,1.12,3.78,3.85-.09,7.14-.1,14.28,0,21.41,0,2.73-1,3.92-3.75,3.89-7.28-.09-14.56,0-21.83,0-2.48,0-3.62-1-3.54-3.58C712.25,98.6,712.16,95,712.16,91.3Zm26-.09c-.3-10.23,2.6-11.54-11.61-11.45-13.2.09-11.33.82-11.36,11.24,0,12.33-1.31,11.89,11.92,11.45C738.14,102.08,738.15,102.1,738.14,91.21Z"/><path class="cls-87" d="M613,137.32c-.43,3.53,1.88,9.06-1,12.12s-8.52.58-12.91,1.22a24.93,24.93,0,0,1-3.95-.09C584,150.35,584,150.36,584,139.32c0-4.65.07-9.3,0-13.94-.06-2.65.72-4,3.65-3.92,7.3.13,14.6.12,21.89,0,2.54,0,3.65.91,3.58,3.49C613,128.79,613,132.62,613,137.32Zm-14.35-12.64c-13.34-.58-11.64-.34-11.62,11.24s-1.88,11.51,11.46,11.53,11.37-.3,11.43-11.62S611.35,124.14,598.68,124.68Z"/><path class="cls-88" d="M741.22,180.77c0,3.49-.1,7,0,10.47.11,2.92-.93,4.24-4,4.18-7-.14-13.94-.12-20.91,0-2.84,0-4.3-.77-4.23-4,.15-7.15.12-14.3,0-21.45,0-2.54.82-3.55,3.45-3.54,7.06,0,14.12-.05,21.17-.34,3.55-.14,4.76,1.25,4.54,4.67S741.22,177.44,741.22,180.77Zm-3.08-.06c-.16-12.07,1.52-11.54-11.09-11.2-.33,0-.66,0-1,0-11.89-.39-11-.61-10.89,11,.06,10.6-2.12,11.76,11.44,11.72C740.77,192.2,737.81,191.31,738.14,180.71Z"/><path class="cls-89" d="M598.84,76.58c.83,0,1.65.11,2.48.13C613,77,613,77,613.05,89c0,4.32-.1,8.63,0,13,.08,2.72-1,3.87-3.75,3.91-7,.1-13.91.34-20.86.68-3.2.16-4.54-1.07-4.5-4.29q.15-11,0-21.9c-.05-2.91,1.28-3.73,3.94-3.63,3.65.14,7.29,0,10.94,0Zm-.35,25.86c12.74.58,11.49.68,11.46-10.86s1.86-11.77-11.74-11.79-11.08.88-11.14,11.35C587,103.71,585.79,102.89,598.49,102.44Z"/><path class="cls-90" d="M685,165.42c2.5,1.91,5.39.7,8.09,1,1.94.2,4-.26,5.7,1.1-.09,7.78-.3,15.57-.22,23.36,0,3.45-1.22,4.68-4.68,4.58-6.79-.21-13.59-.17-20.38,0-3,.06-4.22-1-4.18-4q.15-10.69,0-21.39c0-2.75,1.06-3.85,3.83-3.86C677.13,166.12,681.14,166.76,685,165.42ZM683.73,192c13.07.69,11.45.12,11.45-9.81,0-14.38-.07-14.44-14.28-11.65-2.63.52-6.33-1.47-7.69,1.42-1.17,2.48-.59,5.85-.57,8.82C672.73,192.42,671,192.64,683.73,192Z"/><path class="cls-91" d="M670.42,61.09l-1-.91c0-7.82.07-15.64-.1-23.45-.07-3.26.72-4.9,4.41-4.78,7,.23,14,.16,20.93,0,2.77,0,3.94,1,3.91,3.75-.07,7.15-.1,14.3,0,21.45,0,3.09-1.33,4.07-4.23,4C686.38,61.09,678.4,61.12,670.42,61.09Zm23.63-4.79a45,45,0,0,0,.11-19.56c-5.7.72-11.13-1.55-16.79-1.54-3.42,0-4.83,1.43-4.75,4.79.11,4.5,0,9,.06,13.5,0,2.13.39,4.24,3.11,4.19C681.9,57.58,688.08,58.26,694.05,56.3Z"/><path class="cls-92" d="M640,195.52c-.66-.05-1.32-.13-2-.14-11.3-.2-11.3-.2-11.31-11.28,0-4.49.16-9,0-13.46-.16-3.29,1.06-4.45,4.31-4.2a75.71,75.71,0,0,0,8-.17c4.13.06,8.27.21,12.4.13,2.82-.05,4.35.81,4.3,3.92q-.13,10.43,0,20.85c0,3-1.32,4.09-4.23,4.05C647.64,195.17,643.83,195.41,640,195.52Zm-10.14-14.79h0c0,1.66,0,3.32,0,5,0,6.09.44,6.49,6.48,6.51,3.31,0,6.64-.17,9.94,0,4.41.29,6.51-1.34,6.19-6a63.84,63.84,0,0,1,0-10.44c.42-4.27-1.3-5.67-5.35-5.17-2.14.26-4.22-.39-6.34-.91-8.9-2.2-11-.53-11,8.47Z"/><path class="cls-93" d="M655.7,60.2l-1,1c-7.65,0-15.31-.16-23,.1-4,.14-5.24-1.34-5.1-5.21.24-6.66.17-13.33,0-20-.07-3,1-4.15,4.06-4.11,8,.11,16,0,24,0,1.84,2.13,1.08,4.7,1.1,7.09C655.86,46.1,655.75,53.15,655.7,60.2Zm-24.64-3.88c6.14,1.8,12.44,1.41,18.71,1.26,2.51-.06,2.63-2.19,2.66-4,.06-4.32-.09-8.66.08-13,.14-3.78-1.28-5.66-5.23-5.28-5.44.52-10.89,1-16.34,1.47A44.46,44.46,0,0,0,631.06,56.32Z"/><path class="cls-94" d="M698.26,149.45c-.88,1-2.17.82-3.28,1.16-6.71,0-13.42,0-20.13-.07-1.75,0-3.65.5-5.15-.95l-.39-1.37q0-11.24,0-22.47c0-.5,0-1,0-1.5l.1-1.47c2.35-1.87,5.12-1.12,7.69-1,7.06.22,14.19-1,21.19.8A244,244,0,0,1,698.26,149.45Zm-3.41-4.08V126.65a2.18,2.18,0,0,0-2-1.89c-5.8-.1-11.6-.16-17.39,0-2,0-2.71,1.73-2.73,3.54-.05,5.15-.07,10.29,0,15.44,0,2.36,1.26,3.68,3.73,3.68,5.13,0,10.27,0,15.41,0C693.24,147.38,694.47,147,694.85,145.37Z"/><path class="cls-95" d="M669.3,124.25c0,.5,0,1,0,1.5C669.31,125.25,669.31,124.75,669.3,124.25Z"/><path class="cls-96" d="M669.31,148.22l.39,1.37Z"/><path class="cls-97" d="M108.3,287.27q29.74,0,59.48,0c9.36,0,13.85,4.49,13.85,13.71q0,35.73,0,71.47c0,10.1-4.17,14.4-14.16,14.41-19.49,0-39-.09-58.47-.09-20.11,0-40.22.1-60.32.08-9.92,0-14.26-4.41-14.28-14.41q-.06-35.49,0-71c0-9.81,4.48-14.19,14.47-14.2Q78.57,287.25,108.3,287.27Zm-1.16,95.79v-.13c20.31,0,40.63.06,60.94,0,7,0,9.53-2.71,9.55-9.86q.09-35.7,0-71.42c0-8-2.42-10.35-10.52-10.35q-59.19,0-118.36,0c-8,0-10.27,2.41-10.28,10.55q0,29.71,0,59.44c0,4.16-.06,8.32,0,12.48.11,6.52,3.3,9.38,9.76,9.36C67.89,383,87.51,383.06,107.14,383.06Z"/><path class="cls-98" d="M108,393.47a48.72,48.72,0,0,1,49.2,49c0,26.09-21.85,48.77-47,48.89-29,.14-51.28-21.27-51.15-49.19A48.66,48.66,0,0,1,108,393.47Zm-.18,3.61A45.25,45.25,0,1,0,153.15,442,45.24,45.24,0,0,0,107.77,397.08Z"/><path class="cls-99" d="M383,384.2q-48.45,0-96.91,0c-11.83,0-15.82-4-15.84-16q0-25.22,0-50.45c0-10,4.4-14.36,14.29-14.37q97.67,0,195.32,0c10.19,0,14.33,4.13,14.36,14.18q0,26.22,0,52.45c0,9.83-4.47,14.15-14.32,14.15H383Zm-1-2.55q49.46,0,98.93,0c7.57,0,11-3.4,11-11q.11-26.73,0-53.47c0-7.93-3.41-11.39-11.24-11.39q-98.17,0-196.35,0c-8.34,0-11.38,3.24-11.39,11.61q-.06,25.72,0,51.46c0,10.11,2.63,12.81,12.64,12.81Z"/><path class="cls-100" d="M444.37,496.35l-1.76-.16c-.06-18.24-.53-36.49.23-54.73l1.66,1.21Z"/><path class="cls-101" d="M346.43,496.34l-1.87-.12c.08-18.26-.55-36.52.32-54.77l1.28,0c1,11.63.22,23.29.39,34.93C346.65,483,346.48,489.67,346.43,496.34Z"/><path class="cls-102" d="M418.15,406.42H420q0,45,0,89.92l-1.84,0Q418.16,451.39,418.15,406.42Z"/><path class="cls-103" d="M395.41,496.34l-1.82-.14q.07-27.29.16-54.57l1.37-.22c.13.55.25,1.1.38,1.65,0,.55,0,1.1-.06,1.66Z"/><path class="cls-104" d="M395.44,444.72c0-.56,0-1.11.06-1.66Z"/><path class="cls-105" d="M297.64,496.2h-2c-.08-18.25-.62-36.5.27-54.75h1.42c1,11.26.25,22.55.42,33.82C297.86,482.25,297.69,489.23,297.64,496.2Z"/><path class="cls-106" d="M298,22.53c2.65-3.8,6.7-3.15,10.46-3.16q71.94,0,143.89,0c2.5,0,5-.08,7.5.06,5.95.34,9.4,3.55,9.44,9.43q.18,35,0,70c0,6.63-3.79,9.68-11.23,9.69q-41.71.06-83.43,0-33.73,0-67.46,0c-8.95,0-12-3.09-12.05-12q0-32.72,0-65.45c0-3.19,0-6.38,3-8.55-1.63,6.68-1.17,13.48-1.18,20.25q0,25.73,0,51.46c0,11.18,1.34,12.55,12.72,12.55q73.68,0,147.36,0c8.81,0,10.74-2,10.74-11q0-31.72,0-63.44c0-9.24-1.86-11.08-11.14-11.08q-70.92,0-141.85,0C309.13,21.17,303.49,20.88,298,22.53Z"/><path class="cls-107" d="M449.15,206.36H447c.09-11.68.21-23.36.24-35,0-1.28.41-3.29-2.14-2.88-1.49-5.13-2.52-10.25.7-15.17,1.87-.44,1.46-2,1.46-3.24,0-9.78,0-19.57,0-29.35,0-1.49,0-3-1.22-4.17.84-1.43,2-.51,3.06-.43,0,11.13-.09,22.26-.1,33.39,0,1.95-.33,4.11,2.17,5l-.06-.1c.55,6-1.39,11.74-1.83,17.54C448.45,183.34,449.12,194.87,449.15,206.36Z"/><path class="cls-108" d="M370.18,206.35l-2.13,0c.07-2.49.08-5,.22-7.49.82-14.9-.83-29.69-2.21-44.49l-.06.1c2.22-.78,2.24-2.67,2.23-4.52q-.08-17-.18-33.93c1.06,0,2.23-.89,3.12.41a8.08,8.08,0,0,0-1.07,2.67C370,129.74,370,140.36,370,151a3.35,3.35,0,0,0,2.2,3.52l-.06-.09c.95,6-1.57,11.72-1.94,17.51C369.48,183.35,370.11,194.87,370.18,206.35Z"/><path class="cls-109" d="M396,116.34c2.32-.52,1.86,1.26,1.88,2.42.06,3.82-.14,7.66.06,11.47.45,8.7-1,17.43,1.21,26.15,1.49,6-1.09,12-1.2,18.08-.17,9.3,0,18.61-.12,27.92,0,1.38,1.11,3.55-1.63,3.91.85-14-1.74-28,1.85-42,1.92-7.47-2.8-15-2.1-23C396.67,133.05,396,124.67,396,116.34Z"/><path class="cls-110" d="M395,206.24c-3,0-1.81-2.28-1.83-3.61-.13-6,.13-11.95-.1-17.91-.22-6.18.55-12.32-1.26-18.57-1.6-5.5.93-11.33,1.19-17,.44-9.6.06-19.23.19-28.85,0-1.41-1.34-4,2-3.89-1.25,14.28,1.58,28.73-2.21,43-1.63,6.14,2.61,12,2.17,18.47C394.48,187.26,395,196.77,395,206.24Z"/><path class="cls-111" d="M343,116.36c3-.31,2,2,2,3.39.12,5.47-.13,11,.1,16.42.28,6.7-.64,13.36,1.26,20.11,1.55,5.49-.85,11.32-1.16,17-.53,9.77-.11,19.58-.21,29.37,0,1.32,1.18,3.63-1.82,3.61q0-16.44,0-32.87c0-1.82-.27-3.72.71-5.36a13,13,0,0,0,.87-11.1c-1.93-5.24-1.47-10.42-1.58-15.66C343.11,133,343.1,124.66,343,116.36Z"/><path class="cls-112" d="M342,206.3c-2.44-.21-1.62-2.15-1.66-3.44-.12-4,0-8-.05-12-.07-9.4-1.29-18.9-.95-28.14.55-15.06.69-30.12,1-45.18l.75-1.55,1.14.29c-.05,7,.06,14-.21,21-.26,6.71,1,13.44-1.79,20.11-2.13,5.11,1.71,10.25,1.77,15.47C342.17,184,342,195.15,342,206.3Z"/><path class="cls-113" d="M419.57,152.41c0-10.9-.09-21.81-.07-32.71,0-1.33-.64-3.14,1.6-3.54,0,8.3.14,16.6,0,24.9-.11,5.37.68,10.71-1.8,16.05s1.82,10.48,1.82,15.87c0,11.12,0,22.25-.06,33.37-2.58-.55-1.48-2.64-1.51-4-.12-6.95-.47-13.92.05-20.83.6-8-2.29-15.6-1.52-23.5.15-1.53-.81-3.35,1-4.54C419.63,153.32,419.81,153,419.57,152.41Z"/><path class="cls-114" d="M317,116.31c2.6.4,1.71,2.51,1.74,3.94.1,6.3,0,12.61,0,18.92s1.37,12.62,1.06,18.6c-.79,15.5-1,31-1.08,46.49,0,1-.21,2-1.56,2.08.84-14.08-1.87-28.24,1.86-42.32,1.86-7-2.76-13.94-2.13-21.37C317.67,133.93,317,125.1,317,116.31Z"/><path class="cls-115" d="M421,206.35c0-11.12.06-22.25.06-33.37,0-5.39-4.27-10.59-1.82-15.87s1.69-10.68,1.8-16.05c.17-8.3,0-16.6,0-24.9h1.24c0,10.88-.09,21.76.07,32.63,0,1.5-1.53,4.2,1.85,4.53,2.42,1.25,1.85,3.33,1.49,5.35-1.08,5.41-3.49,10.52-3.46,16.2.06,10.44,0,20.89-.07,31.33Z"/><path class="cls-116" d="M317,116.31c0,8.79.69,17.62-.06,26.34-.63,7.43,4,14.37,2.13,21.37-3.73,14.08-1,28.24-1.86,42.32l-1.19-.13c0-11.13-.16-22.26-.06-33.39,0-3.12-.81-5.5-3.46-7.17,0-.78,0-1.56,0-2.34,1.6-1.88,1.43-3.77,0-5.66-.49-1.78-.54-3.4,1.47-4.33,3.12-.16,1.83-2.62,1.86-4,.22-11,.27-21.92.38-32.88A1,1,0,0,1,317,116.31Z"/><path class="cls-117" d="M395,206.24c0-9.47-.5-19,.14-28.41.44-6.45-3.8-12.33-2.17-18.47,3.79-14.24,1-28.69,2.21-43a1.39,1.39,0,0,1,.83,0c0,8.33.68,16.71-.05,25-.7,7.95,4,15.49,2.1,23-3.59,14-1,28.05-1.85,42Z"/><path class="cls-118" d="M342,206.3c0-11.15.16-22.31,0-33.46-.06-5.22-3.9-10.36-1.77-15.47,2.79-6.67,1.53-13.4,1.79-20.11.27-7,.16-14,.21-21a.92.92,0,0,1,.76.07c.08,8.3.09,16.6.26,24.89.11,5.24-.35,10.42,1.58,15.66A13,13,0,0,1,344,168c-1,1.64-.7,3.54-.71,5.36q0,16.42,0,32.87Zm-.88-45.5c.53,1.53-1,4.09,1.55,4.48,1.69.26,1.47-1.89,1.4-3.07-.1-1.67.91-4.26-1.25-4.72S341.59,159.54,341.13,160.8Z"/><path class="cls-119" d="M422.22,206.19c0-10.44.13-20.89.07-31.33,0-5.68,2.38-10.79,3.46-16.2-2.14,15-1.45,30-1.57,45.05C424.17,205,424.4,206.58,422.22,206.19Z"/><path class="cls-120" d="M312.48,165.65c2.65,1.67,3.49,4,3.46,7.17-.1,11.13,0,22.26.06,33.39-3.25,0-1.91-2.55-1.92-4-.12-9.57,0-19.14-.08-28.71,0-1.73.66-3.65-.84-5.18l-.66-1Z"/><path class="cls-121" d="M424.26,153.31c-3.38-.33-1.83-3-1.85-4.53-.16-10.87-.08-21.75-.07-32.63,3.06.33,1.77,2.72,1.79,4.21C424.26,131.34,424.24,142.33,424.26,153.31Z"/><path class="cls-122" d="M316.18,116.4c-.11,11-.16,21.92-.38,32.88,0,1.42,1.26,3.88-1.86,4,0-11.12,0-22.24.15-33.36C314.11,118.66,312.58,115.84,316.18,116.4Z"/><path class="cls-123" d="M449.15,206.36c0-11.49-.7-23,.17-34.44.44-5.8,2.38-11.55,1.83-17.54,2,3.71,1.59,8,.73,11.48-2.47,10-.67,20-1.29,29.91-.17,2.63,0,5.29-.07,7.93C450.5,204.76,450.92,206.16,449.15,206.36Z"/><path class="cls-124" d="M370.18,206.35c-.07-11.48-.7-23,0-34.44.37-5.79,2.89-11.47,1.94-17.51,1.95,3.74,1.64,8.08.66,11.54-2.5,8.87-.78,17.74-1.34,26.57-.22,3.47,0,7-.07,10.46C371.36,204.17,372,205.73,370.18,206.35Z"/><path class="cls-125" d="M366.06,154.39c1.38,14.8,3,29.59,2.21,44.49-.14,2.5-.15,5-.22,7.49-2.22-1.15-1.19-3.24-1.21-4.87-.13-7.48-.49-15,.08-22.44.53-6.86-2.71-13.24-1.76-20C365.38,157.47,364.45,155.68,366.06,154.39Z"/><path class="cls-126" d="M451.21,154.48c-2.5-.91-2.17-3.07-2.17-5,0-11.13.07-22.26.1-33.39,2.07.93,1.37,2.83,1.38,4.34,0,9.91,0,19.82,0,29.74,0,.47,0,.94,0,1.42Z"/><path class="cls-127" d="M445.13,168.43c2.55-.41,2.14,1.6,2.14,2.88,0,11.68-.15,23.36-.24,35-2-1.06-1.07-2.94-1.09-4.42-.1-9.58,0-19.17-.08-28.75C445.85,171.59,446.38,169.86,445.13,168.43Z"/><path class="cls-128" d="M372.2,154.49A3.35,3.35,0,0,1,370,151c0-10.61,0-21.23.1-31.85a8.08,8.08,0,0,1,1.07-2.67q.12,16.11.25,32.23C371.44,150.65,371.19,152.66,372.2,154.49Z"/><path class="cls-129" d="M368.05,116q.09,17,.18,33.93c0,1.85,0,3.74-2.23,4.52,1.62-4.66.62-9.48.75-14.22.18-6.59,0-13.19.08-19.79C366.85,119,366.13,117.1,368.05,116Z"/><path class="cls-130" d="M446.08,116.5c1.2,1.16,1.21,2.68,1.22,4.17,0,9.78,0,19.57,0,29.35,0,1.22.41,2.8-1.46,3.24Q446,134.89,446.08,116.5Z"/><path class="cls-131" d="M312.47,157.65c1.43,1.89,1.6,3.78,0,5.66Z"/><path class="cls-132" d="M341.12,116l-.75,1.55C340.08,116.78,340.12,116.15,341.12,116Z"/><path class="cls-133" d="M312.5,167.38l.66,1A.72.72,0,0,1,312.5,167.38Z"/><path class="cls-134" d="M450.52,151.57c0-.48,0-.95,0-1.42C450.49,150.62,450.5,151.09,450.52,151.57Z"/><path class="cls-135" d="M419.57,152.41c.24.56.06.91-.54,1Z"/><path class="cls-136" d="M769.82,446.22c3.25,3.46,3.23,6.92,0,10.38l-20,0c-3.67,0-6.4-1.48-6.26-5.43.13-3.66,2.82-4.94,6.26-4.93C756.51,446.25,763.17,446.22,769.82,446.22Z"/><path class="cls-137" d="M164.37,173.72c-24,23.06-65.49,26-95,6.76a79.54,79.54,0,0,1,42-146.36c21.5-.3,40.48,6.74,55.94,22.18l-.8,1c-18-16.3-39-23.66-63.3-20.95-34.81,3.89-63.17,31.73-67.86,66.67-4.75,35.37,15,69.91,47.88,82.65,29.05,11.26,55.84,6.35,80.16-12.89C163.73,173.12,164.05,173.42,164.37,173.72Z"/><path class="cls-138" d="M170.36,59.3c28.07,26.8,29,78.79,2,106.41l-1-.87c5.68-7,10.68-14.45,13.7-23,10.68-30.26,5.2-57.47-15.71-81.68Z"/><path class="cls-139" d="M172.38,165.71a31,31,0,0,1-8,8c-.32-.3-.64-.6-1-.91l8-8Z"/><path class="cls-140" d="M169.35,58.29l1,1-1,.87-.93-.94Z"/><path class="cls-141" d="M167.34,56.3l1,1-.9.9-.92-.87Z"/><path class="cls-142" d="M168.36,57.3l1,1-.87.94-1-1Z"/><path class="cls-143" d="M695.19,91.59c0,10.59,0,10.67-10.51,10.66-13.94,0-12,1.38-12-11.81-.07-10.65,0-10.29,10.89-10.58C697.49,79.48,695,79.86,695.19,91.59Z"/><path class="cls-144" d="M630.28,126.64a2.84,2.84,0,0,1,3-2c5.14,0,10.27,0,15.4,0,2.77,0,3.74,1.7,3.74,4.21,0,4.81,0,9.61,0,14.42,0,2-.45,3.95-2.76,4-5.78.17-11.58.09-17.37,0a2.27,2.27,0,0,1-2-1.91A87.05,87.05,0,0,0,630.28,126.64Z"/><path class="cls-145" d="M630.28,126.64a87.05,87.05,0,0,1,0,18.68Z"/><path class="cls-146" d="M598.42,169.52c12.52-.39,11.6-1.23,11.53,11.31-.05,10.62,2,11.42-11.2,11.4-13.89,0-11.61-.16-11.69-11.8C587,168.41,585.84,169.13,598.42,169.52Z"/><path class="cls-147" d="M738.14,136.19c-.14,11.22,1.82,11.25-11.26,11.26s-11.69.2-11.72-11.9c0-11-1.23-11.45,11.1-10.88l.5,0C740.09,124.08,738,124.55,738.14,136.19Z"/><path class="cls-148" d="M738.14,91.21c0,10.89,0,10.87-11,11.24-13.23.44-12,.88-11.92-11.45,0-10.42-1.84-11.15,11.36-11.24C740.74,79.67,737.84,81,738.14,91.21Z"/><path class="cls-149" d="M598.68,124.68c12.67-.54,11.33-.28,11.27,11.15s2,11.63-11.43,11.62-11.45.05-11.46-11.53S585.34,124.1,598.68,124.68Z"/><path class="cls-150" d="M738.14,180.71c-.33,10.6,2.63,11.49-11.53,11.54-13.56,0-11.38-1.12-11.44-11.72-.07-11.64-1-11.42,10.89-11,.33,0,.66,0,1,0C739.66,169.17,738,168.64,738.14,180.71Z"/><path class="cls-151" d="M598.49,102.44c-12.7.45-11.5,1.27-11.42-11.3.06-10.47-2.43-11.37,11.14-11.35S609.91,80,610,91.58,611.23,103,598.49,102.44Z"/><path class="cls-152" d="M683.73,192c-12.73.6-11,.38-11.09-11.22,0-3-.6-6.34.57-8.82,1.36-2.89,5.06-.9,7.69-1.42,14.21-2.79,14.28-2.73,14.28,11.65C695.18,192.16,696.8,192.73,683.73,192Z"/><path class="cls-153" d="M694.05,56.3c-6,2-12.15,1.28-18.26,1.38-2.72,0-3.1-2.06-3.11-4.19,0-4.5.05-9-.06-13.5-.08-3.36,1.33-4.78,4.75-4.79,5.66,0,11.09,2.26,16.79,1.54A130.32,130.32,0,0,1,694.05,56.3Z"/><path class="cls-154" d="M694.05,56.3a130.32,130.32,0,0,0,.11-19.56A45,45,0,0,1,694.05,56.3Z"/><path class="cls-155" d="M629.89,180.73v-2.49c0-9,2.07-10.67,11-8.47,2.12.52,4.2,1.17,6.34.91,4-.5,5.77.9,5.35,5.17a63.84,63.84,0,0,0,0,10.44c.32,4.63-1.78,6.26-6.19,6-3.3-.22-6.63,0-9.94,0-6,0-6.44-.42-6.48-6.51,0-1.65,0-3.31,0-5Z"/><path class="cls-156" d="M630.94,36.74c5.45-.48,10.9-1,16.34-1.47,4-.38,5.37,1.5,5.23,5.28-.17,4.32,0,8.66-.08,13,0,1.86-.15,4-2.66,4-6.27.15-12.57.54-18.71-1.26A129.27,129.27,0,0,1,630.94,36.74Z"/><path class="cls-157" d="M630.94,36.74a129.27,129.27,0,0,0,.12,19.58A44.46,44.46,0,0,1,630.94,36.74Z"/><path class="cls-158" d="M694.85,145.37c-.38,1.59-1.61,2-3,2-5.14,0-10.28,0-15.41,0-2.47,0-3.71-1.32-3.73-3.68-.06-5.15,0-10.29,0-15.44,0-1.81.71-3.5,2.73-3.54,5.79-.14,11.59-.08,17.39,0a2.18,2.18,0,0,1,2,1.89A83.11,83.11,0,0,0,694.85,145.37Z"/><path class="cls-159" d="M694.85,145.37a83.11,83.11,0,0,1,0-18.72Z"/><path class="cls-160" d="M298,22.53c5.47-1.65,11.11-1.36,16.72-1.36q70.92,0,141.85,0c9.28,0,11.13,1.84,11.14,11.08q0,31.71,0,63.44c0,9-1.93,11-10.74,11q-73.68,0-147.36,0c-11.38,0-12.72-1.37-12.72-12.55q0-25.73,0-51.46c0-6.77-.45-13.57,1.18-20.25Zm84.33,2q-37.49,0-75,0c-6,0-7,1-7,7q-.06,32.24,0,64.48c0,6.35,1.06,7.41,7.19,7.41q74.73,0,149.46,0c6.28,0,7.27-1,7.28-7.3q0-31.74,0-63.48c0-7.44-.63-8.08-7.93-8.08Q419.34,24.5,382.35,24.52Z"/><path class="cls-161" d="M341.13,160.8c.46-1.26-.47-3.78,1.7-3.31s1.15,3,1.25,4.72c.07,1.18.29,3.33-1.4,3.07C340.12,164.89,341.66,162.33,341.13,160.8Z"/><path class="cls-162" d="M107.94,378.75c-17.15,0-34.3,0-51.44,0-9.16,0-13.1-4-13.12-13.07q0-28.73,0-57.45c0-8.72,4.13-12.92,12.83-12.93q51.71-.07,103.4,0c9,0,13.13,4.14,13.16,13.16q.1,28.72,0,57.45c0,8.78-4.15,12.82-12.9,12.84C142.57,378.78,125.25,378.75,107.94,378.75Zm-.22-2.4q26,0,51.94,0c7.62,0,10.55-2.94,10.57-10.58q.06-28.72,0-57.45c0-7.61-3-10.54-10.65-10.55q-51.69,0-103.37,0c-7.32,0-10.24,3-10.26,10.37q-.06,28.72,0,57.45c0,8,2.78,10.77,10.83,10.78Q82.25,376.39,107.72,376.35Z"/><path class="cls-163" d="M108,472.15a29.69,29.69,0,0,1-29.86-30.24c.13-16.08,13.4-29.42,29.18-29.35,17.45.08,30.74,13,30.7,29.92A29.93,29.93,0,0,1,108,472.15Zm-25.86-30c0,14.42,11.6,26.32,25.8,26.38,13.88.06,25.92-11.81,26.08-25.7.16-14.57-11.78-26.68-26.15-26.54A26.07,26.07,0,0,0,82.16,442.11Z"/><path class="cls-164" d="M382.65,379.06q-48,0-95.93,0c-9.74,0-11.23-1.53-11.24-11.38q0-24.74,0-49.47c0-7.74,2.06-9.71,9.82-9.71q96.2,0,192.38,0c10.07,0,11.46,1.45,11.45,11.58,0,16.49,0,33,0,49.47,0,7.41-2.06,9.49-9.55,9.5Q431.12,379.11,382.65,379.06Zm-.52-2.52q48.45,0,96.91,0c6.82,0,7.74-.94,7.75-7.86q0-25,0-49.95c0-6.82-1-7.83-7.81-7.83q-96.92,0-193.83,0c-6.2,0-7.09,1-7.1,7.4q0,24.72,0,49.45c0,8.43.33,8.8,8.69,8.8Q334.41,376.57,382.13,376.54Z"/><path class="cls-165" d="M382.35,24.52q37,0,74,0c7.3,0,7.92.64,7.93,8.08q0,31.74,0,63.48c0,6.28-1,7.29-7.28,7.3q-74.73,0-149.46,0c-6.13,0-7.18-1.06-7.19-7.41q-.07-32.23,0-64.48c0-6,1-7,7-7Q344.87,24.5,382.35,24.52Zm.14,1.8c-24.81,0-49.63.08-74.44-.08-4.54,0-6.06,1.41-6,6q.3,31.47,0,63c0,4.54,1.07,6.51,6.11,6.49,49.3-.16,98.6-.09,147.9-.11,6.27,0,6.57-.27,6.58-6.44q0-30.74,0-61.46c0-7.29-.11-7.35-7.69-7.35Q418.72,26.31,382.49,26.32Z"/><path class="cls-166" d="M171.36,109.43c-.22,36.44-26.66,63.22-57.68,63-34-.27-60-26-59.87-59.14.1-31.38,24.59-53.92,48.2-57.42,20.41-3,38.35,2,52.89,17.06C165.92,84.33,171.31,98.14,171.36,109.43Zm-58.72,61.51a57.57,57.57,0,0,0,57-57.55c0-25.44-18.65-58.58-61.47-56.75C80,57.85,55.49,80.81,55.54,114.54,55.58,145.41,82,171.24,112.64,170.94Z"/><path class="cls-167" d="M382.49,26.32q36.22,0,72.44,0c7.58,0,7.67.06,7.69,7.35q0,30.74,0,61.46c0,6.17-.31,6.44-6.58,6.44-49.3,0-98.6,0-147.9.11-5,0-6.15-2-6.11-6.49q.25-31.47,0-62.95c0-4.61,1.48-6,6-6C332.86,26.4,357.68,26.32,382.49,26.32Zm-.3,3.29c-23.49,0-47,.16-70.47-.12-5.21-.06-6.46,1.67-6.4,6.57q.38,28.23,0,56.47c-.05,4.34,1.22,5.75,5.64,5.74q71.46-.19,142.92,0c4.22,0,5.38-1.47,5.34-5.51-.17-19-.26-38,.05-57,.08-5.29-1.86-6.31-6.65-6.27C429.17,29.73,405.68,29.61,382.19,29.61Z"/><path class="cls-168" d="M108.14,372.46l-.44.1-.45,0c-1.56-1.34-3.46-1-5.26-1q-24.46,0-48.95,0l.1.09a2.56,2.56,0,0,0-2.1-1.18l.06.07A2.34,2.34,0,0,0,50,368.43l.07.11q0-31.6,0-63.2l-.06.09c.36-.39.71-.79,1.06-1.18l-.14.11a3.94,3.94,0,0,0,2.2-2.08l-.08.07q24.67,0,49.35.07c1.63,0,3.36.28,4.75-1l1.1.12c1.64,1.08,3.51.86,5.31.86q24.84,0,49.69-.05l-.1-.06,1.18,1.06-.09-.11a16.22,16.22,0,0,1,1.25,5.77q-.12,30.29-.18,60.56l0-.08-1.14,1.13.19-.09a21.8,21.8,0,0,1-7.82,1q-21.09,0-42.17,0C112.29,371.54,110.09,371.17,108.14,372.46Z"/><path class="cls-169" d="M165.31,369.59q.08-30.29.18-60.56a16.22,16.22,0,0,0-1.25-5.77c2.79.64,2.79,2.95,2.8,5q.08,28.56,0,57.12C167,367,167.44,368.85,165.31,369.59Z"/><path class="cls-170" d="M50.07,305.34q0,31.61,0,63.2c-1.53-1.09-1-2.72-1-4.13q-.06-27.46,0-54.92C49.09,308.07,48.6,306.45,50.07,305.34Z"/><path class="cls-171" d="M108.14,372.46c2-1.29,4.15-.92,6.27-.92q21.09,0,42.17,0a21.8,21.8,0,0,0,7.82-1c.32,1.74-1.17,1.59-2.1,2l-1.47.24C143.26,372.77,125.7,373.43,108.14,372.46Z"/><path class="cls-172" d="M163.25,302.37q-24.85,0-49.69.05c-1.8,0-3.67.22-5.31-.86q26.19-.13,52.37-.27A2.76,2.76,0,0,1,163.25,302.37Z"/><path class="cls-173" d="M53,371.57q24.48,0,48.95,0c1.8,0,3.7-.35,5.26,1-17.23.83-34.48.26-51.72.28C54.58,372.81,53.51,372.71,53,371.57Z"/><path class="cls-174" d="M107.15,301.44c-1.39,1.26-3.12,1-4.75,1q-24.68,0-49.35-.07c.73-1.21,2-1.08,3.09-1.08Q81.64,301.33,107.15,301.44Z"/><path class="cls-175" d="M53.13,302.28a3.94,3.94,0,0,1-2.2,2.08C50.7,302.65,51.75,302.29,53.13,302.28Z"/><path class="cls-176" d="M51,370.48a2.56,2.56,0,0,1,2.1,1.18C51.91,372.21,51.44,371.42,51,370.48Z"/><path class="cls-177" d="M50,368.43a2.34,2.34,0,0,1,1.11,2.12A1.57,1.57,0,0,1,50,368.43Z"/><path class="cls-178" d="M160.83,372.8l1.47-.24Z"/><path class="cls-179" d="M164.21,370.64l1.14-1.13C165.55,370.48,165.22,370.91,164.21,370.64Z"/><path class="cls-180" d="M51.07,304.25c-.35.39-.7.79-1.06,1.18C50,304.69,50.08,304.07,51.07,304.25Z"/><path class="cls-181" d="M164.33,303.37l-1.18-1.06C163.91,302.25,164.45,302.45,164.33,303.37Z"/><path class="cls-182" d="M108.05,451.56a9.3,9.3,0,0,1-9.56-9.37,9.57,9.57,0,0,1,9.78-9.27,9.26,9.26,0,0,1,9.18,9.26A9,9,0,0,1,108.05,451.56Z"/><path class="cls-183" d="M382.09,373.7c-31.64,0-63.28-.1-94.92.1-5,0-6.68-1.37-6.58-6.48.28-15.64.07-31.3.11-46.95,0-6.75.08-6.8,6.57-6.8q95.42,0,190.83-.1c4.56,0,6.11,1.37,6,6q-.33,24.23,0,48.46c.07,4.78-1.77,5.87-6.15,5.85C446,373.64,414.06,373.7,382.09,373.7Zm-.11-3.36c30.66,0,61.32-.07,92,.08,4.7,0,6.52-1.43,6.44-6.27-.23-13.66-.17-27.33,0-41,.05-4.25-1.45-5.91-5.8-5.9q-92.49.12-185,0c-4.08,0-5.59,1.42-5.54,5.54.17,13.49,0,27,.06,40.49,0,7,0,7,6.85,7Z"/><path class="cls-184" d="M382.19,29.61c23.49,0,47,.12,70.46-.09,4.79,0,6.73,1,6.65,6.27-.31,19-.22,38-.05,57,0,4-1.12,5.52-5.34,5.51q-71.46-.18-142.92,0c-4.42,0-5.69-1.4-5.64-5.74q.3-28.23,0-56.47c-.06-4.9,1.19-6.63,6.4-6.57C335.21,29.77,358.7,29.61,382.19,29.61ZM382,95.38c22.81,0,45.62-.08,68.43.07,4.29,0,5.91-1.28,5.86-5.7Q456,64,456.3,38.31c.06-4.73-1.88-5.91-6.24-5.9q-67.93.17-135.87,0c-4.55,0-6.09,1.42-6,6,.21,16.65.08,33.3.08,50,0,7,0,7,6.84,7Q348.54,95.4,382,95.38Z"/><path class="cls-185" d="M112.36,87.94c15.11.14,26.49,11.28,26.39,25.83-.08,12.94-11.79,25.7-23.23,25.65-22.13-.1-29-13.81-29-26.22C86.53,97,101.26,86.58,112.36,87.94Z"/><path class="cls-186" d="M382,370.34H291c-6.82,0-6.84,0-6.85-7,0-13.5.11-27-.06-40.49-.05-4.12,1.46-5.55,5.54-5.54q92.47.11,185,0c4.35,0,5.85,1.65,5.8,5.9-.16,13.66-.22,27.33,0,41,.08,4.84-1.74,6.29-6.44,6.27C443.3,370.27,412.64,370.34,382,370.34Z"/></g></g></svg>