<svg xmlns="http://www.w3.org/2000/svg" xmlns:xlink="http://www.w3.org/1999/xlink" viewBox="0 0 609.89 346.03"><defs><style>.cls-1{fill:url(#linear-gradient);}.cls-2{fill:#121413;}.cls-3{fill:url(#linear-gradient-2);}.cls-4{fill:url(#linear-gradient-3);}.cls-5{fill:url(#linear-gradient-4);}.cls-6{fill:url(#linear-gradient-5);}.cls-7{fill:url(#linear-gradient-6);}.cls-8{fill:url(#linear-gradient-7);}.cls-9{fill:url(#linear-gradient-8);}.cls-10{fill:url(#linear-gradient-9);}.cls-11{fill:url(#linear-gradient-10);}.cls-12{fill:url(#linear-gradient-11);}.cls-13{fill:url(#linear-gradient-12);}.cls-14{fill:url(#linear-gradient-13);}.cls-15{fill:url(#linear-gradient-14);}.cls-16{fill:url(#linear-gradient-15);}.cls-17{fill:url(#linear-gradient-16);}.cls-18{fill:url(#linear-gradient-17);}.cls-19{fill:url(#linear-gradient-18);}.cls-20{fill:url(#linear-gradient-19);}.cls-21{fill:#fefefe;}</style><linearGradient id="linear-gradient" x1="386.68" y1="173.02" x2="609.89" y2="173.02" gradientUnits="userSpaceOnUse"><stop offset="0.01" stop-color="aqua"/><stop offset="1" stop-color="lime"/></linearGradient><linearGradient id="linear-gradient-2" x1="220.59" y1="261.49" x2="331.97" y2="261.49" xlink:href="#linear-gradient"/><linearGradient id="linear-gradient-3" x1="411.58" y1="277.55" x2="508.94" y2="277.55" xlink:href="#linear-gradient"/><linearGradient id="linear-gradient-4" x1="64.54" y1="278.04" x2="154.03" y2="278.04" xlink:href="#linear-gradient"/><linearGradient id="linear-gradient-5" x1="0" y1="296.92" x2="83.05" y2="296.92" xlink:href="#linear-gradient"/><linearGradient id="linear-gradient-6" x1="333.91" y1="298.01" x2="405.95" y2="298.01" xlink:href="#linear-gradient"/><linearGradient id="linear-gradient-7" x1="149.79" y1="310.43" x2="221.01" y2="310.43" xlink:href="#linear-gradient"/><linearGradient id="linear-gradient-8" x1="375.03" y1="125.78" x2="426.73" y2="125.78" xlink:href="#linear-gradient"/><linearGradient id="linear-gradient-9" x1="353.12" y1="142.4" x2="403.91" y2="142.4" xlink:href="#linear-gradient"/><linearGradient id="linear-gradient-10" x1="324" y1="95.73" x2="367.33" y2="95.73" xlink:href="#linear-gradient"/><linearGradient id="linear-gradient-11" x1="51.49" y1="262.08" x2="80.24" y2="262.08" xlink:href="#linear-gradient"/><linearGradient id="linear-gradient-12" x1="214.68" y1="237.19" x2="238.27" y2="237.19" xlink:href="#linear-gradient"/><linearGradient id="linear-gradient-13" x1="405.77" y1="250.76" x2="427.42" y2="250.76" xlink:href="#linear-gradient"/><linearGradient id="linear-gradient-14" x1="203.95" y1="245.78" x2="227.33" y2="245.78" xlink:href="#linear-gradient"/><linearGradient id="linear-gradient-15" x1="396.67" y1="258.41" x2="418.17" y2="258.41" xlink:href="#linear-gradient"/><linearGradient id="linear-gradient-16" x1="189.78" y1="222.26" x2="211.48" y2="222.26" xlink:href="#linear-gradient"/><linearGradient id="linear-gradient-17" x1="383.89" y1="237.57" x2="402.51" y2="237.57" xlink:href="#linear-gradient"/><linearGradient id="linear-gradient-18" x1="39.98" y1="247.65" x2="56.12" y2="247.65" xlink:href="#linear-gradient"/><linearGradient id="linear-gradient-19" x1="326.12" y1="276.05" x2="337.99" y2="276.05" xlink:href="#linear-gradient"/></defs><g id="Layer_2" data-name="Layer 2"><g id="Layer_1-2" data-name="Layer 1"><path class="cls-1" d="M517.92,346c-6.85-14-13.64-28-20.56-41.93-6.7-13.53-13.54-27-20.3-40.49-5.43-10.83-10.91-21.65-16.22-32.54a7.33,7.33,0,0,0-5.06-4.14c-14.08-4.27-26.25-12-38.54-21.58,6.16-1.61,11.53-2.87,16.8-4.43,2.56-.76,3.79,1.24,5.11,2.3a92.19,92.19,0,0,0,19.47,12.25c2.08.95,4.21,2,7.51,1.12C458.2,213.2,452,208.41,446,203.25c-.75-.65-1.79-1.14-2.24-2-3.88-7.09-9.59-6.07-15.92-4.11a213.9,213.9,0,0,1-30.33,7.17c-.74.12-1.62,1.15-2.21.37-2.69-3.55-6.92-5.63-7.65-11.09-1.22-9.29,6.63-10.9,11.48-14.85,1.9-1.55,4.64-2.7,6.34-4.47,6.41-6.65,14.78-9.34,23-12.33,2.34-.85,4.68-1.94,7.11-2.24,9.11-1.14,13.62-6.8,16.13-15,.87-2.87,1.61-5.38-.52-8.57-2.32,4.34-4.5,8.48-6.73,12.6-1.28,2.37-10.84,6.85-13.28,6.36-1.15-.23-1.55-1.2-2.2-1.9-5.66-6.1-11.25-12.26-17-18.3a5.65,5.65,0,0,1-1.57-6.19c2.41-8.71,4.82-17.29,12.57-23,2-1.46,1.76-2.8.66-5C416.8,86.84,410,72.94,406,57.93c-2-7.36-6.78-13.15-10.92-19.34-6.53-9.78-10.37-20.27-7.27-32.38,1.1-4.31,4.83-4.91,7.76-6.06,2.25-.88,3.2,2.37,4.17,4.11C412.13,26.57,424.21,49.08,438,70.6c7,10.88,13.7,21.92,20.91,32.64,4,6,4,13.6,11.23,18.72,5.69,4,7.7,13.09,11.76,19.64a10.43,10.43,0,0,1,.76,10.77c-2.9,6.3-1.33,11.71,3.2,16.67a11.07,11.07,0,0,0,5.42,3.05A20.07,20.07,0,0,1,506,191c.24,5,5.76,10.79,10.65,10.95,1.68.06,2.32,1,3.07,2.06q34.1,50.93,68.2,101.86c7.22,10.79,14.13,21.8,22,32.14,0,8,0,8-8,8Z"/><path class="cls-2" d="M410,346c-16.28-20.73-25.93-45.15-38-68.25-1.3-2.49-2.91-4.88-3.82-7.51-2.28-6.6-5.9-11.56-13.28-12.83-3.48-.6-4.27-3.82-5.84-6.28-.83-1.3-1.72-4.06-3.19-2.93-5.8,4.44-7.82-1.74-11.86-3.1.61-.64.75-.9.95-1,7.65-3.15,14.7-3.33,20.84,3.46a13.82,13.82,0,0,0,6.86,3.8c1.15.8,2.33,1.44,3.76.57-.52-1.36-2.13-.51-2.76-1.5-5-4-10.82-7.13-14.64-12.52-1-1.43-1.93-.55-3-.27-7.51,1.95-15.19,3.38-22.48,5.94-5.61,2-8-1.61-9.85-4.93s-.95-6.85,2.75-9.79c10.47-8.3,21.57-15,34.79-17.95,5-1.11,8.52-10.09,6.31-14.71a8.61,8.61,0,0,0-2.89,4.87c-1.12,4.67-4.42,6.47-8.63,7.64a3.59,3.59,0,0,1-4.29-1.26c-3.76-4.22-7.62-8.35-11.53-12.44-1.14-1.2-1.72-2.4-1.21-4,1.71-5.47,2.43-11.42,7.65-15.12,2.65-1.88,2.27-3.67.73-6.48-5.47-10-8.94-20.92-12.43-31.77a17.69,17.69,0,0,0-3.82-6.77c-6.53-7.17-9.78-15.34-8.35-25.39.54-3.85,3.4-3.73,5.35-4.86,2.43-1.41,2.72,1.74,3.44,3,8.48,14.59,16,29.76,25.31,43.86.77,1.17.79,2.49,1.18,3.74,1.91,6.19,3.72,11.86,10.46,15.6,4.28,2.38,6.7,8.46,9.45,13.19,5.81,10,11.5,20.09,16.84,30.36,4.37,8.41,9.58,16.26,14.68,24.19a5.9,5.9,0,0,0-.57.55c-4.54-1.54-6.51-5.92-9.7-8.94-1.57-1.48-3.09-3-5.07-1.65a4.67,4.67,0,0,0-2,5.69c1.22,3,2,6.18,5,8.29,4.56,3.18,6.07,8.82,9.47,13,.86,1.05-.8,4.24-1.46,6.4-1.54,5.07-.23,8.38,4.42,10.91,1.89,1,3.7,2.22,5.66,3.08,3.19,1.4,4.68,3.07,4.18,7.13-.73,6,3.74,9.3,9.57,7.57a4.58,4.58,0,0,1,4.9,1,44.73,44.73,0,0,0,14.51,8.41,5.37,5.37,0,0,1,3.45,2.65q11,22.9,22.08,45.82c.2.4,0,1,0,1.48Z"/><path class="cls-2" d="M609.89,311.05c-2.73.85-2.23-1.87-2.73-2.87Q584.9,263.4,563,218.45a8.55,8.55,0,0,0-5.48-4.88,79.62,79.62,0,0,1-26.18-15.07l11.56-3.29c1.92-.55,3.11.66,4.39,1.76a77,77,0,0,0,15.91,10.16c.93-1,.67-1.64.11-2-6.11-3.71-11.92-7.77-16.53-13.35-1.19-1.44-2.73-.55-4.11-.19-7.66,2-15.44,3.65-22.94,6.13-5.45,1.8-7.81-2.3-9.35-5.16a7.56,7.56,0,0,1,2.18-9.71c10.81-8.71,22.33-15.76,36.06-18.92,5.48-1.27,9.36-10.48,6.84-15.32-1.18,2.26-2.66,4.35-3.39,6.67-1.54,4.87-6,5.17-9.68,6.69-1.32.54-2.13-.56-2.92-1.42-4-4.27-7.85-8.61-11.9-12.8-1.58-1.63-1.82-3.08-1.21-5.32,1.65-6.06,3.1-12.08,8.71-16,1.2-.83,2-1.72.84-3.59-6.61-10.6-9.88-22.6-13.93-34.26a21.17,21.17,0,0,0-4-7.11c-6.56-7.7-10.61-16.22-8.24-26.91.73-3.3,3.18-3.47,5.06-4.4,2.34-1.15,2.92,1.53,3.69,3a718,718,0,0,0,42,70.12c11.54,16.92,19.77,35.62,30.33,53,6.25,10.32,12.71,20.51,19.08,30.76Z"/><path class="cls-2" d="M193.24,274.82c-3.37-2.9-6.91-5.64-10-8.78-1.34-1.35-2.3-.78-3.49-.48-5.59,1.38-11.29,2.46-16.73,4.32-3.63,1.24-5.22-.94-6.33-3.08-1.22-2.35-2-5.33,1-7.51,7.57-5.63,15-11.35,24.59-13.39,5.5-1.16,7.66-5,7.63-11.63-2.18,1.18-2.37,3.5-3.41,5.15-2.92,4.61-7.27,5.26-10.77,1.38l-3-3.33c-5.94-6.6-6.09-11.26-.09-17.63,2.26-2.39,2.75-4.08.92-7.16-2.33-3.93-3.81-8.39-5.42-12.71-2.46-6.57-4.33-13.22-9-18.94a16.46,16.46,0,0,1-3.28-15.89c.7-2.17,2.24-2.77,3.85-3.22s2,1.31,2.6,2.4c7.9,14.32,15.9,28.59,24.91,42.25.64,1,1.46,1.78,1.06,3.12-1.7,5.8,1.08,9.85,5.12,13.58,4.42,4.08,7.37,9.35,10.65,14.3,1.7,2.58-.61,5.07-1.27,7.48-1.75,6.39-.67,9.75,5,13,2,1.15,4,2.33,6.08,3.29,3.56,1.65,5.61,3.48,4.95,8.23-.85,6.17,3.69,9.64,9.89,8.54,2-.35,3,.49,4,2.05q14.61,22.14,29.38,44.19c3.66,5.47,7.44,10.86,11.12,16.32,1.09,1.61,2.49,3.17,1.94,5.39H225c-8.09-16.45-16.3-32.84-24.23-49.37-4-8.33-7.87-16.25-18.16-18.73-4-1-7.54-3.89-10.53-7.12,5.7-3.29,10.72-3.18,15.37,1.76,1.3,1.37,3.41,2,5.15,2.94.62.43,1.62,1,1.95.37C195.11,274.76,193.78,275.1,193.24,274.82Z"/><path class="cls-3" d="M285,346c.7-3.7-2.63-5.52-4-8.25-7.56-15.49-15.39-30.83-23-46.3-1.24-2.53-2.66-4.18-5.52-5.09-6.05-1.91-11.41-5.21-16.82-9.8,3.69-1,6.49-3.11,10-1.78,3,1.1,3.78,5.51,8.22,5.17-2.1-3.67-6-5-8.17-8-.94-1.28-2.18-.05-3.17.17-4.52,1-9,2.13-13.48,3.47-3.7,1.12-6.28-.37-7.75-3.4-1.39-2.87-.07-5.06,2.57-7.1,6.75-5.23,13.76-9.67,22.22-11.7,4.66-1.12,6.5-4.6,6.19-10.37-2.72,2.79-2.86,7.54-7.53,8.21-1.77.25-3,.58-4.31-1.07-1.53-2-3.38-3.67-5-5.53-4.18-4.7-3.79-10.22,1-14.32,2.09-1.79,2.68-3.52,1.55-6.46-2.62-6.78-7.21-12.75-8.22-20.21-.4-3-2.25-5.36-4.2-7.72-3.82-4.61-6.33-9.78-4.29-16.06a3.92,3.92,0,0,1,2.94-2.89c1.79-.38,2.68.69,3.44,2.15,7.9,15.36,17.32,29.83,26.36,44.51,1.46,2.36,3.36,4.44,4.8,6.8,2.06,3.36,4.72,6.27,2.91,11.15-1.13,3.06.68,6.86,3.62,9.12,4.21,3.24,6.05,8.19,9.06,12.28,1.24,1.68-.91,4.26-1.46,6.45-1.18,4.68.21,7.17,5.18,8.76L283,281c1.51,2.77,3,5.34,3.24,8.82.25,3.16,2.85,6.53,7,4.72a4.61,4.61,0,0,1,6.48,2.61c1.45,3.49,4.12,5.86,6.22,8.69,6.46,8.72,11.41,18.41,17.73,27.25,2.9,4.07,7.43,7.5,8.33,13Z"/><path class="cls-4" d="M467.93,346c-3.29-8.71-8-16.82-12.14-25.07-4-7.93-7.42-16.24-12.21-23.81a7.6,7.6,0,0,0-4.23-3.07c-5.26-2-10.26-4.51-14.28-8.31,6.81-6,10.94,1.19,16.31,2.88-4.45-2.93-7.11-9.6-13.84-7.32-3.19,1.07-6.39,2.29-9.58,3.47-3,1.1-4.53-.47-5.6-2.61s-1.32-4.43,1-6.19c6-4.55,11.84-9.39,19.52-10.73,5.24-.91,5.93-4.79,6.87-9-.67.07-1.16,0-1.25.14-5.31,9.17-8.05,9.32-13.74.38-1-1.64-3.94-2-3.45-4.33.67-3.2,1.67-6.42,4.21-8.75,1.91-1.75,1.83-3.23.58-5.51a65.51,65.51,0,0,1-4.57-11c-2.05-6.29-4.47-12.34-9.25-17.26l1-.9c3.69,2.73,7.5,5.31,11,8.23,11,9.09,16.72,22,23.88,33.85,7.86,13,15.21,26.34,23.88,38.89,12.46,18,24.53,36.35,36.73,54.57.23.35.08.95.11,1.43Z"/><path class="cls-2" d="M283,281l-4.84-2.73c-6.08-5.64-2.86-20.37,5.22-22.47,1.74-.45,2.9-.67,3.08-2.22.62-5.31,4.65-6,8.58-6,3.4-.06,2.56,4,4.28,5.75.41.41.45,1.2.66,1.81a1.45,1.45,0,0,0-2.06.94c-5.6,5.83-5,10.77,2.08,13.69-5-4.06-3.79-8.47-1.19-13,.68-.36,1.35-.72,1.16-1.68,2.5-.43,1.58-1.8.89-3.14a97.9,97.9,0,0,1-6.31-16,12.83,12.83,0,0,0-3.33-6c-2.42-2.23-3.08-5.4-4-8.41-.66-2.25-.15-5.4,1.19-5.94,2-.81,4.4,1.07,5.44,3.21,8.4,17.26,20.76,32.17,29.25,49.39,1.68,3.42,1.83,7.84,5.83,9.93l0-.07,1,1.09,0,0a3.2,3.2,0,0,0,2,3h-.13c1.33,2.73,3.17,5.28,1.31,8.64a3.22,3.22,0,0,0,.91,4.35l-.06-.13.62.87c2.43.1,3.65,2.2,5.49,3.28,1.36,1.17,3.69,1.69,2.35,4.5a2.53,2.53,0,0,0,1.56,3.5l0,0c.55,1.3,1.29,2.43,2.94,2,2.35-.65,3.21,1,4.23,2.52,7,10.54,14.06,21.05,21,31.63.49.75,2.12,1.4.87,2.79H337c-7-14.21-14.09-28.39-21-42.65-1-2-2.66-2.3-4.29-2.94a36,36,0,0,1-12.69-8c3.79.05,6.49-3.14,9.36.21l1.35,1.13c.57-.9.22-1.43-.68-1.76-1.4-2.32-2.84-3.59-6-2.21-3,1.3-6.51,1.2-9.49,2.47s-4.15-.21-5.12-2.12c-1.07-2.12-1.16-4.14,1.24-6,5.29-4.13,10.63-7.84,17.43-9.22,4.11-.84,4.87-2.68,4.32-7.29-3.35,5.81-5.07,6.66-9.07,4.5-.39-.09-1-.35-1.12-.24-.49.75.1,1,.7,1.22-2.5,3.37-6.38,4.37-9.31,2.44s-5.71-3.72-8.56-5.57c-2.22-2.56-.42-5.74-1.48-9-1.45,3.63-3.51,6.82.69,9.66l10,7.82C290.7,283.46,286.74,281.68,283,281Z"/><path class="cls-5" d="M76,253.14c2.5-.21,4.3-1.62,2.79-3.93-5-7.73-5.27-17.56-11.33-24.89a13.18,13.18,0,0,1-2.58-11.27,3.59,3.59,0,0,1,2.42-2.82c1.79-.74,2.3.85,2.88,1.94,8.41,16,18.34,31,27.83,46.29,2.12,3.42,3.91,7.15,6,10.66a7.18,7.18,0,0,1,1,5.66c-.47,2.07-.8,4.49,2.19,5.33l-.08-.11c-.84.53-.29,1.06.09,1.46.1.1.67-.24,1-.38l2.94,2.15c.83.86,1.66,1.73,2.95.73l-.09-.13c1.51,9.14,8.08,15.5,13.2,22.39C136.78,319.1,145,332.85,154,346H116c-7.37-14.8-14.78-29.59-22.05-44.44-.8-1.64-2.21-1.8-3.45-2.44-2.94-1.53-6-2.79-8.87-4.51-1.37-.84-4.39-1.85-3.1-3.6a5.11,5.11,0,0,1,6.59-1.21c.84.52,1.61,1.16,2.41,1.75,1.3.76,2.21,2.25,4.19,2.23a5.1,5.1,0,0,0-3.56-2.91c-1.9-3.38-4.5-4.26-8.22-2.84-2.75,1-5.92,1.08-8.56,2.32-3.31,1.56-4.89-.6-6-2.55s-.42-3.58,1.88-5.57c5.13-4.44,10.47-8,17.08-9.39,4.62-1,5.51-4.37,6.5-8.2-.69,0-1.17,0-1.24.1-1.72,3.16-3.18,7.16-7.76,6-4.12-1.07-7.63-9.15-6.88-13.7.24-1.39,2.12-2.32,1-4Z"/><path class="cls-2" d="M129,262.19c3.27-1.57,3.38-3.63,1.67-6.7a63.59,63.59,0,0,1-4.07-9.94c-1.26-3.56-2.45-7-5-10.05a12.24,12.24,0,0,1-2.78-10.62c.32-1.47.84-2.54,2.19-2.95,1.76-.53,2.18,1.06,2.77,2.13,4.16,7.59,8.26,15.2,12.41,22.79.4.74,1,1.36,1.78.22l-.15-.14c1.54,5.18,5.32,9.06,7.93,13.62,3.9,6.82,7.72,13.69,11.72,20.46,1.37,2.31-.65,1.52-1.44,1.9l.09.15c.1-2.51-2.09-3.42-3.57-4.58-1-.79-3-1-2.66,1.6l.15-.07-.68.09.44.51c.71,3.91,3.18,6.79,5.63,9.68a.88.88,0,0,0,.39.53l.11.23.23-.12A4.62,4.62,0,0,1,157,297c-1.43,2.4-.93,4.19,1,5.86,3.71,1.44,8.15,2,8.41,7.45,0,.88,1.44,2.44,2.18,2.42,5.57-.13,8.55,5,13.36,6.29,1.48,1.06,2.13,2.71,3.08,4.16.83,1.27.29,3.79,3,3.5.42,2.67,1.88,4.88,3.13,7.19-.09,4.75,3.37,8.06,4.93,12.15H165a9.34,9.34,0,0,0-.46-2.34c-5.74-11.54-11.69-23-17.21-34.62a12.65,12.65,0,0,0-7.63-6.81,30.12,30.12,0,0,1-9.49-5.88c2.11-2.18,5.63-.74,8.22-4.38-5.44,1.34-9.89,2.08-14.06,3.58-3.05,1.1-4.13-.82-5.05-2.54s-.59-3.72,1.42-5.21c1.32-1,3.92-1.14,3.36-3.85l-.15.1c6.08-3.9,15.72-2.3,18.21-11.85-2.18,4.33-5.47,6.17-10.24,4.82l.09.1c1.69-1.5-.17-2.18-.8-2.92-3.17-3.66-4.67-7.55-2.13-12.18Zm10.53,34.41c.39.09,1,.37,1.12.24.36-.45,0-.8-.46-1-.54-.74-1.16-2-2.07-.84C137.62,295.69,139,296.13,139.55,296.6Z"/><path class="cls-6" d="M16,280c1.71-3.1,2.94-6.58,7.21-7.26,2.64-.43,2.17-2.78,1.75-4.38-.83-3.16-1.48-6.41-3.84-9A14.13,14.13,0,0,1,18.84,255c-1-2.5-2-5.72,1-6.95S23,250.64,24,252.36c5.25,9.39,10.82,18.57,17,27.42A72,72,0,0,1,44.91,287c.69,2.2,1.4,4.33,3.37,5.86,3.27,2.52,4.72,6,3.3,9.87-.78,2.09.17,3.85,1.14,4.22,4.46,1.71,6.11,5.65,8.24,9.27,1.45,1.71,3.83,2,5.19,4.19,5.46,8.65,11.24,17.09,16.9,25.61h-28c-4.07-8.43-8.21-16.82-12.19-25.3-2-4.22-4-8.08-9.09-9.42-1.5-.4-4.18-1.13-3.44-3.38.65-2,3-1.28,4.73-.88a2.16,2.16,0,0,0,2.54,1.45c-.81-.55-.92-2.22-2.61-1.36-.56-2.93-2.33-3.31-4.94-2.61-3.56,1-7,2.4-10.8,2.39-.25-.78-.14-1.77-1.2-2.08-.7-2.2-.62-3.39,2.05-4.78,4.71-2.46,8.47-6.64,14.51-6.35,1.13.05,2.59-1.83,2.33-4.2-5.51,1.6-10.17,7.34-16.74,3.59-.47,1.8,3.94,1.95,1.3,4.43-1.87,1.76-3.42,1.31-5.27.18a29.1,29.1,0,0,0-4.43-2.22c-3-1.19-4-3.13-3-6.25.57-1.72.59-3.65,1.29-5.3,1-2.41.92-2.81-1.94-4.18-3.54-1.7-6.35-5.57-8-9.66a1.67,1.67,0,0,1,.47-2.22,1.57,1.57,0,0,1,2.14.69c2.72,3.94,7.82,5.8,9.6,10.38,1,2.65,3.36-1.95,3.68,1.11-2,1.72-2.31,4.19-2.57,6.54-.19,1.72-.09,3.69,2.61,3.41-.44.46-.16.75.28.88.19.05.44-.15.67-.24l-1-.58C13.59,286.72,15.78,283.35,16,280Zm12.44-2.77c-5,3-4.95,6.4-4,10.12C24.74,284,26,281,28.45,277.22Z"/><path class="cls-7" d="M340,299.13c-1.84-1.08-3.06-3.18-5.49-3.28l-.62-.87.06.13c.67-4.85-.26-10.51,6.72-12,1.88-.39,1.86-2.91,2.69-4.39,2-3.49,4.19-4.36,8.77-1.86-1.17-5.69-2.41-10.86-5.52-15.3-1.87-2.68-3.32-5.34-2.91-8.69.14-1.13.08-2.4,1.56-2.82s2,.79,2.57,1.76c5.48,9.25,10.92,18.52,16.42,27.77,9.77,16.44,19.92,32.64,30.68,48.47,3.92,5.78,8.31,11.38,11,17.95H380c-3.44-9.22-9.53-17.18-12.63-26.59-.68-2.08-2-4.46-4.1-5.14-6.55-2.13-11.35-9-19.33-7.19l0,0c.89-1.75-1.25-4,1.35-5.63,4.24-2.65,8.06-5.89,13.16-7.07,3-.69,2.93-1.14,3.09-5.09-2.73,4.58-3.77,5.94-9.52.67-3.08-3.25-1.18-6.44,1.14-10.43-5.19,4-5.39,7.23-1.66,11l2.62,3.52c-4.54,2.13-4.54,2.13-7.8.56-.55-.15-1.1-.32-1.66-.44-.08,0-.22.2-.32.31l1.6.53c.06,1.23,2.75,1.35,1.47,3-.94,1.19-2.18,2.74-4.1,1.62A5,5,0,0,0,340,299.13Z"/><path class="cls-8" d="M181.91,319c-4.81-1.28-7.79-6.42-13.36-6.29-.74,0-2.13-1.54-2.18-2.42-.26-5.49-4.7-6-8.41-7.45.13-2.44-.17-4.86.8-7.3.85-2.14.52-4.31-2.54-4.64l-.23.12a2.29,2.29,0,0,1-.1-.23.43.43,0,0,1-.4-.53c-2.45-2.89-4.92-5.77-5.63-9.68l-.07-.38.31-.22-.15.07c3.07-1.09,4,2.21,6.23,3l-.09-.15,5.07,5.85a2.24,2.24,0,0,0,3.76-.43c.9-4.82,5.11-4,8.12-5.28a10.09,10.09,0,0,1-1.64,8.39c-1.06,1.48-2.09,4.75,3.37,6.27-4-2.82-2.92-5.51-1.45-7.11,2.69-2.93,1.63-5.11-.3-7.54-.75-2.49-1.5-5-2.48-8.22,3.9,1.17,6.75,2.65,8.68,5.56a269.39,269.39,0,0,1,15.64,27.24c3,5.91,9,11.26,12.44,17.49,4,7.37,10.42,13.12,13.71,20.9H198c-3.17-3.56-2.62-9.24-6.93-12.15-1.25-2.31-2.71-4.52-3.13-7.19-.89-1.89-1.7-3.82-2.68-5.68C184.6,319.72,184.28,317.55,181.91,319Zm.83-22c-4.71,3.45-10,3.86-13.12,8C173.3,301.82,179.76,303.41,182.74,297Z"/><path class="cls-2" d="M61,316.23c-2.13-3.62-3.78-7.56-8.24-9.27-1-.37-1.92-2.13-1.14-4.22,1.42-3.88,0-7.35-3.3-9.87-2-1.53-2.68-3.66-3.37-5.86.43-1.32.92-2.23,2.34-.76,2.08,2.13,4.48,4,6.32,6.29,2.42,3,3.89,3.42,5.69-.55,1.32-2.91,4.11-3.81,6.1-.9,1.5,2.19,3.13,2.46,4.86,1.63,3.58-1.71,5.7-.29,7.28,2.71,7.16,13.58,16.12,26,24,39.16,2.37,4,6.92,6.48,7.56,11.44h-21c-2.76-5.59-5.57-11.15-8.26-16.78-2.12-4.44-4.05-9-9.61-10.18a5.19,5.19,0,0,1-2.46-1.62c-1.72-1.91-1.66-1.95-4.78-1.37A18.64,18.64,0,0,1,61,316.23Z"/><path class="cls-2" d="M18.06,304.84c1.06.31,1,1.3,1.19,2.08,5.38.62,7.23,4.84,9.12,9,2.16,4.73,5.19,8.88,8.1,13.16,3.75,5.51,8.39,10.49,10.59,17h-15c-2.36-4.89-4.28-10.07-7.22-14.59a13.43,13.43,0,0,0-10-6c-1.67-.16-3.15-1-2.63-2,1.41-2.69-.62-2.95-2-3.45-2.92-1.06-4.52-2.73-3.15-5.89,1.45-3.34-2.09-4.24-3-6.4-.67-1.49-2.9-2.31-1.08-5.85,1.2,1.77,1.93,3.36,3.12,4.47,2,1.84,3.94,6.67,6.71.35C13.51,305,16.72,306.84,18.06,304.84Z"/><path class="cls-9" d="M426.73,156.54c-6.35,3-13.1,3.55-18,8.19-.91.87-1.84-.16-2.62-.71-9.68-6.73-19.32-13.52-29-20.18-2-1.37-2.06-3.13-2.08-5.19a55.89,55.89,0,0,1,4-20.63c3.1-8.2,6.18-16.42,9-24.72a5.3,5.3,0,0,1,4.78-4c5.19-.81,10.39-1.62,15.54-2.67,1.81-.37,2.77-.07,3.45,1.64a84.72,84.72,0,0,0,6.94,14.31c1.12,1.75.4,2.77-1.11,3.56-6.56,3.41-9.83,8.86-10.84,16.15-.42,3-3.37,5.21-2.91,9A9,9,0,0,0,407.5,138C414.47,143.36,419.82,150.35,426.73,156.54Z"/><path class="cls-10" d="M403.91,168.37c-3.79,2.88-7,5.15-10,7.64-3.24,2.66-6.4,1-9.16-.42-5.86-3-12.25-5.09-17.36-9.37-2.15-1.8-4.86-1.63-7.12-3-5.73-3.5-8.22-8-6.7-14.54,2.22-9.49,4.89-18.88,7.28-28.33a4.54,4.54,0,0,1,1.9-2.79,117.11,117.11,0,0,1,16.41-10.17c-2.19,6.07-4.07,12.27-6.65,18.17-2.39,5.5-1.51,11.12-1.52,16.69,0,2.89,2.89,4.21,4.92,5.72C385,154.72,394.2,161.32,403.91,168.37Z"/><path class="cls-2" d="M538.73,163.07c-5.33,2.13-9.48,2.38-12.52,5.24-1.44,1.35-2.6.68-3.94-.27-6.36-4.49-12.93-8.68-19.1-13.41-4.7-3.6-2.65-9-1.65-13.28,1.72-7.28,5.44-14,7-21.42.73-3.41,3.85-4.66,6.52-5.62,3.22-1.15,7-2.26,10.18-1.59,3.55.75,3,5.7,5.08,8.25,2.85,3.43,2.24,5.74-1.71,7.66-4.43,2.16-3.52,7.11-5.26,10.69-2.43,5-1.6,8.93,2.92,12.47C530.44,155,534.12,158.84,538.73,163.07Z"/><path class="cls-2" d="M340.35,210.4c-4.25,1.93-8.51,2.26-11.68,5.15-1.33,1.21-2.38.19-3.5-.59q-9.36-6.56-18.8-13c-1.89-1.29-2.26-2.88-2.22-5.09.14-9.39,4.66-17.45,7.64-26,.84-2.4.65-5.92,3-6.86,4-1.57,8.45-2.2,12.77-2.86,2-.31,2.81,1.77,3.21,3.26a27.42,27.42,0,0,0,5,9.47c-8.59,3-8.44,11.1-10.83,17.78-.74,2.08.33,3.38,1.71,4.76C331.26,201,335.71,205.64,340.35,210.4Z"/><path class="cls-11" d="M356.52,122.18c-3.24-4.58-5.65-8.51-8.57-12-5.52-6.65-9.91-14.2-16.8-19.77-4.88-3.94-5.54-10.36-7-16-.67-2.54,1.93-4.15,4.84-4.93s3.66,1,5,2.72C339,78.77,343.31,86,350.61,90.53c6.82,4.2,11,10.87,16,16.75,1.85,2.17-.35,3.23-1.64,4.34C361.69,114.47,357.41,116.38,356.52,122.18Z"/><path class="cls-2" d="M503.14,128.5c-1.41,3.93-2.64,7.94-4.28,11.77-3.31,7.76-2.08,13.07,4.4,17.91,5.83,4.37,11.63,8.77,17.71,13.36-2.34,2.86-5.64,4.4-8.27,6.72-1.54,1.36-2.46.08-3.42-.39-6.21-3-12.35-6.13-18.5-9.24-4.75-2.4-6.91-6.72-5.69-12,1.29-5.59,3.11-11.07,4.27-16.68,1.53-7.36,8.4-8.28,12.72-12.25Z"/><path class="cls-2" d="M306.26,177.37c-1.44,4.2-2.86,8.41-4.33,12.59-2.43,6.88-1.28,10.76,4.5,15.19s11.68,9,17.51,13.46c-.17.25-.25.4-.35.52-6,7.22-12.42,6.3-19.37,1.28-2.77-2-6.19-3.09-9.26-4.67-4.84-2.49-7-7-5.68-12.2,1.5-5.91,3.25-11.76,4.65-17.69.58-2.45,2.3-3.49,4.11-4.66,2.5-1.62,5-3.31,7.44-5Z"/><path class="cls-2" d="M176.42,244.26c-3.11,2.17-6.46,2.18-8.84,4.25-1.43,1.25-2.41-.07-3.43-.79-3.66-2.55-7.08-5.54-11-7.58-5.06-2.64-4.89-6.8-3.68-11,1.68-5.76,4.18-11.28,6.17-17s7.14-3.4,10.88-4.39c2.91-.78,2,2.61,3,4,2.33,3.41,2.09,5.46-1.34,8.64-2.56,2.37-2.94,7.33-3.71,11.25-.41,2.07,2.09,3.15,3.42,4.5C170.56,239,173.43,241.48,176.42,244.26Z"/><path class="cls-12" d="M76.07,253.05c-5.36,3.82-5.86,9.11-1.21,13.21,1.86,1.64,3.79,3.2,5.38,4.55-6.24,6.49-10.34,1.7-15.37-1.07-6.75-3.72-5-8.79-3.34-14.29-5.25,7.95-4.74,10.56,2.21,15.28,2.58,1.74,5,3.73,7.42,5.56-3.17,4.07-6.32,3.94-10.4,1.68-10-5.55-10.93-3.13-7.4-16.85.84-3.27,2.25-5.73,5.25-7.31,2.79-1.47,5.22-2.81,5.82-6.77.44-2.86,4.53-2.22,7-2.42,2.73-.22,5.57,5.56,4.58,8.52Z"/><path class="cls-13" d="M214.81,241.63c1.41-7.06,3.5-14,7.24-20.24,1.41-2.35,9.28-4,10.72-2.6,2.64,2.57,2.11,7.11-.16,10.74-1.94,3.1-2.42,7-4.35,10.29-.71,1.19.45,2.06,1.12,3,1.46,2.11,4,2.89,5.62,4.7,1.44,1.59,4.8,3.59,2.47,5.45-2,1.57-4.63,5.08-8.84,1.69-3.09-2.48-6.93-4.27-10.36-6.53C215.78,246.51,214.2,244.83,214.81,241.63Z"/><path class="cls-14" d="M406.05,254.66a56.74,56.74,0,0,1,6.76-18.37c1-1.63,7.75-2.95,9-1.92,2.31,1.87,2.62,7.46.54,9.55a10.21,10.21,0,0,0-.17,13.92c.46.48,1.1.87,1.37,1.44.94,2,5.49,3.42,3.24,5.22s-5.9,5.1-9.9,1.27c-2.49-2.39-5.63-4.1-8.51-6.06C406.62,258.5,405.12,257.23,406.05,254.66Z"/><path class="cls-2" d="M486.88,138.05c-6.37-8.74-11-17.34-18.88-23.53-2.93-2.31-3.15-6.66-4.19-10.22-.51-1.75.7-3.23,2-4s2.39.22,3.42,1.26Q481.57,114,494,126.26c2.09,2.06,2.6,3-.75,4.53A11.18,11.18,0,0,0,486.88,138.05Z"/><path class="cls-2" d="M291.46,186.48c-3.76-5.3-6.81-9.58-9.83-13.88a28.39,28.39,0,0,0-7.08-7.59c-4.2-2.84-4.53-7.89-6.21-12.11-.45-1.11.83-2.85,2.12-3.6s2.51.07,3.42,1.16l.33.37c6.57,8,14.72,14.51,22,21.84,2.82,2.84,4,4.56-.17,7.07C293.94,181,291.59,182.46,291.46,186.48Z"/><path class="cls-2" d="M142.92,222.21c3.68.9,4.81-3.35,8-3.68-.67,4.88-4,9.11-4.2,14.29-.13,3.62.78,6.18,4,8.25,4.54,3,8.77,6.38,13.16,9.62-6.45,5.93-6.44,5.9-14,2.08-4-2-8-3.89-12-5.84l.14.14c-1.34-8.93,2.16-16.9,5-25Z"/><path class="cls-15" d="M216.09,228.59c.24,3.41-1.59,5.75-2.37,8.34-2,6.78-1.45,8.84,3.91,13.1,2.67,2.13,6.13,3.38,7.81,6.68.52,1,2.9,1.59,1.39,3s-3.15,4.08-5.77,2.92A120.33,120.33,0,0,1,206,255.1c-2.28-1.41-2.37-4.55-1.7-7.23.8-3.2,2.1-6.32,2.51-9.56C207.52,232.76,211.88,231.19,216.09,228.59Z"/><path class="cls-2" d="M114.15,273.13c.21-5.73,2.5-10.87,4.49-16.1.82-2.15,7-5.24,8.25-3.76,1.82,2.16,5,4.76,1.6,8.22a6.93,6.93,0,0,0,.53.7l.09-.14a8.72,8.72,0,0,0-.63-.63c-3.31,2.66-3.87,8.5-1.06,11.38,1.47,1.51,3.08,2.9,4.62,4.35l-.09-.1c.07.74,1.31,1.25-.41,2.16-3.22,1.71-6.34,1.19-9.58.84l.1.09c-.29-3.11-2.6-3.72-5.09-4.1l.11.09c0-2-2-2.16-3.06-3.14Z"/><path class="cls-2" d="M124.13,284c-3.42,2.78-6.77,1.16-10.12-.15l.09.13c-.65-1.59-1.94-.6-2.95-.73l-2.94-2.15L107.09,280l.08.11c-1.72-4.35.62-8.22,1.38-12.3.17-.92.61-1.67-1-3.23-4.22-4.1-8.46-8.68-11.16-14.2-.54-1.09-.86-2.42.3-3.12s2.3,0,3,1.07c3.2,5,9.54,7.19,11.81,13.16.73,1.92,2.12-.46,3.37-.21.7,2.63-1.73,4.59-1.66,7,0,1.59-1.72,3.77,1,4.9L114,273c-.55,2.58,1.44,2.68,3.06,3.14L117,276c1.06,2.16,3.09,3.11,5.09,4.1l-.1-.09c.45,1.46,3,1.88,2,4Z"/><path class="cls-16" d="M407.21,243.83c-4,13.82-4,13.81,7.24,22.34,1.29,1,2.48,2.08,3.72,3.13-3.19,3.73-6.46,5.11-10.68,1.87a19,19,0,0,0-5.73-2.93c-5.56-1.75-5.79-5.6-4.33-10.19,1.59-5,1.17-11.12,7.37-13.63A21.63,21.63,0,0,1,407.21,243.83Z"/><path class="cls-2" d="M143.05,222.08c-2.47-.17-2.86,2.28-4.25,3.9a133.71,133.71,0,0,0-13.87-17.13,5.68,5.68,0,0,1-1-2.19c-.8-2.68-3.87-6-.4-7.93,2.41-1.37,4,2.52,5.76,4.2,4.57,4.29,8.75,9,13.48,13.12,2.72,2.37,2.16,4,.18,6.16Z"/><path class="cls-17" d="M211.48,229.13c-2,1.73-3.7,3.67-5.81,4.77-1.88,1-2.33-1.47-2.92-2.55-3.18-5.81-9.25-9.4-11.83-15.61-.66-1.59-2.15-3.42-.11-4.89s2.66,1.15,3.75,1.94c5.79,4.24,10.59,9.59,15.66,14.62A15.53,15.53,0,0,1,211.48,229.13Z"/><path class="cls-18" d="M397.64,248.71c-3.7-4.93-6.39-9.94-10.94-13.43a3.16,3.16,0,0,1-1-1.65c-.58-2.24-3.35-4.86-.71-6.69s3.47,1.95,5,3.26c3.48,3,6.58,6.45,10,9.47,3,2.64,3.71,4.74-.44,6.81C398.92,246.82,398.51,247.68,397.64,248.71Z"/><path class="cls-19" d="M52.39,257.56c-3.55-4.16-5.81-9-10.13-12.35-1.14-.89-1.42-2.9-2.11-4.39-.54-1.17.35-1.9.94-2.59,1.08-1.25,1.8.17,2.35.68,3.63,3.34,7.07,6.9,10.76,10.17C58.45,252.86,54.67,254.94,52.39,257.56Z"/><path class="cls-2" d="M275.11,260.59c-2.81-6.12-8.39-9.72-11.1-15.45-.54-1.16-1.77-2.67.18-3.85,1.76-1.06,2.31.7,3.15,1.5,3.35,3.18,6.47,6.63,10,9.65,2.82,2.43,3,4.23-.29,6.18A13,13,0,0,0,275.11,260.59Z"/><path class="cls-20" d="M329,278.13c.3-3.22-4.38-4.91-2.31-9.34,3.75,3.63,7.35,7,10.86,10.55,1.19,1.19-.15,2.17-.75,3s-1.67,1.51-2.86.51c-.6-.5-.95-2-2.15-.68h.13c.82-2,.31-3.08-2-3l0,0c.8-1.44,0-1.35-1-1.09Z"/><path class="cls-2" d="M305.48,176.23c.41-.38.79-1.33,1.35-.77s.25,1.45-.57,1.91Z"/><path class="cls-2" d="M399.48,234.58c.07.37.14.74.2,1.11l-.77-.56A5.9,5.9,0,0,1,399.48,234.58Z"/><path class="cls-21" d="M333.91,295l.62.87Z"/><path class="cls-21" d="M155.49,290.29a.43.43,0,0,0,.4.53A.86.86,0,0,1,155.49,290.29Z"/><path class="cls-21" d="M150.1,280l-.31.22.07.38-.44-.51Z"/></g></g></svg>