<svg xmlns="http://www.w3.org/2000/svg" xmlns:xlink="http://www.w3.org/1999/xlink" viewBox="0 0 100 100"><defs><style>.cls-1{fill:#161616;}.cls-2{fill:url(#linear-gradient);}.cls-3{fill:url(#linear-gradient-2);}.cls-4{fill:url(#linear-gradient-3);}.cls-5{fill:url(#linear-gradient-4);}.cls-6{fill:url(#linear-gradient-5);}.cls-7{fill:url(#linear-gradient-6);}.cls-8{fill:url(#linear-gradient-7);}.cls-9{fill:url(#linear-gradient-8);}.cls-10{fill:url(#linear-gradient-9);}.cls-11{fill:url(#linear-gradient-10);}.cls-12{fill:url(#linear-gradient-11);}.cls-13{fill:url(#linear-gradient-12);}.cls-14{fill:url(#linear-gradient-13);}.cls-15{fill:url(#linear-gradient-14);}</style><linearGradient id="linear-gradient" x1="13.56" y1="50.61" x2="24.22" y2="50.61" gradientUnits="userSpaceOnUse"><stop offset="0.01" stop-color="aqua"/><stop offset="1" stop-color="lime"/></linearGradient><linearGradient id="linear-gradient-2" x1="75.78" y1="49.55" x2="86.44" y2="49.55" xlink:href="#linear-gradient"/><linearGradient id="linear-gradient-3" x1="32.62" y1="63.42" x2="67.37" y2="63.42" xlink:href="#linear-gradient"/><linearGradient id="linear-gradient-4" x1="54.79" y1="43.44" x2="59.97" y2="43.44" xlink:href="#linear-gradient"/><linearGradient id="linear-gradient-5" x1="62.19" y1="43.79" x2="67.37" y2="43.79" xlink:href="#linear-gradient"/><linearGradient id="linear-gradient-6" x1="47.4" y1="43" x2="52.57" y2="43" xlink:href="#linear-gradient"/><linearGradient id="linear-gradient-7" x1="61.89" y1="22.88" x2="68.28" y2="22.88" xlink:href="#linear-gradient"/><linearGradient id="linear-gradient-8" x1="71.9" y1="34.08" x2="81.43" y2="34.08" xlink:href="#linear-gradient"/><linearGradient id="linear-gradient-9" x1="30.8" y1="23.41" x2="37.2" y2="23.41" xlink:href="#linear-gradient"/><linearGradient id="linear-gradient-10" x1="39.96" y1="38.18" x2="45.17" y2="38.18" xlink:href="#linear-gradient"/><linearGradient id="linear-gradient-11" x1="18.04" y1="34.98" x2="27.55" y2="34.98" xlink:href="#linear-gradient"/><linearGradient id="linear-gradient-12" x1="72.44" y1="65.18" x2="81.94" y2="65.18" xlink:href="#linear-gradient"/><linearGradient id="linear-gradient-13" x1="18.57" y1="66.09" x2="28.07" y2="66.09" xlink:href="#linear-gradient"/><linearGradient id="linear-gradient-14" x1="48.38" y1="18.98" x2="50.58" y2="18.98" xlink:href="#linear-gradient"/></defs><g id="Layer_2" data-name="Layer 2"><g id="Layer_1-2" data-name="Layer 1"><rect class="cls-1" width="100" height="100" rx="8.12"/><path class="cls-2" d="M13.56,49.9a5.16,5.16,0,0,1,2.82-.41c2.06,0,4.12,0,6.19,0a3.37,3.37,0,0,1,.84.07,1.07,1.07,0,0,1,0,2.08,3.41,3.41,0,0,1-.85.08c-2.44,0-4.88,0-7.32,0a6.33,6.33,0,0,1-1.69-.41Z"/><path class="cls-3" d="M86.44,50.19a3.48,3.48,0,0,1-2.23.46H77.47a4,4,0,0,1-.78,0,1,1,0,0,1-.91-1.09,1,1,0,0,1,.9-1,4.08,4.08,0,0,1,.78,0h6.68a3.7,3.7,0,0,1,2.3.45Z"/><path class="cls-4" d="M40,76.33c0-2.09,0-4.18,0-6.26a5.18,5.18,0,0,0-2.08-4.38c-1.41-1.12-2.75-2.33-4.15-3.47a2.9,2.9,0,0,1-1.14-2.4c0-4.65,0-9.3,0-14a2.82,2.82,0,0,1,3.1-3.08h12.1c.88,0,1,.1.58.93a5.06,5.06,0,0,1-4.74,3.18c-2,.06-4,0-6,0h-.57a1.09,1.09,0,0,0-1.15,1,1,1,0,0,0,1,1.15c.75,0,.88.38.86,1,0,1.21,0,2.42,0,3.63,0,.83.42,1.3,1.08,1.31S40,54.61,40,53.79c0-1.23,0-2.46,0-3.7,0-.69.19-1,.93-1a22.5,22.5,0,0,0,3.76-.08c.53-.07.62.28.75.66A4.75,4.75,0,0,0,50.13,53,4.57,4.57,0,0,0,53,51.92a.58.58,0,0,1,.94,0,4.68,4.68,0,0,0,6.86,0c.29-.27.46-.36.81-.06a4.57,4.57,0,0,0,5.16.8c.54-.23.6,0,.6.43q0,4.25,0,8.47a2.53,2.53,0,0,1-.6,1.64c-.49.6-1,1.23-1.48,1.81a5.59,5.59,0,0,0-1.43,3.84c0,3.34-.1,6.69-.16,10,0,1.06,0,1.06-1.07,1.25L41,84c-1,.17-1.06.14-1.06-.88V76.33Z"/><path class="cls-5" d="M54.8,43.43c0-1.66,0-3.32,0-5a2.59,2.59,0,1,1,5.16,0c0,3.39,0,6.78,0,10.17a2.56,2.56,0,0,1-2.06,2.55A2.59,2.59,0,0,1,55,49.72a3.11,3.11,0,0,1-.22-1.32Z"/><path class="cls-6" d="M62.2,43.75c0-1.46,0-2.93,0-4.4a2.58,2.58,0,1,1,5.16,0q0,4.41,0,8.81a2.59,2.59,0,1,1-5.16,0C62.19,46.74,62.2,45.25,62.2,43.75Z"/><path class="cls-7" d="M52.56,43c0,1.78,0,3.56,0,5.33a2.53,2.53,0,0,1-2.21,2.49A2.56,2.56,0,0,1,47.52,49a1,1,0,0,1,.41-1.27,7.23,7.23,0,0,0,3.12-5.5c.1-1.22-.28-1.64-1.52-1.66-.5,0-1,0-1.5,0s-.64-.21-.63-.65c0-.76,0-1.52,0-2.28a2.57,2.57,0,0,1,5.14.06C52.59,39.44,52.56,41.2,52.56,43Z"/><path class="cls-8" d="M67.05,18.12a1.1,1.1,0,0,1,1.14,1.52,10.08,10.08,0,0,1-.68,1.25l-3.3,5.71a3.66,3.66,0,0,1-.43.65,1,1,0,0,1-1.28.27,1,1,0,0,1-.57-1.24,2,2,0,0,1,.25-.58l3.9-6.77C66.34,18.48,66.64,18.11,67.05,18.12Z"/><path class="cls-9" d="M81.43,32a1.14,1.14,0,0,1-.6.94c-2.42,1.4-4.83,2.8-7.27,4.17A1,1,0,0,1,72,36.71a1.06,1.06,0,0,1,.45-1.47q3.6-2.13,7.25-4.19A1.09,1.09,0,0,1,81.43,32Z"/><path class="cls-10" d="M31.89,18.65a1.15,1.15,0,0,1,1,.61c1.39,2.4,2.79,4.8,4.15,7.21A1.08,1.08,0,0,1,36.66,28a1.1,1.1,0,0,1-1.53-.47c-1.4-2.39-2.8-4.79-4.16-7.21A1.09,1.09,0,0,1,31.89,18.65Z"/><path class="cls-11" d="M42.58,40.59c-.63,0-1.27,0-1.91,0-.47,0-.72-.18-.71-.67s0-1.23,0-1.85a2.58,2.58,0,0,1,5.14.06c0,.61,0,1.23,0,1.84,0,.44-.18.61-.59.61Z"/><path class="cls-12" d="M19.08,31.77a1.67,1.67,0,0,1,.88.29L26.73,36a2.29,2.29,0,0,1,.41.28,1,1,0,0,1,.23,1.41,1,1,0,0,1-1.35.42,5.12,5.12,0,0,1-.69-.37c-2.09-1.2-4.19-2.41-6.28-3.63a3.4,3.4,0,0,1-.69-.48,1,1,0,0,1-.22-1.19A1,1,0,0,1,19.08,31.77Z"/><path class="cls-13" d="M73.5,62a1.46,1.46,0,0,1,.81.25c2.3,1.32,4.6,2.64,6.89,4,.9.53,1,1.54.21,2a1.11,1.11,0,0,1-1.21,0l-7.14-4.12a1.08,1.08,0,0,1-.56-1.33A1,1,0,0,1,73.5,62Z"/><path class="cls-14" d="M28.07,63.93a1.12,1.12,0,0,1-.62,1c-2.38,1.38-4.76,2.76-7.15,4.12a1.09,1.09,0,0,1-1.6-.38,1.1,1.1,0,0,1,.51-1.52c2.38-1.38,4.76-2.76,7.15-4.12A1.08,1.08,0,0,1,28.07,63.93Z"/><path class="cls-15" d="M48.39,19c0-1.33,0-2.66,0-4,0-.83.43-1.31,1.09-1.31s1.08.49,1.09,1.31q0,4,0,8c0,.83-.41,1.29-1.09,1.29S48.4,23.84,48.39,23C48.38,21.65,48.39,20.3,48.39,19Z"/></g></g></svg>