<svg xmlns="http://www.w3.org/2000/svg" xmlns:xlink="http://www.w3.org/1999/xlink" viewBox="0 0 498.71 612"><defs><style>.cls-1{fill:url(#linear-gradient);}.cls-2{fill:url(#linear-gradient-2);}.cls-3{fill:url(#linear-gradient-3);}.cls-4{fill:url(#linear-gradient-4);}.cls-5{fill:url(#linear-gradient-5);}.cls-6{fill:url(#linear-gradient-6);}.cls-7{fill:url(#linear-gradient-7);}.cls-8{fill:url(#linear-gradient-8);}.cls-9{fill:url(#linear-gradient-9);}.cls-10{fill:url(#linear-gradient-10);}.cls-11{fill:url(#linear-gradient-11);}.cls-12{fill:url(#linear-gradient-12);}.cls-13{fill:url(#linear-gradient-13);}.cls-14{fill:url(#linear-gradient-14);}.cls-15{fill:url(#linear-gradient-15);}.cls-16{fill:url(#linear-gradient-16);}.cls-17{fill:url(#linear-gradient-17);}</style><linearGradient id="linear-gradient" x1="79.24" y1="306" x2="306.41" y2="306" gradientUnits="userSpaceOnUse"><stop offset="0.01" stop-color="aqua"/><stop offset="1" stop-color="lime"/></linearGradient><linearGradient id="linear-gradient-2" x1="0" y1="317.43" x2="148.52" y2="317.43" xlink:href="#linear-gradient"/><linearGradient id="linear-gradient-3" x1="245.6" y1="330.19" x2="498.71" y2="330.19" xlink:href="#linear-gradient"/><linearGradient id="linear-gradient-4" x1="175.3" y1="557.33" x2="230.42" y2="557.33" xlink:href="#linear-gradient"/><linearGradient id="linear-gradient-5" x1="12.02" y1="293.94" x2="94" y2="293.94" xlink:href="#linear-gradient"/><linearGradient id="linear-gradient-6" x1="172.84" y1="375.84" x2="219.67" y2="375.84" xlink:href="#linear-gradient"/><linearGradient id="linear-gradient-7" x1="153.78" y1="276.15" x2="206.98" y2="276.15" xlink:href="#linear-gradient"/><linearGradient id="linear-gradient-8" x1="137.52" y1="288.28" x2="187.17" y2="288.28" xlink:href="#linear-gradient"/><linearGradient id="linear-gradient-9" x1="122.92" y1="301.47" x2="168.17" y2="301.47" xlink:href="#linear-gradient"/><linearGradient id="linear-gradient-10" x1="183.49" y1="355.56" x2="216.83" y2="355.56" xlink:href="#linear-gradient"/><linearGradient id="linear-gradient-11" x1="111.9" y1="316.28" x2="155.38" y2="316.28" xlink:href="#linear-gradient"/><linearGradient id="linear-gradient-12" x1="105.32" y1="330.66" x2="146.87" y2="330.66" xlink:href="#linear-gradient"/><linearGradient id="linear-gradient-13" x1="200.58" y1="338.48" x2="213.43" y2="338.48" xlink:href="#linear-gradient"/><linearGradient id="linear-gradient-14" x1="234.34" y1="368.68" x2="288.09" y2="368.68" xlink:href="#linear-gradient"/><linearGradient id="linear-gradient-15" x1="237.37" y1="393.69" x2="285.7" y2="393.69" xlink:href="#linear-gradient"/><linearGradient id="linear-gradient-16" x1="231.33" y1="344.36" x2="282.28" y2="344.36" xlink:href="#linear-gradient"/><linearGradient id="linear-gradient-17" x1="240.25" y1="420.11" x2="276.43" y2="420.11" xlink:href="#linear-gradient"/></defs><g id="Layer_2" data-name="Layer 2"><g id="Layer_1-2" data-name="Layer 1"><path class="cls-1" d="M177,612c-9.89-2.43-19.46-5.54-27.61-12-11.52-9.17-19.24-20.69-21.91-35.25C125,551.3,133,537.82,144.92,534.78c9.11-2.33,18,1.55,22.9,10,5.22,9,4.79,19.62-2.24,25.73-4.52,3.93-10.35,6.38-15.7,9.31-1.69.93-3.69,1.28-6.14,2.09,5.91,9.11,13.43,15.48,23.17,19.19,27.21,10.35,55.63-4,66.24-33.06,5.9-16.14,5.65-32.71,4.64-49.35-.92-15.12-2.48-30.2-3.78-45.3a23.37,23.37,0,0,0-.57-2.57c-6.48.84-12.87,1.54-19.22,2.5-49.18,7.41-103-20.27-125.11-64.52-6-11.94-8.83-24.73-9.52-38C78,341.18,81.49,312.37,93.94,285c9.22-20.24,22.79-37.14,39.53-51.51q26.73-22.93,54-45.25c7.82-6.4,11.86-14.12,11.66-24.18-.38-19.65-1.12-39.3-.91-58.95.22-21.94,3-43.51,13-63.55A86.13,86.13,0,0,1,250.6,2C251.77,1.36,252.88.65,254,0h4a70.11,70.11,0,0,1,24.09,39.88c7.12,32.39,7.12,64.87-2.68,96.8-9.13,29.77-28,52.77-52.64,71-10.51,7.78-14.9,17.26-13.15,30.14,2.21,16.33,4,32.72,5.84,49.11.43,3.92,2,5.08,6,5.2,36.59,1.17,66.93,22.44,76.29,54.79,11.86,41,2,84.62-40.56,111.31-2.82,1.78-5.68,3.49-8.56,5.17-7.92,4.62-10.79,11.48-10.2,20.57,1.19,18.28,2.48,36.59,2.62,54.9.19,25.08-9.62,45.91-29.24,61.87-7.56,6.15-16.55,9-25.81,11.22Zm39.81-287.83c-20.17,5.68-37.82,13.7-47.77,32.66-11.05,21.06-8.48,40.92,6.41,59.46-20.75-15.4-28.26-36.73-25.95-61.25,3.59-38,27.8-56.29,64-62.43-2.41-23.48-4.79-46.53-7.22-70.2a32.24,32.24,0,0,0-2.87,1.71c-21.44,16.66-43.16,33-64.16,50.15-10.39,8.5-20.69,17.65-28.87,28.18-17.16,22.1-20.43,48.3-18.11,75.4,1.63,19,8.75,35.78,21.75,49.89,22.49,24.42,50.38,37.73,83.43,40a79.8,79.8,0,0,0,34.67-5.32C227,416.26,222,370.61,216.83,324.17Zm-8.46-152.1c1-.45,2.1-.85,3.11-1.33,39.13-18.62,70.66-76.05,65.35-119.17-1.07-8.75-3.21-17.22-8-24.74C218.26,44.86,190.82,124.65,208.37,172.07ZM225.7,324.51l16,136.89c12.86-5.25,23.71-12.09,32.51-21.87,15.95-17.71,20.72-38.89,18.91-62.07C290.4,342.08,261.85,319.27,225.7,324.51ZM93.39,310l1.25.64c1-1.26,1.92-2.51,2.88-3.78,14-18.53,28.19-37,46.53-51.32,16.24-12.67,33.55-24,50.89-35.2,33.64-21.63,60.42-49.11,75.7-86.58,2.69-6.61,3.66-13.93,5.43-20.92l-1.52-.44a114.86,114.86,0,0,1-23.89,34.24c-10.68,10.73-21.54,21.42-33.33,30.88-17.65,14.15-36.53,26.78-54.27,40.85-25.29,20-47.06,43.34-61.6,72.58C98.39,297.15,96.06,303.68,93.39,310Zm198.15,35c-12.68-33.22-44.91-53.2-83.08-42.8-29.57,8.05-53.81,36.63-48.78,56.68,14.12-24.07,35.26-38.63,62.56-43.38C251.29,310.51,273.76,322.57,291.54,345.06ZM210,72.51c12.42-22.06,28.43-40.43,52.44-51.07-1.13-1.62-1.92-2.86-2.82-4-1-1.31-1.92-2.92-3.28-3.71s-3.43-1.26-4.55-.66C228,25.78,215.21,46.47,210,72.51Zm-71.13,504.4c5.86-2.66,11.58-4.85,16.87-7.8a10.4,10.4,0,0,0,5.65-10.84c-.85-7.09-5.62-12.59-11.61-13.17-5.6-.54-11.52,3.9-13.74,10.35C133.65,562.54,135.12,569.18,138.91,576.91Z"/><path class="cls-2" d="M0,309c1.35-10.37,2.09-20.87,4.15-31.1,16.92-84.14,63.92-144.84,142-181.15a4.3,4.3,0,0,1,2.41-.41c-52.79,26.77-92.29,66.4-117,120.28a235.35,235.35,0,0,0-21,84.59c21.72-36.79,56.06-44.58,94.12-46.47-2.3,5.36-4.8,8-10.57,8.06-19,.13-37.37,3.84-54.26,13.11-11.49,6.3-21.18,14.65-26.9,26.61-2,4.13-2,9.19-2.84,13.84a10,10,0,0,0,2.05.78l-.11-.09-2.17,8.53c16.73-30.5,45.12-37.74,76.68-39.83-.3,5.06-2.44,6.4-7,6.55-20.37.7-39.84,4.86-55.4,19.15-4.79,4.4-8.42,10.24-11.85,15.86-1.57,2.57-1.39,6.2-1.3,9.65,5.82-14,14.87-24.78,28.57-31.34,13.39-6.41,27.52-8,42.23-7.31.13,4.52-1.3,6.09-5.58,5.81-13.3-.89-26.27.7-38.4,6.74a49.18,49.18,0,0,0-25.15,28.42,20.44,20.44,0,0,0-.68,7.91c12.59-29.89,36.4-38.39,66.53-36.1l-.72,4.63c-8.57.4-16.93,0-25,1.32-18.1,2.9-31,13.15-38.16,30.12a18.75,18.75,0,0,0-1,10.11q21.53,114.3,123.1,171.14c.84.48,1.63,1,2.53,1.59l-11,8.55a228.61,228.61,0,0,1-43.23-30.5Q18.52,448.88,3.47,361.16C1.88,351.85,1.13,342.39,0,333Z"/><path class="cls-3" d="M245.6,569.71c1.1-3.84,1.73-7.51,3.3-10.72.64-1.32,3.3-2.29,5.07-2.34,26.69-.72,52.69-5.23,77.69-14.64,60.48-22.78,104.7-63.56,133.43-121.31a15.67,15.67,0,0,0,.81-1.83,8.6,8.6,0,0,0-.11-1.85c-1.82,2.36-3.23,4.21-4.67,6-26.06,32.85-60.22,47.07-101.78,44.24-25.7-1.75-49.36-10.24-72.75-21.95,2.1-2.68,3.74-5.37,6-7.36.87-.76,3.38-.34,4.78.32,17,7.9,34.46,14.14,53.08,17,50.89,7.74,93.6-13.71,117.68-59.2a145.18,145.18,0,0,0,15.41-46.18c-.46.86-1,1.71-1.35,2.6-.45,1.07-.78,2.2-1.21,3.28-21.2,54.42-70.53,84-129.8,77.37-14.6-1.64-28.88-6.18-43.29-9.47a35,35,0,0,1-5.15-2.09l4-9.73c7.84,2.28,15.39,4.79,23.1,6.66,25.53,6.22,51.13,7.43,76.37-1.14,35.67-12.12,58.36-37.47,70.94-72.2,8.76-24.17,11.6-49.15,7.14-74.71a4.78,4.78,0,0,0-.32-1.17c-1.25,11.37-1.77,23.73-4.07,35.74-10,52.23-50.74,90.62-103.1,97.71-21.27,2.87-42.19.6-62.87-4.75-2.71-.7-3.56-1.81-3-4.5.47-2.26.53-4.6.8-7.16,8.88,1.74,17.41,3.65,26,5.08C408.79,403.2,469.59,356,476.28,284.09a147.47,147.47,0,0,0-1.67-39.78c-1.19,8.94-1.57,16.91-3.38,24.54-12.61,53.08-46.16,85.66-98.63,99-18.3,4.63-36.94,4.21-55.61,1.52-4.46-.64-6.11-2.32-5.95-6.56a42.65,42.65,0,0,0-.55-5.72c5.86.82,11.4,1.61,16.95,2.35,51,6.85,101.47-18.38,126.07-63.44,14-25.68,18.43-53.08,11.52-81.67-3.07-12.67-11.37-22.92-18.46-34.39,2.67,10.38,5.88,19.85,7.46,29.57a106.59,106.59,0,0,1-70.67,118.37c-25.7,8.92-51.91,9.41-78.38,4.43-1.78-.33-3.62-2-4.8-3.48-2.22-2.86-4-6.07-6.38-9.84,7,1.29,13.21,2.67,19.51,3.57,31.31,4.48,61.55,2.12,89.14-15.12,36.73-22.94,54.26-67,44.3-110.34-5-21.94-15.9-40.18-32.52-55.5-22.66-20.87-47.59-38-76.11-49.75-.76-.31-1.46-.75-2.39-1.23,28.69,1.77,92.39,50.51,120.69,92.53,29.88,44.36,44.16,93.46,42.1,146.85C493,471.68,374.31,573,245.6,569.71Z"/><path class="cls-4" d="M175.3,546l55.12,11c-1,3-1.9,6.66-3.32,10.07-.36.88-2.39,1.75-3.45,1.56q-21.78-4-43.47-8.49a4.38,4.38,0,0,1-3-2.49C176.3,553.68,175.85,549.6,175.3,546Z"/><path class="cls-5" d="M12.13,317.14c2.87-5.51,4.86-11.75,8.76-16.41,18.91-22.61,44.72-28.92,73.11-30-1,4.95-3.07,6.9-7.84,7-19.37.22-37.54,4.67-53.75,15.9-8.84,6.12-15,14.42-20.39,23.46Z"/><path class="cls-6" d="M172.84,361.72c1.55-2.59,3-5,4.85-8.08,13.15,10.07,26.34,19.42,38.47,30,3,2.57,2.43,9.14,3.51,13.87l-1.13.55Z"/><path class="cls-7" d="M153.78,270.36c6.28-7.29,7.48-7.88,15.35-5,10.75,4,21.3,8.48,32.05,12.47,4.64,1.73,6.77,4.46,5.39,10.37-2.41,0-5.48.79-7.9-.13-14.45-5.45-28.75-11.31-43.1-17Z"/><path class="cls-8" d="M187.17,293.31c-1.83,1.31-2.1,1.49-2.36,1.69-5.77,4.37-11.21,3.9-17.77.72-9.49-4.61-19.68-7.78-29.52-11.55,3-5.52,5.89-7,11.88-4.88C161.66,283.65,173.81,288.32,187.17,293.31Z"/><path class="cls-9" d="M122.92,296.92c2.85-4.85,6.63-6.29,12.3-4.07,10.66,4.16,21.53,7.78,32.95,11.85a38.3,38.3,0,0,0-3,3.33c-2.63,4.06-5.59,3.49-9.63,1.74C144.9,305.18,134,301.21,122.92,296.92Z"/><path class="cls-10" d="M215.37,370.36,183.49,347.2l7.91-6.44c7.25,5.07,15,9.29,21.08,15.23,3,3,3,9.08,4.35,13.77Z"/><path class="cls-11" d="M111.9,310.53c1.33-4.69,3.87-6.56,9-4.44,11.21,4.59,22.56,8.82,34.44,13.44l-4.3,7.82Z"/><path class="cls-12" d="M105.32,323.47c1.61-6.1,1.78-6.37,7.34-4,9.62,4.09,19.18,8.34,28.63,12.82,6.66,3.15,6.56,3.37,3.84,11Z"/><path class="cls-13" d="M213.43,345.46l-12.85-9.64,11.2-4.33C212.32,336.07,212.78,340,213.43,345.46Z"/><path class="cls-14" d="M234.34,348.09c9,5.41,17.42,10.69,26,15.54a180.47,180.47,0,0,0,20.91,10.46c5.16,2.08,7.38,5,6.65,10.4a43.3,43.3,0,0,0,0,4.79c-5.62-2.47-10.89-4.42-15.8-7-10.1-5.37-19.93-11.26-30-16.62-4.92-2.61-7.56-6.08-7.18-11.76A37.81,37.81,0,0,0,234.34,348.09Z"/><path class="cls-15" d="M237.37,374.07c1.93,1.23,3.26,2.11,4.63,2.93,13,7.72,25.81,15.77,39.09,22.95,4.56,2.47,5.6,4.78,3.73,9.13-.52,1.2-.89,2.47-1.51,4.23a47,47,0,0,1-5-2.13c-11.26-6.4-22.4-13-33.76-19.25-4.64-2.55-6.58-6.12-6.51-11.21A65,65,0,0,0,237.37,374.07Z"/><path class="cls-16" d="M282.28,359.35c-17.36-5.89-33.21-14.5-48.16-24.79-1.2-.83-1.58-2.86-2.79-5.19,7.77,0,14.23-.25,20.32,3.44,5.82,3.53,12,6.49,18,9.64C276.54,346,279.24,352.72,282.28,359.35Z"/><path class="cls-17" d="M241.48,404l35,23.62-6.77,8.71c-8.77-6-17.84-11.13-25.38-17.94-3.06-2.76-2.79-9.21-4-14Z"/></g></g></svg>